<svg version="1" xmlns="http://www.w3.org/2000/svg" width="800" height="800" viewBox="0 0 600.000000 600.000000"><path d="M124.7 31.7c-.1.1-14.2.4-31.2.8-17.1.4-37.3.8-45 1-7.7.2-17.8.4-22.6.4l-8.5.1.1 19.9c0 11 .3 20.2.5 20.4.3.3 7.3 3.2 15.5 6.5 8.3 3.3 16.2 6.6 17.8 7.3l2.7 1.2v230.5l-18.3 6.1-18.2 6.1v21c0 13.6.3 21 1 21.1 1.3.1 143.4.1 145.5 0 1.4-.1 1.6-2.9 1.5-21.1v-21l-18.2-6.1-18.3-6.1V255h20.3c22.1-.1 27.4-.4 41.9-2.6 48.8-7.3 81.1-31.3 94.9-70.4 6.1-17 8.7-43.5 6.4-64.1-4.8-43.3-35.5-73.8-83.8-83.4-8.6-1.8-26.6-2.7-52.8-2.9-17.1 0-31.1 0-31.2.1zM180 90c22.6 4.3 36.4 22.4 37.7 49.5 1.6 32.5-14 52.2-45.9 57.5-7 1.2-39 2.1-41.5 1.2-1-.3-1.3-12.2-1.3-54.8V89h22.9c12.5 0 25.2.5 28.1 1z"/><path d="M227.7 267.7c-.3.2-56.6 1.2-70.9 1.3H144v35.8l13.8 5.6c7.5 3.1 14.3 6 15 6.5.7.4 7.1 22.1 14.3 48.2 16 58.2 46.6 169.1 52.1 189.2l4.1 14.7 29.5-.2 29.5-.3 2.2-7.5c1.3-4.1 4.8-15.8 8-26 21.8-71.3 38.2-127.2 45.6-155.2 1.8-7 3.6-12.4 4-12 .3.4 6.7 23.2 14.2 50.7 7.5 27.5 14.1 51.3 14.6 53 .6 1.6 6.2 22.1 12.6 45.5 6.4 23.4 12.3 44.5 12.9 47l1.3 4.5 30.4.3 30.4.2 8.9-30.7c4.9-17 12-41.2 15.7-53.8 3.6-12.7 11.3-38.8 16.9-58 5.6-19.3 12.4-42.7 15.2-52 2.7-9.4 5.3-18.4 5.7-20 1.3-4.9 7.1-24.5 9.2-31.1l1.9-6 14.3-5.9c7.8-3.2 14.6-6.2 15.2-6.7.6-.5 1-8.6 1-19.3l.1-18.5-23.1.4c-12.6.3-39.9.8-60.5 1.2-20.6.3-37.7.7-37.8.9-.3.3-.5 30.7-.3 34.1.1.7 6.1 3.6 13.4 6.5 7.2 2.8 14.4 5.8 15.8 6.5l2.5 1.3-12.3 46.3c-6.8 25.5-13.9 52.1-15.8 59.3-1.8 7.1-5 19.1-7 26.5-1.9 7.4-4 15.2-4.6 17.4-.6 2.1-1.2 3.6-1.4 3.4-.2-.2-1.1-2.8-1.9-5.8-.8-3-2.9-10.5-4.6-16.5-1.7-6.1-3.7-13.3-4.5-16-.7-2.8-5.7-20.5-11-39.5-12.8-45.3-15.1-53.8-18.1-64.5-1.3-5-5.7-20.7-9.8-35l-7.3-26-4.4.1c-8.4.2-34.2 1.6-36.1 1.9-1 .2-5.2.5-9.4.6-4.1.1-7.6.5-7.8.8-.3.3-3.4 10.5-6.9 22.6-3.6 12.1-11.6 38.9-17.7 59.5s-14.7 49.6-19.1 64.5c-4.4 14.8-8.4 28.3-8.9 30-.6 1.6-2.4 7.7-4.1 13.5-2.4 7.9-3.4 10-3.9 8.5-.5-1.1-2.9-10.8-5.4-21.5-9.2-38.8-19.8-84-25.2-106.3-3-12.5-5.4-23.1-5.4-23.6 0-.4 7-3.6 15.5-7.1l15.5-6.2V267l-21.6.3c-11.8.1-21.6.3-21.7.4z"/></svg>