<?xml version="1.0" standalone="no"?>
<!DOCTYPE svg PUBLIC "-//W3C//DTD SVG 20010904//EN"
 "http://www.w3.org/TR/2001/REC-SVG-20010904/DTD/svg10.dtd">
<svg version="1.0" xmlns="http://www.w3.org/2000/svg"
 width="600.000000pt" height="600.000000pt" viewBox="0 0 600.000000 600.000000"
 preserveAspectRatio="xMidYMid meet">
<metadata>
Created by potrace 1.11, written by Peter Selinger 2001-2013
</metadata>
<g transform="translate(0.000000,600.000000) scale(0.100000,-0.100000)"
fill="#000000" stroke="none">
<path d="M1247 5683 c-1 -1 -142 -4 -312 -8 -171 -4 -373 -8 -450 -10 -77 -2
-178 -4 -226 -4 l-85 -1 1 -199 c0 -110 3 -202 5 -204 3 -3 73 -32 155 -65 83
-33 162 -66 178 -73 l27 -12 0 -1153 0 -1152 -183 -61 -182 -61 0 -210 c0
-136 3 -210 10 -211 13 -1 1434 -1 1455 0 14 1 16 29 15 211 l0 210 -182 61
-183 61 0 324 0 324 203 0 c221 1 274 4 419 26 488 73 811 313 949 704 61 170
87 435 64 641 -48 433 -355 738 -838 834 -86 18 -266 27 -528 29 -171 0 -311
0 -312 -1z m553 -583 c226 -43 364 -224 377 -495 16 -325 -140 -522 -459 -575
-70 -12 -390 -21 -415 -12 -10 3 -13 122 -13 548 l0 544 229 0 c125 0 252 -5
281 -10z"/>
<path d="M2277 3323 c-3 -2 -566 -12 -709 -13 l-128 0 0 -179 0 -179 138 -56
c75 -31 143 -60 150 -65 7 -4 71 -221 143 -482 160 -582 466 -1691 521 -1892
l41 -147 295 2 295 3 22 75 c13 41 48 158 80 260 218 713 382 1272 456 1552
18 70 36 124 40 120 3 -4 67 -232 142 -507 75 -275 141 -513 146 -530 6 -16
62 -221 126 -455 64 -234 123 -445 129 -470 l13 -45 304 -3 304 -2 89 307 c49
170 120 412 157 538 36 127 113 388 169 580 56 193 124 427 152 520 27 94 53
184 57 200 13 49 71 245 92 311 l19 60 143 59 c78 32 146 62 152 67 6 5 10 86
10 193 l1 185 -231 -4 c-126 -3 -399 -8 -605 -12 -206 -3 -377 -7 -378 -9 -3
-3 -5 -307 -3 -341 1 -7 61 -36 134 -65 72 -28 144 -58 158 -65 l25 -13 -123
-463 c-68 -255 -139 -521 -158 -593 -18 -71 -50 -191 -70 -265 -19 -74 -40
-152 -46 -174 -6 -21 -12 -36 -14 -34 -2 2 -11 28 -19 58 -8 30 -29 105 -46
165 -17 61 -37 133 -45 160 -7 28 -57 205 -110 395 -128 453 -151 538 -181
645 -13 50 -57 207 -98 350 l-73 260 -44 -1 c-84 -2 -342 -16 -361 -19 -10 -2
-52 -5 -94 -6 -41 -1 -76 -5 -78 -8 -3 -3 -34 -105 -69 -226 -36 -121 -116
-389 -177 -595 -61 -206 -147 -496 -191 -645 -44 -148 -84 -283 -89 -300 -6
-16 -24 -77 -41 -135 -24 -79 -34 -100 -39 -85 -5 11 -29 108 -54 215 -92 388
-198 840 -252 1063 -30 125 -54 231 -54 236 0 4 70 36 155 71 l155 62 0 189 0
189 -216 -3 c-118 -1 -216 -3 -217 -4z"/>
</g>
</svg>
