<?xml version="1.0" encoding="utf-8"?>
<!-- Generator: Adobe Illustrator 22.0.1, SVG Export Plug-In . SVG Version: 6.00 Build 0)  -->
<svg version="1.1" id="Layer_7" xmlns="http://www.w3.org/2000/svg" xmlns:xlink="http://www.w3.org/1999/xlink" x="0px" y="0px"
	 viewBox="0 0 600 600" style="enable-background:new 0 0 600 600;" xml:space="preserve">
<style type="text/css">
	.st0{fill:#FFFFFF;}
	.st1{fill:#28AAE2;}
</style>
<rect x="-41" y="-31" class="st0" width="743" height="687"/>
<path class="st1" d="M205.4,334.9l19.8,22.7l20.5-22.6H262v7l-25.6,28.4l25.6,30.4v-65.7h46.3c8.8,0,21.6,4.1,21.6,22.2
	c0,25.5-16.9,25.8-26.1,25.8h-24v24.7h-34.3l-20.9-24.2l-21.4,24H135v-72.7L205.4,334.9L205.4,334.9L205.4,334.9z M415,334.9h58.4
	v15.7h-40.5v13.6h39.4V378h-39.4v14.4h40.5v15.2H415V334.9L415,334.9z M356.2,407.8h-17.9v-72.7h46.4c8.8,0,21.4,3.9,21.4,19.5
	c0,8.8-2.6,15.3-12.3,20.1c8.4,1,11.7,6.5,11.7,18.2l0.6,14.9h-17.4l-0.5-13.3c-0.2-6.2-2.6-12.3-8.8-12.3h-23.4L356.2,407.8
	L356.2,407.8z M585.5,363.3c22,1.1,23.8,12.1,23.8,23.8c0,13.6-11.2,20.9-22.9,20.9h-37.5v-15.6h29.2c5,0,12.3,0,12.3-7
	c0-3.3-1.3-5.4-6.6-6c-4.1-0.4-8.2-0.7-12.3-0.9c-19.8-0.5-24.4-10.4-24.4-22.4c0-13.6,9.6-21.1,21.3-21.1h37.5v15.6h-27.4
	c-6.2,0.1-13-0.7-13,6.3c0,4.5,3.3,5.3,7.5,5.8C574.5,362.8,584.2,363.3,585.5,363.3L585.5,363.3z M518.6,363.3
	c22,1.1,23.8,12.1,23.8,23.8c0,13.6-11.2,20.9-22.9,20.9H482v-15.6h29.2c4.9,0,12.4,0,12.4-7c0-3.3-1.3-5.4-6.6-6
	c-2.4-0.3-11-0.8-12.3-0.9c-19.8-0.5-24.4-10.4-24.4-22.4c0-13.6,9.6-21.1,21.3-21.1H539v15.6h-27.4c-6.3,0.1-13-0.7-13,6.3
	c0,4.5,3.3,5.3,7.6,5.8C507.6,362.8,517.3,363.3,518.6,363.3L518.6,363.3z M283.3,282.8h-17.9v-72.7h46.4c8.8,0,21.4,3.9,21.4,19.5
	c0,8.8-2.6,15.3-12.3,20.1c8.4,1,11.7,6.5,11.7,18.2l0.6,14.9h-17.4l-0.5-13.3c-0.2-6.2-2.6-12.3-8.8-12.3h-23.4L283.3,282.8
	L283.3,282.8L283.3,282.8z M342.4,282.8h17.8V210h-17.8V282.8z M196.8,210.1h58.4v15.7h-40.5v13.6h39.4v13.8h-39.4v14.4h40.5v15.3
	h-58.4V210.1z M66.5,282.8h36v-54l23.9,54h16.2l24.4-53.1v53.1h17.8v-72.7h-28.5l-21.9,48.8l-21.8-48.8h-28v70l-31.2-70H29.8
	L-2,282.8h18.8l7-16.2h35.6L66.5,282.8z M463,266.6h-35.6l-7,16.2h-23.6c-19.8,0-28.6-16.6-28.2-36.7c0.6-29.9,18.3-36.1,26.4-36.1
	h23.3v15.8h-11c-11.9,0-21.1,1.2-21.1,18.3v5.3c0.1,12.8,6.8,15.9,11.1,16.7c1.1,0.2,3,0.3,3.7,0.3l7.7,0l24.6-56.3H457l30.4,68.3
	V210h26.4l30.1,50.4V210h17.8v72.8h-24.3l-32.1-53.3v53.3h-35.2L463,266.6L463,266.6z"/>
<path class="st1" d="M606,323.7V0H-0.5v250.3L22.3,199h38.6l12.7,30.5V199h47.1l14.3,30.2l14-30.2h165.9c6.5,0,15.3,2.3,19.2,9.4
	V199h34.7v11c4.5-6.2,11.4-11,24.7-11h70.8l13,29.5V199H519l14.9,25.7V199h38.3v94.8h-41.2l-17.2-27.9v27.9h-52.3l-8.4-18.5h-16.6
	l-7.8,18.5H396c-7.1-0.6-23.7-3.6-27.3-14.6v14.6h-63v-20.8c0-2.9-2.6-6.5-6.2-6.5h-6.8v27.3H158.6v-21.4l-10.1,21.4h-27.3
	l-10.4-21.8v21.8H57.3L50.2,277H33l-7.5,16.9h-26V600H606V412.3c-3.2,3.6-8.4,6.5-16.2,6.5h-50.7v-7.1c-3.9,4.2-9.4,7.1-18.2,7.1
	H378.1V399c-0.3-2.6,1-8.1-6.2-8.1h-5.8v27.9h-38v-32.2c-3.9,6.5-12.3,6.8-17.8,7.2h-20.1v25h-50.6L224.9,401l-15.6,17.9h-86v-95.1
	h87.3l15.3,17.2l15.6-17.2h69.2c4.9,0.3,14.1,2.6,17.5,7.8v-7.8h59.1c5.2,0,15.3,2.3,19.5,9.1v-9.1h74v8.4
	c3.9-5.2,10.1-8.4,19.5-8.4h47.4v8.1c3.6-5.2,13-8.1,18.5-8.1H606L606,323.7z"/>
<path class="st0" d="M279.7,368.2H302c7.3,0,9.9-4.2,9.9-9.1c0-3.6-2.3-8.3-9.8-8.3h-22.3L279.7,368.2L279.7,368.2z M193.4,350.6
	h-40.5v13.6h39.4V378h-39.4v14.4H194l19.6-21.9l-17.4-19.8L193.4,350.6L193.4,350.6z M356.2,367.2h22.2c7.3,0,9.9-3.3,9.9-8.1
	c0-3.6-2.3-8.3-9.8-8.3h-22.3L356.2,367.2L356.2,367.2z M283.3,242.2h22.2c7.3,0,9.9-3.2,9.9-8.1c0-3.6-2.3-8.4-9.8-8.4h-22.3
	L283.3,242.2L283.3,242.2z M52.5,250.9H30.8l10.7-25.4L52.5,250.9L52.5,250.9z M445,225.5l-10.6,25.4h21.8L445,225.5L445,225.5z"/>
</svg>
