<?xml version="1.0" encoding="utf-8"?>
<!-- Generator: Adobe Illustrator 21.0.2, SVG Export Plug-In . SVG Version: 6.00 Build 0)  -->
<svg version="1.1" id="Layer_9" xmlns="http://www.w3.org/2000/svg" xmlns:xlink="http://www.w3.org/1999/xlink" x="0px" y="0px"
	 viewBox="0 0 1152 1152" style="enable-background:new 0 0 1152 1152;" xml:space="preserve">
<style type="text/css">
	.st0{fill:#FFFFFF;}
	.st1{fill:#020202;}
</style>
<rect x="-11.9" y="-19.4" class="st0" width="1180.4" height="1190.9"/>
<g>
	<g>
		<path class="st1" d="M226.6,364.4l-149.3,379h101.2l20-54.8H330l18.4,54.8h102.2l-147.8-379H226.6z M225,611.7l39.7-132.1
			l39.7,132.1H225z M998.4,632c-31.4,0-57,25.5-57,57c0,31.5,25.5,57,57,57c31.5,0,57-25.5,57-57C1055.4,657.6,1029.9,632,998.4,632
			z M810.2,743.3h85.7v-379h-85.7V743.3z M610,449.2c-102.9,0-152.4,81.4-152.4,151.1c0,69.6,49.4,151,152.4,151
			c102.9,0,152.4-81.4,152.4-151C762.3,530.6,712.9,449.2,610,449.2z M610,671.9c-36.7,0-67.8-30.2-67.8-71.7
			c0-41.5,31.1-71.7,67.8-71.7c36.7,0,67.8,30.2,67.8,71.7C677.7,641.7,646.6,671.9,610,671.9z"/>
	</g>
</g>
</svg>
