<?xml version="1.0" encoding="utf-8"?>
<!-- Generator: Adobe Illustrator 22.0.1, SVG Export Plug-In . SVG Version: 6.00 Build 0)  -->
<svg version="1.1" id="Layer_13" xmlns="http://www.w3.org/2000/svg" xmlns:xlink="http://www.w3.org/1999/xlink" x="0px" y="0px"
	 viewBox="0 0 1152 1152" style="enable-background:new 0 0 1152 1152;" xml:space="preserve">
<style type="text/css">
	.st0{fill-rule:evenodd;clip-rule:evenodd;fill:#999999;}
</style>
<path class="st0" d="M609,115.5c72.3-95.3,172.8-95.7,172.8-95.7s14.9,89.6-56.9,175.9c-76.7,92.1-163.8,77.1-163.8,77.1
	S544.7,200.3,609,115.5z"/>
<path class="st0" d="M570.3,335.5c37.2,0,106.2-51.1,196-51.1c154.6,0,215.5,110,215.5,110s-119,60.8-119,208.4
	c0,166.5,148.2,223.9,148.2,223.9s-103.6,291.6-243.5,291.6c-64.3,0-114.2-43.3-182-43.3c-69,0-137.5,44.9-182.1,44.9
	c-127.8,0-289.2-276.6-289.2-499c0-218.8,136.6-333.5,264.8-333.5C462.3,287.4,527,335.5,570.3,335.5z"/>
</svg>
