<?xml version="1.0" encoding="utf-8"?>
<!-- Generator: Adobe Illustrator 21.0.2, SVG Export Plug-In . SVG Version: 6.00 Build 0)  -->
<svg version="1.1" id="Layer_20" xmlns="http://www.w3.org/2000/svg" xmlns:xlink="http://www.w3.org/1999/xlink" x="0px" y="0px"
	 viewBox="0 0 600 600" style="enable-background:new 0 0 600 600;" xml:space="preserve">
<style type="text/css">
	.st0{fill:#3A3536;}
	.st1{fill:#D2CA2F;}
	.st2{fill:#1A6935;}
</style>
<g>
	<path class="st0" d="M22.9,114.6h32.7c19.4,0,29.1,11.5,29.1,34.5c0,11.4-3.3,20.9-10,28.5c9.6,6.3,14.5,17.6,14.5,33.7
		c0,12.4-2.8,22.3-8.5,29.7c-2.8,3.5-5.7,6-8.9,7.4s-7.4,2.1-12.8,2.1h-5.1v-34.9h4.6c2.7,0,4.6-0.5,5.7-1.5c1.1-1,1.7-2.8,1.7-5.4
		c0-4.4-2.2-6.6-6.7-6.6h-5.1v-36.2c4.9,0,7.4-2.6,7.4-7.7c0-4.7-2.2-7.1-6.7-7.1h-5v99.4H22.9V114.6z"/>
	<path class="st0" d="M98.2,114.6H125v80.7c0,6.3,0.7,10.5,2,12.6c1.3,2.1,4,3.1,8,3.1h1.4v39.4h-7.1c-9.8,0-17.4-4.3-22.8-12.9
		c-5.5-8.6-8.2-20.5-8.2-35.8V114.6z"/>
	<path class="st0" d="M178.1,182.3v35.8h-7.7v32.4h-26.8v-86.4c0-16.7,3-29.7,9.1-39c6.1-9.3,14.6-13.9,25.5-13.9
		c10.6,0,18.4,4.2,23.4,12.6c5.1,8.4,7.6,21.4,7.6,38.9v87.8h-26.8v-85.1c0-5.3-0.4-9-1.3-11c-0.8-2.1-2.3-3.1-4.5-3.1
		c-4.2,0-6.3,4.7-6.3,14.1v16.9H178.1z"/>
	<path class="st0" d="M286.4,184.1l28.1,1.1c-1.8,21.9-6.9,38.8-15.1,50.8c-8.2,11.9-18.9,17.9-32.1,17.9
		c-13.4,0-24.7-6.8-33.7-20.4c-9-13.6-13.6-30.4-13.6-50.5c0-20.2,4.6-37.3,13.8-51.1c9.2-13.8,20.6-20.7,34.1-20.7
		c13.3,0,24.4,6.8,33.3,20.3c6.2,9.4,10.5,22.4,13.1,39.1l-28.7,2.9c-3.2-14.9-9.3-22.3-18.3-22.3c-5.7,0-10.4,3-14.2,9
		c-3.7,6-5.6,13.6-5.6,22.8c0,8.9,1.8,16.2,5.5,22c3.7,5.8,8.3,8.7,13.9,8.7c5.7,0,10.2-2.6,13.6-7.7
		C283.8,201,285.7,193.6,286.4,184.1z"/>
	<path class="st0" d="M353.9,114.6v135.9h-26.8V114.6H353.9z M405.3,114.6l-23.8,61.6l23.6,74.3h-30.1l-20.4-75.1l23.1-60.8H405.3z"
		/>
	<path class="st0" d="M456.6,114v38.7c-1.9-1-3.4-1.5-4.5-1.5c-2,0-3.8,1.1-5.2,3.4c-1.5,2.3-2.2,5-2.2,8.2c0,2.7,0.8,6.2,2.4,10.4
		l2,5.4c3.7,9.7,5.5,19,5.5,28.1c0,13.2-3.1,24.4-9.3,33.5s-13.8,13.7-22.8,13.7c-4.3,0-8.6-1.5-12.8-4.5V210
		c2.6,2.5,4.8,3.7,6.8,3.7c2.3,0,4.3-1,5.8-3c1.6-2,2.3-4.6,2.3-7.6c0-2-1.3-6.3-3.8-13c-4-10.6-6-21.2-6-31.9
		c0-12.8,3-23.8,9.1-33.1c6.1-9.3,13.3-13.9,21.7-13.9C449.4,111.2,453.1,112.1,456.6,114z"/>
</g>
<g>
	<path class="st1" d="M96.4,412.4c0,12.6-2.3,22.9-6.8,30.4c-3.2,5.1-5.9,7.7-7.9,7.7h-57c-1.6,0-2.3-1.5-2.3-4.3
		c0-2.1,0.5-4.9,1.3-8.4c3.2-13.5,4.9-25.7,4.9-36.8v-77.7c0-7.9-0.7-15.8-2.2-24c-1.2-6.2-2.3-10.3-3.2-12.4c-0.6-1.5-1-2.8-1-4.3
		c0-2.4,1-3.4,2.8-3.4h64.6c1.4,0,2.2,0.6,2.2,1.9c0,0.9-1.7,5.1-2,6c-0.4,1.3-0.5,2.8-0.5,4.5c0,0.4,0.5,4.1,1.3,10.9
		c1,6.6,1.4,11.8,1.4,15c-0.2,4.1-0.7,7.9-1.6,11.8c-2,9-5.7,16.5-10.9,22.7c3.2,7.9,6.6,16.1,9.9,24
		C94.1,388.6,96.4,400.6,96.4,412.4z M68.9,398.5c0-18.8-3.1-28.3-9.5-28.3c-2.8,0-5,2.1-6.8,6.2c-2.3,5.1-3.4,12.6-3.4,22.7
		c0,16.3,3.1,24.4,9.5,24.4c2.8,0,5-1.9,6.8-5.8C67.8,413.3,68.9,406.8,68.9,398.5z M66.6,315.2c0-8.6-1.9-12.8-5.7-12.8
		c-2.3,0-4.7,2.6-7.2,7.7c-2.9,6-4.3,13.3-4.3,21.6V348C60,339,65.8,328,66.6,315.2z"/>
	<path class="st1" d="M175.1,432.7c0,7.9-0.7,13.1-2,15.6c-0.7,1.5-1.9,2.1-3.6,2.1h-65.2c-2.3,0-3.5-1.5-3.5-4.3
		c0-1.3,0.2-2.8,0.6-4.7c2-10.5,3.1-37.3,3.1-80.3c0-44.5-0.8-69.4-2.6-74.3c-0.7-1.9-1.1-3.6-1.1-5.1c0-1.7,0.6-2.6,1.7-2.6h26.4
		c1.1,0,1.7,0.9,1.7,2.4c0,1.3-0.4,3-1,5.4c-1.7,6.6-2.5,31.3-2.5,74.1c0,28.7,1.3,47.7,3.8,57.4c1.8,7.1,5.3,10.7,10.4,10.7
		c2.9,0,5.4-1.9,7.4-5.6c2-3.9,3.1-7.9,3.1-12.2c0-7.5-3.1-12.4-5.4-12.4c-1,0-2,3.2-4.4,3.2c-2.5,0-3.8-3.6-3.8-10.9
		c0-11.6,0.5-19.1,1.6-22.3c1.1-3.4,3.5-5.1,7.4-5.1c7.5,0,14,7.1,19.5,21C172.4,398.7,175.1,414.8,175.1,432.7z"/>
	<path class="st1" d="M248.5,396.8c0,12.2-1.4,24.4-4.3,36.2c-2.9,11.8-5.6,17.6-8.4,17.6h-46.1c-2.9,0-5.5-5.1-8-15.4
		c-2.6-11.1-4-24.4-4-39.6c0-11.6,1.4-28,4.4-49.7c3-21.6,4.4-35.5,4.4-41.8c0-7.3-0.7-13.5-2.3-18.6c-0.5-1.5-0.6-3-0.5-4.3
		c0.2-1.3,0.8-1.9,1.7-1.9h56.9c0.6,0,0.8,0.4,1,1.3c0.1,0.9-0.1,1.7-0.5,2.8c-0.8,1.9-1.4,3.2-1.6,3.9c-0.6,3.4-1,9.4-1,18.2
		c0,10.5,1.3,24,4.1,40.9C247.2,362.9,248.5,379.9,248.5,396.8z M223.9,370.4c0-22.1-1.2-38.8-3.5-50.1c-1.8-9.4-4.2-14.1-7.1-14.1
		c-2.3,0-4.4,4.1-6.5,12.2c-2.8,11.3-4.2,27.8-4.2,49.9c0,22.3,1.2,37.5,3.5,45.8c1.6,5.4,4,7.9,7.1,7.9c3.1,0,5.4-2.6,6.9-7.7
		C222.7,406.4,223.9,391.9,223.9,370.4z"/>
	<path class="st1" d="M329.8,285c-4.9,11.8-7.4,45.8-7.4,101.7c0,16.9,1.4,35.8,4.2,56.5c0.1,1.1,0.2,2.1,0.2,3
		c0,2.8-0.7,4.3-2.3,4.3h-24.7c-1.6-3.9-3.6-10.7-6.1-20.8c-2.8-9-5.5-21-8.3-36c-3.8-21-7.5-39.2-11-54.6
		c-0.8,8.1-1.3,18.8-1.4,31.9c-0.2,5.4-0.4,10.3-0.4,15.2c0,16.9,1.4,30.8,4.3,41.5c1.1,3.9,3.1,8.8,6,15c0.8,1.7,1.3,3.2,1.3,4.7
		c0,1.9-0.6,3-1.8,3h-29.2c-1.6,0-2.4-2.1-2.4-6.2c0-0.6,0.7-6.6,2.2-18c1.7-13.5,3-26.1,4-37.9c1.3-17.8,2-34.7,2-50.7
		c0-21.2-1.3-37.3-4-48.4c-0.7-2.8-1.1-5.1-1.1-6.6c0-2.4,0.6-3.4,1.9-3.4h31.5c6.6,39.8,13.1,70.2,19.4,91.4
		c0.8-4.5,1.2-10.1,1.2-16.7c0-9.6-0.7-20.8-2.2-33.4c-1.7-15-3.8-26.3-6.3-33.8c-0.8-2.4-1.2-4.3-1.2-5.4c0-1.5,0.7-2.1,2.2-2.1
		h29.3c0.7,0,1.1,0.6,1.1,1.7S330.5,283.5,329.8,285z"/>
	<path class="st1" d="M412.9,371.7c0,13.9-1.4,27.6-4.4,40.9c-2.4,10.7-5.4,19.9-9.1,27.6c-3.2,6.9-5.7,10.3-7.5,10.3h-53.4
		c-1.3,0-2-1.3-2-3.6c0-1.1,0.1-1.9,0.5-3c4.7-16.9,7.1-42,7.1-75.4c0-21.8-0.8-40.9-2.5-57.2c-1.3-12-2.6-20.1-4-24.2
		c-0.6-1.7-1-3.2-1-4.7c0-2.1,0.6-3.2,1.9-3.2h48.2c6.5,0,12.5,9.8,18,29.5C410.1,328.3,412.9,349.2,412.9,371.7z M386.5,364.7
		c0-39.8-4.1-59.7-12.2-59.7c-7.1,0-10.7,20.3-10.7,60.8c0,21.8,0.7,36.6,2,44.3c1.3,7.5,4,11.3,7.8,11.3c3.2,0,6-3.2,8.1-9.4
		C384.9,402.6,386.5,386.7,386.5,364.7z"/>
	<path class="st1" d="M484.2,444.7c0,1.1-0.6,3-1.7,5.8h-67.7c4.4-13.5,6.9-42.6,7.3-87.6c0-34.3-1.9-59.7-5.6-76.4
		c-0.4-1.5-0.5-2.6-0.5-3.6c0-2.4,1.1-3.6,3.1-3.6H477c2.9,0,4.3,9.6,4.3,29.1c0,17.6-1.4,26.3-4.3,26.3c-2.2,0-4.8-5.8-7.8-17.3
		c-2.6-10.1-6.6-15-11.9-15c-10.3,1.9-15.5,16.3-15.5,42.8c4.3-10.1,10.4-15.6,18.3-16.5c5,0,8.3,3,9.6,9.2
		c0.7,3.2,1.1,9.6,1.1,19.3c0,15.2-1.3,22.9-4.1,22.9c-0.7,0-2.2-2.4-4.3-7.3c-2-4.9-4.3-7.3-6.6-7.3c-3.4,0-6.5,3-9.3,9.2
		c-3.1,7.1-4.7,15.6-4.7,26.1c0,10.1,1.6,17.6,4.6,22.9c2.3,3.9,4.7,5.8,7.3,5.8c3.7,0,7.7-5.8,7.7-12.6c0-2.6-0.6-5.6-1.7-9.2
		s-1.7-5.8-1.7-6.4c0-1.9,0.8-3.4,2.5-4.9c2-1.9,4.9-2.8,8.6-2.8c9.6,0,14.4,5.4,14.4,15.8c0,1.7-0.1,4.7-0.4,8.8
		c-0.1,4.1-0.2,7.3-0.2,9.6c0,2.4,0.2,5.4,0.6,9.4C483.9,441.3,484.2,443.7,484.2,444.7z"/>
	<path class="st1" d="M556.1,413c0,11.3-1,20.6-2.9,27.8c-1.6,6.4-3.5,9.6-5.5,9.6h-55.6c-1.6,0-2.5-1.1-2.9-3
		c-0.1-0.6-0.1-2.8-0.1-6.2c0-1.1,0.2-4.5,0.8-10.7c0.6-6.2,1-11.3,1-15c0-3.6-0.4-7.9-1.1-13.3c-0.6-5.4-1-8.8-1-10.7
		c0-6,3.5-9,10.5-9c6.8,0,11.3,1.3,13.3,3.9c1,1.1,1.4,3,1.4,5.8c0,0.6-0.5,3.2-1.3,8.1c-0.8,4.9-1.2,8.3-1.2,10.7
		c0,3.6,0.6,7.1,1.9,10.7c1.6,4.3,3.6,6.4,6,6.4c2.8,0,5.3-2.4,7.5-7.3c2.4-5.4,3.6-12,3.6-19.9c0-12.6-2.5-22.7-7.5-30.2
		c-4.2-6.2-8.6-9.4-13.4-9.4c-3,0-5.6,1.7-8,4.9c-2.3,3.2-3.8,4.7-4.4,4.7c-1.8,0-3.8-2.6-6.1-7.7c-2.5-6-3.7-12.6-3.7-20.1
		c0-5.8,0.7-14.1,2-25.1c1.4-10.9,2.2-18,2.2-21c0-8.4-1.1-13.7-1.1-14.3c0-2.4,1.3-3.6,3.8-3.6h53.2c1.8,0,3,1.1,3.4,3.2
		c0.1,0.9,0.2,3.4,0.2,7.9c0,2.4-0.2,5.8-0.6,10.3c-0.4,4.5-0.5,6.9-0.5,7.5c0,1.5,1.1,9,1.1,14.3c0,6.6-3.4,9.8-10.2,9.8
		c-8.7,0-13.1-2.6-13.1-7.9c0-1.7,2.2-7.3,2.2-11.6c0-6.2-4.6-10.7-8.9-10.7c-2.3,0-4.4,1.3-6.2,4.1c-2.2,3.2-3.2,7.7-3.2,13.1
		c0,6.9,3.1,12.6,9.3,17.6c4.8,3.2,9.6,6.4,14.3,9.6c5.2,4.5,9.3,10.9,12.8,19.3C553.5,378.4,556.1,394.2,556.1,413z"/>
</g>
<g>
	<path class="st2" d="M518.1,198.1c32.4-0.5,39.8,14,40.1,31.7c0.3,17.3-6.7,32.1-39.1,32.6c-25.8,0.4-33.5-14.1-33.8-31.5
		C485,213.2,492.2,198.5,518.1,198.1z M518.4,219.2c-22.8,0.3-27.6,4.2-27.5,11.5c0.1,7,5,10.8,27.8,10.4
		c29.5-0.4,33.9-4.3,33.8-11.4C552.4,222.5,547.9,218.8,518.4,219.2z"/>
	<path class="st2" d="M488.8,161.1l0-0.5c-2.6-4.8-4.7-9.4-4.9-18.6c-0.2-13.6,4.3-22.6,13-22.7l52.4-0.8c0.5,0,0.9,0,1.2-0.6
		l4.5-8.5c0.3-0.5,0.6-1.1,0.9-1.1c0.4,0,0.5,0.8,0.5,1.6l0.5,35.8c0,1.1-0.1,1.6-0.5,1.6c-0.3,0-0.7-0.5-0.9-1.1l-4.7-8.3
		c-0.3-0.5-0.7-0.5-1.2-0.5l-52.5,0.8c-5,0.1-7.6,3.1-7.5,9.3c0.1,6.5,4.5,13.5,11.6,13.4l48.7-0.7c0.5,0,0.9,0,1.2-0.3l4.5-8.5
		c0.3-0.8,0.6-1.4,0.9-1.4c0.4,0,0.5,0.8,0.5,1.6l0.5,35.8c0,1.1-0.1,1.6-0.5,1.6c-0.3,0-0.7-0.3-0.9-1.1l-4.7-8.3
		c-0.3-0.5-0.7-0.5-1.2-0.5l-59.4,0.9c-0.5,0-0.8,0.3-1,0.8l-3.6,8.2c-0.4,0.5-0.8,1.1-1,1.1c-0.4,0-0.5-0.8-0.5-1.6l-0.4-26
		c0-1.1,0.2-1.4,0.8-1.4L488.8,161.1z"/>
</g>
</svg>
