<?xml version="1.0" encoding="utf-8"?>
<!-- Generator: Adobe Illustrator 21.0.2, SVG Export Plug-In . SVG Version: 6.00 Build 0)  -->
<svg version="1.1" id="Layer_1" xmlns="http://www.w3.org/2000/svg" xmlns:xlink="http://www.w3.org/1999/xlink" x="0px" y="0px"
	 viewBox="0 0 600 600" style="enable-background:new 0 0 600 600;" xml:space="preserve">
<style type="text/css">
	.st0{fill:#A2A2A2;}
	.st1{fill:#567EBF;}
	.st2{fill:#2B449C;}
	.st3{fill:#34499E;}
</style>
<g>
</g>
<g>
	<path class="st0" d="M162,298.3c29.3,0,58.7,0,92.6,0c-22.3,22.1-40.9,41.7-60.8,59.9c-10.2,9.3-10.4,15.6-1.9,26.6
		c53.5,69.1,163.4,69.2,216-1.1c8.4-11.3,12.6-11.7,22.3-1.5c24.1,25.6,48.8,50.7,74.7,74.6c11,10.2,9.1,16.6,0.4,26.1
		c-43.2,47.4-96.2,78.1-159.4,88c-93.7,14.6-174.9-12.5-242.9-78.9c-7-6.9-10.9-21.2-21.4-19.2c-8.1,1.6-14.4,12.6-21.4,19.5
		c-9.3,9.2-18.6,18.6-27.9,27.8c-2.2,2.2-4.3,5.3-8.3,3.7c0-75.1,0-150.2,0-225.3C70,298.4,116,298.3,162,298.3z"/>
	<path class="st1" d="M162,298.3c-46,0.1-92,0.1-138,0.2c0-10.3,0-20.7,0-31c5.8-8.4,4.7-18.5,6.9-27.8
		c13.7-59.3,42.8-109.4,89.3-148.9c7.8-6.7,9-10.6,0.9-18.3c-17-16-32.8-33.3-49.2-50c76,0,152.1,0,228.1,0c0,46,0,92.1,0.1,138.1
		c0,29.3,0,58.6,0,92.1c-22.7-23-43-42.8-62.4-63.5c-7.5-8-12.6-7.7-20.9-1.2C181.3,216.4,162.3,252.6,162,298.3z"/>
	<path class="st2" d="M300.1,160.6c0-46,0-92.1-0.1-138.1c9.4,0,18.8,0,28.2,0c0.5,0.7,0.9,2,1.5,2.1
		c73.3,8.9,133.9,41.3,181.5,97.8c4.9,5.8,7.7,4.1,12.1-0.3c15.5-15.6,31.3-30.8,47-46.2c4.8,4,2.9,9.6,2.9,14.5
		c0.1,69.2,0.1,138.4,0.1,207.6c-74.4,0-148.7,0-226.9,0c22.7-22.4,42.8-43,63.9-62.5c7.9-7.3,6.7-12,1-19.3
		C382.8,180.1,346.3,160.8,300.1,160.6z"/>
	<path class="st3" d="M570.2,75.9c1.2-2.6,3-4.6,5.8-5.5c0,76,0,152.1,0,228.1c-0.9-0.2-1.9-0.3-2.8-0.5c0-69.2,0.1-138.4-0.1-207.6
		C573.1,85.5,575,80,570.2,75.9z"/>
</g>
</svg>
