<?xml version="1.0" encoding="utf-8"?>
<!-- Generator: Adobe Illustrator 22.0.1, SVG Export Plug-In . SVG Version: 6.00 Build 0)  -->
<svg version="1.1" id="Layer_1" xmlns="http://www.w3.org/2000/svg" xmlns:xlink="http://www.w3.org/1999/xlink" x="0px" y="0px"
	 viewBox="0 0 600 600" style="enable-background:new 0 0 600 600;" xml:space="preserve">
<style type="text/css">
	.st0{fill:#D9A929;}
	.st1{fill:#F8C12D;}
	.st2{fill:#3B4F59;}
	.st3{fill:#3D525C;}
	.st4{fill:#C59B2D;}
	.st5{enable-background:new    ;}
	.st6{clip-path:url(#SVGID_2_);enable-background:new    ;}
	.st7{fill:#93742C;}
	.st8{fill:#97772C;}
	.st9{fill:#9A7A2D;}
	.st10{fill:#9F7E2D;}
	.st11{fill:#A3812E;}
	.st12{fill:#A7842E;}
	.st13{fill:#AA872E;}
	.st14{fill:#AE8A2F;}
	.st15{fill:#B28D2E;}
	.st16{fill:#B6902E;}
	.st17{fill:#BB932E;}
	.st18{fill:#BF962E;}
	.st19{fill:#C3992D;}
	.st20{fill:#C79C2D;}
	.st21{fill:#CB9F2C;}
	.st22{fill:#DECA72;}
	.st23{fill:#FFEEB2;}
	.st24{fill:#CCBA6A;}
	.st25{clip-path:url(#SVGID_4_);enable-background:new    ;}
	.st26{fill:#D0A42A;}
	.st27{fill:#D4A72A;}
	.st28{fill:#DCAC2A;}
	.st29{fill:#E1B02A;}
	.st30{fill:#E4B22B;}
	.st31{fill:#E9B52A;}
	.st32{fill:#ECB829;}
	.st33{fill:#F1BA2B;}
	.st34{fill:#F7C02D;}
	.st35{fill:#F9C74D;}
	.st36{fill:#FAC959;}
	.st37{fill:#FACB62;}
	.st38{fill:#FACD68;}
	.st39{fill:#FACF6F;}
	.st40{clip-path:url(#SVGID_6_);enable-background:new    ;}
	.st41{clip-path:url(#SVGID_8_);enable-background:new    ;}
	.st42{fill:#848484;}
	.st43{fill:#888888;}
	.st44{fill:#8C8C8C;}
	.st45{fill:#919090;}
	.st46{fill:#959494;}
	.st47{fill:#989798;}
	.st48{fill:#9B9C9C;}
	.st49{fill:#9F9F9F;}
	.st50{fill:#A4A4A5;}
	.st51{fill:#AAAAAA;}
	.st52{fill:#AEAEAE;}
	.st53{fill:#B2B2B2;}
	.st54{fill:#B5B6B6;}
	.st55{fill:#BABABA;}
	.st56{fill:#BDBDBD;}
	.st57{clip-path:url(#SVGID_10_);enable-background:new    ;}
	.st58{clip-path:url(#SVGID_12_);enable-background:new    ;}
	.st59{fill:#B7B7B8;}
	.st60{fill:#CACACA;}
	.st61{fill:#F2F2F2;}
	.st62{clip-path:url(#SVGID_14_);enable-background:new    ;}
	.st63{fill:#C2C1C1;}
	.st64{fill:#C6C5C5;}
	.st65{fill:#C9C9C9;}
	.st66{fill:#CECECD;}
	.st67{fill:#D3D3D3;}
	.st68{fill:#D7D6D6;}
	.st69{fill:#DBDADA;}
	.st70{fill:#DFDFDE;}
	.st71{fill:#E2E2E2;}
	.st72{fill:#E6E6E5;}
	.st73{fill:#E9E8E8;}
	.st74{fill:#E9E8E9;}
	.st75{fill:#EAEAEA;}
	.st76{fill:#F8A823;}
	.st77{fill:#63808E;}
	.st78{fill:#597480;}
	.st79{fill:#465B67;}
	.st80{fill:#526B77;}
	.st81{fill:#3D535D;}
	.st82{fill:#6C858F;}
	.st83{fill:#BECC34;}
	.st84{fill:#CFDAE0;}
	.st85{fill:#91A4AD;}
	.st86{clip-path:url(#SVGID_16_);enable-background:new    ;}
	.st87{fill:#138140;}
	.st88{fill:#4EB748;}
	.st89{fill:#FDD838;}
	.st90{fill:#E54F3D;}
	.st91{fill:#C32328;}
	.st92{fill:#0B9146;}
	.st93{fill:#4DB749;}
	.st94{fill:#1E9C48;}
	.st95{fill:#807931;}
</style>
<g>
	<g>
		<g>
			<polygon class="st0" points="316.7,134.1 319.2,132.6 498.1,235.8 495.6,237.4 			"/>
		</g>
		<g>
			<path class="st1" d="M316.6,151.9v-17.8l178.9,103.3v17.8c0,4.8-3.5,6.7-7.7,4.3l-163.7-94.5
				C319.9,162.6,316.6,156.7,316.6,151.9z"/>
		</g>
		<g>
			<polygon class="st2" points="495.6,216.3 495.6,237.4 316.7,134.1 316.7,113.1 			"/>
		</g>
		<g>
			<polygon class="st3" points="316.7,113.1 319.3,111.6 498.2,214.9 495.6,216.3 			"/>
		</g>
		<g>
			<polygon class="st4" points="331.3,90.1 333.9,88.6 333.8,108.1 331.3,109.5 			"/>
		</g>
		<g class="st5">
			<g>
				<defs>
					<path id="SVGID_1_" d="M319.1,39.2l2.6-1.6c1.4-0.8,3.4-0.7,5.4,0.5l-2.6,1.6C322.5,38.6,320.5,38.5,319.1,39.2z"/>
				</defs>
				<clipPath id="SVGID_2_">
					<use xlink:href="#SVGID_1_"  style="overflow:visible;"/>
				</clipPath>
				<g class="st6">
					<path class="st7" d="M319.1,39.2l2.6-1.6c0.2-0.1,0.4-0.2,0.6-0.2l-2.6,1.6C319.6,39.1,319.3,39.1,319.1,39.2"/>
					<path class="st8" d="M319.7,39l2.6-1.6c0.1-0.1,0.4-0.1,0.5-0.1l-2.6,1.6C320.1,38.9,319.9,38.9,319.7,39"/>
					<path class="st9" d="M320.3,38.9l2.6-1.6c0.1,0,0.2,0,0.5-0.1l-2.6,1.6C320.5,38.7,320.4,38.9,320.3,38.9"/>
					<path class="st10" d="M320.7,38.7l2.6-1.6c0.1,0,0.2,0,0.4,0l-2.6,1.6C321,38.7,320.9,38.7,320.7,38.7"/>
					<path class="st11" d="M321.1,38.7l2.6-1.6c0.1,0,0.2,0,0.4,0l-2.6,1.6C321.4,38.7,321.3,38.7,321.1,38.7"/>
					<path class="st12" d="M321.5,38.7l2.6-1.6c0.1,0,0.2,0,0.4,0l-2.6,1.6C321.7,38.7,321.6,38.7,321.5,38.7"/>
					<path class="st13" d="M321.9,38.7l2.6-1.6c0.1,0,0.2,0,0.4,0l-2.6,1.6C322,38.9,321.9,38.9,321.9,38.7"/>
					<path class="st14" d="M322.1,38.9l2.6-1.6c0.1,0,0.2,0,0.4,0.1l-2.6,1.6C322.3,38.9,322.2,38.9,322.1,38.9"/>
					<path class="st15" d="M322.5,39l2.6-1.6c0.1,0,0.2,0,0.4,0.1l-2.6,1.6C322.7,39,322.6,39,322.5,39"/>
					<path class="st16" d="M322.8,39l2.6-1.6c0.1,0,0.2,0.1,0.4,0.1l-2.6,1.6C322.9,39.1,322.8,39,322.8,39"/>
					<path class="st17" d="M323,39.1l2.6-1.6c0.1,0,0.2,0.1,0.4,0.1l-2.6,1.6C323.3,39.2,323.2,39.1,323,39.1"/>
					<path class="st18" d="M323.4,39.2l2.6-1.6c0.1,0,0.2,0.1,0.4,0.1l-2.6,1.6C323.5,39.3,323.4,39.2,323.4,39.2"/>
					<path class="st19" d="M323.6,39.3l2.6-1.6c0.1,0,0.2,0.1,0.4,0.1l-2.6,1.6C323.9,39.5,323.8,39.3,323.6,39.3"/>
					<path class="st20" d="M324,39.5l2.6-1.6c0.1,0,0.2,0.1,0.4,0.1l-2.6,1.6C324.1,39.6,324.1,39.6,324,39.5"/>
					<path class="st21" d="M324.2,39.7l2.6-1.6c0.1,0,0.1,0.1,0.2,0.1l-2.6,1.6C324.5,39.7,324.4,39.7,324.2,39.7"/>
				</g>
			</g>
		</g>
		<g>
			<polygon class="st0" points="331.3,109.5 333.8,108.1 422.3,159.1 419.7,160.6 			"/>
		</g>
		<g>
			<polygon class="st22" points="331.3,90.1 333.9,88.6 422.3,139.7 419.7,141.1 			"/>
		</g>
		<g>
			<polygon class="st23" points="419.7,141.1 419.7,160.6 331.3,109.5 331.3,90.1 			"/>
		</g>
		<g>
			<polygon class="st24" points="419.7,141.1 422.3,139.7 422.3,159.1 419.7,160.6 			"/>
		</g>
		<g class="st5">
			<g>
				<defs>
					<path id="SVGID_3_" d="M448.9,146.9l2.6-1.6c0,2,1.4,4.4,3.1,5.4l-2.6,1.6C450.2,151.3,448.9,148.9,448.9,146.9z"/>
				</defs>
				<clipPath id="SVGID_4_">
					<use xlink:href="#SVGID_3_"  style="overflow:visible;"/>
				</clipPath>
				<g class="st25">
					<path class="st17" d="M448.9,146.9l2.6-1.6v0.1l-2.6,1.6V146.9"/>
					<path class="st18" d="M448.9,147l2.6-1.6v0.1l-2.6,1.6C448.9,147.1,448.9,147.1,448.9,147"/>
					<path class="st19" d="M448.9,147.1l2.6-1.6v0.1l-2.6,1.6C448.9,147.2,448.9,147.2,448.9,147.1"/>
					<path class="st20" d="M448.9,147.4l2.6-1.6v0.1l-2.6,1.6C448.9,147.5,448.9,147.4,448.9,147.4"/>
					<path class="st21" d="M448.9,147.5l2.6-1.6v0.1l-2.6,1.6V147.5"/>
					<path class="st26" d="M448.9,147.6l2.6-1.6v0.1l-2.6,1.6C448.9,147.7,448.9,147.7,448.9,147.6"/>
					<path class="st27" d="M448.9,147.8l2.6-1.6v0.1l-2.6,1.6C449,148,449,147.8,448.9,147.8"/>
					<path class="st0" d="M449,148l2.6-1.6v0.1l-2.6,1.6C449,148.1,449,148,449,148"/>
					<path class="st28" d="M449,148.1l2.6-1.6v0.1l-2.6,1.6C449,148.2,449,148.2,449,148.1"/>
					<path class="st29" d="M449,148.3l2.6-1.6v0.1l-2.6,1.6C449.1,148.4,449.1,148.3,449,148.3"/>
					<path class="st30" d="M449.1,148.4l2.6-1.6v0.1l-2.6,1.6C449.1,148.6,449.1,148.6,449.1,148.4"/>
					<path class="st31" d="M449.1,148.7l2.6-1.6v0.1l-2.6,1.6C449.3,148.7,449.1,148.7,449.1,148.7"/>
					<path class="st32" d="M449.3,148.8l2.6-1.6v0.1l-2.6,1.6C449.3,148.9,449.3,148.8,449.3,148.8"/>
					<path class="st33" d="M449.3,148.9l2.6-1.6c0,0,0,0.1,0.1,0.1l-2.6,1.6C449.3,149,449.3,149,449.3,148.9"/>
					<path class="st34" d="M449.4,149l2.6-1.6c0,0,0,0.1,0.1,0.1l-2.6,1.6C449.4,149.1,449.4,149.1,449.4,149"/>
					<path class="st35" d="M449.4,149.3l2.6-1.6c0,0,0,0.1,0.1,0.1l-2.6,1.6C449.5,149.3,449.4,149.3,449.4,149.3"/>
					<path class="st36" d="M449.5,149.4l2.6-1.6c0,0,0,0.1,0.1,0.1l-2.6,1.6C449.5,149.5,449.5,149.4,449.5,149.4"/>
					<path class="st37" d="M449.5,149.5l2.6-1.6c0,0.1,0.1,0.1,0.1,0.2l-2.6,1.6C449.6,149.6,449.6,149.6,449.5,149.5"/>
					<path class="st38" d="M449.6,149.7l2.6-1.6c0,0.1,0.1,0.2,0.1,0.2l-2.6,1.6C449.7,149.9,449.7,149.9,449.6,149.7"/>
					<path class="st39" d="M449.9,150l2.6-1.6c0.1,0.1,0.1,0.2,0.2,0.4l-2.6,1.6C450,150.2,449.9,150.1,449.9,150"/>
					<path class="st38" d="M450,150.3l2.6-1.6c0.1,0.1,0.1,0.2,0.2,0.2l-2.6,1.6C450.2,150.6,450.1,150.5,450,150.3"/>
					<path class="st37" d="M450.2,150.7l2.6-1.6c0,0.1,0.1,0.1,0.1,0.2l-2.6,1.6C450.3,150.8,450.3,150.7,450.2,150.7"/>
					<path class="st36" d="M450.3,150.8l2.6-1.6l0.1,0.1l-2.6,1.6C450.5,150.9,450.5,150.9,450.3,150.8"/>
					<path class="st35" d="M450.5,150.9l2.6-1.6l0.1,0.1l-2.6,1.6C450.6,151.1,450.6,151.1,450.5,150.9"/>
					<path class="st34" d="M450.6,151.2l2.6-1.6l0.1,0.1l-2.6,1.6C450.7,151.2,450.7,151.2,450.6,151.2"/>
					<path class="st33" d="M450.7,151.3l2.6-1.6l0.1,0.1l-2.6,1.6C450.8,151.3,450.8,151.3,450.7,151.3"/>
					<path class="st32" d="M450.8,151.4l2.6-1.6l0.1,0.1l-2.6,1.6C450.9,151.5,450.9,151.4,450.8,151.4"/>
					<path class="st31" d="M450.9,151.5l2.6-1.6l0.1,0.1l-2.6,1.6C451.1,151.7,451.1,151.5,450.9,151.5"/>
					<path class="st30" d="M451.2,151.7l2.6-1.6l0.1,0.1l-2.6,1.6C451.2,151.8,451.2,151.7,451.2,151.7"/>
					<path class="st29" d="M451.3,151.8l2.6-1.6l0.1,0.1l-2.6,1.6C451.4,151.9,451.3,151.8,451.3,151.8"/>
					<path class="st28" d="M451.4,151.9l2.6-1.6l0.1,0.1l-2.6,1.6C451.5,151.9,451.4,151.9,451.4,151.9"/>
					<path class="st0" d="M451.5,152l2.6-1.6l0.1,0.1l-2.6,1.6C451.7,152,451.5,152,451.5,152"/>
					<path class="st27" d="M451.7,152.1l2.6-1.6c0,0,0.1,0,0.1,0.1l-2.6,1.6C451.8,152.1,451.8,152.1,451.7,152.1"/>
					<path class="st26" d="M451.8,152.1l2.6-1.6c0,0,0.1,0,0.1,0.1l-2.6,1.6C451.9,152.3,451.9,152.3,451.8,152.1"/>
					<path class="st21" d="M451.9,152.3l2.6-1.6l0,0L451.9,152.3C452,152.3,452,152.3,451.9,152.3"/>
				</g>
			</g>
		</g>
		<g>
			<polygon class="st4" points="448.9,128.3 451.5,126.9 451.4,145.3 448.9,146.9 			"/>
		</g>
		<g class="st5">
			<g>
				<defs>
					<path id="SVGID_5_" d="M451.5,126.9c-1.3,0.7-1.3,0.7-2.6,1.6c0-1,0.4-1.7,1-2l2.6-1.6C451.9,125.1,451.5,125.8,451.5,126.9z"
						/>
				</defs>
				<clipPath id="SVGID_6_">
					<use xlink:href="#SVGID_5_"  style="overflow:visible;"/>
				</clipPath>
				<g class="st40">
					<path class="st7" d="M449.9,126.3l2.6-1.6c-0.2,0.1-0.4,0.4-0.6,0.5l-2.6,1.6C449.4,126.6,449.6,126.4,449.9,126.3"/>
					<path class="st8" d="M449.3,126.9l2.6-1.6c0,0.1-0.1,0.1-0.1,0.2l-2.6,1.6C449.3,127,449.3,126.9,449.3,126.9"/>
					<path class="st9" d="M449.1,127.1l2.6-1.6c0,0,0,0.1-0.1,0.1l-2.6,1.6C449.1,127.2,449.1,127.1,449.1,127.1"/>
					<path class="st10" d="M449.1,127.2l2.6-1.6v0.1l-2.6,1.6C449,127.4,449,127.2,449.1,127.2"/>
					<path class="st11" d="M449,127.4l2.6-1.6v0.1l-2.6,1.6C449,127.5,449,127.5,449,127.4"/>
					<path class="st12" d="M449,127.6l2.6-1.6v0.1l-2.6,1.6C449,127.7,449,127.6,449,127.6"/>
					<path class="st13" d="M449,127.7l2.6-1.6v0.1l-2.6,1.6C448.9,127.8,448.9,127.7,449,127.7"/>
					<path class="st14" d="M448.9,127.8l2.6-1.6v0.1l-2.6,1.6C448.9,128,448.9,128,448.9,127.8"/>
					<path class="st15" d="M448.9,128.1l2.6-1.6v0.1l-2.6,1.6C448.9,128.1,448.9,128.1,448.9,128.1"/>
					<path class="st16" d="M448.9,128.2l2.6-1.6v0.1l-2.6,1.6C448.9,128.3,448.9,128.2,448.9,128.2"/>
					<polyline class="st17" points="448.9,128.3 451.5,126.8 451.5,126.9 448.9,128.3 448.9,128.3 					"/>
				</g>
			</g>
		</g>
		<g class="st5">
			<g>
				<defs>
					<path id="SVGID_7_" d="M449.9,126.3l2.6-1.6c0.6-0.4,1.3-0.2,2.3,0.2l-2.6,1.6C451.2,126,450.3,126,449.9,126.3z"/>
				</defs>
				<clipPath id="SVGID_8_">
					<use xlink:href="#SVGID_7_"  style="overflow:visible;"/>
				</clipPath>
				<g class="st41">
					<path class="st42" d="M449.9,126.3l2.6-1.6c0.1,0,0.1-0.1,0.2-0.1l-2.6,1.6C450,126.3,449.9,126.3,449.9,126.3"/>
					<path class="st43" d="M450.1,126.2l2.6-1.6c0.1,0,0.1,0,0.2-0.1l-2.6,1.6C450.2,126.2,450.1,126.2,450.1,126.2"/>
					<path class="st44" d="M450.3,126.2l2.6-1.6c0,0,0.1,0,0.2,0l-2.6,1.6C450.5,126.2,450.3,126.2,450.3,126.2"/>
					<path class="st45" d="M450.5,126.2l2.6-1.6h0.1l-2.6,1.6C450.6,126.2,450.6,126.2,450.5,126.2"/>
					<path class="st46" d="M450.7,126.2l2.6-1.6h0.1l-2.6,1.6C450.7,126.2,450.7,126.2,450.7,126.2"/>
					<path class="st47" d="M450.8,126.2l2.6-1.6h0.1l-2.6,1.6H450.8"/>
					<path class="st48" d="M450.9,126.2l2.6-1.6h0.1l-2.6,1.6H450.9"/>
					<path class="st49" d="M451.1,126.2l2.6-1.6h0.1l-2.6,1.6H451.1"/>
					<path class="st50" d="M451.2,126.2l2.6-1.6h0.1l-2.6,1.6C451.3,126.2,451.3,126.2,451.2,126.2"/>
					<path class="st51" d="M451.3,126.2l2.6-1.6h0.1l-2.6,1.6C451.4,126.3,451.4,126.3,451.3,126.2"/>
					<path class="st52" d="M451.4,126.3l2.6-1.6h0.1l-2.6,1.6C451.5,126.3,451.5,126.3,451.4,126.3"/>
					<path class="st53" d="M451.5,126.3l2.6-1.6h0.1l-2.6,1.6C451.7,126.3,451.7,126.3,451.5,126.3"/>
					<path class="st54" d="M451.7,126.4l2.6-1.6h0.1l-2.6,1.6C451.8,126.4,451.8,126.4,451.7,126.4"/>
					<path class="st55" d="M451.8,126.4l2.6-1.6c0,0,0.1,0,0.1,0.1l-2.6,1.6C451.9,126.5,451.9,126.4,451.8,126.4"/>
					<path class="st56" d="M452,126.5l2.6-1.6h0.1L452,126.5L452,126.5"/>
				</g>
			</g>
		</g>
		<g>
			<polygon class="st0" points="452,152.3 454.5,150.8 478.7,164.7 476.1,166.3 			"/>
		</g>
		<g class="st5">
			<g>
				<defs>
					<path id="SVGID_9_" d="M481,165l-2.6,1.6c-0.6,0.4-1.3,0.2-2.3-0.2l2.6-1.6C479.6,165.2,480.4,165.3,481,165z"/>
				</defs>
				<clipPath id="SVGID_10_">
					<use xlink:href="#SVGID_9_"  style="overflow:visible;"/>
				</clipPath>
				<g class="st57">
					<path class="st21" d="M476.1,166.3l2.6-1.6h0.1L476.1,166.3C476.2,166.3,476.2,166.3,476.1,166.3"/>
					<path class="st20" d="M476.2,166.3l2.6-1.6c0,0,0.1,0,0.1,0.1l-2.6,1.6C476.3,166.3,476.3,166.3,476.2,166.3"/>
					<path class="st19" d="M476.3,166.4l2.6-1.6h0.1l-2.6,1.6C476.4,166.4,476.4,166.4,476.3,166.4"/>
					<path class="st18" d="M476.4,166.4l2.6-1.6h0.1l-2.6,1.6C476.6,166.4,476.6,166.4,476.4,166.4"/>
					<path class="st17" d="M476.6,166.5l2.6-1.6h0.1l-2.6,1.6C476.7,166.5,476.7,166.5,476.6,166.5"/>
					<path class="st16" d="M476.8,166.5l2.6-1.6h0.1l-2.6,1.6C476.8,166.5,476.8,166.5,476.8,166.5"/>
					<path class="st15" d="M476.9,166.5l2.6-1.6h0.1l-2.6,1.6C476.9,166.6,476.9,166.5,476.9,166.5"/>
					<path class="st14" d="M477,166.6l2.6-1.6h0.1l-2.6,1.6C477,166.6,477,166.6,477,166.6"/>
					<path class="st13" d="M477.2,166.6l2.6-1.6h0.1l-2.6,1.6C477.2,166.6,477.2,166.6,477.2,166.6"/>
					<path class="st12" d="M477.3,166.6l2.6-1.6h0.1l-2.6,1.6H477.3"/>
					<path class="st11" d="M477.4,166.6l2.6-1.6h0.1l-2.6,1.6H477.4"/>
					<path class="st10" d="M477.5,166.6l2.6-1.6h0.1l-2.6,1.6C477.6,166.6,477.6,166.6,477.5,166.6"/>
					<path class="st9" d="M477.8,166.6l2.6-1.6c0.1,0,0.1,0,0.2,0l-2.6,1.6C477.9,166.6,477.8,166.6,477.8,166.6"/>
					<path class="st8" d="M477.9,166.6l2.6-1.6c0.1,0,0.1,0,0.2-0.1l-2.6,1.6C478,166.6,478,166.6,477.9,166.6"/>
					<path class="st7" d="M478.1,166.5l2.6-1.6c0.1,0,0.1-0.1,0.2-0.1l-2.6,1.6C478.2,166.5,478.2,166.5,478.1,166.5"/>
				</g>
			</g>
		</g>
		<g class="st5">
			<g>
				<defs>
					<path id="SVGID_11_" d="M481,165l-2.6,1.6c0.6-0.4,1-1.1,1-2l2.6-1.6C481.8,163.9,481.5,164.6,481,165z"/>
				</defs>
				<clipPath id="SVGID_12_">
					<use xlink:href="#SVGID_11_"  style="overflow:visible;"/>
				</clipPath>
				<g class="st58">
					<polyline class="st52" points="479.3,164.5 481.8,162.9 481.8,162.9 479.3,164.5 479.3,164.5 					"/>
					<path class="st51" d="M479.3,164.5l2.6-1.6v0.1l-2.6,1.6V164.5"/>
					<path class="st50" d="M479.3,164.6l2.6-1.6v0.1l-2.6,1.6V164.6"/>
					<path class="st49" d="M479.3,164.7l2.6-1.6v0.1l-2.6,1.6C479.2,164.8,479.3,164.8,479.3,164.7"/>
					<path class="st48" d="M479.2,165l2.6-1.6v0.1l-2.6,1.6C479.2,165,479.2,165,479.2,165"/>
					<path class="st47" d="M479.2,165.1l2.6-1.6v0.1l-2.6,1.6V165.1"/>
					<path class="st46" d="M479.2,165.2l2.6-1.6v0.1l-2.6,1.6V165.2"/>
					<path class="st45" d="M479.2,165.3l2.6-1.6v0.1l-2.6,1.6C479.1,165.4,479.1,165.4,479.2,165.3"/>
					<path class="st44" d="M479.1,165.6l2.6-1.6c0,0.1,0,0.1-0.1,0.1l-2.6,1.6C479.1,165.7,479.1,165.6,479.1,165.6"/>
					<path class="st43" d="M479.1,165.7l2.6-1.6c0,0.1-0.1,0.1-0.1,0.2l-2.6,1.6C479,165.8,479,165.8,479.1,165.7"/>
					<path class="st42" d="M479,165.9l2.6-1.6c-0.1,0.2-0.4,0.4-0.6,0.5l-2.6,1.6C478.6,166.3,478.7,166.2,479,165.9"/>
				</g>
			</g>
		</g>
		<g>
			<polygon class="st59" points="479.3,145.9 481.9,144.4 481.8,162.9 479.3,164.5 			"/>
		</g>
		<g>
			<polygon class="st60" points="452,126.5 454.6,125.1 478.8,139 476.2,140.5 			"/>
		</g>
		<g>
			<path class="st61" d="M476.2,140.5c1.7,1,3.1,3.5,3.1,5.4v18.6c0,2-1.4,2.8-3.1,1.8L452,152.4c-1.7-1-3.1-3.5-3.1-5.4v-18.6
				c0-2,1.4-2.8,3.1-1.8L476.2,140.5z"/>
		</g>
		<g class="st5">
			<g>
				<defs>
					<path id="SVGID_13_" d="M476.2,140.5l2.6-1.6c1.7,1,3.1,3.5,3.1,5.4l-2.6,1.6C479.3,143.9,477.9,141.5,476.2,140.5z"/>
				</defs>
				<clipPath id="SVGID_14_">
					<use xlink:href="#SVGID_13_"  style="overflow:visible;"/>
				</clipPath>
				<g class="st62">
					<path class="st56" d="M476.2,140.5l2.6-1.6l0,0L476.2,140.5L476.2,140.5"/>
					<path class="st63" d="M476.2,140.5l2.6-1.6c0,0,0.1,0,0.1,0.1l-2.6,1.6C476.3,140.5,476.3,140.5,476.2,140.5"/>
					<path class="st64" d="M476.3,140.5l2.6-1.6c0,0,0.1,0,0.1,0.1l-2.6,1.6C476.4,140.6,476.4,140.6,476.3,140.5"/>
					<path class="st65" d="M476.6,140.6l2.6-1.6l0.1,0.1l-2.6,1.6C476.6,140.8,476.6,140.6,476.6,140.6"/>
					<path class="st66" d="M476.7,140.8l2.6-1.6l0.1,0.1l-2.6,1.6C476.7,140.9,476.7,140.8,476.7,140.8"/>
					<path class="st67" d="M476.8,140.9l2.6-1.6l0.1,0.1l-2.6,1.6C476.9,140.9,476.8,140.9,476.8,140.9"/>
					<path class="st68" d="M476.9,141l2.6-1.6l0.1,0.1l-2.6,1.6C477,141,476.9,141,476.9,141"/>
					<path class="st69" d="M477,141.1l2.6-1.6l0.1,0.1l-2.6,1.6C477.2,141.2,477.2,141.1,477,141.1"/>
					<path class="st70" d="M477.2,141.2l2.6-1.6l0.1,0.1l-2.6,1.6C477.3,141.4,477.3,141.2,477.2,141.2"/>
					<path class="st71" d="M477.3,141.4l2.6-1.6l0.1,0.1l-2.6,1.6C477.4,141.5,477.4,141.4,477.3,141.4"/>
					<path class="st72" d="M477.4,141.5l2.6-1.6l0.1,0.1l-2.6,1.6C477.5,141.6,477.5,141.5,477.4,141.5"/>
					<path class="st73" d="M477.5,141.6l2.6-1.6l0.1,0.1l-2.6,1.6C477.6,141.7,477.6,141.7,477.5,141.6"/>
					<path class="st74" d="M477.6,141.7l2.6-1.6l0.1,0.1l-2.6,1.6C477.8,141.8,477.8,141.8,477.6,141.7"/>
					<path class="st74" d="M477.8,142l2.6-1.6c0,0,0.1,0.1,0.1,0.2l-2.6,1.6C477.9,142.1,477.9,142,477.8,142"/>
					<path class="st75" d="M478,142.1l2.6-1.6c0.1,0.1,0.1,0.2,0.2,0.2l-2.6,1.6C478.1,142.3,478,142.2,478,142.1"/>
					<path class="st75" d="M478.1,142.4l2.6-1.6c0.1,0.1,0.1,0.2,0.2,0.4l-2.6,1.6C478.4,142.7,478.2,142.6,478.1,142.4"/>
					<path class="st75" d="M478.4,142.8l2.6-1.6c0,0.1,0.1,0.2,0.1,0.2l-2.6,1.6C478.5,142.9,478.5,142.8,478.4,142.8"/>
					<path class="st74" d="M478.6,143l2.6-1.6c0,0.1,0.1,0.1,0.1,0.2l-2.6,1.6C478.6,143.2,478.6,143,478.6,143"/>
					<path class="st74" d="M478.6,143.2l2.6-1.6c0,0,0,0.1,0.1,0.1l-2.6,1.6C478.7,143.3,478.7,143.3,478.6,143.2"/>
					<path class="st73" d="M478.7,143.4l2.6-1.6c0,0,0,0.1,0.1,0.1l-2.6,1.6C478.7,143.5,478.7,143.4,478.7,143.4"/>
					<path class="st72" d="M478.8,143.5l2.6-1.6c0,0,0,0.1,0.1,0.1l-2.6,1.6C478.8,143.6,478.8,143.6,478.8,143.5"/>
					<path class="st71" d="M478.8,143.6l2.6-1.6c0,0,0,0.1,0.1,0.1l-2.6,1.6C478.8,143.8,478.8,143.8,478.8,143.6"/>
					<path class="st70" d="M479,143.9l2.6-1.6v0.1L479,144C479,143.9,479,143.9,479,143.9"/>
					<path class="st69" d="M479,144l2.6-1.6v0.1l-2.6,1.6C479,144.1,479,144,479,144"/>
					<path class="st68" d="M479.1,144.1l2.6-1.6v0.1l-2.6,1.6C479.1,144.2,479.1,144.2,479.1,144.1"/>
					<path class="st67" d="M479.1,144.4l2.6-1.6v0.1l-2.6,1.6C479.1,144.5,479.1,144.4,479.1,144.4"/>
					<path class="st66" d="M479.1,144.5l2.6-1.6v0.1l-2.6,1.6C479.2,144.6,479.2,144.5,479.1,144.5"/>
					<path class="st65" d="M479.2,144.6l2.6-1.6v0.1l-2.6,1.6C479.2,144.7,479.2,144.7,479.2,144.6"/>
					<path class="st64" d="M479.2,144.8l2.6-1.6v0.1l-2.6,1.6V144.8"/>
					<path class="st63" d="M479.2,145l2.6-1.6v0.1l-2.6,1.6C479.3,145.1,479.2,145.1,479.2,145"/>
					<path class="st56" d="M479.3,145.1l2.6-1.6v0.1l-2.6,1.6C479.3,145.2,479.3,145.2,479.3,145.1"/>
					<path class="st55" d="M479.3,145.3l2.6-1.6v0.1l-2.6,1.6V145.3"/>
					<path class="st54" d="M479.3,145.4l2.6-1.6v0.1l-2.6,1.6V145.4"/>
					<path class="st53" d="M479.3,145.6l2.6-1.6v0.1l-2.6,1.6C479.3,145.7,479.3,145.7,479.3,145.6"/>
					<path class="st52" d="M479.3,145.8l2.6-1.6v0.1l-2.6,1.6C479.3,145.8,479.3,145.8,479.3,145.8"/>
				</g>
			</g>
		</g>
		<g>
			<path class="st76" d="M495.6,237.4L495.6,237.4v17.8c0,0.2,0,0.6,0,0.8c0,0,0,0,0,0.1c0,0.2,0,0.5-0.1,0.7v0.1
				c0,0.2-0.1,0.5-0.1,0.6v0.1c-0.1,0.2-0.1,0.4-0.2,0.6c0,0,0,0,0,0.1c-0.1,0.2-0.2,0.4-0.4,0.6c-0.1,0.2-0.4,0.5-0.5,0.6l-0.1,0.1
				c-0.2,0.2-0.4,0.4-0.6,0.5l2.6-1.6c0.2-0.1,0.5-0.4,0.6-0.5l0.1-0.1c0.2-0.2,0.4-0.4,0.5-0.6l0,0c0.1-0.1,0.2-0.4,0.2-0.5l0,0
				c0,0,0,0,0-0.1c0-0.1,0.1-0.2,0.1-0.4c0-0.1,0-0.1,0.1-0.2v-0.1v-0.1c0-0.1,0.1-0.2,0.1-0.4v-0.1v-0.1v-0.1c0-0.1,0-0.2,0-0.4
				c0-0.1,0-0.1,0-0.2c0,0,0,0,0-0.1c0,0,0,0,0-0.1c0-0.1,0-0.2,0-0.4s0-0.2,0-0.4l0,0v-17.7l0,0v-21l-2.6,1.6L495.6,237.4z"/>
			<path class="st76" d="M489,134.9c0.2,0.1,0.5,0.4,0.7,0.5c0,0,0,0,0.1,0.1c0.2,0.1,0.5,0.4,0.6,0.6c0,0,0,0,0.1,0.1
				c0.2,0.2,0.5,0.4,0.6,0.6l0,0c0.2,0.2,0.5,0.5,0.6,0.7l0,0c0.4,0.5,0.8,1,1.2,1.6c0.1,0.1,0.2,0.4,0.4,0.5
				c0.1,0.1,0.1,0.2,0.2,0.4c0,0.1,0.1,0.1,0.1,0.2c0.1,0.2,0.2,0.5,0.4,0.7c0,0,0,0,0,0.1c0.1,0.2,0.2,0.6,0.4,0.8l0,0
				c0.1,0.2,0.2,0.6,0.4,0.8l0,0c0.1,0.4,0.2,0.6,0.4,1l0,0c0.1,0.2,0.1,0.6,0.2,0.8c0,0,0,0,0,0.1c0.1,0.4,0.1,0.6,0.1,0.8l0,0
				c0,0.4,0.1,0.6,0.1,0.8c0,0,0,0,0,0.1c0,0.2,0,0.6,0,0.8l-0.2,69l2.6-1.6l0.2-69c0-0.1,0-0.2,0-0.4c0-0.1,0-0.2,0-0.4v-0.1
				c0,0,0,0,0-0.1v-0.1c0-0.1,0-0.2,0-0.4c0-0.1,0-0.2,0-0.4l0,0l0,0c0-0.1,0-0.2-0.1-0.4c0-0.1,0-0.2-0.1-0.4V143c0,0,0,0,0-0.1
				v-0.1c0-0.1-0.1-0.2-0.1-0.4c0-0.1,0-0.2-0.1-0.2l0,0l0,0c0-0.1-0.1-0.2-0.1-0.4s-0.1-0.2-0.1-0.4c0,0,0,0,0-0.1l0,0
				c0-0.1-0.1-0.1-0.1-0.2c0-0.1-0.1-0.2-0.1-0.4c0-0.1-0.1-0.1-0.1-0.2l0,0l0,0c0-0.1-0.1-0.2-0.1-0.4c-0.1-0.1-0.1-0.2-0.2-0.4
				l0,0c0,0,0,0,0-0.1c0-0.1-0.1-0.2-0.1-0.4c-0.1-0.1-0.1-0.2-0.2-0.4c0-0.1-0.1-0.1-0.1-0.2c0,0,0,0,0-0.1
				c-0.1-0.1-0.1-0.2-0.2-0.4c-0.1-0.1-0.2-0.4-0.4-0.5c0,0,0,0,0-0.1c-0.1-0.2-0.4-0.5-0.5-0.7c-0.1-0.1-0.2-0.2-0.4-0.5
				c-0.1-0.1-0.2-0.2-0.2-0.4l0,0l0,0c-0.1-0.1-0.2-0.2-0.2-0.4c-0.1-0.1-0.2-0.2-0.2-0.4l0,0l0,0c-0.1-0.1-0.1-0.1-0.2-0.2
				c-0.1-0.1-0.2-0.2-0.4-0.4l-0.1-0.1c0,0,0,0-0.1-0.1l-0.1-0.1c-0.1-0.1-0.2-0.2-0.4-0.2l-0.1-0.1c0,0,0,0-0.1-0.1l-0.1-0.1
				c-0.1-0.1-0.2-0.1-0.4-0.2c-0.1,0-0.1-0.1-0.2-0.1l0,0l0,0c-0.1-0.1-0.2-0.1-0.4-0.2c-0.1-0.1-0.2-0.1-0.4-0.2c0,0,0,0-0.1,0
				L327.1,38.3l-2.6,1.6l163.7,94.5C488.5,134.4,488.8,134.7,489,134.9C489,134.8,489,134.8,489,134.9z"/>
		</g>
		<g>
			<path class="st1" d="M488.3,134.3c4.2,2.4,7.5,8.3,7.5,13.1l-0.2,69L316.7,113l0.2-69c0-4.8,3.5-6.7,7.7-4.3L488.3,134.3z
				 M419.7,160.6v-19.5l-88.4-51v19.5L419.7,160.6 M479.3,164.5v-18.6c0-2-1.4-4.4-3.1-5.4L452,126.6c-1.7-1-3.1-0.2-3.1,1.8V147
				c0,2,1.4,4.4,3.1,5.4l24.2,13.9C477.9,167.2,479.3,166.4,479.3,164.5"/>
		</g>
	</g>
	<g>
		<polygon class="st77" points="523.1,426.2 540.1,416.4 540.4,365.5 523.1,377.5 		"/>
		<polygon class="st78" points="540.4,365.5 523.1,356.8 523.1,377.5 		"/>
		<polygon class="st79" points="517.5,360.6 534.9,369.4 532.5,371 517.5,363.4 		"/>
		<g>
			<g class="st5">
				<g>
					<polygon class="st80" points="137,372.6 301.9,276.7 301.9,298.7 137,394.5 					"/>
				</g>
				<g>
					<polygon class="st80" points="361.1,447.8 526,352 525.8,428 360.9,523.8 					"/>
				</g>
				<g>
					<polygon class="st78" points="69,279.2 233.8,183.4 526,352 361.1,447.8 					"/>
				</g>
				<polygon class="st81" points="69,279.2 59,289.6 59,349.5 137,394.5 137,372.6 292.8,462.5 292.8,484.4 360.9,523.8 
					361.1,447.8 				"/>
			</g>
		</g>
		<g>
			<polygon class="st82" points="94.6,268.1 239,184.1 341.8,243.9 197.4,327.8 			"/>
			<polygon class="st83" points="108.1,268.1 239,192 328.3,243.9 197.4,319.9 			"/>
			<polygon class="st81" points="94.6,268.1 94.6,279.8 197.4,339.4 197.4,327.8 			"/>
			<polygon class="st80" points="341.8,243.9 341.8,255.5 197.4,339.4 197.4,327.8 			"/>
		</g>
		<g>
			<g>
				<g>
					<path class="st84" d="M317.9,277.8c-3.4,1.9-3.4,5.1,0,7.1l13.4,7.8c3.4,1.9,8.9,1.9,12.2,0l28.5-16.5c3.4-1.9,3.4-5.1,0-7.1
						l-13.4-7.8c-3.4-1.9-8.9-1.9-12.2,0L317.9,277.8z"/>
				</g>
				<path class="st85" d="M316,283.3l-0.1-0.1c-0.1-0.2-0.4-0.5-0.4-0.8v-0.1c-0.1-0.2-0.1-0.6-0.1-0.8v4.3c0,0,0,0,0,0.1
					s0,0.4,0,0.5c0,0.1,0,0.2,0.1,0.4v0.1c0,0,0,0,0,0.1c0.1,0.1,0.1,0.4,0.2,0.5c0,0.1,0.1,0.1,0.1,0.2l0.1,0.1c0,0,0,0.1,0.1,0.1
					c0.1,0.2,0.4,0.4,0.5,0.6l0,0c0.1,0.1,0.4,0.2,0.6,0.5c0.1,0.1,0.2,0.2,0.5,0.4c0,0,0.1,0,0.1,0.1l13.4,7.8
					c0.5,0.4,1.1,0.6,1.7,0.7c0.1,0,0.1,0.1,0.2,0.1c0.1,0,0.4,0.1,0.5,0.1c0.2,0.1,0.6,0.1,0.8,0.2c0.1,0,0.2,0,0.4,0.1
					c0.2,0,0.5,0.1,0.7,0.1c0.1,0,0.1,0,0.2,0h0.1c0.4,0,0.6,0,1,0.1c0.1,0,0.2,0,0.4,0c0.1,0,0.1,0,0.2,0s0.1,0,0.2,0
					c0.2,0,0.6,0,0.8,0c0.1,0,0.2,0,0.4,0c0.1,0,0.1,0,0.2,0c0.1,0,0.2,0,0.4,0c0.2,0,0.6-0.1,0.8-0.1c0.1,0,0.1,0,0.2,0
					s0.1,0,0.2-0.1c0.1,0,0.2-0.1,0.5-0.1c0.2-0.1,0.5-0.1,0.7-0.2c0.1,0,0.1,0,0.2-0.1c0,0,0,0,0.1,0l0,0l0,0l0,0
					c0.5-0.1,0.8-0.4,1.2-0.6l28.5-16.5c1.7-1,2.5-2.3,2.5-3.6V273c0,0.6-0.2,1.3-0.6,1.9c-0.5,0.6-1.1,1.2-1.9,1.7l-28.5,16.5
					c-0.4,0.2-0.8,0.5-1.3,0.6c-0.1,0-0.1,0-0.2,0.1c-0.4,0.1-0.8,0.2-1.2,0.4c-0.1,0-0.1,0-0.2,0.1c-0.5,0.1-1,0.2-1.4,0.2
					c-0.1,0-0.1,0-0.2,0c-0.5,0-1,0.1-1.4,0.1c-0.1,0-0.1,0-0.2,0c-0.5,0-1,0-1.4-0.1c-0.1,0-0.1,0-0.2,0c-0.4,0-0.7-0.1-1.1-0.2
					c-0.2-0.1-0.6-0.1-0.8-0.2c-0.2-0.1-0.5-0.1-0.6-0.2c-0.6-0.2-1.2-0.5-1.7-0.7l-13.4-7.8c-0.2-0.1-0.4-0.2-0.6-0.4
					c-0.2-0.1-0.5-0.2-0.6-0.5C316.3,283.7,316.2,283.5,316,283.3z"/>
			</g>
			<g>
				<g>
					<path class="st84" d="M269.9,305.4c-3.4,1.9-3.4,5.1,0,7.1l13.4,7.8c3.4,1.9,8.9,1.9,12.2,0l28.5-16.5c3.4-1.9,3.4-5.1,0-7.1
						l-13.4-7.8c-3.4-1.9-8.9-1.9-12.2,0L269.9,305.4z"/>
				</g>
				<path class="st85" d="M268.1,310.9l-0.1-0.1c-0.1-0.2-0.4-0.5-0.4-0.8v-0.1c-0.1-0.2-0.1-0.6-0.1-0.8v4.3c0,0,0,0,0,0.1
					s0,0.4,0,0.5c0,0.1,0,0.2,0.1,0.4v0.1c0,0,0,0,0,0.1c0.1,0.1,0.1,0.4,0.2,0.5c0,0.1,0.1,0.1,0.1,0.2l0.1,0.1c0,0,0,0.1,0.1,0.1
					c0.1,0.2,0.4,0.4,0.5,0.6l0,0c0.1,0.1,0.4,0.4,0.6,0.5c0.1,0.1,0.2,0.2,0.5,0.4c0,0,0.1,0,0.1,0.1l13.4,7.8
					c0.5,0.4,1.1,0.6,1.7,0.7c0.1,0,0.1,0.1,0.2,0.1c0.1,0,0.4,0.1,0.5,0.1c0.2,0.1,0.6,0.1,0.8,0.2c0.1,0,0.2,0,0.4,0.1
					c0.2,0,0.5,0.1,0.7,0.1c0.1,0,0.1,0,0.2,0h0.1c0.4,0,0.6,0,1,0.1c0.1,0,0.2,0,0.4,0s0.1,0,0.2,0c0.1,0,0.1,0,0.2,0
					c0.2,0,0.6,0,0.8,0c0.1,0,0.2,0,0.4,0s0.1,0,0.2,0c0.1,0,0.2,0,0.4,0c0.2,0,0.6-0.1,0.8-0.1l0,0l0,0l0,0c0.1,0,0.1,0,0.2,0
					c0.1,0,0.1,0,0.2-0.1c0.1,0,0.2-0.1,0.5-0.1c0.2-0.1,0.5-0.1,0.7-0.2c0.1,0,0.1,0,0.2-0.1c0,0,0,0,0.1,0
					c0.5-0.1,0.8-0.4,1.2-0.6l28.5-16.5c1.7-1,2.5-2.3,2.5-3.6v-4.3c0,1.3-0.8,2.6-2.5,3.6l-28.5,16.5c-0.4,0.2-0.8,0.5-1.3,0.6
					c-0.1,0-0.1,0-0.2,0.1c-0.4,0.1-0.8,0.2-1.2,0.4c-0.1,0-0.1,0-0.2,0.1c-0.5,0.1-1,0.2-1.4,0.2c-0.1,0-0.1,0-0.2,0
					c-0.5,0-1,0.1-1.4,0.1c-0.1,0-0.1,0-0.2,0c-0.5,0-1,0-1.4-0.1c-0.1,0-0.1,0-0.2,0c-0.4,0-0.7-0.1-1.1-0.2
					c-0.2-0.1-0.6-0.1-0.8-0.2c-0.2-0.1-0.5-0.1-0.6-0.2c-0.6-0.2-1.2-0.5-1.7-0.7L270,313c-0.2-0.1-0.4-0.2-0.5-0.4
					c-0.2-0.1-0.5-0.2-0.6-0.5C268.4,311.5,268.2,311.3,268.1,310.9z"/>
			</g>
			<g>
				<g>
					<path class="st84" d="M222,333.1c-3.4,1.9-3.4,5.1,0,7.1l13.4,7.8c3.4,1.9,8.9,1.9,12.2,0l28.5-16.5c3.4-1.9,3.4-5.1,0-7.1
						l-13.4-7.8c-3.4-1.9-8.9-1.9-12.2,0L222,333.1z"/>
				</g>
				<path class="st85" d="M278.7,332.4V328c0,1.3-0.8,2.6-2.5,3.6l-28.5,16.5c-0.4,0.2-0.8,0.5-1.3,0.6c-0.1,0-0.1,0-0.2,0.1
					c-0.4,0.1-0.8,0.2-1.2,0.4c-0.1,0-0.1,0-0.2,0.1c-0.5,0.1-1,0.2-1.4,0.2c-0.1,0-0.1,0-0.2,0c-0.5,0-1,0.1-1.4,0.1
					c-0.1,0-0.1,0-0.2,0c-0.5,0-1,0-1.4-0.1c-0.1,0-0.1,0-0.2,0c-0.4,0-0.7-0.1-1.1-0.2c-0.2-0.1-0.6-0.1-0.8-0.2
					c-0.2-0.1-0.5-0.1-0.6-0.2c-0.6-0.2-1.2-0.5-1.7-0.7l-13.4-7.8c-0.2-0.1-0.4-0.2-0.5-0.4c-0.2-0.1-0.5-0.2-0.6-0.5
					c-0.2-0.2-0.5-0.5-0.7-0.7l-0.1-0.1c-0.1-0.2-0.4-0.5-0.4-0.8v-0.1c-0.1-0.2-0.1-0.6-0.1-0.8v4.3c0,0,0,0,0,0.1
					c0,0.1,0,0.4,0,0.5c0,0.1,0,0.2,0.1,0.4v0.1c0,0,0,0,0,0.1c0.1,0.1,0.1,0.4,0.2,0.5c0,0.1,0.1,0.1,0.1,0.2l0.1,0.1
					c0,0,0,0.1,0.1,0.1c0.1,0.2,0.4,0.4,0.5,0.6l0,0c0.1,0.1,0.4,0.4,0.6,0.5c0.1,0.1,0.2,0.2,0.5,0.4c0,0,0.1,0,0.1,0.1l13.4,7.8
					c0.5,0.4,1.1,0.6,1.7,0.7c0.1,0,0.1,0.1,0.2,0.1c0.1,0,0.4,0.1,0.5,0.1c0.2,0.1,0.6,0.1,0.8,0.2c0.1,0,0.2,0,0.4,0.1
					c0.2,0,0.5,0.1,0.7,0.1c0.1,0,0.1,0,0.2,0h0.1c0.4,0,0.6,0,1,0.1c0.1,0,0.2,0,0.4,0s0.1,0,0.2,0c0.1,0,0.1,0,0.2,0
					c0.2,0,0.6,0,0.8,0c0.1,0,0.2,0,0.4,0s0.1,0,0.2,0c0.1,0,0.2,0,0.4,0c0.2,0,0.6-0.1,0.8-0.1c0.1,0,0.1,0,0.2,0
					c0.1,0,0.1,0,0.2-0.1c0.1,0,0.2-0.1,0.5-0.1l0,0l0,0l0,0c0.2-0.1,0.5-0.1,0.7-0.2c0.1,0,0.1,0,0.2-0.1c0,0,0,0,0.1,0
					c0.5-0.1,0.8-0.4,1.2-0.6l28.5-16.5C277.9,334.9,278.7,333.7,278.7,332.4z"/>
			</g>
			<g>
				<g>
					<path class="st84" d="M350.7,296.9c-3.4,1.9-3.4,5.1,0,7.1l13.4,7.8c3.4,1.9,8.9,1.9,12.2,0l28.5-16.5c3.4-1.9,3.4-5.1,0-7.1
						l-13.4-7.8c-3.4-1.9-8.9-1.9-12.2,0L350.7,296.9z"/>
				</g>
				<path class="st85" d="M374.9,312.5c-0.4,0.1-0.8,0.2-1.2,0.4c-0.1,0-0.1,0-0.2,0.1c-0.5,0.1-1,0.2-1.4,0.2c-0.1,0-0.1,0-0.2,0
					c-0.5,0-1,0.1-1.4,0.1c-0.1,0-0.1,0-0.2,0c-0.5,0-1,0-1.4-0.1c-0.1,0-0.1,0-0.2,0c-0.4,0-0.7-0.1-1.1-0.2
					c-0.2-0.1-0.6-0.1-0.8-0.2c-0.2-0.1-0.5-0.1-0.6-0.2c-0.6-0.2-1.2-0.5-1.7-0.7l-13.4-7.8c-0.2-0.1-0.4-0.2-0.6-0.4
					c-0.2-0.1-0.5-0.2-0.6-0.5c-0.2-0.2-0.5-0.5-0.7-0.7l-0.1-0.1c-0.1-0.2-0.4-0.5-0.4-0.8v-0.1c-0.1-0.2-0.1-0.6-0.1-0.8v4.3
					c0,0,0,0,0,0.1c0,0.1,0,0.4,0,0.5c0,0.1,0,0.2,0.1,0.4v0.1c0,0,0,0,0,0.1c0.1,0.1,0.1,0.4,0.2,0.5c0,0.1,0.1,0.1,0.1,0.2
					l0.1,0.1c0,0,0,0.1,0.1,0.1c0.1,0.2,0.4,0.4,0.5,0.6l0,0c0.1,0.1,0.4,0.2,0.6,0.5c0.1,0.1,0.2,0.2,0.5,0.4c0,0,0.1,0,0.1,0.1
					l13.4,7.8c0.5,0.4,1.1,0.6,1.7,0.7c0.1,0,0.1,0.1,0.2,0.1s0.4,0.1,0.5,0.1c0.2,0.1,0.6,0.1,0.8,0.2c0.1,0,0.2,0,0.4,0.1
					c0.2,0,0.5,0.1,0.7,0.1c0.1,0,0.1,0,0.2,0h0.1c0.4,0,0.6,0,1,0.1c0.1,0,0.2,0,0.4,0c0.1,0,0.1,0,0.2,0s0.1,0,0.2,0
					c0.2,0,0.6,0,0.8,0c0.1,0,0.2,0,0.4,0c0.1,0,0.1,0,0.2,0s0.2,0,0.4,0c0.2,0,0.6-0.1,0.8-0.1c0.1,0,0.1,0,0.2,0s0.1,0,0.2-0.1
					c0.1,0,0.2-0.1,0.5-0.1c0.2-0.1,0.5-0.1,0.7-0.2c0.1,0,0.1,0,0.2-0.1c0,0,0,0,0.1,0c0.5-0.1,0.8-0.4,1.2-0.6L405,300
					c1.7-1,2.5-2.3,2.5-3.6v-4.3l0,0l0,0c0,0.6-0.2,1.3-0.6,1.9c-0.5,0.6-1.1,1.2-1.9,1.7l-28.5,16.5c-0.4,0.2-0.8,0.5-1.3,0.6
					C375,312.5,374.9,312.5,374.9,312.5z"/>
			</g>
			<g>
				<g>
					<path class="st84" d="M302.8,324.6c-3.4,1.9-3.4,5.1,0,7.1l13.4,7.8c3.4,1.9,8.9,1.9,12.2,0l28.5-16.5c3.4-1.9,3.4-5.1,0-7.1
						l-13.4-7.8c-3.4-1.9-8.9-1.9-12.2,0L302.8,324.6z"/>
				</g>
				<path class="st85" d="M359.6,323.7v-4.3c0,0.6-0.2,1.3-0.6,1.9c-0.5,0.6-1.1,1.2-1.9,1.7l-28.5,16.5c-0.4,0.2-0.8,0.5-1.3,0.6
					c-0.1,0-0.1,0-0.2,0.1c-0.4,0.1-0.8,0.2-1.2,0.4c-0.1,0-0.1,0-0.2,0.1c-0.5,0.1-1,0.2-1.4,0.2c-0.1,0-0.1,0-0.2,0
					c-0.5,0-1,0.1-1.4,0.1c-0.1,0-0.1,0-0.2,0c-0.5,0-1,0-1.4-0.1c-0.1,0-0.1,0-0.2,0c-0.4,0-0.7-0.1-1.1-0.2
					c-0.2-0.1-0.6-0.1-0.8-0.2c-0.2-0.1-0.5-0.1-0.6-0.2c-0.6-0.2-1.2-0.5-1.7-0.7l-13.4-7.8c-0.2-0.1-0.4-0.2-0.6-0.4
					c-0.2-0.1-0.5-0.2-0.6-0.5c-0.2-0.2-0.5-0.5-0.7-0.7l-0.1-0.1c-0.1-0.2-0.4-0.5-0.4-0.8v-0.1c-0.1-0.2-0.1-0.6-0.1-0.8v4.3
					c0,0,0,0,0,0.1s0,0.4,0,0.5c0,0.1,0,0.2,0.1,0.4v0.1c0,0,0,0,0,0.1c0.1,0.1,0.1,0.4,0.2,0.5c0,0.1,0.1,0.1,0.1,0.2l0.1,0.1
					c0,0,0,0.1,0.1,0.1c0.1,0.2,0.4,0.4,0.5,0.6l0,0c0.1,0.1,0.4,0.2,0.6,0.5c0.1,0.1,0.2,0.2,0.5,0.4c0,0,0.1,0,0.1,0.1l13.4,7.8
					c0.5,0.4,1.1,0.6,1.7,0.7c0.1,0,0.1,0.1,0.2,0.1c0.1,0,0.4,0.1,0.5,0.1c0.2,0.1,0.6,0.1,0.8,0.2c0.1,0,0.2,0,0.4,0.1
					c0.2,0,0.5,0.1,0.7,0.1c0.1,0,0.1,0,0.2,0h0.1c0.4,0,0.6,0,1,0.1c0.1,0,0.2,0,0.4,0s0.1,0,0.2,0s0.1,0,0.2,0c0.2,0,0.6,0,0.8,0
					c0.1,0,0.2,0,0.4,0s0.1,0,0.2,0c0.1,0,0.2,0,0.4,0c0.2,0,0.6-0.1,0.8-0.1c0.1,0,0.1,0,0.2,0c0.1,0,0.1,0,0.2-0.1
					c0.1,0,0.2-0.1,0.5-0.1c0.2-0.1,0.5-0.1,0.7-0.2c0.1,0,0.1,0,0.2-0.1c0,0,0,0,0.1,0c0.5-0.1,0.8-0.4,1.2-0.6l28.5-16.5
					C358.7,326.4,359.6,325,359.6,323.7z"/>
			</g>
			<g>
				<g>
					<path class="st84" d="M254.8,352.2c-3.4,1.9-3.4,5.1,0,7.1l13.4,7.8c3.4,1.9,8.9,1.9,12.2,0l28.5-16.5c3.4-1.9,3.4-5.1,0-7.1
						l-13.4-7.8c-3.4-1.9-8.9-1.9-12.2,0L254.8,352.2z"/>
				</g>
				<path class="st85" d="M311.7,351.4v-4.3c0,1.3-0.8,2.6-2.5,3.6l-28.5,16.5c-0.4,0.2-0.8,0.5-1.3,0.6c-0.1,0-0.1,0-0.2,0.1
					c-0.4,0.1-0.8,0.2-1.2,0.4c-0.1,0-0.1,0-0.2,0.1c-0.5,0.1-1,0.2-1.4,0.2c-0.1,0-0.1,0-0.2,0c-0.5,0-1,0.1-1.4,0.1
					c-0.1,0-0.1,0-0.2,0c-0.5,0-1,0-1.4-0.1c-0.1,0-0.1,0-0.2,0c-0.4,0-0.7-0.1-1.1-0.2c-0.2-0.1-0.6-0.1-0.8-0.2
					c-0.2-0.1-0.5-0.1-0.6-0.2c-0.6-0.2-1.2-0.5-1.7-0.7l-13.4-7.8c-0.2-0.1-0.4-0.2-0.6-0.4c-0.2-0.1-0.5-0.2-0.6-0.5
					c-0.2-0.2-0.5-0.5-0.7-0.7l-0.1-0.1c-0.1-0.2-0.4-0.5-0.4-0.8v-0.1c-0.1-0.2-0.1-0.6-0.1-0.8v4.3c0,0,0,0,0,0.1
					c0,0.1,0,0.4,0,0.5c0,0.1,0,0.2,0.1,0.4v0.1c0,0,0,0,0,0.1c0.1,0.1,0.1,0.4,0.2,0.5c0,0.1,0.1,0.1,0.1,0.2l0.1,0.1
					c0,0,0,0.1,0.1,0.1c0.1,0.2,0.4,0.4,0.5,0.6l0,0c0.1,0.1,0.4,0.2,0.6,0.5c0.1,0.1,0.2,0.2,0.5,0.4c0,0,0.1,0,0.1,0.1l13.4,7.8
					c0.5,0.4,1.1,0.6,1.7,0.7c0.1,0,0.1,0.1,0.2,0.1c0.1,0,0.4,0.1,0.5,0.1c0.2,0.1,0.6,0.1,0.8,0.2c0.1,0,0.2,0,0.4,0.1
					c0.2,0,0.5,0.1,0.7,0.1c0.1,0,0.1,0,0.2,0h0.1c0.4,0,0.6,0,1,0.1c0.1,0,0.2,0,0.4,0s0.1,0,0.2,0c0.1,0,0.1,0,0.2,0
					c0.2,0,0.6,0,0.8,0c0.1,0,0.2,0,0.4,0s0.1,0,0.2,0s0.2,0,0.4,0c0.2,0,0.6-0.1,0.8-0.1c0.1,0,0.1,0,0.2,0s0.1,0,0.2-0.1
					c0.1,0,0.2-0.1,0.5-0.1c0.2-0.1,0.5-0.1,0.7-0.2c0.1,0,0.1,0,0.2-0.1c0,0,0,0,0.1,0c0.5-0.1,0.8-0.4,1.2-0.6l28.5-16.5
					C310.7,354,311.7,352.7,311.7,351.4z"/>
			</g>
			<g>
				<g>
					<path class="st84" d="M383.6,315.9c-3.4,1.9-3.5,5.1,0,7.1l13.4,7.8c3.4,1.9,8.9,1.9,12.2,0l28.5-16.5c3.4-1.9,3.5-5.1,0-7.1
						l-13.4-7.8c-3.4-1.9-8.9-1.9-12.2,0L383.6,315.9z"/>
				</g>
				<path class="st85" d="M407.7,331.5c-0.4,0.1-0.8,0.2-1.2,0.4c-0.1,0-0.1,0-0.2,0.1c-0.5,0.1-1,0.2-1.4,0.2c-0.1,0-0.1,0-0.2,0
					c-0.5,0-1,0.1-1.4,0.1c-0.1,0-0.1,0-0.2,0c-0.5,0-1,0-1.4-0.1c-0.1,0-0.1,0-0.2,0c-0.4,0-0.7-0.1-1.1-0.2
					c-0.2-0.1-0.6-0.1-0.8-0.2c-0.2-0.1-0.5-0.1-0.6-0.2c-0.6-0.2-1.2-0.5-1.7-0.7l-13.4-7.8c-0.2-0.1-0.4-0.2-0.5-0.4
					c-0.2-0.1-0.5-0.2-0.6-0.5c-0.2-0.2-0.5-0.5-0.7-0.7l-0.1-0.1c-0.1-0.2-0.4-0.5-0.4-0.8v-0.1c-0.1-0.2-0.1-0.6-0.1-0.8v4.3l0,0
					c0,0,0,0,0,0.1s0,0.4,0,0.5c0,0.1,0,0.2,0.1,0.4v0.1c0,0,0,0,0,0.1c0.1,0.1,0.1,0.4,0.2,0.5c0,0.1,0.1,0.1,0.1,0.2l0.1,0.1
					c0,0,0,0.1,0.1,0.1c0.1,0.2,0.4,0.4,0.5,0.6l0,0c0.1,0.1,0.4,0.4,0.6,0.5c0.1,0.1,0.2,0.2,0.5,0.4c0,0,0.1,0,0.1,0.1l13.4,7.7
					c0.5,0.4,1.1,0.6,1.7,0.7c0.1,0,0.1,0.1,0.2,0.1s0.4,0.1,0.5,0.1c0.2,0.1,0.6,0.1,0.8,0.2c0.1,0,0.2,0,0.4,0.1
					c0.2,0,0.5,0.1,0.7,0.1c0.1,0,0.1,0,0.2,0h0.1c0.4,0,0.6,0,1,0.1c0.1,0,0.2,0,0.4,0c0.1,0,0.1,0,0.2,0s0.1,0,0.2,0
					c0.2,0,0.6,0,0.8,0c0.1,0,0.2,0,0.4,0c0.1,0,0.1,0,0.2,0s0.2,0,0.4,0c0.2,0,0.6-0.1,0.8-0.1c0.1,0,0.1,0,0.2,0s0.1,0,0.2-0.1
					c0.1,0,0.2-0.1,0.5-0.1c0.2-0.1,0.5-0.1,0.7-0.2c0.1,0,0.1,0,0.2-0.1c0,0,0,0,0.1,0c0.5-0.1,0.8-0.4,1.2-0.6l28.5-16.5
					c1.7-1,2.5-2.3,2.5-3.6V311c0,1.3-0.8,2.6-2.5,3.6l-28.5,16.5c-0.4,0.2-0.8,0.5-1.3,0.6C407.8,331.5,407.8,331.5,407.7,331.5z"
					/>
			</g>
			<g>
				<g>
					<path class="st84" d="M335.6,343.6c-3.4,1.9-3.5,5.1,0,7.1l13.4,7.8c3.4,1.9,8.9,1.9,12.2,0l28.5-16.5c3.4-1.9,3.5-5.1,0-7.1
						l-13.4-7.8c-3.4-1.9-8.9-1.9-12.2,0L335.6,343.6z"/>
				</g>
				<path class="st85" d="M333.7,349.1l-0.1-0.1c-0.1-0.2-0.4-0.5-0.4-0.8V348c-0.1-0.2-0.1-0.6-0.1-0.8v4.3c0,0,0,0,0,0.1
					c0,0.1,0,0.4,0,0.5c0,0.1,0,0.2,0.1,0.4v0.1c0,0,0,0,0,0.1c0.1,0.1,0.1,0.4,0.2,0.5c0,0.1,0.1,0.1,0.1,0.2l0.1,0.1
					c0,0,0,0.1,0.1,0.1c0.1,0.2,0.4,0.4,0.5,0.6l0,0c0.1,0.1,0.4,0.4,0.6,0.5c0.1,0.1,0.2,0.2,0.5,0.4c0,0,0.1,0,0.1,0.1l13.4,7.8
					c0.5,0.4,1.1,0.6,1.7,0.7c0.1,0,0.1,0.1,0.2,0.1s0.4,0.1,0.5,0.1c0.2,0.1,0.6,0.1,0.8,0.2c0.1,0,0.2,0,0.4,0.1
					c0.2,0,0.5,0.1,0.7,0.1c0.1,0,0.1,0,0.2,0h0.1c0.4,0,0.6,0,1,0.1c0.1,0,0.2,0,0.4,0c0.1,0,0.1,0,0.2,0c0.1,0,0.1,0,0.2,0
					c0.2,0,0.6,0,0.8,0c0.1,0,0.2,0,0.4,0c0.1,0,0.1,0,0.2,0s0.2,0,0.4,0c0.2,0,0.6-0.1,0.8-0.1c0.1,0,0.1,0,0.2,0s0.1,0,0.2-0.1
					c0.1,0,0.2-0.1,0.5-0.1c0.2-0.1,0.5-0.1,0.7-0.2c0.1,0,0.1,0,0.2-0.1c0,0,0,0,0.1,0c0.5-0.1,0.8-0.4,1.2-0.6l28.5-16.5
					c1.7-1,2.5-2.3,2.5-3.6v-4.3c0,1.3-0.8,2.6-2.5,3.6l-28.5,16.5c-0.4,0.2-0.8,0.5-1.3,0.6c-0.1,0-0.1,0-0.2,0.1
					c-0.4,0.1-0.8,0.2-1.2,0.4c-0.1,0-0.1,0-0.2,0.1c-0.5,0.1-1,0.2-1.4,0.2c-0.1,0-0.1,0-0.2,0c-0.5,0-1,0.1-1.4,0.1
					c-0.1,0-0.1,0-0.2,0c-0.5,0-1,0-1.4-0.1c-0.1,0-0.1,0-0.2,0c-0.4,0-0.7-0.1-1.1-0.2c-0.2-0.1-0.6-0.1-0.8-0.2
					c-0.2-0.1-0.5-0.1-0.6-0.2c-0.6-0.2-1.2-0.5-1.7-0.7l-13.4-7.8c-0.2-0.1-0.4-0.2-0.5-0.4c-0.2-0.1-0.5-0.2-0.6-0.5
					C334.2,349.7,333.9,349.5,333.7,349.1z"/>
			</g>
			<g>
				<g>
					<path class="st84" d="M287.7,371.4c-3.4,1.9-3.5,5.1,0,7.1l13.4,7.8c3.4,1.9,8.9,1.9,12.2,0l28.5-16.5c3.4-1.9,3.5-5.1,0-7.1
						l-13.4-7.8c-3.4-1.9-8.9-1.9-12.2,0L287.7,371.4z"/>
				</g>
				<path class="st85" d="M344.5,370.6v-4.3c0,1.3-0.8,2.6-2.5,3.6l-28.5,16.5c-0.4,0.2-0.8,0.5-1.3,0.6c-0.1,0-0.1,0-0.2,0.1
					c-0.4,0.1-0.8,0.2-1.2,0.4c-0.1,0-0.1,0-0.2,0.1c-0.5,0.1-1,0.2-1.4,0.2c-0.1,0-0.1,0-0.2,0c-0.5,0-1,0.1-1.4,0.1
					c-0.1,0-0.1,0-0.2,0c-0.5,0-1,0-1.4-0.1c-0.1,0-0.1,0-0.2,0c-0.4,0-0.7-0.1-1.1-0.2c-0.2-0.1-0.6-0.1-0.8-0.2
					c-0.2-0.1-0.5-0.1-0.6-0.2c-0.6-0.2-1.2-0.5-1.7-0.7l-13.4-7.8c-0.2-0.1-0.4-0.2-0.5-0.4c-0.2-0.1-0.5-0.2-0.6-0.5
					c-0.2-0.2-0.5-0.5-0.7-0.7l-0.1-0.1c-0.1-0.2-0.4-0.5-0.4-0.8v-0.1c-0.1-0.2-0.1-0.6-0.1-0.8v4.3c0,0,0,0,0,0.1s0,0.4,0,0.5
					c0,0.1,0,0.2,0.1,0.4v0.1c0,0,0,0,0,0.1c0.1,0.1,0.1,0.4,0.2,0.5c0,0.1,0.1,0.1,0.1,0.2l0.1,0.1c0,0,0,0.1,0.1,0.1
					c0.1,0.2,0.4,0.4,0.5,0.6l0,0c0.1,0.1,0.4,0.4,0.6,0.5c0.1,0.1,0.2,0.2,0.5,0.4c0,0,0.1,0,0.1,0.1l13.4,7.8
					c0.5,0.4,1.1,0.6,1.7,0.7c0.1,0,0.1,0.1,0.2,0.1c0.1,0,0.4,0.1,0.5,0.1c0.2,0.1,0.6,0.1,0.8,0.2c0.1,0,0.2,0,0.4,0.1
					c0.2,0,0.5,0.1,0.7,0.1c0.1,0,0.1,0,0.2,0h0.1c0.4,0,0.6,0,1,0.1c0.1,0,0.2,0,0.4,0c0.1,0,0.1,0,0.2,0s0.1,0,0.2,0
					c0.2,0,0.6,0,0.8,0c0.1,0,0.2,0,0.4,0s0.1,0,0.2,0c0.1,0,0.2,0,0.4,0c0.2,0,0.6-0.1,0.8-0.1c0.1,0,0.1,0,0.2,0
					c0.1,0,0.1,0,0.2-0.1c0.1,0,0.2-0.1,0.5-0.1c0.2-0.1,0.5-0.1,0.7-0.2c0.1,0,0.1,0,0.2-0.1c0,0,0,0,0.1,0
					c0.5-0.1,0.8-0.4,1.2-0.6l28.5-16.5C343.6,373.1,344.5,371.9,344.5,370.6z"/>
			</g>
			<g>
				<g class="st5">
					<g>
						<defs>
							<path id="SVGID_15_" d="M473.2,334.3V330c0,1.3-0.8,2.6-2.5,3.6v4.3C472.4,336.9,473.2,335.6,473.2,334.3z"/>
						</defs>
						<clipPath id="SVGID_16_">
							<use xlink:href="#SVGID_15_"  style="overflow:visible;"/>
						</clipPath>
						<g class="st86">
							<path class="st87" d="M470.7,333.6v4.3c1.7-1,2.5-2.3,2.5-3.6V330C473.2,331.3,472.4,332.5,470.7,333.6"/>
						</g>
					</g>
				</g>
				<g>
					<path class="st88" d="M416.4,335.1c-3.4,1.9-3.4,5.1,0,7.1l13.4,7.8c3.4,1.9,8.9,1.9,12.2,0l28.5-16.5c3.4-1.9,3.4-5.1,0-7.1
						l-13.4-7.8c-3.4-1.9-8.9-1.9-12.2,0L416.4,335.1z"/>
				</g>
				<path class="st87" d="M470.7,333.6l-28.5,16.5c-0.4,0.2-0.8,0.5-1.3,0.6c-0.1,0-0.1,0-0.2,0.1c-0.4,0.1-0.8,0.2-1.2,0.4
					c-0.1,0-0.1,0-0.2,0.1c-0.5,0.1-1,0.2-1.4,0.2c-0.1,0-0.1,0-0.2,0c-0.5,0-1,0.1-1.4,0.1c-0.1,0-0.1,0-0.2,0c-0.5,0-1,0-1.4-0.1
					c-0.1,0-0.1,0-0.2,0c-0.4,0-0.7-0.1-1.1-0.2c-0.2-0.1-0.6-0.1-0.8-0.2c-0.2-0.1-0.5-0.1-0.6-0.2c-0.6-0.2-1.2-0.5-1.7-0.7
					l-13.4-7.8c-0.2-0.1-0.4-0.2-0.5-0.4c-0.2-0.1-0.5-0.2-0.6-0.5c-0.2-0.2-0.5-0.5-0.7-0.7l-0.1-0.1c-0.1-0.2-0.4-0.5-0.4-0.8
					v-0.1c-0.1-0.2-0.1-0.6-0.1-0.8v4.3c0,0,0,0,0,0.1c0,0.1,0,0.4,0,0.5c0,0.1,0,0.2,0.1,0.4v0.1c0,0,0,0,0,0.1
					c0.1,0.1,0.1,0.4,0.2,0.5c0,0.1,0.1,0.1,0.1,0.2l0.1,0.1c0,0,0,0.1,0.1,0.1c0.1,0.2,0.4,0.4,0.5,0.6l0,0
					c0.1,0.1,0.4,0.4,0.6,0.5c0.1,0.1,0.2,0.2,0.5,0.4c0,0,0.1,0,0.1,0.1l13.4,7.8c0.5,0.4,1.1,0.6,1.7,0.7c0.1,0,0.1,0.1,0.2,0.1
					s0.4,0.1,0.5,0.1c0.2,0.1,0.6,0.1,0.8,0.2c0.1,0,0.2,0,0.4,0.1c0.2,0,0.5,0.1,0.7,0.1c0.1,0,0.1,0,0.2,0h0.1c0.4,0,0.6,0,1,0.1
					c0.1,0,0.2,0,0.4,0c0.1,0,0.1,0,0.2,0s0.1,0,0.2,0l0,0l0,0l0,0c0.2,0,0.6,0,0.8,0c0.1,0,0.2,0,0.4,0c0.1,0,0.1,0,0.2,0
					s0.2,0,0.4,0c0.2,0,0.6-0.1,0.8-0.1c0.1,0,0.1,0,0.2,0s0.1,0,0.2-0.1c0.1,0,0.2-0.1,0.5-0.1c0.2-0.1,0.5-0.1,0.7-0.2
					c0.1,0,0.1,0,0.2-0.1c0,0,0,0,0.1,0c0.5-0.1,0.8-0.4,1.2-0.6l28.5-16.5L470.7,333.6z"/>
			</g>
			<g>
				<g>
					<path class="st89" d="M368.6,362.8c-3.4,1.9-3.4,5.1,0,7.1l13.4,7.8c3.4,1.9,8.9,1.9,12.2,0l28.5-16.5c3.4-1.9,3.4-5.1,0-7.1
						l-13.4-7.8c-3.4-1.9-8.9-1.9-12.2,0L368.6,362.8z"/>
				</g>
				<path class="st76" d="M422.7,361.2l-28.5,16.5c-0.4,0.2-0.8,0.5-1.3,0.6c-0.1,0-0.1,0-0.2,0.1c-0.4,0.1-0.8,0.2-1.2,0.4
					c-0.1,0-0.1,0-0.2,0.1c-0.5,0.1-1,0.2-1.4,0.2c-0.1,0-0.1,0-0.2,0c-0.5,0-1,0.1-1.4,0.1c-0.1,0-0.1,0-0.2,0c-0.5,0-1,0-1.4-0.1
					c-0.1,0-0.1,0-0.2,0c-0.4,0-0.7-0.1-1.1-0.2c-0.2-0.1-0.6-0.1-0.8-0.2c-0.2-0.1-0.5-0.1-0.6-0.2c-0.6-0.2-1.2-0.5-1.7-0.7
					l-13.4-7.8c-0.2-0.1-0.4-0.2-0.6-0.4c-0.2-0.1-0.5-0.2-0.6-0.5c-0.2-0.2-0.5-0.5-0.7-0.7l-0.1-0.1c-0.1-0.2-0.4-0.5-0.4-0.8
					v-0.1c-0.1-0.2-0.1-0.6-0.1-0.8v4.3l0,0c0,0,0,0,0,0.1c0,0.1,0,0.4,0,0.5c0,0.1,0,0.2,0.1,0.4v0.1c0,0,0,0,0,0.1
					c0.1,0.1,0.1,0.4,0.2,0.5c0,0.1,0.1,0.1,0.1,0.2l0.1,0.1c0,0,0,0.1,0.1,0.1c0.1,0.2,0.4,0.4,0.5,0.6l0,0
					c0.1,0.1,0.4,0.4,0.6,0.5c0.1,0.1,0.2,0.2,0.5,0.4c0,0,0.1,0,0.1,0.1l13.4,7.8c0.5,0.4,1.1,0.6,1.7,0.7c0.1,0,0.1,0.1,0.2,0.1
					s0.4,0.1,0.5,0.1c0.2,0.1,0.6,0.1,0.8,0.2c0.1,0,0.2,0,0.4,0.1c0.2,0,0.5,0.1,0.7,0.1c0.1,0,0.1,0,0.2,0h0.1c0.4,0,0.6,0,1,0.1
					c0.1,0,0.2,0,0.4,0c0.1,0,0.1,0,0.2,0s0.1,0,0.2,0c0.2,0,0.6,0,0.8,0c0.1,0,0.2,0,0.4,0c0.1,0,0.1,0,0.2,0s0.2,0,0.4,0
					c0.2,0,0.6-0.1,0.8-0.1c0.1,0,0.1,0,0.2,0c0.1,0,0.1,0,0.2-0.1c0.1,0,0.2-0.1,0.5-0.1c0.2-0.1,0.5-0.1,0.7-0.2
					c0.1,0,0.1,0,0.2-0.1c0,0,0,0,0.1,0c0.5-0.1,0.8-0.4,1.2-0.6l28.5-16.5c1.7-1,2.5-2.3,2.5-3.6v-4.3
					C425.3,358.9,424.5,360.3,422.7,361.2z"/>
			</g>
			<g>
				<g>
					<path class="st90" d="M320.5,390.4c-3.4,1.9-3.4,5.1,0,7.1l13.4,7.8c3.4,1.9,8.9,1.9,12.2,0l28.5-16.5c3.4-1.9,3.4-5.1,0-7.1
						l-13.4-7.8c-3.4-1.9-8.9-1.9-12.2,0L320.5,390.4z"/>
				</g>
				<path class="st91" d="M377.3,385.3L377.3,385.3c0,1-0.5,1.9-1.4,2.8c-0.4,0.2-0.7,0.6-1.1,0.8l-28.5,16.5
					c-0.4,0.2-0.8,0.5-1.3,0.6c-0.1,0-0.1,0-0.2,0.1c-0.4,0.1-0.8,0.2-1.2,0.4c-0.1,0-0.1,0-0.2,0.1c-0.5,0.1-1,0.2-1.4,0.2
					c-0.1,0-0.1,0-0.2,0c-0.5,0-1,0.1-1.4,0.1c-0.1,0-0.1,0-0.2,0c-0.5,0-1,0-1.4-0.1c-0.1,0-0.1,0-0.2,0c-0.4,0-0.7-0.1-1.1-0.2
					c-0.2-0.1-0.6-0.1-0.8-0.2c-0.2-0.1-0.5-0.1-0.6-0.2c-0.6-0.2-1.2-0.5-1.7-0.7l-13.4-7.8c-0.2-0.1-0.4-0.2-0.5-0.4
					c-0.2-0.1-0.5-0.2-0.6-0.5c-0.2-0.2-0.5-0.5-0.7-0.7l-0.1-0.1c-0.1-0.2-0.4-0.5-0.4-0.8V395c-0.1-0.2-0.1-0.6-0.1-0.8v4.3
					c0,0,0,0,0,0.1s0,0.4,0,0.5c0,0.1,0,0.2,0.1,0.4v0.1c0,0,0,0,0,0.1c0.1,0.1,0.1,0.4,0.2,0.5c0,0.1,0.1,0.1,0.1,0.2l0.1,0.1
					c0,0,0,0.1,0.1,0.1c0.1,0.2,0.4,0.4,0.5,0.6l0,0c0.1,0.1,0.4,0.4,0.6,0.5c0.1,0.1,0.2,0.2,0.5,0.4c0,0,0.1,0,0.1,0.1l13.4,7.8
					c0.5,0.4,1.1,0.6,1.7,0.7c0.1,0,0.1,0.1,0.2,0.1c0.1,0,0.4,0.1,0.5,0.1c0.2,0.1,0.6,0.1,0.8,0.2c0.1,0,0.2,0,0.4,0.1
					c0.2,0,0.5,0.1,0.7,0.1c0.1,0,0.1,0,0.2,0h0.1c0.4,0,0.6,0,1,0.1c0.1,0,0.2,0,0.4,0c0.1,0,0.1,0,0.2,0s0.1,0,0.2,0
					c0.2,0,0.6,0,0.8,0c0.1,0,0.2,0,0.4,0c0.1,0,0.1,0,0.2,0c0.1,0,0.2,0,0.4,0c0.2,0,0.6-0.1,0.8-0.1c0.1,0,0.1,0,0.2,0
					s0.1,0,0.2-0.1c0.1,0,0.2-0.1,0.5-0.1c0.2-0.1,0.5-0.1,0.7-0.2c0.1,0,0.1,0,0.2-0.1c0,0,0,0,0.1,0c0.5-0.1,0.8-0.4,1.2-0.6
					l28.5-16.5c1.7-1,2.5-2.3,2.5-3.6L377.3,385.3L377.3,385.3z"/>
			</g>
		</g>
		<polygon class="st79" points="532.5,395.9 532.5,371 534.9,369.4 534.9,394.4 		"/>
	</g>
	<g>
		<g class="st5">
			<g>
				<polygon class="st92" points="332.3,196.6 336.6,194.1 434.5,250.6 430.2,253.1 				"/>
			</g>
			<g>
				<polygon class="st93" points="430.2,241.8 454.8,281.9 430.1,293.7 430.1,282.3 332.1,225.8 332.3,196.6 430.2,253.1 				"/>
			</g>
			<g>
				<polygon class="st94" points="430.2,241.8 434.5,239.3 459.1,279.4 454.8,281.9 				"/>
			</g>
		</g>
	</g>
	<g>
		<g>
			<polygon class="st95" points="150,282.7 150,283.7 156.7,287.7 158.5,287.7 158.5,286.6 151.8,282.7 			"/>
		</g>
		<g>
			<polygon class="st95" points="157.3,278.5 157.3,279.5 165,284 165.8,283.5 165.8,282.4 159.1,278.5 			"/>
		</g>
		<g>
			<polygon class="st95" points="166.1,283.6 165.2,284.1 172.9,288.6 174.8,288.6 174.8,287.6 168.1,283.6 			"/>
		</g>
		<g>
			<polygon class="st95" points="158.9,287.8 158.9,288.9 165.6,292.8 167.5,292.8 167.5,291.8 160.8,287.8 			"/>
		</g>
		<g>
			<polygon class="st95" points="159.8,278.6 161.5,279.7 170.5,279.7 171.7,278.9 170.3,278.1 160.7,278.1 			"/>
		</g>
		<g class="st5">
			<g>
				<polygon class="st95" points="169.7,271.3 169.7,272.4 171.5,272.4 177.3,269 177.3,267.9 175.4,267.9 				"/>
			</g>
			<g>
				<polygon class="st95" points="169.7,272.6 169.7,273.7 175.3,276.9 177.1,276.9 177.1,275.8 171.5,272.6 				"/>
			</g>
			<g>
				<polygon class="st95" points="177.4,275.8 177.4,276.9 179.2,276.9 185.1,273.6 185.1,272.5 183.3,272.5 				"/>
			</g>
			<g>
				<polygon class="st95" points="165.2,273.8 165.2,275 171.9,278.8 173.9,278.8 174.8,278.4 167,273.8 				"/>
			</g>
			<g>
				<polygon class="st95" points="182.1,279.9 182.1,281 183.1,281.5 185,281.5 185,280.4 184,279.9 				"/>
			</g>
			<g>
				<polygon class="st95" points="185.2,280.4 185.2,281.5 187.1,281.5 192.9,278.1 192.9,277.2 191.1,277 				"/>
			</g>
			<g>
				<polygon class="st95" points="174.1,278.9 174.1,280.1 180.8,284 182.7,284 182.7,283 175,278.5 				"/>
			</g>
		</g>
		<g>
			<polygon class="st95" points="177.6,267.9 177.6,269 178.5,269.6 180.4,269.6 180.4,268.5 179.5,267.9 			"/>
		</g>
		<g>
			<polygon class="st95" points="181.4,265.8 181.4,266.9 188,270.7 188.9,270.2 188.8,269 183.2,265.8 			"/>
		</g>
		<g>
			<polygon class="st95" points="189.1,270.3 188.2,270.8 194.8,274.8 196.7,274.8 196.7,273.7 191.1,270.3 			"/>
		</g>
		<g>
			<polygon class="st95" points="185.5,272.5 185.5,273.6 191.1,276.9 192.9,276.9 192.9,275.8 187.3,272.5 			"/>
		</g>
		<g>
			<polygon class="st95" points="189.2,269.1 189.2,270.2 191,270.2 195.5,267.6 195.5,266.5 193.7,266.5 			"/>
		</g>
		<g>
			<polygon class="st95" points="181.4,264.6 181.4,265.7 183.2,265.7 188.9,262.3 189.1,261.2 187.1,261.2 			"/>
		</g>
		<g>
			<polygon class="st95" points="197,273.7 197,274.8 198.9,274.8 204.6,271.4 204.6,270.3 202.8,270.3 			"/>
		</g>
		<g>
			<polygon class="st95" points="199,264.6 206.8,269.1 208.6,269.1 208.6,267.9 201.9,264.1 200,264.1 			"/>
		</g>
		<g>
			<polygon class="st95" points="206.3,251.4 206.3,252.5 211.9,255.7 213.7,255.7 213.8,254.6 208.2,251.4 			"/>
		</g>
		<g class="st5">
			<g>
				<polygon class="st95" points="201.5,253 201.5,254 203.3,254 205.9,252.5 206.1,251.2 208.1,251.2 210.9,249.6 210.9,248.5 
					209.1,248.5 				"/>
			</g>
			<g>
				<polygon class="st95" points="200.2,254.9 200.2,256 205.8,259.3 207.7,259.3 207.7,258.2 202.1,254.9 				"/>
			</g>
			<g>
				<polygon class="st95" points="190.4,259.3 194.1,259.3 200,256 200,254.9 198,254.9 				"/>
			</g>
			<g>
				<polygon class="st95" points="200.1,262.8 200.1,263.9 201.9,263.9 207.7,260.5 207.7,259.4 205.9,259.4 				"/>
			</g>
			<g>
				<polygon class="st95" points="190.4,259.6 198.9,264.5 199.7,264 199.7,262.8 194.1,259.6 				"/>
			</g>
			<g>
				<polygon class="st95" points="202.2,264 203.2,264.6 216,264.8 217.6,263.9 216.6,263.4 203.7,263.1 				"/>
			</g>
		</g>
		<g>
			<polygon class="st95" points="214.2,256 214.1,257 220.9,261 222.7,261 222.7,259.9 216,256 			"/>
		</g>
		<g class="st5">
			<g>
				<polygon class="st95" points="234,235.5 234,236.4 234.9,237 236.7,237 236.7,236 235.8,235.5 				"/>
			</g>
			<g>
				<polygon class="st95" points="225.9,238.8 225.9,239.8 227.9,239.8 233.6,236.6 233.6,235.5 231.8,235.5 				"/>
			</g>
		</g>
		<g>
			<polygon class="st95" points="225.9,240 225.9,241.1 232.6,244.9 233.5,244.5 233.5,243.4 227.7,240 			"/>
		</g>
		<g>
			<polygon class="st95" points="246.5,242.7 246.4,243.9 247.4,244.3 249.3,244.3 249.3,243.3 248.3,242.7 			"/>
		</g>
		<g>
			<polygon class="st95" points="241.6,247.9 241.6,249 243.4,249 249.3,245.7 249.3,244.6 247.4,244.6 			"/>
		</g>
		<g>
			<polygon class="st95" points="233.7,244.6 232.9,245.1 239.5,249 241.3,249 241.3,247.9 235.6,244.6 			"/>
		</g>
		<g>
			<polygon class="st95" points="237.3,232.2 237.3,233.3 239.2,233.3 245,230 245,228.9 243.2,228.9 			"/>
		</g>
		<g class="st5">
			<g>
				<polygon class="st95" points="245.1,236.8 245.1,237.9 247,237.9 252.8,234.5 252.8,233.4 251,233.4 				"/>
			</g>
			<g>
				<polygon class="st95" points="237.3,233.4 237.3,234.6 243.9,238.5 244.9,237.9 244.9,236.8 239.1,233.4 				"/>
			</g>
			<g>
				<polygon class="st95" points="244.1,238.6 251.8,243 253.7,243 253.7,241.9 246.9,238 245,238 				"/>
			</g>
		</g>
		<g>
			<polygon class="st95" points="245.3,228.9 245.3,230 251,233.2 252.9,233.2 253.8,232.7 247.1,228.9 			"/>
		</g>
		<g>
			<polygon class="st95" points="275.5,228.3 275.5,230.5 283.2,226 283.2,224.9 281.4,224.9 			"/>
		</g>
		<g>
			<polygon class="st95" points="275.8,220.4 275.8,221.5 281.4,224.7 283.2,224.8 283.3,223.7 276.6,219.8 			"/>
		</g>
		<g>
			<polygon class="st95" points="258.1,220.4 266.5,225.4 267.4,224.8 267.4,223.7 261.7,220.4 			"/>
		</g>
		<g>
			<polygon class="st95" points="266.8,225.5 275.2,230.5 275.3,228.3 269.6,224.9 267.6,224.9 			"/>
		</g>
		<g>
			<polygon class="st95" points="258.6,231.4 259.6,232 272.4,232.2 274,231.4 272.9,230.8 260.1,230.6 			"/>
		</g>
		<g class="st5">
			<g>
				<polygon class="st95" points="256.6,222.3 256.6,223.5 262.2,226.7 264,226.7 264.1,225.7 258.4,222.3 				"/>
			</g>
			<g>
				<polygon class="st95" points="246.8,226.7 250.5,226.7 256.2,223.4 256.2,222.4 254.4,222.3 				"/>
			</g>
			<g>
				<polygon class="st95" points="256.5,230.3 256.5,231.3 258.3,231.3 264,227.9 264.1,226.9 262.2,226.9 				"/>
			</g>
			<g>
				<polygon class="st95" points="246.8,227 255.2,231.9 256.1,231.4 256.1,230.2 250.5,227 				"/>
			</g>
			<g>
				<polygon class="st95" points="255.4,232 263.2,236.6 265,236.6 265,235.5 258.3,231.5 256.2,231.5 				"/>
			</g>
			<g>
				<polygon class="st95" points="253.1,233.3 253.1,234.5 259.8,238.4 261.7,238.5 261.7,237.4 254,232.8 				"/>
			</g>
		</g>
		<g>
			<polygon class="st95" points="267.8,215.8 267.8,216.9 273.5,220.2 275.5,220.3 276.4,219.7 269.8,215.8 			"/>
		</g>
		<g>
			<polygon class="st95" points="258,220.3 261.7,220.3 267.6,216.9 267.6,215.8 265.7,215.8 			"/>
		</g>
	</g>
</g>
</svg>
