<?xml version="1.0" encoding="utf-8"?>
<!-- Generator: Adobe Illustrator 22.0.1, SVG Export Plug-In . SVG Version: 6.00 Build 0)  -->
<svg version="1.1" id="Layer_6" xmlns="http://www.w3.org/2000/svg" xmlns:xlink="http://www.w3.org/1999/xlink" x="0px" y="0px"
	 viewBox="0 0 600 600" style="enable-background:new 0 0 600 600;" xml:space="preserve">
<style type="text/css">
	.st0{fill:#010101;}
	.st1{fill:#D87B28;}
</style>
<rect x="-10.3" y="-13.8" class="st0" width="618.4" height="624"/>
<path class="st1" d="M23.6,337.6l24.1-7c4.5-1.3,9.1-2.2,13.3-2.8c22.1-3.1,42.1,3.3,50.7,33c8.6,29.6-4.8,45.8-25.2,54.8
	c-3.9,1.8-8.3,3.3-12.8,4.6l-24.1,7L23.6,337.6z M523.6,233.9c6.5-2.8,11.2-7.2,8.7-15.8c-2.4-8.2-8.5-8.8-15.5-7.9l-12.2,3.5
	l7,24.1l5.7-1.7C519.4,235.5,521.6,234.7,523.6,233.9z M512.6,196c16.1-4,31.7-5,37.6,15.4c3.1,10.6-1.1,21.3-11.9,26
	c4.9-0.7,9.1,3.1,11.9,6.7l24.2,31l-19.6,5.7l-18.8-25.1c-2.8-3.6-4.9-5.6-8-6.3c-1.7-0.4-4-0.2-6.9,0.7l-5.7,1.7l10.8,37.3
	l-17.5,5.1l-26-89.7l19-5.5C505.2,197.9,509.1,196.8,512.6,196L512.6,196z M357,270c3.6,4.7,6.3,10.3,8.3,17.1
	c1.8,6.3,2.6,12.7,2.1,18.8c-1.3,19.2-13.3,34.8-34.3,40.9c-28.1,8.2-51.6-5.8-59.6-33.1c-8-27.5,4.9-51.6,32.7-59.7
	C327.2,248,345.7,254.5,357,270z M351.5,251.1l54.7,72.8l6.5-1.9l8.4-99.7l-18.4,5.3l-4.6,52.6l-33.3-41.6l-18.8,5.4L351.5,251.1z
	 M425.7,220.9l52.2-15.1l4.2,14.5l-34.5,10l6.4,22l31.4-9.1l4,13.9l-31.4,9.1l7.3,25.3l34.7-10.1l4.1,14.1l-52.4,15.2L425.7,220.9
	L425.7,220.9L425.7,220.9z M65.3,342.7c-3.4-0.1-6.7,0.4-10,1.3l-10,2.9L63,408.1l10-2.9c3.3-0.9,6.3-2.5,9.1-4.4
	c9.7-7,15.6-19.5,11.2-34.6C88.9,351.1,77.2,343.2,65.3,342.7L65.3,342.7z M105.5,313.8l17.7-5.1l26,89.7l-17.7,5.1L105.5,313.8
	L105.5,313.8z M187.1,316c-7.2-2.1-14.9-4.1-22.1-2.9c-6.6,1-12.8,4.8-10.2,13.8c4.5,15.5,41.3-2.3,50,27.7
	c5.7,19.6-7,33.7-25.4,36.8c-9.9,1.8-16.2,0.5-25.2-2.4l-5.3-18.4c6.9,1.5,17.5,5.3,24.7,4.5c7.9-1,15.4-5.6,13-13.7
	c-5-17.3-41.5,1-50.1-28.6c-5.8-20,7.2-31.7,22.7-36.2c7.7-2.2,15.3-1.3,22.8,2.2L187.1,316L187.1,316z M279.4,350.9
	c-2.8,7-12.5,13.3-19.4,16c-27,9.8-49.8-0.2-58.6-30.5c-8.9-30.6,2-53.2,32.3-60.2c6-1.5,16.1-2.3,24,1.2l5,17.1
	c-8.9-2.5-17.6-3.5-24.2-1.8c-18.3,4.7-24.4,18.8-19.1,37.1c5.3,18.4,17,26,35.6,19.7c7.3-2.3,16.6-11.4,19.5-15.8L279.4,350.9z"/>
</svg>
