<?xml version="1.0" encoding="utf-8"?>
<!-- Generator: Adobe Illustrator 21.0.2, SVG Export Plug-In . SVG Version: 6.00 Build 0)  -->
<svg version="1.1" id="Layer_4" xmlns="http://www.w3.org/2000/svg" xmlns:xlink="http://www.w3.org/1999/xlink" x="0px" y="0px"
	 viewBox="0 0 1152 1152" style="enable-background:new 0 0 1152 1152;" xml:space="preserve">
<style type="text/css">
	.st0{fill:#0075F4;}
	.st1{fill:#C7EBEF;}
</style>
<rect y="-5.9" class="st0" width="1157.9" height="1157.9"/>
<path class="st1" d="M920.3,310.6H246.9c-45.9,0-83.3,37.4-83.3,83.3v383.3c0,45.9,37.4,83.3,83.3,83.3h673.3
	c45.9,0,83.3-37.4,83.3-83.3V393.9C1003.6,348,966.2,310.6,920.3,310.6z M948,393.9v383.3c0,4.4-1.2,8.4-3.1,12.1L748.7,592.9
	L948,393.6C948,393.7,948,393.8,948,393.9z M219.2,777.2V393.9c0-0.1,0.1-0.2,0.1-0.3l199.3,199.3L222.2,789.2
	C220.4,785.5,219.2,781.5,219.2,777.2z M592.2,670.9c-4.6,4.6-12.6,4.6-17.1,0L270.3,366.1h626.6L592.2,670.9z M457.8,632.2l78,78
	c12.8,12.8,29.8,19.8,47.8,19.8c18.1,0,35-7,47.8-19.8l78-78l172.7,172.8H285L457.8,632.2z"/>
</svg>
