<?xml version="1.0" encoding="utf-8"?>
<!-- Generator: Adobe Illustrator 21.0.2, SVG Export Plug-In . SVG Version: 6.00 Build 0)  -->
<svg version="1.1" id="Layer_4" xmlns="http://www.w3.org/2000/svg" xmlns:xlink="http://www.w3.org/1999/xlink" x="0px" y="0px"
	 viewBox="0 0 1152 1152" style="enable-background:new 0 0 1152 1152;" xml:space="preserve">
<style type="text/css">
	.st0{fill:#0075F4;}
</style>
<path class="st0" d="M1017.6,231.1h-868c-59.2,0-107.4,48.2-107.4,107.4v494.1c0,59.2,48.2,107.4,107.4,107.4h868
	c59.2,0,107.4-48.2,107.4-107.4V338.5C1125,279.3,1076.8,231.1,1017.6,231.1z M1053.4,338.5v494.1c0,5.6-1.6,10.8-3.9,15.6
	L796.4,595l256.9-256.9C1053.3,338.2,1053.4,338.3,1053.4,338.5z M113.8,832.6V338.5c0-0.1,0.1-0.2,0.1-0.4L370.8,595L117.7,848.1
	C115.4,843.4,113.8,838.2,113.8,832.6z M594.6,695.6c-5.9,5.9-16.2,5.9-22.1,0L179.7,302.7h807.8L594.6,695.6z M421.4,645.7
	l100.5,100.5c16.5,16.5,38.4,25.6,61.7,25.6c23.3,0,45.2-9.1,61.7-25.6l100.5-100.5l222.7,222.7H198.7L421.4,645.7z"/>
</svg>
