<?xml version="1.0" encoding="utf-8"?>
<!-- Generator: Adobe Illustrator 21.0.2, SVG Export Plug-In . SVG Version: 6.00 Build 0)  -->
<svg version="1.1" id="Layer_2" xmlns="http://www.w3.org/2000/svg" xmlns:xlink="http://www.w3.org/1999/xlink" x="0px" y="0px"
	 viewBox="0 0 1152 1152" style="enable-background:new 0 0 1152 1152;" xml:space="preserve">
<style type="text/css">
	.st0{fill:#B51919;}
</style>
<path class="st0" d="M977,507.3c-8.5-30.2-21.3-57.8-42.7-84c7.2-101.4-8.5-141.2-24.2-187.2c-15.6-46-64.3-112.3-103.9-157.6
	c2.3,34.9,9.7,65,9.7,104.4s-21.6,118.9-46.2,163.6c-106.4-8.9-211.1,101.7-224.8,122c-17.7-17-143.3-103-245.5-71.9
	c-33.5-38.6-71.3-111.8-79.6-150.2c-8.3-38.4-7.4-69.5-12.5-104.1C178.2,195,144.6,270,139,318.3c-5.6,48.2-12.6,90.4,15.8,188
	c-15.4,30.1-22.1,59.8-24,91.1c0.3,240.3,368.6,361.2,478.6,476C692.8,938,1027.4,742.2,977,507.3z"/>
</svg>
