<?xml version="1.0" encoding="utf-8"?>
<!-- Generator: Adobe Illustrator 22.0.1, SVG Export Plug-In . SVG Version: 6.00 Build 0)  -->
<svg version="1.1" id="Layer_12" xmlns="http://www.w3.org/2000/svg" xmlns:xlink="http://www.w3.org/1999/xlink" x="0px" y="0px"
	 viewBox="0 0 1152 1152" style="enable-background:new 0 0 1152 1152;" xml:space="preserve">
<style type="text/css">
	.st0{clip-path:url(#SVGID_2_);fill:#FBBC05;}
	.st1{clip-path:url(#SVGID_4_);fill:#EA4335;}
	.st2{clip-path:url(#SVGID_6_);fill:#34A853;}
	.st3{clip-path:url(#SVGID_8_);fill:#4285F4;}
</style>
<g>
	<defs>
		<path id="SVGID_1_" d="M1056.6,479.7H563v204.6h284.1C820.6,814.4,709.9,889,563,889c-173.3,0-313-139.6-313-313
			s139.6-313,313-313c74.6,0,142.1,26.5,195,69.8l154.1-154.1C818.2,96.9,697.9,46.3,563,46.3C269.3,46.3,33.3,282.3,33.3,576
			s235.9,529.7,529.7,529.7c264.8,0,505.6-192.6,505.6-529.7C1068.6,544.7,1063.8,511,1056.6,479.7z"/>
	</defs>
	<clipPath id="SVGID_2_">
		<use xlink:href="#SVGID_1_"  style="overflow:visible;"/>
	</clipPath>
	<path class="st0" d="M-14.8,889V263l409.3,313L-14.8,889z"/>
</g>
<g>
	<defs>
		<path id="SVGID_3_" d="M1056.6,479.7H563v204.6h284.1C820.6,814.4,709.9,889,563,889c-173.3,0-313-139.6-313-313
			s139.6-313,313-313c74.6,0,142.1,26.5,195,69.8l154.1-154.1C818.2,96.9,697.9,46.3,563,46.3C269.3,46.3,33.3,282.3,33.3,576
			s235.9,529.7,529.7,529.7c264.8,0,505.6-192.6,505.6-529.7C1068.6,544.7,1063.8,511,1056.6,479.7z"/>
	</defs>
	<clipPath id="SVGID_4_">
		<use xlink:href="#SVGID_3_"  style="overflow:visible;"/>
	</clipPath>
	<path class="st1" d="M-14.8,263l409.3,313L563,429.1l577.8-93.9V-1.8H-14.8V263z"/>
</g>
<g>
	<defs>
		<path id="SVGID_5_" d="M1056.6,479.7H563v204.6h284.1C820.6,814.4,709.9,889,563,889c-173.3,0-313-139.6-313-313
			s139.6-313,313-313c74.6,0,142.1,26.5,195,69.8l154.1-154.1C818.2,96.9,697.9,46.3,563,46.3C269.3,46.3,33.3,282.3,33.3,576
			s235.9,529.7,529.7,529.7c264.8,0,505.6-192.6,505.6-529.7C1068.6,544.7,1063.8,511,1056.6,479.7z"/>
	</defs>
	<clipPath id="SVGID_6_">
		<use xlink:href="#SVGID_5_"  style="overflow:visible;"/>
	</clipPath>
	<path class="st2" d="M-14.8,889l722.3-553.8l190.2,24.1L1140.9-1.8v1155.7H-14.8V889z"/>
</g>
<g>
	<defs>
		<path id="SVGID_7_" d="M1056.6,479.7H563v204.6h284.1C820.6,814.4,709.9,889,563,889c-173.3,0-313-139.6-313-313
			s139.6-313,313-313c74.6,0,142.1,26.5,195,69.8l154.1-154.1C818.2,96.9,697.9,46.3,563,46.3C269.3,46.3,33.3,282.3,33.3,576
			s235.9,529.7,529.7,529.7c264.8,0,505.6-192.6,505.6-529.7C1068.6,544.7,1063.8,511,1056.6,479.7z"/>
	</defs>
	<clipPath id="SVGID_8_">
		<use xlink:href="#SVGID_7_"  style="overflow:visible;"/>
	</clipPath>
	<path class="st3" d="M1140.9,1153.8L394.5,576l-96.3-72.2L1140.9,263V1153.8z"/>
</g>
</svg>
