<?xml version="1.0" encoding="utf-8"?>
<!-- Generator: Adobe Illustrator 22.0.1, SVG Export Plug-In . SVG Version: 6.00 Build 0)  -->
<svg version="1.1" id="Layer_2" xmlns="http://www.w3.org/2000/svg" xmlns:xlink="http://www.w3.org/1999/xlink" x="0px" y="0px"
	 viewBox="0 0 300 300" style="enable-background:new 0 0 300 300;" xml:space="preserve">
<style type="text/css">
	.st0{fill:#333333;}
</style>
<g>
	<g>
		<path class="st0" d="M5.7,292.6c0-95.7,0-191.4,0-287.1c96.4,0,192.9,0,289.3,0c0,95.7,0,191.4,0,287.1
			C198.6,292.6,102.1,292.6,5.7,292.6z M28.9,164.5c0,35.4,0,69.1,0,102.9c79.2,0,157.5,0,236.3,0c0-34.3,0-68.1,0-103
			c-8.3,0-15.9,0-23.5,0c0-12.3,0-23.4,0-35.6c8.1,0,15.7,0,23.3,0c0-34.2,0-67.2,0-100.3c-79.2,0-157.5,0-236.3,0
			c0,33.6,0,66.6,0,100.8c7.5,0,14.4,0,21.2,0c0,12.3,0,23.4,0,35.2C42.9,164.5,36.3,164.5,28.9,164.5z"/>
		<path class="st0" d="M47.8,190c2.9-0.1,5.4-0.3,7.9-0.4c8.3,38.8,23.4,51.6,54.4,45.6c0-56,0-112.2,0-168.4
			c-28.4-8.5-49.9,9.6-53.7,45.8c-2.7,0-5.5,0-8.8,0c0-21.1,0-41.9,0-63.6c32.2,0,64,0,96.5,0c0,68.8,0,137.4,0,206.9
			c-31.7,0-63.6,0-96.3,0C47.8,234.1,47.8,212.2,47.8,190z"/>
		<path class="st0" d="M158.7,255.9c0-69.3,0-137.9,0-207.2c32.8,0,65.1,0,98,0c0,21.2,0,42,0,62.8c-9.1,1.9-9.1,1.9-10.6-8.5
			c-4.1-27.8-27-43.5-53.7-36.3c0,55.8,0,111.7,0,167.6c25.3,8.7,49.3-7,53.6-35c0.9-6.2,1.1-12.5,10.8-8.7c0,21.4,0,43,0,65.4
			C224.3,255.9,192,255.9,158.7,255.9z"/>
	</g>
</g>
</svg>
