<?xml version="1.0" encoding="utf-8"?>
<!-- Generator: Adobe Illustrator 22.0.1, SVG Export Plug-In . SVG Version: 6.00 Build 0)  -->
<svg version="1.1" id="Kink" xmlns="http://www.w3.org/2000/svg" xmlns:xlink="http://www.w3.org/1999/xlink" x="0px" y="0px"
	 viewBox="0 0 600 600" style="enable-background:new 0 0 600 600;" xml:space="preserve">
<style type="text/css">
	.st0{fill-rule:evenodd;clip-rule:evenodd;fill:#A72A30;}
</style>
<path class="st0" d="M169.1,326c16.7-16.5,40.8-28.5,46.4-53c1.5-5.1,0.2-14.8-1.3-20.3c-4.3-15.2-16.6-26.1-28.5-31.6
	c-12.2-5.6-30.8-5.8-33.9-22.5c-0.5-3-0.3-9,0.8-11.8c1.2-3.9,4.6-8.3,7-13.9c-13.6,0.7-39.7-1.4-56-3.7
	c-12.9-1.9-32.5-4.7-47.1-6.6c-7-0.7-27.1-2.7-42,1.1c11.3,2,26.1,8.5,40.3,16.6c10.1,5.7,24,17.6,39.2,33
	c11.2,11.4,20.9,24.5,23.3,28.9c3.2-10.2,12.6-17.9,23.8-21.3c14.7-4.5,33.4,5.3,43.7,13.1c1,0.8,7.8,6,12.5,12c3.1,3.9,9,14,5.2,26
	c-3.1,9.8-25.6,26.2-42.5,42.4c-6.4,6.1-27.5,25.5-32.6,31.7c-15.7,19.3-30.9,39.1-33.2,71.8c-0.7,8.7-1,17.6,0,25.4
	c4.3,31.3,14.8,56.4,31.1,75.7c8.5,10.1,18.9,18.3,30.8,25.1c14.4,8.2,41.4,16.4,72.5,17.5c26.9,0.9,52-8.6,57.4-11.1
	c42.4-19.6,69.7-54,76.4-108.5c1.9-22.4,1.5-77.2,1.5-77.2c4.2,0,13.8-0.2,19,2.1c5.8,2.5,11.4,10.8,11.4,27.5l-0.5,146.1
	c0,12.7,5.4,21.7,9.7,27.6c6.4,8.7,17.1,16.7,30.4,16.7l117.9-1.1c-16-9.4-27.4-27.3-27.4-49.6l-1.3-150.5
	c0-24.9-24.1-36.3-46.4-44.2c17.8-6,31-15.2,39.3-30.9c3.3-6.3,7.2-13.7,7.1-23.3l0-98.6c0.2-7,0.5-14,1-20.9c0,0,0.5-6.1,1.7-10.9
	c1.7-6.6,4.1-11.8,5.3-13.8c7-12.6,19-20.5,31.9-27l-123.8,0.1c-23.7,0-40.3,23-44.2,48.6c-2,15.8-2.6,22-2.3,42.1l0.5,80.7
	c0,16.4-9.1,24.3-27,23.1V68.5c0-20.4,11.5-46.3,31.9-55.3l-102.6,0c-5.1,0-14.3,0-21,1.1c-25.5,3.9-38.1,20.8-40.9,47.5
	c0,18.4,0,36.8,0,55.3c0,95.7,0,191.5,0,287.2c0,1.6,0,10.3-1.2,18.9c-1.3,9-3.7,18.1-4.4,20.6c-4.1,14-10.5,25.7-20.5,34
	c-10.3,8.6-24.9,9.6-30.4,9.8c-5.5,0.2-18.2-1.1-28-6.5c-15.8-8.9-23.9-26.7-26.3-46.6c-2.6-21.8,1.7-46.3,10.7-65.1
	c1.6-3.4,6.6-11.5,13.2-19.3C156.4,338.2,169.1,326,169.1,326z"/>
</svg>
