<?xml version="1.0" encoding="utf-8"?>
<!-- Generator: Adobe Illustrator 21.0.2, SVG Export Plug-In . SVG Version: 6.00 Build 0)  -->
<svg version="1.1" id="Layer_12" xmlns="http://www.w3.org/2000/svg" xmlns:xlink="http://www.w3.org/1999/xlink" x="0px" y="0px"
	 viewBox="0 0 1152 1152" style="enable-background:new 0 0 1152 1152;" xml:space="preserve">
<style type="text/css">
	.st0{fill:#A69933;}
</style>
<g>
	<g>
		<g>
			<path class="st0" d="M805.1,467.4c0.4,0.4,0.9,0.6,1.5,0.5c1.1,1.6,2,1.6,2.7-0.3c0,0,0.1-0.1,0.1-0.1c2.3-0.5,3.5-2.1,4.5-4
				c5.3,2.8,8.2,6.8,4.7,12.6c-4.6,7.5-12.2,9.5-20.2,8.5c-6.3-0.8-11.6-4.6-16.1-9.3c-3.8-4.1-6.5-3.8-10.6,0.8
				c-13.8,15.6-32.2,18.1-47.8,7.9c-4.3-2.8-7-6.5-8.6-11.2c-0.5-1.6-2.1-3.6,0.2-4.8c1-0.5,2.8,0,4.1,0.5
				c10.5,4,23.1-2.7,23.1-14.8c0-12.9-0.4-26.6-11.4-36.8c-3.7-3.4-6.3-3.8-6.2,1.4c0.2,6.7-12.1,14.7,1.7,20.2l0,0
				c-6.2,8.6-13.3,3.9-20.1,1.1c-4.9-2-8-6-14,0.8c-7.4,8.5-18.2,8.3-28.9,0.9c5.9-1.1,11.3-0.2,16.2-2.7c5.1-2.6,8.3-5.9,8.4-12.2
				c-7.3,0.2-11.3,8-20.1,7.2c5.3-11,6.5-22,0.3-33.4c-5.9-10.9-14.4-17.7-26.4-23.3c0,20.9-0.3,40.4,0.2,60c0.1,5.5,3.6,8.2,9.6,11
				c16.2,7.4,30.9,16.6,35.5,37.2c2.8,12.3,5.7,22.3-6.6,33.7c16.9,0,31.2,0,45.5,0c24.9,0,49.8,0.2,74.7-0.2
				c7.5-0.1,10.6,1.8,10.5,9.8c-0.3,81,0.3,162.1-1,243.1c-0.4,24.1-1.3,48.2-0.8,72.3c0.4,19.6-7.4,36-15.3,52.8
				c-24.2,51.6-66.9,85-113.3,114.6c-26.6,16.9-54.9,30.8-84,43c-5,2.1-9.3,3.1-14.8,0.8c-45.9-19.5-90.1-41.8-128.8-73.9
				c-1.1-0.9-1.7-2.3-2.6-3.5c0.4-0.4,0.8-0.9,1.2-1.3c2,0.2,4.1,0.4,6.1,0.5c0.5,1,1,2,1.4,3c0.8,2.4,2.7,3.5,4.9,4.2
				c3.2,3.7,7.2,6.4,11.6,8.5c1.8,3.1,4.5,4.8,8.1,5.1c0.9,2.4,2.7,3.6,5.2,3.9c2.6,3.9,6.3,5.5,11.5,6.3c-2.4-5-6.1-6.5-10-7.7
				c-1-2.2-3-3.3-5.2-3.9c-2.1-2.8-5-4.3-8.2-5.3c-2.7-4.2-7.1-6.2-11.1-8.8c-1.7-1.2-3.5-2.5-5.2-3.7c-0.9-0.6-1.7-1.3-2.5-1.9
				c-7.2-6.3-13.1-14.2-22.5-17.9c0,0,0.1,0.1,0.1,0.1c0.5-3.6-1.1-5-4.6-4.6c0,0,0.1,0.1,0.1,0.1c0.7-4.4-2.7-6.3-5.5-8.1
				c-0.9-0.6-1.1,2-1.1,3.4c-0.4,0.3-0.7,0.6-1.1,1c-20.4-17.5-28.4-42-37-66.1c-11.7-32.7-16.5-66.4-16.2-101.3
				c0.6-84.4,0.3-168.8,0-253.2c0-8.3,2.1-10.9,10.6-10.8c26,0.4,52-0.1,78.1,0c6.7,0,11.1-1.5,15.5-7.6
				c15.2-20.7,32.3-39.8,55.2-52.3c4.4-2.4,5.4-4.9,4.1-9.6c-5.7-19.7-12.9-38.7-24.3-55.9c-1.4-2.1-2.6-5.3-5.3-5.2
				c-3.5,0.1-4.1,3.9-5.2,6.5c-5.9,13.9-3.5,26.9,5,38.9c2.2,3.2,5.3,4.9,9.5,4.6c2.6-0.2,4.8-6.3,7.8-0.3c2.4,4.8-0.1,7.7-3.2,10.6
				c-1.4,1.2-2.9,2.3-4.4,3.4c-9.4,3.7-18.1,0.2-26.8-2.6c0,0,0,0,0,0c-4-3.6-7.9-7.1-11.8-10.7c-2.1-1.9-4-3.2-6-0.1
				c-4.5,0.7-8.9,1.3-13.4,2c-1.8-2.2-4.3-2.3-6.8-2.1c-0.4-0.4-0.8-0.6-1.4-0.6c-0.8-0.9-1.7-1.8-2.5-2.6c0-0.6-0.2-1-0.5-1.5
				c-0.1-1.3-0.7-2.1-2.1-2.1c-4.7-4,0.4-5.7,1.7-8.5c1.9-3.8,3.2-7.9,4.8-11.8c1.3-3.5,1.1-6.8-0.5-10.6c-4.7,2.8-7.4,6-8.7,10.3
				c0,0,0.1,0.1,0.1,0.1c-0.6,0.9-1.2,1.7-1.8,2.6c0,0,0,0,0,0c-1.9,0.9-2.3,2.5-2.1,4.4c-5.3,12.7-10.7,25.3-3,39.1
				c3.7,6.7,8.5,10.3,16.3,7.2c4.2-1.7,7.1-0.8,9.2,3.3c2.1,4.1,1.8,7.7-1.3,11.2c-8.8,10-28,10.2-40.4-0.4c-5.4-4.6-9-7.3-15.4-0.9
				c-4.3,4.3-11.1,5.8-17.7,4.9c-12.3-1.6-13-2.9-8.9-14.6c0.5-1.4,0.6-2.9,0.6-4.4c0.1-7.4-0.7-15,0.4-22.3
				c1-6.7,4.1-13.1,6.8-21.4c-14.1,6-22.7,16.2-30.7,26.3c-10,12.8-13.7,28.6-16.3,44.4c-1,6,0.7,11.6,3.3,17.1
				c2.5,5.5,5.4,9.4,12.4,8.5c2.7-0.4,6.6-1.4,7.2,2.8c0.5,3.3-0.4,6.9-3.9,8.6c-8.2,4-17.1,7.7-25.1,1.2
				c-8.3-6.8-16.2-10.6-26.8-5.6c-9.8,4.7-13.3-1.5-15.5-9.6c-2.2-8-0.5-16.3-1.4-26c-9.1,8.7-12.1,19.3-15.6,29.4
				c-9,25.4-14,51.3-9.1,78.5c1.6,8.7,5.6,9.2,12.2,6c3-1.4,6.1-2.8,9.1-4.1c5.4-2.3,8.2-6.7,7.5-12.2c-0.6-5.1-2.9-9.3-9-11.2
				c-9.2-2.8-10.2-7.6-4-13.8c14.8-14.7,47.9-10.4,58.8,7.7c10.4,17.4,8.4,37.8-5,53c-2.2,2.5-3.8,5.4-5.9,8c-3.2,4-3.8,6.8,1,11
				c11.2,9.8,10.1,21.6-2,31c-3.9,3-4.8,5.5-0.5,8.6c7.2,5.1,9.7,11.6,6.4,20.2c-1.7,4.5,2.7,6.6,5.1,9
				c17.2,16.6,19.3,36.7,13.7,58.5c-2.3,9.1-6.8,17-16.3,21.1c-4.3-19.2-15-28.5-34.2-30.3c-3.6-0.3-4.9,3-7,4.8
				c-2.4,2-2.4,4.2-0.5,6.8c5.5,7.2,6.2,14.5,1.6,22.7c-3.3,5.8,2.8,6.1,6.1,7.8c4,2.2,9.9,3.1,7.3,10.1c-2.2,5.9-6.3,7.3-12.3,5.6
				c-7-2-14.3-3.1-22.4-4.8c9.5,13.9,10.5,29.2,11,44.7c0.3,10.2,10.7,17.3,20.5,14.5c4.4-1.3,7.3-3.6,4.6-9c-1.2-2.4-4-5.1-0.6-7.9
				c2.7-2.1,5.7-1.1,8.6-0.2c10.7,3.1,15.9,12.3,14,24.5c-1.6,9.7-11.3,17.2-22.2,15.5c-5.9-0.9-9.6-0.1-14.6,3.9
				c-10.1,8-19.4,0.8-28.5-4.1c-9.2-5-10.5-12.9-7.9-21.9c1.5-5.3,3.9-10.4,5.9-15.5c4.3-6.8,6.8-14,6.2-24.4
				c-4.3,7.8-7.6,13.7-10.9,19.7c-3.7,3.6-7.6,7-11.2,10.8c-21.8,23.2-56.8,10.5-71.4-7.4c-6.8-8.3-9.6-24.3-4.1-31.3
				c7.2-9.1,14.5-18.1,29.1-15.5c17.8,3.2,17.9,2.3,27.5,17.2c2.4-10.8,0.8-20.7-2.5-30.6c-12.7-37.7-37.8-67.8-60.2-99.5
				c-3.1-4.4-5.9-4.1-9.9-0.5c-7,6.4-27.3,8-32.6,1.3c-5-6.2-8.4-14.8-9.5-22.8c-1-7.3-4.2-10.2-10-12.4c-4.1-1.6-8.3-3.2-12.2-5.3
				c-6.6-3.6-7.3-24.7-1-28.5c1.7-1,3.4-0.3,5.3,0.2c10.4,3.2,15.2,0.2,15.1-10.5c-0.1-8.5,2.5-16,5.2-23.6
				c4.9-4.2,6.5-12.7,15.4-11.6c-7.3,10.3-15.2,20.4-10.3,35.8c6-7.3,5.3-17.3,15.5-19.5c2-0.4,6.1,1.6,7.5-2.9
				c1.1-3.5,3.8-7.1,1.5-10.5c-3.5-5.4-9.5-1.9-14.3-2.8c0.4-1.6,0.7-3.2,1.1-4.8c0.5-0.1,0.8-0.5,0.9-1c2.7-1,2.6-3.1,2.2-5.4
				c0-1.4,0-2.9,0-4.3c0.1-3,0.1-6,0.2-9c0.3-1.3,0.5-2.5,0.7-3.8c1.6-1.4,1.8-3.2,1.3-5.2c0.3-1.4,0.6-2.8,0.9-4.2
				c13.4-36.8,30.4-71.2,62.4-95.8c2.6-0.8,5-2.1,6.4-4.6c10.9-6.5,10.9-7.2,0.5-14.6c0-0.5-0.2-1-0.6-1.4c-0.3-3.1-2.2-5-4.7-6.5
				c-0.7-0.8-1.3-1.7-2-2.5c-4-5.2-1.4-17.5-11.8-15.4c-16.5,3.3-28.4-3.3-39.8-13.2c-7-7.6-5-16.8-3.9-25.4c0.5-4,2.8-9.2,9.1-4.4
				c7,5.3,13.7,2.8,16.5-4.2c6.8-16.4,18.4-25.9,33.7-35.3c15.6-9.5,29.9-20.5,48-24.4c27-5.7,53.7-4.6,79.3,6.8
				c2.9,1.5,5.9,3.1,8.8,4.6c0.9,1.3,2.4,2.3,3.4,1.1c1.4-1.6-0.6-2.1-1.7-2.8c-1.8-3.5-3.6-6.9-5.4-10.4c-3.8-8.1-5.6-16.7-7-25.5
				c-2-12.5-9.5-19.3-22.1-17.9c-7.6,0.8-7.3-2.8-6.8-7.4c2.1-17.7,29-35.8,45.7-22.5c4.6,3.7,7.9,2.6,12.7,0.1
				c14.8-7.5,30.2-11.6,47-7.1c14.9,4,23.9,13.4,26,28.2c1.4,9.7-4,16.2-11.1,21.4c-5.6,4.1-10.4,0.6-13-3.9
				c-3.3-5.6-7.7-8.3-13.5-7c-7.2,1.5-13.6,6.1-15.1,13.3c-2.7,13-4.3,26.5,6.2,37.6c2.2,8.6,8.5,12.1,17,14.5
				c-1-4.1-1.7-7.1-2.5-10.2c0-1.4,0.1-2.8,0.1-4.3c0.1-2.2,0.3-4.4,0.4-6.6c5.4-12.7,14.2-18,26.4-15.6c5.3,1.1,9.1,2.8,5.5,9.7
				c-7.6,14.4-4.4,22.9,10.7,30.5c2.9,3.5,6.4,2.2,10.7,1.3c-3.6-4.6-7-8.8-10.3-13.1c0-11,10-19.3,19.8-16.2c0.8,0.3,1.9,1.3,2,2.1
				c3.4,18.8,17.9,16.7,31.1,16.3c4.2-0.1,8.4-1.8,14-3.1c-4.7-4.5-12.8-6.2-9.7-14.4c2.7-7.2,9-7.5,15.3-8.8
				c9.3-1.8,18.2-6.2,28.2-4.1c3.1,0.6,6-0.7,7.2-3.9c1.2-3-1.2-4.8-3-6.6c-9.2-9.2-18.2-18.5-27.7-27.4c-5.5-5.2-4.5-9.2,0.4-14
				c9.5-9.4,19.1-18.6,29-27.5c7.2-6.4,10.7-12.6,8.6-20.8c-4.4-17.4,0.9-33.7,3.8-50.3c0.6-3.6,4.4-8.2,0.4-11.1
				c-3.8-2.7-7.8,1.3-11,3.3c-25.7,16.3-51.2,32.9-76.7,49.4c-2.5,1.6-4.9,3.3-7.5,4.9c-3.8,2.3-7.5,5.1-11.3-0.6
				c-4-6,0.7-7.7,4.4-9.9c20.3-12.3,40.7-24.5,61-36.7c6.4-3.8,12.8-7.6,19.1-11.4c7.8-4.7,16.2-7.8,9.9-20.7
				c-5.2-10.6,7-16.5,12.2-23.5c2.9-3.9,6.1-9.6,12.5-11.4c10.4-2.9,20.8-0.5,27.4,9.4c4,5.9,7,6,12.5,2.4
				c13-8.5,26.5-16.4,39.7-24.7c5-3.2,10-4.6,15.8-3.3l-0.2-0.2c-14.2,13.3-31.3,22.3-47.3,33c-8.1,5.5-15.2,10.9-12.6,22.2
				c0.3,1.4,0.3,3.3-0.4,4.4c-13.1,18.8,1.7,39-3.2,58.2c-0.4,1.7,1,3.9,0.4,5.5c-6.5,19.1,3.2,31,16.4,43.2
				c23.8,22,23.2,24.5,0.9,47.7c-1.6,1.6-3.3,3-4.7,4.8c-3,3.5-8.9,5.9-7.1,11.6c1.9,5.9,9,5.9,13,5.7c8.7-0.6,15.6,3.8,23.4,5.3
				c6.4,1.3,11.1,5.9,11.1,12.1c0,7.9-7.8,4.4-12.5,6.2c6.2,1.8,12,3.5,21.2,6.2c-8.1,2.5-13.1,1.4-18,1.4c-3.2,0-6.4,0.9-7.2,4.6
				c-0.6,2.6-1.4,5.9,3,6.4c-3.6,5.9,11.5,8.3,2.9,15.2c-0.3,0.2-0.2,1.8,0.2,2c12,7,12.4,23.8,26.2,30c4.8,2.2,16,7.4,6.1,17.6
				c-1,1,0.6,7.2,2.2,7.9c12.3,4.7,9.2,18.2,16,26.3c1.1-2.7,1.9-5.6,3.4-8.1c5.6-9.5,6.5-17.9-4.3-24.7c-2.6-1.6-6.4-4.6-4.3-8.1
				c2-3.4,5.9-1.3,8.9,0.2c16,7.5,31.8,15.4,45.2,27.2c5.7,5,4,14.4,11,18.5c1.4,0.8,0.7,5,3.9,2.6c1.8-1.4,5.1-1.9,4-5.6
				c-1.6-5.3-2.9-10.7-4.5-16.4c0.8-0.3,1.9-1.2,2.7-1c26.5,7.3,52.1,16.4,70.9,38.1c2.1,2.5,3.6,5.5,5.4,8.3
				c0.5,0.9,1.1,1.8,1.6,2.6c0,0-0.1,0-0.1,0c0.3,4.3,0.3,8.9,7,6.5c1.6,1.7,3.8,3.2,5.6,1.3c2.1-2.4,0-3.7-2.4-4.4
				c-1-0.2-2-0.4-3-0.6c0.6-0.1,1-0.5,1-1.2c0.5-0.5,0.6-1.1,0.3-1.8c0.8-1.6-0.1-2-1.5-2.2c-0.8-2.9-0.6-5.5,2.2-7.3
				c3.3,0.5,6.7,1.1,10.7,1.8c-3.5-5-3.1-12-10.3-13c-3.5-9.2-11.9-12.7-19.6-17.1c2.4-4-3.6-6.6-1.2-12.3c2.1-4.8-5-11.5-11.9-13.3
				c-8.8-2.3-17.9-3.8-26.8-6.7c14-3.2,28.6,4.5,42.5-2.6c-4.7-7.7-12.9-6.6-19.8-7.6c-28.1-4.1-56.4-7.3-84.4-11.6
				c-11.9-1.8-23.5-5.9-35.2-12.2c8.3-2.9,14.6,2.5,21.5,1.7c2.8,2.8,6.3,1.8,9.6,1.7c1.2,0.2,2.4,0.4,3.6,0.5
				c18,3.4,36,1.9,54.1,0.7c15.9-1.1,32.1-4.8,46.7,6.1c-0.6-11.6-0.6-11.4-10.1-14.3c-3.4-1.1-7.5-0.9-10-4.2
				c0.9-0.9,1.8-1.7,2.7-2.6c1.9,0.5,3.6,0.3,4.8-1.6c14.6-2.8,29-7.6,44.2-3.9c3,2.3,6.4,4,10.2,4.6c1,0.7,2,1.5,3.1,2.2
				c2.7,1.8,5.8,2,7.9-0.2c0.5-0.5-2.3-4.1-3.4-6.4c-3.9-7.8-11-10.8-20.1-12.1c3-2.7,5.1-4.6,7.2-6.5c0.7-0.1,1.3-0.3,1.9-0.6
				c3,0,6,0,9,0c9.8,0.2,18.6,2.8,26.1,9.4c0.6,0.5,1.1,1.4,1.7,1.4c10.4,0.7,19.1,5.3,22.7,14.9c5.9,15.8,7.3,32.6,3.8,49.2
				c-1.3,6.4-5.3,11.6-13.4,12.8c-9.3,1.4-18.4,4.4-27.3,7.3c-3,0.9-5-0.3-7.3-1.1c0.4-1,0.5-2.4,1.3-3c9-6.7,7.9-15.8,2.3-22.3
				c-5.7-6.6-14.6-5.2-22-0.1c-10.1,6.9-11.7,28.6-2.8,38.9c10.6,12.2,24.2,16,39.7,14.1c1.2-0.1,2.4-0.2,3.7-0.3
				c1.1,1.2,2.1,1.1,3.1-0.2c1.4-0.2,2.7-0.4,4.1-0.6c26.2-6.4,42.4-23.5,50.2-48.5c2.2-6.8,1.3-14.6,1.9-21.9
				c0.6-0.1,1.1-0.3,1.6-0.6c2.1,0.9,4.2,1.9,6.3,2.8c0.9,0.6,1.7,1.2,2.6,1.8c0.3,0.6,0.2,2.2,1.5,0.7c-0.5-0.3-0.9-0.5-1.4-0.8
				c-0.7-0.8-1.4-1.5-2.1-2.3c0-4.6-1.4-8.2-6.6-9.1c-1.4-2.4-2.1-4.8-1.7-7.6c1.7-2.1,1.5-4.1-0.6-5.8c0.1-0.6-0.1-1.2-0.4-1.8
				c-0.6-11.6-6.9-20-15.2-27.2c-11.8-13.3-27.1-19.8-44.3-22.3c-10.3-3-21.1-4.6-31.5-3.5c-7.5,0.8-16.4-0.6-22.7,6.1l0.1-0.1
				c-2.5,0-5.5-1.1-6.9,2.3l0.2-0.1c-10-0.9-17.4,7.5-27.1,7.6c-3.6-0.6-5-2.4-3.7-6.1c4.5-13.3,6.8-26.9,6.6-41
				c6.6-7.6,3.9-16.6,4-25.3c6.3-2.1,12.8-3.9,17.7-8.8c-8.2-1.8-15.3-1.4-17.6,8.9c-3.7,4.4-7.4,8.8-11.1,13.3
				c-7.8,4.9-4.9,13.7-5.9,20.2c-1.3,9.1-5.3,15.8-9,23.6c-7.4,15.6-20.4,22.4-35,27.6c-4.3,1.5-7.8,4.1-11.8,5.8
				c-3.5,1.5-7.5,2.7-10.4-0.3c-2.7-2.8,0.7-5.3,1.8-7.9c0.5-1.3,0.5-2.8,1.1-7.3c-13.8,15.3-29.9,11.9-45.5,13.3
				c1.3-5.4,11.1-4.3,7.8-10.4c-2.6-4.7-8.3-0.5-12.7-0.2c-2.2,0.1-4.3,1-7.9-0.9c8-4.6,13.9-9.3,14.9-19.5c0.5-5.5,9.6-2,14.8-1.4
				c7.2,0.9,9.7,5.7,10.5,12.2c0.4,3.6-4.3,10.1,3.9,9.7c6.5-0.3,7.5-6.2,7.9-11.6c0.1-0.7-0.3-1.5-0.2-2.2
				c0.3-5.3-7.7-13.3,5.1-14.6c14.2-1.5,24,3.8,25.5,15.1c0.5,3.9,1,8-0.9,12c22.3-13.7,29.5-34.8,18.4-54.3
				c-7.8-13.7-23.8-14.4-32.1-0.8c-4.5,7.4-8.3,6.6-13.6,1.1c-11.4-11.9-11.8-24.1-1.1-36.5c14.4-16.7,32.1-21.7,53.1-15.1
				c4.2,1.3,9,2.3,12.4,4.8c11.4,8.5,22.9,11.5,37.8,9.3c17.4-2.6,26.9,9.7,24.5,27c-0.3,2.4,0.4,4.7-4,4.7
				c-15,0.1-17.6,2.1-20.3,16.4c-2,10.3-5.8,19.6-12.9,29.3c16.8-4.3,31.8-9.8,47.9-11.7c32.7-3.9,60.5,6.4,85.5,26.5
				c7.4,5.9,13.5,12.6,24.8,12.4c11.3-0.2,17.2,8.7,16.1,20.4c-0.3,3.4,0.2,6,2.9,7.7c2.9,1.7,5.1,1.1,7.3-2.2
				c3.9-5.7,6.9-1.1,9.1,2c7.1,10.3,1.9,26.7-9.8,31.6c-8.2,3.4-16.6,3.6-25.1,1.5c-6-1.5-10-1.3-10.4,6.6
				c-0.4,8.1-4.8,15.1-10,20.7c-6.1,6.6-3.5,10.5,1.7,15.2c14.2,12.6,27.8,25.8,39.8,40.5c21.9,27,33,58.6,38,92.5
				c1.7,11.7,4.3,20.3,18.6,22.9c12.8,2.3,18.8,17.5,14.4,32.9c-2.1,7.4-0.6,9.1,6.5,9.3c6.3,0.2,11.7,2.8,13.3,9.7
				c1.6,6.9-5.3,8.1-8.5,11.7c-1.2,1.3-3,2.1-4.7,2.8c-9.3,3.5-19.3,5.9-19.1,19.3c0,3.4-3.2,6.3-6.8,8.2c-7.1,3.6-6.8,8.9-2,14.3
				c5.1,5.8,2.1,8.2-3.7,9.4c-10.7,2.1-22.7-4.8-29-16.3c-1.5-2.8-1.7-7.5-5.4-7.7c-3.6-0.2-4.6,4.3-6.2,7.1
				c-17.3,29.8-43.5,52.6-63.2,80.5c-12,16.9-19.5,41.7-3.1,59.3c5.6-8.5,12.4-15.3,22.4-18.7c10.9-3.7,20.1-1,27.6,6.4
				c6.9,6.7,7.6,15.4,4.7,24.6c-7.8,24.4-34.1,34-61.5,22.2c-7.5-3.3-14.5-7.3-19.1-14.7c-1.9-3-3.9-6.5-8.2-6.9
				c0.2-4-2.2-7-4.4-9.9c-3.8-4.9,0-14.1-7-15.9c-5.6-1.4-12.1,1.2-18.3,2c-4.1-2.9-9.8-2.4-13.1-7.3c-2.9-4.4-6.6-7.3,1.2-10.3
				c4.6-1.8,4.2-6,1.7-9.2c-3.9-5-3.7-10.2-2.6-15.8c2-1.2,3.7-3.2,6.4-2.4c-2.3,6-1.3,11.4,2,16.8c2.2,3.7,4.5,7.6,4.5,12.2
				c-0.9,0.1-1.9,0.1-2.8,0.2c0.2,0.5,0.3,0.9,0.5,1.4c0.8-0.5,1.5-1,2.3-1.5c10.8-11.5,24.7-19.5,36.8-29.2
				c18.2-14.7,33.4-32.2,51.6-46.5c9.3-7.4,9.5-20.1,18.6-26.6c11.1-7.9,16.8-19.2,22.3-30.9c1.5-3.2,2.3-7.8,7-7.4
				c8,0.6,8.4-5.1,9.5-10.5c4.1-6.4,0.2-12.4-1.2-18.5c0.2-0.7,0.3-1.4,0.5-2.2c0.7-1.2,2.1-2.4,2-3.6c-0.3-5.3,6.8-13.4-0.9-15.2
				c-5.4-1.3-4.5,8.7-6.4,13.7c-1.9,4.4-4.1,8.6-5.7,13.1c-2.2,6.2-7,10.8-12.6,11.1c-5.6,0.2-7.1,3.2-9.3,6.6
				c-4.3,6.5-8.5,18.4-12.7,18.4c-12.1,0-13.4,10.6-20.1,15.4c-6.3,4.5-15.2,3.6-20.2,10.2c-0.3-0.3-0.5-0.7-0.8-0.7
				c-5.9-1.6-9.9,0.8-13.6,5.4c-2.9,3.6-6,7.7-11.4,8.1l-0.1-0.1c-1.2-1.1-0.7-5-2.5-3.7c-7.9,5.8-13.5,1.4-19.3-3.2
				c-0.7-2.6-3.9-3.2-3.9-7.1c-0.1-6-4-5.6-7.7-1.8c-0.8-0.7-1.6-1.4-2.4-2.2c4.2-3.7,4.6-7-1.6-8.4c-2.6-0.6-4.8-1.3-6.8-2.9
				l-0.1-0.1c-4.7-7.5-9.2-1-13.8,0.2l-0.1,0c-4.7,2.2-6.4,6.8-5.4,10.9c0.9,3.6,5.7,2,8.9,2.4c1.8,0.2,3.7,0,5.5,0
				c0,1.5-0.1,3-0.1,4.5c-1,0.3-2.9,0.6-2.9,1c-0.1,2.1,1.9,1.2,3,1.6c0,1.4-0.1,2.7-0.1,4.1c-0.8,0.8-1.7,1.5-2.5,2.3
				c-6.5,3.5-9.5,10.3-12.8,15.9c-5.2,8.9-1.2,18.2,6.1,18.7c9,0.5,17-3.9,26.7-3.1c7.8,0.6,18.3,0.6,27.1-4.6
				c-0.3,5.3-0.5,9.1-0.8,13.9c-5.6-6.7-10.7-4.4-14.7-0.4c-4,3.9-5.6,8.8-0.7,13.6c5,5,2.7,7.2-3,9.1c-4.8,1.6-9.2,2.7-13.7-0.5
				c-3.7-5-7.5-6.8-11.9-0.7c-6.9,4.4-14.1,4.1-21.1,0.7c-7-3.4-9.6-0.8-9.6,6.3c0,1.1-0.1,2.2,0,3.3c0.2,3.6,1.4,8.6-3,9.5
				c-3.3,0.7-6.3-3.2-8.5-6.2c-10.7-15.1-6.7-30.9-1.9-46.7c2.6-8.3,9.3-14,14.5-20.7c-18.1-9.9-16.6-20.6,4.6-33.2
				c6.7-4,14-6.7,21.8-8.1c4.1-0.7,7.8-1.9,11.3-5.5c-10.7-3.7-21.8-6-29.4-14.5c-6.6-7.3-13.2-14.9-3.8-24.7
				c4.2-4.4,0.3-7.4-2-10.4c-11.5-14.7-13-42.3,0.2-59.1c11.9-15.2,35.4-17.8,45-4.1c3.2,4.5,3.5,8-2.4,8.8c-7.6,1-11.7,4.2-11,12.1
				c0.8,9.6,5.4,17.1,14.3,20.6c5,2,11,2.5,16.4,2.2c7.9-0.5,13.2-3.5,14.3-13.4c3.3-28-1.5-53.8-16.8-77.5
				c-5.6-8.7-14.9-9.4-22.6-2.2c-5.2,4.9-10.5,9.8-18.6,5.8c-3.7-1.9-3.7,1.8-5.4,3.3c-10.1,9.2-24.1,15.4-34.7,5.7
				c-2.5-2.3-5.2-4.4-4.9-8.2c0.4-4.5,4.3-2.8,6.9-3.7c7.4-2.4,9.8-8.8,10.7-15.5c3.1-23.2-11.4-47.3-34.1-56.9
				c-3,5.9,1.5,12.4-1.5,18.2C797.1,462.1,800.9,464.9,805.1,467.4z M271.9,369.1c-0.9-0.7-1.7-1.3-2.6-2c-2.3-2.9-4.6-5.9-6.9-8.8
				c0.2-0.7,0.1-1.5-0.2-2.2c0.2-2.3,0.4-4.5,0.5-6.8c1.9-1.5,3-4,1.1-5.3c-2.2-1.5-4.3,0.8-6,2.6c-4.1,1-6.6,3.8-8.6,7.3
				c-2.1,0.7-2.3,2.4-1.9,4.3c-3.8,12.9-8.9,25.8,1.8,38c0.7,0.8,1.5,1.6,2.2,2.4l0,0c3.4,3.6,6,11.3,12,2.6
				c1.3-6.3,7.3-9,10.4-13.9c5.2-1.6,11-0.9,15.7-4.2c2,0.1,4,0.2,5.9,0.2c0.9,0.5,1.9,0.9,2.8,1.4c1.5,0.2,3,0.4,4.5,0.6
				c11,4.1,21.2,2.9,31.5-4.5c-3.3-2.7-6.1-5-8.8-7.3c-3.4-6.4-2-12.6,0.7-18.7c14.1,6.8,14.1,6.8,28.3,1.6c1.4-0.2,2.8-0.3,4.1-0.5
				c2.2,0.1,4.4,0.2,6.6,0.3l0.9,0.3l0.9,0c3.5,2.9,7.6,1.9,11.6,2c16.3,4.1,33,2.6,49.3,1.2c7.7-0.7,16.1-1.9,23.1-6.4
				c7.9-5.1,16.3-7.6,25.8-5.9c-1.2,4.7-6.3,5.5-9,8.7c-0.7,0.1-1.4,0.3-2,0.7c-0.8,0.5-1.7,1-2.5,1.5l0.1-0.1
				c-1.9,0-3.9,0.2-5.2,1.9c-1.2,0.3-2.4,0.6-3.6,0.9c-1,0.5-2.1,0.9-3.1,1.4c-0.5,0-1,0.2-1.4,0.5c-1.6,0.1-3.5-0.1-3.5,2.4
				c-1.4,1.8-3.3,2.3-5.4,2c-10.6-2.1-21,0.3-31.5,1.1c-2.2-0.2-4.3-0.4-6.5-0.6c-9.9-0.7-19.8-0.8-29.4-3.9
				c-4.7-1.5-9.5-1.8-14.2-0.8c-4.8,1-11,1.7-9.8,9.2c1.2,7.5,6.3,5.4,11.7,5.4c12.2,0,25-8.1,36.7,1.7c-0.1,1.1-0.2,2.2-0.4,3.3
				c-2.7,0.2-5.3,0.4-8,0.6c-1.2-0.3-2.4-0.7-3.7-1c-7.9-4.4-15.4,0.6-23,1c-2.3,0.7-4.6,1.4-6.9,2.1c-2.6-0.2-5.3-0.7-7.5,1.5
				c-0.5,0-1,0.1-1.4,0.5c-3.7,0.1-6,2-6.4,5.7c-0.3,3,1.9,3.3,4.2,3.2c2,11.5-5.3,20.3-10.4,28.6c-5.6,9-16.6,14.7-16.7,27.2
				c-8.7,7.1-14.4,16.3-18.6,26.6c-0.8,1.8-1.2,3.5,0.6,4.9c2.2,1.7,3.4-0.2,4.2-1.7c5.3-10.4,14.4-17.9,20.5-27.6
				c1.3-1.5,2.5-3.2,4.9-2.2c0.2,1.7,0.3,3.5,0.6,7c4.3-6.5,7.7-11.5,11.1-16.6c17.2-23.1,59.1-47.8,73.5-43.3
				c-29.9,24-29.9,24-22.2,37.5c3.8-11.7,20.1-9.1,22.7-21.9c0.1-0.4,1.3-0.7,2-0.7c7.5,0.1,11-5.8,15-10.4
				c10.3-12,22.7-21.2,37.2-27.5c1.2-0.5,5.2-0.2,2.8-2.6c-7.9-7.9,0.5-9.7,4.3-13.4c0.5-0.2,1-0.4,1.4-0.6
				c-0.4-0.4-0.8-0.7-1.2-1.1c0-0.7-0.1-1.4,0-2.2c4.1-2.2,8.3-4.2,12.2-6.7c3.8-2.4,10.6-1.8,9.7-9.2l0.2-0.1
				c2.1-0.5,2.7-2,2.9-3.9c0.7-0.7,1.4-1.3,2.1-2c7.2-0.9,4.5-8.1,7.4-11.2c2.3-2.4,2.5-3.1,0-4.3c-6.4-3.4-24.8,5.1-26.3,12
				l0.1,0.1c-6.6,2.3-12.9-3.1-19.5-1c-6.7,0-13.4,0-20.1,0c-9.7-2.1-19.7-2.6-28.7-7.9c4.8,6.3,11.1,9.6,18.6,10.9
				c1.6,1.8,5.5-0.3,6.3,5c-14-2.1-28.1-3.9-39.6-10.5c-7.6-4.4-14.7-12.5-22.7-14.5c-15-3.8-16.5-17.3-23.4-26.7
				c-4.6-6.3-1.8-14.9,0.8-21.5c1.6-4.1,10-4.4,12.6-6.5c12.6-10.2,25.6-13.9,40.9-8.7c1-4.2-1.5-6.4-2.3-9.1
				c5.9-2.3,5.8-7.4-0.1-14.1c-22-13-46.3-7.3-59.3,14c-1.3,2.1-1.4,5.7-4.7,5.4c-2.8-0.3-3.7-3.4-4.9-5.6
				c-2.4-4.4-2.8-11-10.8-10.3c5.5,10.3,11,19,10.1,31.5c-0.5,7.2-3.8,17.8,2.9,23.8c11.7,10.5,12.2,27.7,24.1,37.7l0,0
				c-7.4-2.9-14.6-6.2-22.2-8.6c-7.4-2.4-17.2-3.1-21.9-6.6c-12.7-9.3-25.8-9.2-39.6-9.1c-1.8,0-5,0.1-5.1,0.5
				c-1.8,11.3-10.8,5.7-15.5,5.2c-6.7-0.6-12,0.3-17,4.4c-2.4,1.9-5,3.1-8.1,3c-10.5-4-15.8,3.2-21.2,10c-3.3,1.4-5.4,3.8-6.2,7.4
				c-2.1,2.8-5.4,2.3-8.3,2.8c-4.6-0.9-8.4,0.5-11.2,4.4c-0.7,0.8-1.5,1.5-2.2,2.3l0,0c-0.6,0.8-1.3,1.6-1.9,2.4
				c-2.3,2.5-2.7,5.7-2.6,8.9c-1.6,1.9-2.6,4-2.2,6.6c-5.6,5.6-10.6,12.3-20.1,11.2c-1.7-0.2-3.9-0.1-4.1,2.5c-0.2,2.1,1.2,3.1,3,4
				c10.8,5.8,19.1-1,21.2-17.6c3.6,0.8,5.2-1.8,6.9-4.2l-0.1,0c1.2,2,2.4,4,3.9,6.5c0.3-3.2,0.6-6,0.8-8.8c0,0-0.1,0-0.1,0
				c0.5-0.8,1.1-1.7,1.6-2.5c6.8-9.2,3.5,2.9,5.9,2.8c-2.5,8.6,2,16.9,0.9,25.7c-1.7,13.1,2.5,25.5,9.4,36.9
				c5.3,8.7,16,13.5,17.6,24.9c0.1,0.8,2.5,1.2,3.8,1.8c4.5,4.3,10.7,5.7,16,6.6c15.6,2.7,32,6.3,45.5-7c1.3-0.9,2.5-1.7,3.8-2.6
				c10.7-9.7,11.9-22.2,8.4-35c-2.4-8.8-9.8-12.4-19-11.9c-8.6,0.5-11.7,3.3-14.3,12.8c2.4-0.5,4.7-1.1,7.1-1.6
				c-0.3,4.3-0.3,8.6,3.6,11.6c-6.8,9.1-14.5,14.4-25.5,6.2c-3.5-7.3,7-2.7,6.3-8.5c-9.9,3.4-17.1-6.9-26.9-5.1
				c-13.5-7.6-18.6-38.9-8.2-50.2c0.5-0.5,1.1-1.3,1.6-1.3c8.3,0.1,11.3-7.3,16.6-11.6c11.4-9.3,24.8-14.4,38.9-17.3
				c5.1-1,4.7,3.1,4.2,6.5c-0.7,0.1-1.5,0-2.2,0.2c-6,1.4-10.8,4.6-14.1,9.9c-0.3,0.5,0.5,2.5,1,2.7c6.2,1.2,11.9,0.1,16.9-4
				c4.2-0.8,8.5-1.4,12.2-3.9c6.7-0.3,13.6,5.8,20.1-0.6c1.5,0,3-0.1,4.6-0.1c1.5,0.1,2.9,0.2,4.4,0.3c6.5-1.1,7.9,7.9,14.4,7.2
				c2.1-0.2,5.1,1.5,4.7,3.7c-0.7,3.9-4.4,0.6-6.5,1.8c-8.1,2.8-15.8-1.9-23.8-1.1c-6.2-1.5-12.5-0.7-18.5,0.4
				c-7.7,1.4-13.7,5.1-10.9,15c0.8,2.7,0.2,5.8,0.3,8.7c-4.4,0.2-8.7,0.4-13.1,0.5c-1.2-0.3-2.4-0.5-3.6-0.8
				C273.8,370.4,272.8,369.7,271.9,369.1C271.8,369,271.9,369.1,271.9,369.1z M675.5,505.6l0.3,0.3L675.5,505.6
				c-0.8-0.7-1.6-1.4-2.3-2.1c0.1-1.5-0.7-2.2-2.2-2.2c0.1-1.5-1-2-2.2-2.2c-1.6-3-3.8-4.8-7.8-3.7c2.1,3,4.8,3.9,8,3.6
				c-0.1,1.5,0.9,2.1,2.2,2.3c0.7,0.7,1.5,1.5,2.2,2.2C674,504.1,674.7,504.8,675.5,505.6z M610.9,1041.5c1.9,0,3.7,0,4.4-2.3
				c17.9-5.2,33.9-13.9,49.1-24.5c32.5-16.9,61.6-38.4,87.3-64.6c10.6-9.3,19.6-19.8,25.3-33c6.3-4.7,8.1-12.2,11.1-18.7
				c7.3-16.1,16.5-32.1,16.5-50.2c0.4-104.5,0.3-209,0.3-313.5c0-2.9,1.4-6.2-2.3-10.2c0,9.1,0,16.8,0,24.6
				c0,94.5-0.1,188.9-0.1,283.4c0,15.3-2.8,30.2-8.9,44.2c-5.8,13.2-12.1,26.2-18.2,39.2c-8.4,10.9-16.9,21.9-25.3,32.8
				c-9.9,4.1-16,13-23.9,19.5c-19.9,16.5-42,29.8-62.6,45.2c-16.5,7.9-32.8,16-48.4,25.5c-1.8,0.1-3.7,0.1-4.6,2.1
				c-1.8,0.1-3.7,0.1-4.3,2.4c-4.3,0.1-8.2,1-11.1,4.5c-8.9,2.7-15.6-5.3-24-5c-2.3-2.9-5.5-4-9-4.4c-3.1-2.9-7-3.8-10.9-4.9
				c-12.6-6.7-25.2-13.4-37.8-20.1c-2.3-1.4-4.7-2.7-7-4.1c-0.8-0.3-1.6-0.5-2.5-0.8c0.4,0.7,0.7,1.5,1.1,2.2
				c1.9,2.1,4.1,3.8,7.1,4.1c11.9,8.3,24.5,15.1,38.2,19.8c2.9,3,6.8,3.8,10.5,5.2c2.7,2.4,5.8,3.6,9.4,3.9
				c4.4,3.8,10.2,4.1,15.1,6.6c4.2,2.2,7.7,2.5,9.8-2.6c4.8,1.4,8-1.5,11.2-4.4C608.2,1043.6,610.1,1043.6,610.9,1041.5z
				 M530.5,244.4c-0.6-0.4-1.2-0.8-1.8-1.2c0.4,0.6,0.8,1.3,1.2,1.9c0.2,2.9,1.9,4.3,4.8,4.2c0.1,3.1,1.6,4.6,4.8,4.1
				c-0.1,1.6,0.7,2.3,2.2,2.2c-0.4,4.9,3.3,6.8,6.6,8.9c0.1,0.3,0.2,0.6,0.4,0.8c0.1,0.1,0.4,0.1,0.5,0.1c-0.3-0.3-0.7-0.5-1-0.8
				c-0.6-2.7-2-5.6-1.6-8.1c0.4-2.2,0.4-3.9-1.5-4.1c-1.3-0.1-1.1,3.3-3.5,3.3c-0.8-0.7-1.5-1.5-2.3-2.2c-0.3-2.6-1.5-4.3-4.3-4.6
				C534.6,246.2,532.7,245.1,530.5,244.4z M536.8,331.3c-3.1,0.1-4.2,1.9-4.1,4.8c-0.4,0.3-0.9,0.6-1.3,0.9c0.2,0,0.5,0,0.7-0.1
				c0.2-0.3,0.3-0.6,0.5-0.9c1.5-1.5,3-2.9,4.5-4.4c0.8-0.7,1.5-1.4,2.3-2.1c2.6-1.4,5.1-2.8,7.8-4.1c24.6-12,56.3-11.8,72,16.3
				c2.8,5.1,5.3,10.4,8.5,16.6c-1.3-20-13.5-37.1-31-42.4c-21.4-6.5-41.5-4.5-57.8,13C538.2,329.6,537.5,330.5,536.8,331.3z
				 M564,382.8c-1-1.9-2.6-2.2-4.5-1.6c-3.9-0.9-1-8-5.4-7c-8.6,1.8-19.3-1-25.7,4.7c-9.8,8.6-12.6,1.2-16.5-4.7
				c-2.1-3.1-2.1-9.6-7.6-6.2c-4.3,2.7,1.4,5.9,2.3,9c0.4,1.3,1.7,2.4,2.6,3.6c18.7,26.9,29,57,35.2,89c1.4,7.1-1.3,16.2,4.5,21
				c6.6,5.5,13.6-2.1,20.6-3.1c2.5-0.4,6,0.2,7.4-1.2c3.1-3.2,9.6-3.4,9.2-9.9c-0.4-7.1-6.4-2.8-9.4-4.7c-2.9-1.9-7.9-2.5-6.6-7.4
				c1-3.8,4.6-6.4,8.7-5.1c8.1,2.5,7.9-2.5,7.3-7.6c-1.3-11-2.9-22-4.3-32.9c1.5-20.6-2.7-41.4,2-61.9c1.1-4.8-2.1-5.8-6-4.5
				c-17.8,6.3-36.2,10.1-54.6,15.8c15.4-4.5,31,2.7,46.3-2.9c2.3-0.8,4.9-4.4,7.6-0.1c4.2,6.6,2.1,21.9-4.1,28.9
				c-0.1-1.5-0.1-2.9-0.2-4.4c-0.5-1-1.1-2-1.6-2.9c-0.1-0.6-0.3-1-0.6-1.4C569.2,381.8,566.3,383,564,382.8L564,382.8z
				 M282.7,728.8l1.1,0.1c0,0,1.1-0.3,1.1-0.3c2.1,0.9,4.2,1.7,6.3,2.6c0.9,0.4,1.8,0.7,2.7,1.1c1.3,0.4,2.7,0.7,4,1.1
				c1,1.9,2,2,3,0c0.6,0,1.2,0.1,1.7,0c2.4,2.7,4.7,2.4,6.8-0.3c0.6,0,1.3,0.1,1.9,0.2c0.4,0.5,0.9,1,1.3,1.4
				c0.3-0.6,0.5-1.1,0.8-1.7c6.8-2.4,14-4.7,5.2-13.2c-0.4-0.4-0.4-1.4-0.4-2.1c-0.5-7-4.3-11-10.9-13.4c-8.3-2.9-15.1-1.9-20.3,5.5
				c-3.4,4.9-8.6,7.1-13.5,10c-1.1,0.5-2.1,1-3.2,1.6c-3.4,0.2-6.7,0.4-10.1,0.6c-0.7-1.3-1.5-1.3-2.3-0.1c-4.4,2.4-10.4,1-12.1-1.3
				c-11.5-14.7-31.3-15.1-44.6-27c-8.3-7.4-15.2-15-16.5-25.7c-0.7-5.7-2.6-9.6-6.5-13.2c-5.2-15.6-4.8-33.7-20.7-44.3
				c0.1-7.4-0.5-14.9,8.4-18.5c7.2-2.9,12,0,16.4,5.1c-0.5,5.1-0.3,10.1-1.6,15.3c-1.6,6.6-3.7,13.4-2.2,20.7
				c4.7,22,22.1,37.4,47.4,39.5c9.3,0.8,12.7,5.6,15.3,13.2c1.8,5.1-0.2,10.1-0.1,15.4c16-8.1,17.8-17,8.5-41
				c6.1,1.8,11.6,3.7,17.2,5c15.2,3.4,30.6,6.9,45.5-1.2c6.2-3.4,14.1-7.6,12.6-15c-1.3-6.4-10.1-5.9-16.2-7
				c-0.7-0.1-1.5,0.1-2.2-0.1c-3.6-0.7-7.8-1.1-8.5-5.5c-0.7-4.6,3.9-3.1,6.2-4.4c2.1-1.3,3.6-3.6,5.4-5.4c1.7-1.8,2.3-4,0.9-6
				c-1.6-2.1-3.3-0.1-4.8,0.5c-5.9,2.6-11.6,1-16-2.7c-5-4.2-10.4-3.1-15.8-3.2c-8.5-0.1-17,1.1-25.4-1.3
				c-26.6-7.4-41.8-26.6-52.7-50.4c-2.5-14.3-5-28.5-8-45.5c-3.9,18-5.8,33.1,0.8,47.9c5.6,22.5,18.2,40.4,36.7,54.4
				c-4.5,2.6-6.7-4.2-10.8-2.1c1.2,2,2.3,3.9,3.4,5.7c-8.8-2.3-12.5-10.9-19.8-17.1c2.3,8.5,7.8,12.9,12.7,17.5
				c3.3,3.2,4.4,6.3,2.4,10.4l0,0c-2.2-0.5-4-2.5-6.6-1.5c-2.2-0.2-4.4-0.4-6.6-0.6l0.1,0.1c-2-4.8,3.8-11.1-0.5-14.3
				c-7.8-5.6-9.5-14.9-15.6-21.3c-1.5-10.7-12.3-17.3-20.1-12.4c-12.9,8.2-13.5,10.7-6.3,25.6c-0.4,4.6,0.1,9.9,4.4,11.7
				c5.7,2.4,6,8.2,5.5,11c-1.8,9.3,3.3,15.4,7.7,22c-1.9,9.2,1.2,17.2,6.3,24.6c4.7,6.7,9.1,13.5,13.9,20.1
				c6.9,9.5,15.1,18.2,13.7,31.4c-0.5,5,3.4,8.7,6.7,12.2c8.6,9.2,13.2,21,17.8,32c3.1,7.4,6.6,8.8,12.5,10.2
				c10.2,2.5,15.4-5.5,25.6-11c-14.7-0.3-8.5-18.1-21.6-16.8c11.1-9.6-1.4-16.1-1.8-23.7c3.5-2,6.2,2,9.5,1.2c3.1,1.9,6.1,4,9.2,5.8
				c7.2,4,9.2,9.9,6.5,17.5c-0.6,1.7-3.7,3.8-0.2,5.2c3.2,1.3,4.3-1.3,4.9-4.2c1.8-9.9,1.9-19-8.7-24.4c-1.1-4.9,3.6-4.5,5.8-6.4
				C278.1,731.8,280.4,731.4,282.7,728.8L282.7,728.8z M473.9,979.4c0.9,0.7,1.7,1.3,2.6,2c7.3,8.3,16,14.7,26.7,18
				c4.7,5.8,11.2,8.5,17.8,11.2c13.9,9.6,28.3,18.3,45.2,21.7c0.7,0.6,1.4,1.2,2.1,1.8c0.3-0.4,0.6-0.7,0.9-1.1c-1-0.2-2-0.5-3-0.7
				c-13.8-9.3-29.1-15.7-43.8-23.2c-5.8-4.2-11.8-7.9-18.5-10.4c-8.3-6.9-16.9-13.3-26.7-18c-0.8-0.7-1.6-1.4-2.4-2.1
				c-1.7-2.4-3.3-4.9-6.9-4.3c0-1.1,0-2-1.4-1c0.5,0.3,1,0.7,1.4,1C468.9,977.2,470.9,978.9,473.9,979.4z M914.6,496.3
				c-0.5-1.2-1.1-2.1-2.6-1.8c-9.6-28.1-21-39-43.8-39.4c18.7,10.7,30.8,25.4,43.8,39.3c0.5,1,1,2,1.5,3c1.2,3.1,2.3,6.2,5,8.4
				c0.2,1.7,0.2,3.6,2,4.6c7.6,26.3,15.2,52.7,11,80.6c8-28.5,2.8-55.4-9.8-81.5c-0.9-1.4-1.7-2.8-2.6-4.2
				C919.3,501.4,917.8,498.4,914.6,496.3z M494.7,438.6l0.4,0.5L494.7,438.6c-1.4-2.6-3.4-4.3-6.4-4.8c-1.2-3.8-3.7-6.5-6.8-8.8
				c-0.3-1.7-0.4-3.6-2.5-4.2c0-9.2,0.1-18.5,0-27.7c0-2.7,1.2-6-3.1-7.2c-3.2-0.9-6-0.3-8.3,1.8c-6.7,6-9.2,13.6-8.2,23.2
				c4.4-2.6,7.4-6.1,12.1-6c2.7,5.2,0.8,12.6,7.5,15.9c-0.2,1.9-0.3,3.8,1.6,5.1c0.9,3.9,2,7.7,6.5,9.1
				C488.7,438.2,491.6,438.6,494.7,438.6z M923.4,358.1L923.4,358.1c-0.4-4.3-2.5-7.6-6.2-9.8c0-0.5-0.3-0.9-0.7-1.1
				c-1.2-1.4-2.1-3-3.5-4.1c-2.5-1.8-5.1-5.4-8.4-3.6c-2.7,1.5-0.8,5.4-1.1,8.2c-0.6,5.8,0.1,11.7-2.8,17.1c0,0,0.1,0,0.1,0
				c-0.9,0.6-1.9,1.3-2.8,1.9c-3,2.8-6.5,3.1-10.3,2.5c0.6-5.3,8.8-11.8,2.9-14.8c-6.4-3.2-2.8,8-7.3,10.3c-0.2-1.4-0.5-2.8-0.7-4.2
				c-0.5-0.9-1-1.7-1.6-2.6c-8.1-10.9-19.5-11.7-31.7-10.6c-4.7,0.4-6.7,1.3-3.6,6.7c3.9,7,2.2,13.4-5.4,17.4
				c-8.2,3.3-12.1-6.2-18.8-6.4c-13.7-0.4-27.5-1-40.8,3.9c21.4-0.7,41.5,6.4,62.3,9.1c0.5,0.3,1.1,0.5,1.7,0.6
				c8.1,3.7,16,10.5,25.2,2.2l0,0c1.9,0,3.9,0,5.3-1.7c7.2-2.9,13.8,0,20.5,2c1,0.4,2.1,0.9,3.1,1.3c0.7,0.3,1.3,0.5,2.1,0.5
				c2.1,5.1,7.8,7.9,7.8,14.6c0,3.5,3.1,4.6,5.9,1.3c1.5-1.6,2.9-3.2,4.4-4.9c3.3-1.7,4.3-4.9,5-8.2l0-0.3c1.9-4.5,5-8.7,1.9-13.9
				c-0.1-1.4-0.3-2.9-0.4-4.3C925.5,364,926.3,360.7,923.4,358.1z M289.4,601.6c-4.6,0.1-7,3-8.9,6.7c-2.2,0.2-4.5,0.3-8,0.6
				c3.9,1.9,6.1,1.7,7.9-0.8C285.1,608.3,288.8,607,289.4,601.6c0.3-0.4,0.7-0.6,1.1-0.9c-0.2,0-0.5,0-0.6,0.1
				C289.6,601,289.5,601.3,289.4,601.6z M668.8,489.9c2.1,2.2,4.4,3.8,8.1,3.4c-2.5-3.5-5.2-3.8-8.2-3.2c-3.3-5.5-8.3-4.4-15.8-3.7
				C659.8,488,664.3,489,668.8,489.9z M449.1,943.7c0.3,1.8,1.2,3.3,3,4c12.7,12.3,26.5,23.1,42,31.7c6,5.7,12.6,10.4,20.6,12.9
				c20.3,14.5,43.3,23.8,65,35.7c8.3,4.6,14.7,4.1,22.6,0.7c17.4-7.5,34.1-16.2,50.4-25.9c14-8.3,27.8-17,39.6-28.4
				c-15.2,4.9-25.8,17.9-41.3,22.1c-1-2.3,0.5-3.5,2.1-4.3c19.2-10.1,36-23.8,53.8-35.9c1.8,3.2-4.5,5.1-1.1,9.2
				c12.7-9.2,24.8-19,34.9-31c17.2-17.2,29.5-37.5,38.2-60.1c3.3-5.4,6-10.9,6-17.6c-0.1-107.9-0.1-215.7,0.2-323.6
				c0-7.1-1.7-9.8-9.3-9.7c-30.5,0.4-61-0.8-91.5,0.5c-17,0.7-34.2,1.1-51.3,3c3.7,1,7.4,1,11,1c42.4,0,84.8,0.3,127.2-0.2
				c9.4-0.1,11.7,2.5,11.7,11.7c-0.3,92.2-0.1,184.5-0.2,276.7c0,19.1,2.4,38.6-5.2,57.1c-2.3,3.8-4.8,7.5-6.9,11.4
				c-8.9,17.1-21.4,31.8-31.5,48.1c-7.4,3.1-12.3,9.4-18.1,14.6c-4.3,3.8-7.4,9.6-14.4,9c2-4.2,5.9-6.4,9.2-9.3
				c24.2-21,43.4-45.7,55.9-75.4c7.9-13.6,3.3-28.3,3.9-42.5c0-3,0-6.1,0-9.1c0-10.3,0-20.7,0-31c0-2.3,0-4.6,0-7
				c0-7.4,0.1-14.7,0.1-22.1c0-3,0.1-6.1,0.1-9.1c0-10.4,0.1-20.8,0.1-31.1c0.2-6.7,0.4-13.3,0.6-20c2.3-11.2,1.6-22.5,0.5-33.8
				c0-1.4,0-2.7,0-4.1c1.2-5.3,1.3-10.7,0-16c0-3.6,0-7.2,0-10.7c2.2-32.4,0.7-64.8,0.9-97.3c0-1.1-1.3-2.3-2.1-3.5
				c-51.7-0.1-103.3,0-155-0.3c-8.4-0.1-14.3,3.7-19.2,9.5c-10.5,12.4-20.6,25.2-33.8,35.1c-3.9,2.1-7.4,0.3-10.9-1
				c-2.8-1.8-5.6-3.6-8.4-5.4c-0.6-6-0.9-12.2-9.2-15.4c1.2,6.5,2.8,11.5,6.2,15.7c0,1.4,0,2.7-0.1,4.1c-3.6,2-6.4,4.6-6.4,9.2
				c-1.4,0.5-2.8,1-4.2,1.4c-10-2.7-18.3,2.1-19.1,11.4c-0.4,4.5,3.3,2.5,5.4,2.9c-0.1,2.2-0.2,4.4-0.3,6.6
				c-2.7,1.1-5.2,1.3-8.4,0.8c-6.1-1-4,5.9-6.6,8.6c-1.3,1.4,0.5,4.8,3.2,4.2c9.3-2.3,16.7,4.4,25.4,4.7l0.8,0.2
				c0,0,0.8-0.1,0.8-0.1c0.9,1.5,1.8,2.9,2.7,4.4l0,0.1c0.2,4.2,1.7,7.8,4.6,10.8c-0.1,1.5-0.2,3-0.3,4.4c-3.7,1.9-8-1.4-11.8,1.3
				c2.3,5.8,4.8,11.4,6.7,17.2c2.2,6.7-3,13.1-10.3,13c-2.5,0-5.1-0.7-7.2,1.4c-0.6,0-1.1,0.1-1.5,0.5c-4.6,0.1-9.5-1.4-13.5,2.3
				c-0.7,0-1.4,0.2-2,0.4c-3,0-6,0-8.9,0c-9.5,0.3-18.2,0.5-23.4-10.6c-4.9-10.4-19.1-10-25.9-17c-11.7-11.9-26.5-14.1-40.5-19.5
				c-3.7-1.4-8.8-2.5-8.5-8.2c0.2-3.6,0-8,4.5-9.3c4.7-1.3,9.7-2.3,13.1,2.7c3.2,4.8,6.4,4.2,9.8,0.3c2.7-3.2,5.5-6.3,0.9-10.2
				c-9.2-7.7-13.5-18.3-17.2-29.9c-3.5,2.3-5.4,7-10.3,4.6c-8.4-4.1-9.6,1.2-9.6,7.7c0.1,23.7,0.2,47.4,0.3,71.2
				c0,38.7,0,77.5,0.1,116.2c0,13.3-0.1,26.7-0.1,40c-0.8,7.2-1,14.4,3.3,21.3c3-7.1,4.6-14.1,4.5-21.5c3.3-7.3,6-3.5,9.5,0.1
				c7.4,7.7,0.9,17.8,5.2,25.9c2.2,4.2,2.5,7.5-1.9,11.5c-9.4,8.5-9.6,18-1.5,28.2c5.9,7.5,11,15.7,16.2,23.7
				c6.4,9.9,16.6,16.5,22.4,26.9c-1.3-0.2-2.7-0.4-4-0.6c-6.3-7.3-12.6-14.6-18.9-21.9c-1.1,1.1-2.1,2.2-3.2,3.3
				c6.1,7.4,12.4,14.7,20.6,20C442,940.9,444.7,943.4,449.1,943.7z M413.3,292.4c5.2,1.2,9.8,0.8,13.1-4.9
				c-5.9-1.6-10.8-1.1-15.1,3.1c-3.6,3.3-4.8,7.1-2.4,12.2C410.6,299,411.9,295.7,413.3,292.4z M575.4,70.7c6,6,12.3-0.8,18.4,0.5
				c-6.1-5.2-12.4-4.1-18.8-0.9c-8.5,2-4.1,5.9-1.9,10.4C575.8,77.1,575.1,73.8,575.4,70.7z M545.3,550.9c5,12.3,9.7,5.8,14.5-0.2
				c3.8-1.1,5.8-4.4,8.5-6.9c14.9-14.1,30.8-26.4,50.8-32.5c15.1-4.6,29.4-5.7,42.5,7.8c-5-12.9-18.1-18-33.4-15.2
				c-14.3,2.6-27,9-39.9,15.2c1.6-7.4,10.9-7.3,13.5-13.7c3.9,0.9,9.7-0.7,9.4-3.1c-2-12.7,12.9-12.3,15.2-21.2
				c3.1-0.4,6.6,1.1,9.1-2c14.7-1.1,29.2,0.6,43.6,3.8c-14.1-7.3-28.8-8.2-43.9-4.2c-2.9,0.7-6.7-1.5-8.7,2.4
				c-9.6-3.8-0.1-5.6,1.1-5.9c11.3-3,22.7-6.8,34.7-3.8c3.5,0.9,7.5,2.3,11-1.7c-23.9-6.9-55.2,1-81,19.9c-4.3,0-7.6,2.8-11.2,4.5
				c-11.4,5.4-22.8,11.2-35.9,9.1c-5.8-0.9-14-4-8-11.1c7.3-8.7,2.2-16.1,1.3-24c-0.5-4.4-3.4-5.8-8-3.3c-9.3,5-12.2,14.8-17.7,22.6
				c-3,4.3-2.1,7.1-0.1,10.9c6.7,13.5,37.3,28.4,52,29c10.1,0.4,14.8-9,23.7-8.4c-9,11-22.3,17.9-30,30.2c-3.8,2.8-7.7,5.2-12.1,0.9
				c-5.6-6.6-10.9-13.7-20.1-15.7c-11.9-11.6-25.2-19.5-42.9-16.1c16.4-0.1,28.8,9.7,42.4,16.7C531.3,541.3,538.5,545.9,545.3,550.9
				z M182.3,827c-6.6,12.4-4.3,23.5,6.8,32.8c2.3-11.8-6.1-21.6-6.9-32.9c1.2,0.2,2,0.2,1.1-1.3C182.9,826.1,182.6,826.6,182.3,827z
				 M222.6,494.5c0.1,9.2-5.9,17.5-3.8,29.2c2.9-9.7,5.3-17.4,7.6-25.1c2.5-5.6,4.5-11.4,9.5-15.4c-0.8,3.2-1.5,6.4-2.3,9.6
				c-1.1,4.1,2.1,5.6,4.3,8c1.4,1.6,2,2,4.3,1c7.9-3.5,11.5-9.4,12.8-19.9c-7.2,4.3-12.9-3.1-19.1,1.5c1.2-6.4-4.3-7.8-7.9-8.1
				c-6.7-0.4-6.3,6.5-8.2,10.7C217.9,489.7,216.5,493.5,222.6,494.5z M958.9,855.6c2,0.5,3.8,0.3,5.1-1.4c0.7-0.3,1.3-0.9,2-1
				c8.6-1.6,12.7-6.1,13.1-15.5c0.5-10-5.9-7.9-11.4-8.6c-0.8-0.1-1.7-1.3-2.1-2.2c-0.8-1.8-0.4-5.3-3.7-2.8
				c-1.8,1.4-2.8,3.5-1.2,6.7c4.1,8.1,0.5,14.7-8.5,16c-4.3,0.6-8.9-0.2-13.3-0.3c-2.6-1.3-4.8-4-9.3-2.4c3.1,3,5.4,5.1,8.9,5.7
				c4.7,3.6,10.3,4.4,15.8,5.6c0.8,0,1.6,0.1,2.4,0.1l1.1,0.1L958.9,855.6z M796,242.2c4.2,1.4,8.5,3.8,11.3-2.1
				c4.7-3.5,5.1-7.3,1.3-12.6c-8-11.2-30.4-16.1-42.5-9.3c-1.3,0.7-2.9,1.6-2.4,3.1c0.6,1.8,2.2,2.7,4.3,3c4.5,0.6,9.9-1.3,12.4,4.6
				c-10.9-1.6-3.4,10.8-9.7,12.7c1.4,3.5,17.1,4,20.9,0.6C793.1,242.2,794.5,242.2,796,242.2z M598.8,363c-0.3-1.1-0.2-2.3-0.8-3.2
				c-2.5-3.7,5.6-10.8-1.3-10.9c-6.3-0.1-2.8,8.2-3.6,12.8c-0.1,0.3,0.1,0.7,0.1,1.1c-2.7,14.3-2.9,28.8-2.3,43.2
				c0.4,9.2,2.7,18.3,3.9,27.4c0.8,6,3.6,10.1,9.9,9.3c6.2-0.8,3.1-6.5,3.7-10c0.6-3.2,0.1-6.7,0.2-10c0-1.2,0.6-2.2,1.7-0.9
				c0.7,0.8,0.7,2.1,0.9,3.2c0.8,4.7,1.7,9.4,3,16.5c1.2-7.4,0.8-12-0.3-16.7c2.1-6.1,1-12.4,0.9-18.6c0-1.6,0.2-3.7-2.5-4.1
				c-2.2-0.3-10.7-9-10.5-10.8C602.6,381.7,600.3,372.4,598.8,363z M452.1,535.7c-5.9-0.1-11.8-0.3-17.7-0.4
				c-8.9-1.1-17.8-0.9-26.6-0.2c-3,0-6,0.1-9,0.1c-3.8,0.7-9.7-4-10.8,4c0,1.5-0.1,3-0.1,4.4c0,8.8,0,17.6,0,28
				c7-9.3,7.2-18.7,9.4-27.4c9.7,1.4,13.1,6.4,8.2,13.7c-3.2,4.8,2.1,5.3,2.4,8.1c0,1.5,0.7,2.2,2.2,2c1.5,0,3-0.1,4.4-0.1
				c6.3,0.8,15.9-0.7,12.6,9.9c-3,9.6,1.7,12.9,8.2,16.4c4,2.1,7.9,4.3,11.6,6.3c-1.2,4.3-7.5,3.8-5.9,9.8
				c7.7,0.6,15.9-17.3,23.2-0.1c-0.8,0.7-1.6,1.5-2.5,2c-10.4,5.5-10.3,5.5-10.3,16.3c0,1.1-1.7,2.1-2.5,3.3
				c-1.7,2.5-5.7,4.7-3.3,8.2c2.3,3.4,6.1,1,9.2,0.4c2.2-0.4,4.3-0.8,7.4-1.4c-11-7.4-7.2-10,2.7-10.8c1.8-0.1,3.6-1.9,5.7-3
				c-3.7-1.4-8.7,0.7-9.1-5c-0.2-3.2,2.1-4.7,5-4.8c12.2-0.7,19.2-5,24.8-18c5.5-12.8-0.3-21.7-0.5-33.7c-9.8,6.8-8.8,15.1-5.5,21.9
				c3.5,7.1,2.8,12.7-4.3,13.5c-5.1,0.6-15.2,10-16.8-4.7c-0.4-3.4-2.7-4.4-5.6-3.4c-6.8,2.3-11.9-4-18.5-3.6
				c-2.4,0.1-4.9-6.1-3.7-6.8c7.2-4.1,3.5-15.1,11.9-18c7-1,7.8-13.6,17.6-9.4c1.3,6.2,5.5,1.5,8,1.7c3.9,0.4,10.2,3,11.5-2.5
				c1.1-4.7-6.1-4.2-8.6-7.3c-0.4-0.5-0.3-1.3-0.5-2.3c11-7,21.6,3.4,32.6,0.8c2.7-0.6,3.6,2.6,2.3,5.7c-1.5,3.7-0.2,7.3,4.1,7.1
				c9.2-0.5,6.6,4.5,5,9.3c-0.8,2.4-2.7,5.3,0.9,6.5c3.1,1.1,4.2-2.2,5.6-4.3c3.6-5.9,1.7-10.9,0.1-17.4
				c-2.4-9.8-2.1-13.4-12.4-13.9c-14.7-0.8-29.5-0.5-44.3-0.7c-2.9,0-5.7,0.1-8.6,0.1C458.3,534.6,455.2,534.7,452.1,535.7z
				 M994.5,567.9c-3.2-0.1-4.7,1.4-4.3,4.7c-4.8,8-16.2,12.5-13,24.8c0.5,1.8-2.5,2.7-2.9,2.4c-7.3-4.5-6.3,3.7-9.2,5.8
				c-3.3,3.5-6.4,7.1-9.9,10.3c-5.8,5.5-11.5,11.7-20.8,7.9l0.1,0.1c1.3-5.1,6.3-7.3,9.9-7.8c11.5-1.6,14.9-10.8,18.2-18.9
				c2.4-5.8,4.8-11.6,7.6-17.1c16.3-32.4,14.9-64.9,0.6-97.4c-0.7-5.1-3-8.7-9.4-9.1c0.3,5.2,1.2,10,4,14.2c0.7,3.2,1.3,6.5,2,9.7
				c5.5,24.9,8.1,49.5-4.8,73.4c-10.5,19.5-27.4,31.3-46.1,41.5c-3.8,0.4-7.5,0.9-11.3,1.3c-1.3,0.1-2.6,0.3-3.9,0.4
				c-7.6-1.3-15.7-1.3-22.7-4.2c-6.5-2.7-14.5,2.2-19.1-4c-3.2-4.4-6.7-1.9-8.1-0.6c-3.1,3.1,1.3,5,3,6.3c6.8,4.8,12.2,10.4,14,18.8
				c-2.2,0.6-4.3,1.2-6.5,1.7c-4.7,1.1-11.4-0.5-11.6,7.2c-0.2,6.9,5.4,9,10.7,11.1c16.2,6.4,32.2,7.4,48.1-1.5
				c2.5-1.4,5.6-4.2,9.2-1.6c-2.2,11.8-12.5,24.2,2.8,34.5c3.4,3.5,4.4,1.2,5-2.1c2.1-3,4.2-6,6.3-9c0.6-0.8,1.3-1.6,1.9-2.4
				c1.6-1.4,3.2-2.9,4.8-4.3c5.6-1,11.8,0.6,16.6-3.9c1.1-0.2,2.3-0.4,3.4-0.6c8.6,0.1,16.6-1.2,21.6-9.3c1.8-2.1,3.5-4.2,5.3-6.3
				c1.7-0.7,2.3-1.7,1.1-3.4c0.4-1,0.7-2.1,1.1-3.1c3.3-3.3,3.6-7.6,4.6-11.9c2.4-9.8-4.4-18.3-2.8-27.8c0.9-5.2,1-10.9,7.7-11.7
				c6.4-0.8,13-0.6,15.9,6.8c2.6,6.5-2.2,10.3-6.1,14.2c-1.8,1.7-4.8,2.2-6.6,3.9c-3,2.9-2.9,7.7-0.9,10.1c1.2,1.5,8.7,0.8,9.2-0.5
				c2.2-5.6,8.7-7.5,10.4-12.3c5.7-15.8,8.7-32.4,4.6-49c-3-12.2-15.2-15-24.7-5.7c7.7,2.4,19.1-0.4,20.1,14.3
				C1009.8,561.7,1001.6,556.8,994.5,567.9z M612.6,263.4c6.8-7.5,12.2-14,18.3-19.8c4.5-4.4,4.3-7.5-0.3-11.7
				c-15.2-14.1-30.4-28.4-45.1-43c-4.9-4.8-8-3.3-12,0.5c-13.5,12.7-27.3,25.1-40.4,38.2c-3.4,3.4-12.1,7.1-7.6,12.1
				c5.1,5.5,7.7-4.1,11.3-6.7c12.6-9.1,24.3-19.8,33.3-32.3c5.3-7.4,8.4-6.6,13.4-2c12,11.1,23.4,22.8,35.6,33.5
				c5.9,5.1,5.2,8.5,0.4,13.4C615.2,249.8,608.8,253.4,612.6,263.4z M380.2,820.1c0.3-4.3,0.6-7.2,0.6-10.1
				c0-88.4,0.1-176.9,0.1-265.3c0-14.5-0.1-14.5,14.1-14.5c34.7,0,69.4,0,107.4,0c-7.2-4.2-11.9-4.5-16.6-4.5
				c-32,0-63.9,0.3-95.9-0.2c-9-0.1-12,2.1-11.9,11.6c0.4,89.2,0.3,178.4,0.4,267.6C378.3,809.3,377.6,814.1,380.2,820.1z
				 M579.2,331.9c-8.7-0.6-14.5,1-19.9,3.2c-3.4,1.4-8.2,3.1-5.7,8.9c2,4.6,3.6,7.4,10.5,6.8c11.9-1.1,21.5-10.7,34.1-7.9
				c1.6,0.4,3.5-1.6,3.3-3.7c-0.3-2.8-2-4.7-5-5C589.8,333.3,583.2,332.4,579.2,331.9z M597.8,133c-8.1,0-13.3-0.3-18.4,0.1
				c-2.4,0.2-9.2-2.5-4.8,5c1.1,1.9-0.3,3.5-2,4.5c-5.8,3.4-6,10-8,15.3c-2,5.2,0.3,6.8,5.6,4.7c5.1-2.1,9.7-5.4,15.6-5.3
				c10.7,0.2,9.5-7.6,6.3-12.4C588,139,592.1,137.6,597.8,133z M178,479.1c7.3,2.2,13.3-2.1,20.3-1.5c3.8,0.3,12.7-2,13.3-9.3
				c0.5-5.3-5.6-6.8-9.3-9.3c-4-2.7-7.5-0.7-10.8,2.2C186.1,466.3,181.5,471.8,178,479.1z M501.7,627c-12.1,10.8-12.2,17.1-0.5,27.1
				c3.7,3.2,6.9,6.6,8.5,11.3c1.1,3,1.8,8.3,5.3,6.5c3.2-1.6,5.5-6.9,2.9-11.5c-1.4-2.5-3.5-4.7-5.4-6.9
				C505.8,646.1,499.3,638.7,501.7,627z M454.4,582.9c3.6,0.5,5,0.8,6.4,1c5.4,0.8,12.5,5,13.9-4.6c0.9-5.9,6.6-15.9-8-13.4
				c-1.2,0.2-2.6-2.7-4.2-3c-4.1-1-8.1,0.4-11.1,3.2c-1.1,1-1.5,3.5-1.1,5c1.2,4.8,4.8,1,7.3,1.5c2.6,0.5,5.6,0,6.1,3.4
				C464.5,581.5,459.6,581.1,454.4,582.9z M587,113.7c0.6,0.5,1.1,1,1.7,1.4c2.7-1.7,5.9-3.1,8.2-5.3c7.4-7.1,9.8-20,4.8-25
				c-7-7-12.5-1.4-19.8,2.8c3.1,0.4,4.5,0.8,5.8,0.6c4.4-0.6,8.4,0.6,10.6,4.4c2.8,4.6-2.8,5.9-4.3,8.9
				C591.8,105.6,589.3,109.6,587,113.7z M532,297c-5.8-6.6-12.8-6.9-20.4-5.6c-3.8,0.7-5.9,2.3-5.9,6.4c0,5,3.5,6.6,7.2,6.4
				C519.8,303.9,526.6,302.4,532,297z M523.8,651.5c-0.9-6.4-2.4-12.3-2.2-18.1c0.2-6.1-1.9-8.3-7.6-7.3c-5.9,1.1-6.6,5.6-5.3,10.2
				C510.8,643.6,514.9,649.4,523.8,651.5z M771.7,440.8c1.6,11.3,4.9,22,13.2,30.4c1.4,1.4,3.4,3.7,5.6,1.3c1.6-1.7,1.4-5.2,0-6.1
				C781.1,459.9,784.2,445.2,771.7,440.8z M580.8,259.5c1.3-6.7,0.8-13.2,7.6-18.1c4.6-3.3,3.1-12.6,0-17.1
				C576.1,233.4,579.6,246.7,580.8,259.5z M583.6,291.8c-6.8-4.8-12.9-10.7-22.2-9.4c-2.9,0.4-6.7,0.5-7,3.8c-0.3,3.2,3.4,4.1,6,5.5
				C568.1,295.7,575.7,291.3,583.6,291.8z M882.8,555.2c-12.6-4.6-19-3.8-26.9,2.6c-1.4,1.1-5.2,3.2-1.8,4.1c4,1,8.9,2.6,12.5,1.8
				C872.1,562.5,876.9,558.5,882.8,555.2z M494,358.9c21.5,4.4,23.8,3,22.2-12.5C508.9,350,501.2,352.3,494,358.9z M1048,589
				c7,7.1,13.7,13.8,19.4,22.8C1068.5,594.9,1061,586.2,1048,589z M720.4,474c5.4,10.3,12.9,10,20.3,9.2c4.8-0.5,5.4-4.9,4.9-8.4
				c-1-6.4-4.3-1.2-6.8-1C733.3,474.3,727.7,474,720.4,474z M483.6,651.7c0-5.2-3.9-7.5-7-7.4c-5.6,0.3-7.2,6.4-9.7,10.3
				c-1.1,1.8,3.2,3.8,4.4,3.5C475.8,656.8,481.8,657.7,483.6,651.7z M622.7,296.4c1.9-1,8.3,1.5,6.9-2.7c-2.5-7.7-11.6-6.2-18-8.6
				c-1.6-0.6-4.5-0.3-4.1,2.1C609,295.1,615.3,296.2,622.7,296.4z M573.2,113c-2.4,0-5.8,1.2-4.8,3c2.3,4.6,5.5,9.1,9.4,12.3
				c1.8,1.5,7.8,0.9,7.2-3.6C584.1,118.6,579.1,114.9,573.2,113z M267.5,863.5c-0.4,17.9,4.6,23.7,19.2,22.5
				C277.9,880.5,272.4,873.4,267.5,863.5z M999.1,533.1c5.2-5.6,9.5-5.7,14.4-3.7c3,1.2,7.3,0.3,4.8-3.7c-3-4.8-8.8-4.8-14.7-4.2
				C996.4,522.4,999.8,526.8,999.1,533.1z M210.9,825.9c-1.8-5.3-6.2-8.4-11.6-9.7c-2.1-0.5-4.7-0.2-4.3,3.9c0.6,7.1,7.8,5.3,11,8.8
				C207.1,830,210.4,829.6,210.9,825.9z M937,539c2.3,12.4,1.9,24.9,3.6,37.3C944.3,563.6,940.5,551.3,937,539z M1013.8,516.2
				c-0.1-6.2-5-6.1-8.4-7.7c-2.6-1.2-5-0.6-6.5,2.1c-1.1,1.9-2.5,4.1-1.4,6.2c1.9,3.5,4.4,0.1,6.7,0.1
				C1007.4,516.8,1010.6,516.5,1013.8,516.2z M822.4,517.5c10.6,5.1,18,2.8,24.9-7.8C838.4,513,830,510.3,822.4,517.5z
				 M1009.3,534.5c-2.9,0.9-9.1-0.7-7.4,3.6c2.5,6.4,11.1,1.6,16.1,5.2c1.4,1,4.1-0.5,3.1-2.7C1018.9,535.6,1014,535,1009.3,534.5z
				 M320.9,694.6c-2-0.8-3.2-1.3-4.4-1.8c-4.2-1.8-8.3-3.1-12.2,0.4c-1.2,1.1-1.7,2.6-0.1,3.7c4.2,3,8.8,3.5,13.5,1.3
				C318.7,697.8,319.4,696.3,320.9,694.6z M177.8,536.9c0.3-3.5-1.3-5.7-4.8-5.9c-3.2-0.1-7.8,0.2-7.7,3.9c0.1,4.2,5.4,4,8.6,5.4
				C176.7,541.6,177.6,539.4,177.8,536.9z M989.8,338.3c-1.3-4-4.4-4.5-7-5.8c-3.8-1.9-6.2,0.2-8.5,2.7c-1,1.1-2,2.7,0,3.4
				c2.5,0.9,4.8,4.7,8.2,0.5C983.6,337.9,987.2,338.6,989.8,338.3z M572.6,103.2c-4-4.7-7.4-8.8-10.7-12.9c-1.1-1.3-2.3-1.9-3.6-0.8
				c-0.7,0.6-1.4,2.3-1,2.8C560.9,97.4,562.9,104.9,572.6,103.2z M294.9,451.4c-9.1,2-15.1,3.8-21.5,8.3
				C282.3,462.3,288,459.5,294.9,451.4z M173.6,559c-8-2-15.9-2.7-23.2,7.2C160,563.3,166.8,561.2,173.6,559z M609.7,357.3
				c-7.3,3.7-7.4,17.5-1,28.6C606.4,375.4,604.7,367.1,609.7,357.3z M573.5,229.1c0,11.8,0,21,0,30.2
				C572.7,250.1,578.9,240.8,573.5,229.1z M554.6,230.3c-3.8,0.1-7.3,1.8-7.6,5c-0.3,4.2,3.8,5.7,7.6,7.9
				C554.6,238.3,554.6,234.3,554.6,230.3z M437.7,626.1c-4.1,1.3-7.6,2.5-11.2,3.6c0.3,0.9,0.6,1.7,0.9,2.6
				C431,631.2,438.2,640.2,437.7,626.1z M178.8,573.8c-8.5-5-14-5-20.5,2.9C165.7,575.7,170.9,574.9,178.8,573.8z M611.6,231.7
				c0,5.4,0,9.5,0,14.7C618.5,241,619.6,236.9,611.6,231.7z M216.4,541.2c1.5-4.5,2-9.1,0-15.9C216.4,532,216.4,536.6,216.4,541.2z
				 M412.6,906.7c1.6,2.4,1.4,6.2,5.4,6.3c0.1,0,0.3-0.5,0.5-0.9C417.6,909.4,415.8,907.4,412.6,906.7z M701.3,968.7
				c-0.2-1.2-0.7-2.2-2-1.6c-1.2,0.6-2.6,1.3-3.4,2.4c-1,1.2,0.3,2,1.3,2.2C699.3,971.8,700.4,970.4,701.3,968.7z M215.7,547.9
				c-2.3,2-2.4,4.4-0.7,8C215.3,552.5,215.5,550.2,215.7,547.9z M617.2,446.2c-0.3-0.5-0.7-1.1-1-1.6c-0.2,0.6-0.7,1.3-0.7,1.9
				c0.1,0.7-0.3,2.2,1.2,1.7C617,448,617,446.8,617.2,446.2z M654.2,492.4c-0.5,0.3-1,0.7-1.6,1c0.6,0.3,1.3,0.8,1.9,0.7
				c0.7,0,2.2,0.3,1.6-1.3C656,492.6,654.9,492.6,654.2,492.4z M861.5,568.9l0.5,0.4l0.1-0.7L861.5,568.9z"/>
			<path class="st0" d="M782.8,1005.1c-14.3-12.4-14.9-25.4-2.1-45.9c9.4-15.1,21.8-27,37.6-35.3c20-10.5,33.2-6.8,42.2,14
				c6,13.9,11.1,28,20.9,40c4,4.9,6.5,11.4-0.8,15.1c-5.9,3-12.1,2-16-5c-1.9-3.5-4.9-6.5-7.9-9.1c-6.1-5.4-12.2-6.4-18.2,0.9
				c-5.4,6.6-12.4,10.7-14.1,21.3c-2.3,14,3.9,21.9,12.8,29.4c18,15.1,17.6,15-1.4,28.4c-56.7,39.8-119.6,63.4-187.8,73.7
				c-54.2,8.2-108,4.7-161.3-7.4c-35.1-8-69.7-17.6-101.4-35.2c-16.6-9.2-30.8-22-45-34.4c-9.5-8.3-9.3-14.4-0.4-23.3
				c6.4-6.4,12.1-13.3,12.7-22.8c0.6-9.8-15.9-30.5-25.6-32c-6.5-1-9.9,4.2-13.3,8.5c-3.3,4.2-6.4,8.2-12.8,6.7
				c-3.7-0.9-7.5-1.5-8.8-5.7c-1.2-3.6,0.6-6.7,3.1-9c17.2-15.3,34.4-30.5,53.7-43.2c10.4-6.8,21.4-3.7,33.4,11.3
				c10.3,12.9,18.8,27.5,19.2,45.3c0.2,10-3.7,16.2-12.7,19.8c-2.8,1.1-7.6,0.6-7.3,5.3c0.2,3.6,3.8,5.1,6.5,6.9
				c33.2,22.8,70.1,36.7,109.4,44.6c41.4,8.3,83.3,10.8,125,6.1c55.5-6.2,109-20.4,157.5-49.6c3.1-1.9,6.1-4,9.1-6
				c5.9-3.5,8.2-7.1,0.2-10.8c0,0,0,0,0,0C787.8,1005.2,785.2,1005.5,782.8,1005.1z M781.7,1051.2c-2.1-3.7-4.2-7.3-7.7-13.2
				c-0.2,8.1,2.2,11.8,5.7,15c0.2,1.3,0.5,2.6,0.7,3.9c-14-11-28.4-16.8-44.7-4.4c-21,6.5-41.9,13.1-62.9,19.6
				c-3.8,0.3-7.5,0.5-10.8,2.7c-8-0.5-15.5,1.9-23,3.7c-16.9,1-33.7,2.1-50.6,3.1c-3.7,0-7.4,0-11.2,0c-22.1-1.6-44.3-2.6-66.2-6.2
				c-28.6-4.7-56.1-13-83.1-23.2c-4.7-3.6-10-5.6-15.8-6.5c-7.2-7.3-6.6,5-11.2,4.5c-0.6-2.6,1.7-5.5-1-8c-4.1,2.6-4.4,7.4-6.9,10.9
				c-3.2,4.4-2.8,11.5-9.9,12.8c-0.7-4.6,5.2-7.6,3-15c-4.6,7.9-9.7,13.1-11.5,22.9c4.1-3.8,6.4-5.9,8.6-8.1c0,1.1,0.4,2.3,0,3.2
				c-0.9,2.2-3.8,5-0.9,6.7c3.5,2.1,4.6-2.1,6.1-4.3c4.6-6.8,6.7-15.2,12.7-21.2c1.2,11.6-10.9,18.8-10.8,31.6
				c10.7-8.1,10.4-22,19.7-29.3c-0.1,11.7-12.2,19.9-10.8,33.5c7.9-4.1,5-14.5,13.2-16.4c-8.4,19.4-7.6,21.8,8.4,25.7
				c1.2,1.7,2.9,1.9,4.7,1.5c0.7,0.1,1.5,0.3,2.2,0.4c40.7,16.9,83.3,25.2,127.3,26.7c3.7,0.2,7.4,0.5,11.1,0.7
				c12,2.7,23.9,1.5,35.8-0.7c3.7-0.1,7.4-0.1,11.2-0.2c46.7-2.5,91.6-12.3,134.8-30.4c9.5-3.5,19.3-5.8,27-13.4
				c2.8-2.7,2.3-13.5,11.1-6.6c0.3-1.8,0.7-3.5,1-5.3c14.6,3.5,1.3-6.8,4.5-9c1.9,1.8,3.6,3.8,5.6,5.2c3.5,2.4,5.5,1.4,5.5-3
				c7.4-2,9.7-7.9,4.6-14c-5.6-6.6-10.5-13.8-15.1-21.5c-2.1,2.8,1,6.4-2.4,8.3c-0.6-1.5-0.5-3.6-3.1-3c0.5,1.4,1.1,2.9,1.6,4.3
				c0.3,2,0.7,3.9,1,5.9c-4.4-0.5-4.3-6.5-9.1-7.4c1.1,9.9,7.3,17.1,11.4,25.2C785.5,1060,785.8,1052.8,781.7,1051.2z M805,972
				c0,1-0.1,2.1,1.4,1.1c-0.5-0.3-1.1-0.6-1.6-0.9c-0.7-1.5-1.5-3.1-2.2-4.6c2.9,0,5.9,0.2,8.8-0.2c5-0.8,6.6-5.7,6.4-9.1
				c-0.3-5.3-1.9-11.4-7.7-13.5c-4-1.4-8.5-0.5-9.7,5.1l0.1-0.1c-2.5,4.1-11.5,8.4,0.4,12.2c2.2,0.7,2.1,3.5,1.9,5.7
				c-3.3,0-5.3-2.1-7.4-4.1c-2.2-2.1-4.9-4.5-7.3-1c-2.1,3.2,0.8,5.3,3.2,7.1C795.4,972.6,800.3,971.7,805,972z M363.1,1059
				c0.1,2.4,0.3,4.2,3.8,2.8c10.8-4.5,11.3-14.5,13.6-24.1c-1.5,1.4-4.7,0.8-7.2,0.8c-5.2,0.1-5.2,5.1-6.8,8.5
				c-4.5,1.5-12-1.7-12.2,6.3C354.1,1058,358.9,1059,363.1,1059z M804.8,994.5c0-3.6-0.1-8.8-3.7-8c-6.6,1.5-4.3,8.9-6,13.7
				c-1,2.7-1.4,5.7,2.7,5.1C803.8,1004.2,803.2,998.3,804.8,994.5z M374.6,990.1c-3.7-0.5-4.9,1.3-4.7,3.7c0.6,5.4,0.9,11.2,7,13.6
				c2.6,1,4.4-1.2,3.7-3.7C379.2,998.8,380.3,992.5,374.6,990.1z M840.7,948.9c-0.6-3.1-2-5.7-5.4-5.8c-4-0.1-5.6,2.6-5.9,6.3
				c-0.2,3,0.8,4.9,4.2,4.8C837.3,954.1,839.9,952.7,840.7,948.9z M353.2,1025.7c-1.5,1.5-2.6,2.4-3.6,3.4c-2.1,2-4.2,4.1-6.3,6.1
				c-2.5,2.4-4.2,6,1.1,5.3c6-0.8,8.3-6.6,9.6-12.3C354,1028,353.8,1027.6,353.2,1025.7z M355.6,1022.4l-0.5-0.5l-0.1,0.8
				L355.6,1022.4z"/>
			<path class="st0" d="M911.7,840.4c1,2.4,1.6,5,3,7.1c13,20.5,15,26.1-2.2,40.4c-8.7,7.2-17.4,17-29.1,21
				c-10.1,3.5-21.8,0.1-27.1-7.4c-6.3-8.9-6-21,1.4-29.9c2.1-2.6,5.1-8.7,7.9,0.1c2.1,6.4,8,5.7,11.9,3.1
				c8.7-5.8,16.8-12.9,16.5-24.6c-0.3-11.5,3.3-21.7,7.6-32c4.1-0.5,5.9,0.4,5,5.3C905.6,829.8,908,835.4,911.7,840.4z M883.1,887.3
				c-4.6,1-9.2,2.1-15.2,3.4C875.7,895.9,879.6,892.5,883.1,887.3c2.9-0.1,5.7-0.6,6.9-4.1C886.4,882.8,884.1,884.1,883.1,887.3z"/>
			<path class="st0" d="M671.1,48.2c-0.8-5.1-0.7-9.6,5.2-11.9c1.6-0.6,3.5-2.2,4-3.7c5.5-18.1,22.2-16.5,35.7-20.7
				c1.9-0.6,4.2-2.3,5.8,0.5c1.1,2-0.8,3.4-1.4,5c-8.6,22.9-27.7,28.9-49.5,30.5C671,48.1,671.1,48.2,671.1,48.2z"/>
			<path class="st0" d="M880.9,429.7c-13.1-3.6-20.2-13.9-17.8-26c2-10.3,15.1-16.9,23.3-10.9c5.9,4.4,4.6,10.1-1.1,14.6
				c-0.5-0.8-1.7-1.8-1.5-2.5c0.9-3.2,6.9-6.1,0.3-9.6c-5.4-2.8-9.9-1.3-13.5,3.3c-5.4,7-3.2,14,1.1,20.4
				C874.3,422.9,877.8,426.2,880.9,429.7z"/>
			<path class="st0" d="M854,300.3c12.8-1.1,25.5-4.3,38.9-1.6c-4.8,3.5-10.7-0.5-15,3.2c-6.4,1.4-13.3-0.5-19.4,3
				c-2.6-0.5-5.2-0.5-7.1,1.7c-1.3,0.2-2.7,0.4-4,0.6c-0.9,0.5-1.8,1-2.7,1.6c-6,1-10.9,5.7-17.4,4.9c5.5-6,14.5-5.7,20.2-11.3
				c0,0-0.2,0.1-0.2,0.1c2.5-0.2,5.4,1,6.9-2.3L854,300.3z"/>
			<path class="st0" d="M963.7,367.3c1,14.8,0.1,29-11.5,40.2c3.6-13.2,8.7-26.1,7.4-40.4C959.2,362.6,962.3,364.1,963.7,367.3z"/>
			<path class="st0" d="M779.5,348.7c-7.1,1.1-14.7-1-21.4,3.1c-0.5-0.5-1.5-1.2-1.5-1.4C759.3,345.8,775.3,344.7,779.5,348.7z"/>
			<path class="st0" d="M896.1,436.1c-5.7-0.8-12.9,1.9-15.3-6.5C886.4,430.7,892.1,431.5,896.1,436.1z"/>
			<path class="st0" d="M952.3,407.3c-1,3.6-2.2,6.9-6.8,6.8C946.8,411,947.5,407,952.3,407.3z"/>
			<path class="st0" d="M442.1,968.6c-4.1-1.8-6.5-5.2-8.8-8.7c0.5-0.4,0.9-0.9,1.3-1.4c0.7,0.1,1.5,0.1,2.2,0.2
				c0,0-0.1-0.1-0.1-0.1c2.3,3,4.6,5.9,6.8,8.9C443,967.9,442.5,968.2,442.1,968.6z"/>
			<path class="st0" d="M433.2,959.9c-2.8-1.8-5.3-3.7-6.7-6.8c0.5-0.4,1-0.8,1.4-1.3c1.4,0.8,2.9,1.6,4.3,2.5c0,0-0.1-0.1-0.1-0.1
				c0.8,1.5,1.6,2.9,2.4,4.4C434.2,959,433.7,959.5,433.2,959.9z"/>
			<path class="st0" d="M448.9,975.5c-3.4-1.2-5.3-3.8-6.8-6.9c0.4-0.4,0.9-0.7,1.3-1.1c3.1,1.3,5.1,3.8,6.8,6.5
				C449.8,974.5,449.3,975,448.9,975.5z"/>
			<path class="st0" d="M945.5,414c0.5,3.6-1.7,4.4-4.5,4.6C942.2,416.7,943.1,414.6,945.5,414z"/>
			<path class="st0" d="M823.3,315.5c0.9-1.7,2.1-2.5,4.1-1.8C826.8,316,825,315.6,823.3,315.5z"/>
			<path class="st0" d="M726.8,438.7c0.2-1.3,0.9-1.8,2.1-1.5c0.2,0.1,0.4,0.5,0.6,0.8C728.6,438.2,727.7,438.4,726.8,438.7
				C726.8,438.6,726.8,438.7,726.8,438.7z"/>
			<path class="st0" d="M451.3,977.6c-0.8-0.7-1.6-1.4-2.4-2.1c0.4-0.5,0.8-1,1.3-1.4c0.8,0.7,1.5,1.4,2.3,2.2
				C452.1,976.7,451.7,977.1,451.3,977.6z"/>
			<path class="st0" d="M426.5,953.1c-0.6-0.9-1.3-1.7-1.9-2.6c0.4-0.3,0.7-0.6,1.1-1c0.7,0.7,1.5,1.5,2.2,2.2
				C427.5,952.3,427,952.7,426.5,953.1z"/>
			<path class="st0" d="M941.1,418.5c-0.5,0.7-1,1.3-1.5,2C940.1,419.8,940.6,419.2,941.1,418.5z"/>
			<path class="st0" d="M498.7,822.7c-0.6,0.6-1.2,1.3-1.9,1.9c-0.8,0.7-1.7,1.4-2.5,2.1c0,0,0,0,0,0c-7.7,3.9-13.3,10.4-19.6,16
				c-2.4,2-4.7,4.1-7.1,6.1c-2.8,0.8-5.1,2.3-6.5,5c0,0,0,0,0,0c-0.8,0.7-1.6,1.5-2.5,2.2c-12.5,10.1-24.9,20.1-39.6,32
				c1.1-18.1-2.6-33.7,2.4-49c21.2-17.4,42.5-34.6,63.6-52.2c33-27.6,65.8-55.4,98.5-83.4c4.7-4,7.8-3.5,12.3,0.1
				c7,5.7,12.6,13.4,21.6,16.5l-0.1-0.1c-0.3,2.7,1.7,3.7,3.4,5.2c38.4,34.2,77.2,68.1,116.9,100.7c7.9,6.5,12.8,13.5,11.7,24.5
				c-1.1,10.6-0.3,21.5-0.3,32.2c-2.7,1.2-4.4-0.9-6.3-2.1c-0.9-0.7-1.7-1.4-2.6-2.1c-2.4-2.9-4.9-5.6-8.5-7
				c-0.8-0.7-1.7-1.5-2.5-2.2c-36.6-30.5-73.4-60.6-109.5-91.6c-8.5-7.3-17.8-13.7-26-21.4c-4.7-4.5-9.4-5.3-14.2-0.1
				c-4.5,2.8-8.3,6.3-11.5,10.5c-21.6,16.1-42.2,33.4-62.4,51.2C503.1,819,500.1,819.7,498.7,822.7z M601.9,718.8
				c-6.3,13.7-3.1,28.6,8.2,37.6C612.5,742.7,611.9,729.6,601.9,718.8z M657.7,769.9c0,9.4-0.1,16.6,0.1,23.8c0,2.3-1,6.1,3.1,5.6
				c2.6-0.3,5.7-1.5,5.8-5.5C667,785.7,667.1,777.8,657.7,769.9z M587.9,707.9c-1.6,9.6-2.8,19.3,0.5,28.9
				C591,727.2,591.3,717.6,587.9,707.9z M539.5,750c-2.1,9.6-3.6,19.2,0,28.7C542.2,769.2,541.9,759.6,539.5,750z M630.2,745.8
				c-0.9,9.7-3.2,19.4,1,28.8C633.1,764.8,634,755.2,630.2,745.8z M546.5,743.9c-3.1,9.4-2.4,18.6-0.3,27.9
				C548.6,762.4,549,753.1,546.5,743.9z M498.9,811.7c3.4-9.3,2.9-18.5,0.2-27.8C496.3,793.1,496.3,802.4,498.9,811.7z M470.3,808.2
				c-2,9.6-3.5,19.1,0.4,28.4C472.6,827.1,473,817.6,470.3,808.2z M463.7,842.9c2-9.4,3.1-18.7-0.5-28.1
				C460.9,824.2,460.4,833.5,463.7,842.9z M644.7,759.2c-3.4,8.8-2.9,17.7-0.1,26.5C648.1,776.9,647.3,768.1,644.7,759.2z
				 M732.6,835c-1.1,8.9-3.2,17.9,0.8,26.6C735.6,852.6,736.7,843.8,732.6,835z M704,808.2c-1.2,8.9-3.3,17.9,0.7,26.6
				C707.2,825.9,707.4,817.1,704,808.2z M449.6,825.7c-1.2,9.1-3.3,18.4,0.9,27.3C451.8,843.9,453.8,834.7,449.6,825.7z
				 M456.5,821.1c-2.5,9.1-2.8,18.2,0.1,27.2C459.9,839.2,459.8,830.1,456.5,821.1z M710.9,814.6c-1.5,9-3.1,18.1,0.4,27
				C714.4,832.6,713.9,823.6,710.9,814.6z M477,830.1c2.3-8.8,2.6-17.7-0.1-26.5C474.4,812.5,473.8,821.3,477,830.1z M696.7,802
				c0,8.7,0,17.3,0,26c0.9,0,1.8-0.1,2.8-0.1C699.6,819.3,700.8,810.6,696.7,802z M483.8,823.6c2.5-8.9,2.9-17.9,0.1-26.9
				C480.9,805.7,481.1,814.6,483.8,823.6z M561.4,758.8c2.8-9,3-18,0-26.9C559,740.9,558.4,749.9,561.4,758.8z M505.6,778.7
				c-1.6,9.1-3.3,18.3,0.4,27.3C508.2,796.9,509,787.8,505.6,778.7z M594.8,740.4c1.7-8.7,3.5-17.4-0.4-26.1
				C592.9,723,591.9,731.7,594.8,740.4z M740.8,867.6c1.9-8.7,2.4-17.5-0.5-26.1C737.7,850.2,737.2,858.8,740.8,867.6z M512.5,774.5
				c-2,8.8-2.9,17.6,0.7,26.2C515,791.9,515.6,783.1,512.5,774.5z M689,825c4.9-9.2,4.9-18.4,0-27.4C689,806.8,689,815.9,689,825z
				 M719,850.9c0-11.9,0-20.6,0-29.4C716.3,830.5,714.2,839.4,719,850.9z M519.5,767.6c-2.9,8.5-3.5,16.8,0,25.1
				C522.1,784.3,521.9,775.9,519.5,767.6z M566.5,724.9c0,9.9,0,18.3,0,28C571.3,741.1,571.3,735.4,566.5,724.9z M616.9,762.6
				c0-9.3,0-18.5,0-27.8C614.2,744.1,613.9,753.3,616.9,762.6z"/>
			<path class="st0" d="M530.7,686.9c13.2-8.9,24.6-20,36.5-30.4c0,0,0.2-0.5,0.2-0.5c3.6-3.1,7.2-6.1,10.8-9.1
				c2.7-2.3,5.5-4.5,8.2-6.8c11.8,1.4,16.1,13.9,26.3,17.7c0,0,0-0.1,0-0.1c0.8,0.8,1.6,1.7,2.3,2.5c0.7,0.7,1.4,1.3,2,2
				c7.7,8.9,17.3,15.7,26.4,23.1c0.8,2.2,2.6,3.1,4.7,3.8c0.9,0.7,1.8,1.4,2.7,2.1l-0.1,0c1.6,2.9,3.7,5.3,6.9,6.5
				c0.8,0.7,1.6,1.4,2.4,2.1c0.7,0.6,1.4,1.2,2.1,1.8c1.3,1,2.6,2,3.9,2.9c0.8,0.8,1.6,1.6,2.5,2.4l0,0c3.7,4.6,7.5,9.1,13.3,11.2
				l0.1-0.1c0.8,0.7,1.6,1.4,2.4,2.1l-0.1,0c13.1,14.5,28.9,26,43.8,38.3c0,0,0.4,0.4,0.4,0.4c1.6,4.2,5.9,5.4,8.7,8.2
				c4.3,4.4,11.2,7.3,11.6,14.1c0.7,13.4,0.2,26.9,0.2,43c-7.9-8-17.2-10.1-19.8-19.6c10.7-8.3,2.5-18.2,3-27.4
				c-4.3,8.8-1.1,18.4-2.9,27.4c-4.4,1.6-6.8-1.8-9.5-4c-31.2-25.8-62.3-51.7-93.4-77.7c-2.6-2.1-4.9-4.6-8.7-3.2
				c0,0,0.1,0.1,0.1,0.1c-4.4-12.4-17.3-16.1-25.3-24.8c-4.3-4.6-7.3-3.6-11.9,0.3c-40.2,33.8-80.4,67.6-121.1,100.8
				c-13,10.6-24.9,22.6-40,30.4c-0.1-11.5,0.1-23-0.5-34.4c-0.4-6.7,2.4-10.7,7.3-14.9C461,747.4,495.8,717.1,530.7,686.9z
				 M587.5,647.5c-2.5,10.4-1.3,19.3-1.3,28.2c0,2,1,3.6,3.3,3.6c2.1,0,3.4-1.4,3.4-3.5C593.1,666.6,594.9,657.1,587.5,647.5z
				 M644.1,700.9c-1.9,9.6-3.2,19.1,1,28.5C646.2,719.8,647.7,710.3,644.1,700.9z M621.9,680.9c-1.1,9.6-3.1,19.3,0.7,28.9
				C625.1,700.1,625.1,690.5,621.9,680.9z M666.8,747.2c2.2-9.6,3-19.2-0.6-28.8C664.4,728.1,663.4,737.7,666.8,747.2z M470.1,778.8
				c2.1-9.6,2.9-19.3,0-28.8C467.2,759.6,467.9,769.2,470.1,778.8z M476.5,743.5c-2.3,9.7-2.5,19.4,0.5,29
				C478.6,762.8,480.5,753.2,476.5,743.5z M601.7,691.7c2.5-9.7,3-19.3,0.1-28.8C598.6,672.5,599.6,682.1,601.7,691.7z M631.3,716.6
				c1.3-9.7,3.5-19.6-1.1-29.1C628.5,697.3,627.4,707,631.3,716.6z M538.4,720.5c4.4-10.6,4.4-23.1-0.6-33.2
				C536.7,699.5,536.1,709.1,538.4,720.5z M608.4,669.7c-1.7,9.8-2.4,19.5,0.5,29C611.6,688.9,611.4,679.3,608.4,669.7z
				 M428.3,780.7c-5.1,11.5-0.8,20.6-3.9,29c-0.2,0.6,1.4,2.6,2.5,3c2.4,0.8,3.2-1.1,3.2-3C429.8,801.1,431.3,792.4,428.3,780.7z
				 M484.1,737.3c-3.5,9.4-3.1,18.8-0.3,28.2C486.6,756.2,486,746.8,484.1,737.3z M506,718.8c-3.2,9.2-2.8,18.5-0.8,27.9
				C509.4,737.6,508,728.2,506,718.8z M434.9,777.6c-2.9,9.2-3.6,18.5,0.1,27.8C437.4,796.1,437.2,786.9,434.9,777.6z M660.1,741
				c1.9-9.4,3.5-18.9-0.8-28.2C657.7,722.3,656.5,731.6,660.1,741z M689.3,765.4c2.6-8.8,2-17.5,0.2-26.3
				C686.3,747.9,685.6,756.7,689.3,765.4z M519.6,734.5c1.5-9.1,3.1-18.2-0.4-27.1C516.5,716.5,516.2,725.5,519.6,734.5z
				 M711.4,783.3c2.3-9.1,3.1-18.1-0.4-26.9C708.5,765.4,708.2,774.4,711.4,783.3z M463,756.5c-1.1,9.1-3.3,18.3,0.8,27.1
				C465.8,774.5,466.3,765.5,463,756.5z M525.8,730c3.4-9.1,2.6-18.2,0.6-27.2C522.8,711.8,523.2,720.9,525.8,730z M450,794.6
				c2.8-8.9,3.3-17.8,0.1-26.7C446.7,776.7,447.3,785.7,450,794.6z M718.4,790.1c2.5-8.9,1.8-17.7-0.1-26.4
				C715.5,772.5,714.8,781.3,718.4,790.1z M682.3,759.1c3.1-9,2.9-18.1-0.2-27.1C679,741,679.1,750.1,682.3,759.1z M532.9,723.7
				c2.2-9.1,2.7-18.2,0-27.2C529.9,705.6,529.5,714.7,532.9,723.7z M724.5,770.5c-1.5,8.8-3.5,17.6,0.7,26.1
				C727.2,787.8,727.7,779.1,724.5,770.5z M546.3,712.1c2.7-9,2.5-17.9,0-26.7C543.7,694.4,542.5,703.3,546.3,712.1z M580.5,654
				c0,8.9,0,17.8,0,26.8C584.2,671.8,584.4,662.9,580.5,654z M498.7,725.5c-2.1,8.9-2.4,17.8-0.1,26.6
				C501.6,743.2,502,734.4,498.7,725.5z M512.3,714.2c-2.3,9.1-2.9,18.2,0.4,27.1C514.8,732.2,515.9,723.2,512.3,714.2z
				 M740.3,781.1c-3.6,9-2.9,18.1-0.1,27.2C743.9,799.3,743.3,790.2,740.3,781.1z M704,776.8c3.2-8.7,3.4-17.5,0.1-26.3
				C701.5,759.2,702.1,768,704,776.8z M554.5,679.4c-3.5,8.5-4.7,17,0,25.3C554.5,696.3,554.5,687.9,554.5,679.4z M573.2,686.2
				c4.8-8.9,2.1-18,0-27.1C573.2,668.2,573.2,677.2,573.2,686.2z M561.3,672.7c-1.6,8.7-5.6,17.2,0,27.7
				C561.3,689.5,561.3,681.1,561.3,672.7z"/>
			<path class="st0" d="M586,807c5.3,2,10.4-4.1,16.6,0.7c3.4,2.7,2.7-4.2,2.6-5.8c-0.4-4.7,1.9-7.2,5.4-8.9
				c3.8-1.8,7.2-0.6,9.5,3.1c1.5,2.4,3.6,4.2,6.3,3.8c6.9-1,9.2,1.2,9.8,8.7c0.6,8.5,10.6,7.6,15.9,11.5c5.3,3.9,12.5,5.8,8.7,15.6
				c-2.5,6.4,3.2,12.4,5,18.7c1,3.3,3,8.8-1,9.8c-4.4,1.1-9.1,6.2-14.5,1.5c-2.2-2-3.5-6.5-7.9-4.1c-5,2.8,0.9,6.6-0.7,9.9
				c-1.2,0.4-2,1-1.7,2.4c-1.4,3.4-4.4,2-6.9,2.3c-3.9-1.7-3.8,2-5.1,3.8c0,0-0.1,0.1-0.1,0.1c-4.2,0.5-3.5,3.9-4.2,6.7
				c-0.6,2.7-1.1,6.8-5.2,5.6c-12-3.4-8.5,8.7-12.9,12.9c-4.3,4.1,0.9,7.7,3.3,11.3c6.4,9.6,20,13.5,21.2,27.4
				c4.8-10.4,3.2-18.7-5.2-26.6c-12-11.3-10-17.9,5.7-23.4c3.1,0,6.1-0.1,9.2-0.1c1.4,0,2.8,0,4.2,0c13.8,1.1,14.2,12.8,17.5,22.2
				c-9.9,0.1-19-1.7-23.6-11.9c-1.7-3.8-3.8-6.7-8.3-4.8c-4.9,2.1-4.3,6.6-3,10.5c0.8,2.3,2.6,4.6,4.6,6
				c12.1,8.9,12.7,20.5,8.3,33.4c-1.4,0.9-2.9,1.9-4.3,2.8c-10.3,1-20.7,2-31,2.9c-2.1-0.3-4.2-0.6-6.4-0.9
				c-0.9-0.7-1.7-1.4-2.6-2.1c0,0,0.1,0.1,0.1,0.1c-0.7-0.8-1.5-1.6-2.2-2.4c-7.3-7.8-15.5-14.1-25.5-18.2
				c-6.8-2.8-14.1-5.5-18.2-12.3c-4.7-7.8-11.9-10.3-20.4-11.5c-12.8-1.8-24.3-6.3-33.6-15.7c-2.6-2.7-7.4-3.8-4.2-9.5
				c2.9-5.3,7.2-4.3,11.4-4.1c3.1,0.2,5.1,2.6,7.5,4.4c11.5,8.8,26.1,4,31.1-9.5c1.6-4.1-0.9-5.5-2.5-7.3c-6.2-7-10-15.5-15.1-23.2
				c-5.3-8-0.1-13.3,4.6-19.1c3.8-4.6,7.5-1.7,11.1-0.7c3.7,1.1,4.8,3.9,4.2,7.9c-1.6,11.1,10.6,25.8,21.7,24.2
				c6.7-1,14.9,1.3,22.6-6.6c-11.6,2.5-17-7.4-26.3-7.3c-2.3,0-3-3.9-1.7-6.6c1-2.1,2.9-1.9,9.4,0.8c-1.2-2.2-2-4.2-3.1-5.9
				c-3.9-6-3-9.3,4.5-11.3c6.3-1.6,14.1-2.2,15.6-11.1C586.2,806.9,586,807,586,807z M601.8,863.2c-2-0.3-3.9-0.7-5.9-1
				c-14.3-4.6-28.5-6.7-41.6,3.4c-2.3,1.8-7.6,3.5-4.6,7c2,2.3,9.2,4.9,10.7,2.2c4.9-9.1,11.2-2,16.7-2.9c0.2,0.7,0.3,1.4,0.4,2.1
				c-6.4,1.7-11.1,8.8-19,5.9c-1.3,3.7-5.9,5.4-5.9,9.8c0,5.3,4.5,2.4,6.7,3.1c7.1,2.3,14.2,0.9,21.1-2c-2.5-2.5-7.5-2.7-7.4-7.3
				c0-2.8,3.1-3.8,4.9-3.6c4.1,0.6,9.8-1.7,11.6,4.4c0.4,1.3,1.1,3.5,1.7,2.3c2.4-5.5,10.9-4.8,11.4-11.8
				c20.2-13.4,11.7-34.3,14-52.7c-8.7,9-9,9-8,27.9C609,856.2,608.5,861.1,601.8,863.2z M575.8,830.4c13.2-4.8,13.7-4.5,11.7,7.5
				c-0.4,2.6,0.9,3.2,2.5,3.8c1.9,0.7,4.8,0.1,4.5-1.6c-1.1-8.4,7.1-9.7,13.1-16.4c-9.7,2.6-15-2.1-21.2-4.2
				C579.3,817,575.3,821.2,575.8,830.4z M504.6,886.3c10.1,10.2,23.3,11.7,35.9,14.5c5.3,1.2,6.8-4.3,7-8.1c0.3-4.8-4.6-3.4-6.7-3
				C528.4,892.1,516.4,892.6,504.6,886.3z M586.6,913.6c0.9,5.4,1.1,9.7-2.8,13.2c-2.7,2.5-1.4,5.1,1.2,7.4c3,2.6,4.8,1.5,7.4-0.7
				C600.1,927.1,599.8,925.4,586.6,913.6z M570.2,903.2c-1.8-3.4-5.3-5.5-8.8-7.1c-2.5-1.1-4.9,1.4-4.2,3.3c1,2.7-1.5,8,4.4,8
				C564.8,907.4,568.3,907.7,570.2,903.2z M605.3,932.8c-3.2,2.4-6.2,5.1-4.5,9.1c0.8,1.9,4.6,1.7,6,0.3
				C610,938.9,608,935.7,605.3,932.8z"/>
			<path class="st0" d="M699.5,902.8c5-7.1,1.4-15.5,3.1-23.1c0.5-2.2-0.4-4.5,2.6-4.8c2.4-0.2,5.3,1,5.2,3.1
				c-0.2,5.7,4.3,6.7,10.8,9.4c-9.6,1.6-9.5,4.9-6.9,10.7c3.6,8,8.5,16.1-0.2,25.2c-5.5,5.8-8.3,5.9-12.3-0.3c0-1.3-0.6-2-1.9-2.1
				c0,0-0.1-0.1-0.1-0.1c-0.7-1.7-1.9-2.7-3.7-3c0,0,0.1,0,0.1,0c0.1-0.6-0.1-1.2-0.6-1.6c0-1.4,0.1-2.8,0.1-4.2
				c2.4-1.8,2-4.4,2.2-6.9c0,0-0.1,0.1-0.1,0.1C699.1,904.9,699.8,904.2,699.5,902.8z"/>
			<path class="st0" d="M579.3,967.6c3.3-6.1,7.2-2.5,10.9-0.5c-3.6,4.9,14.5,5.2,2.5,13c-3.2,2,2.1,9.1,3.2,14
				c0.7,3.3,3.8,7.5-2.1,9c-4.7,1.1-9.4,10.1-14.3,0.3c0-4.2,1.3-8.9-4.7-10.4c-1-2.5-0.4-4.9,0.6-7.2
				C583.3,981,577.4,973.4,579.3,967.6z"/>
			<path class="st0" d="M579.6,764.9c5.5-1.2,8.5,1.8,9.9,6.5c2.2,7.6,4.2,15.4,5.6,23.2c1.3,7-7.9,6.9-9,12.5c0,0,0.2-0.1,0.2-0.1
				c-9.9-0.5-14.3-6.2-11-15.2c3.1-8.4-1.4-17,2.5-24.9C578.3,766.2,578.9,765.5,579.6,764.9z"/>
			<path class="st0" d="M456.2,690.8c6.4,0,5.8,0.7,6.4,7.7c0.5,5.7,3.2,11.4,5.8,16.6c5.2,10.5-7.3,11.1-10,17.3
				c-0.9,2-4.3-6-7-8.5c-6.2-5.6-3.3-10.1-0.7-15.5c1.8-3.7,3.4-7.9,1.6-11.7C449.4,690.4,453.6,691,456.2,690.8z"/>
			<path class="st0" d="M396.6,684.1c-7.1-6.6-3.3-13.3-0.4-20.1c0.1-1.5,0.1-3,0.4-4.4c0.8-4.4-2.4-10.1,2.9-12.9
				c6.2-3.3,6.6,5.6,11.2,6.3c0.7,0.1,1.7,0.4,1.9,0.9c0.4,0.8,0.8,2.4,0.3,2.8c-9.9,8.7,7.1,21-4.5,30
				C402.2,691.5,400.2,686.4,396.6,684.1z"/>
			<path class="st0" d="M644.6,960.9c-0.1-9.4,10.4-17.4,3.3-28c-0.9-1.4,2.2-7.2,4.7-8.9c6-3.8,3.7,7.3,9.1,5.9
				c-4.5,8.1-2.3,15.6,2.8,22.4c6.9,9.2-1.7,14.4-6.1,18.9c-5.1,5.2-6.3-4.2-10.1-5.6C646,964.8,644.4,963.6,644.6,960.9z"/>
			<path class="st0" d="M753.7,862.6c-2.1-4.4-4-9-1.1-13.7c3.8-6.3,3.4-12.7,1.3-19.2c0.7-0.1,1.4-0.4,2-0.7c4.5,0,9-0.1,13.4-0.1
				c0.5,0.4,1.1,0.6,1.7,0.8c-5,7.2-6,15-1.3,22.4c4.5,7.2-2.9,11-3.5,16.6C759.6,871.7,757.4,865.6,753.7,862.6z"/>
			<path class="st0" d="M507.6,918.2c1.7,4.6,10.2,4.7,6.7,12.2c-2.2,4.7-2.1,9.2,0.6,13.6c4,6.6,1.7,12.2-2.6,17.6
				c-1.7,2.2-4.5,2.3-5.7,0.4c-3.6-5.3-9-10.5-7.3-17.6c1.5-6.1,7.2-11.6,0.1-18C498.8,925.9,502.4,919.6,507.6,918.2z"/>
			<path class="st0" d="M397.1,777.5c-10.2-11.6,1.9-22.6,1.1-34.1c-0.2-3.5,6-2.9,9.5-3.7c1.6,0.6,4.9,1.5,3.6,2.9
				c-6.2,6.7-2.3,12.8,0.5,18.9c4.1,8.8-5.3,13.1-6.7,20.1C404.8,783.2,403.6,783,397.1,777.5z"/>
			<path class="st0" d="M459.3,914.8c-2.7,4.3-6.3,8.2-11.7,7.1c-6.2-1.2-11.6-14.6-7.1-19.1c5.6-5.6-1.5-12.4,3.6-18.1
				c1.6-1.8,2.6-6.7,5.2-5.1c3.2,1.9,9.2,7.6,6.4,9.8c-9.6,7.5-0.7,12.8,0.7,18.9C456.9,910.3,458.2,912.3,459.3,914.8z"/>
			<path class="st0" d="M494.6,856.1c0.9-2.2,1.8-4.4,2.7-6.6c1.5-3.6,5.2-6.8,1.7-11.2c0.9-3,1.9-5.9,2.8-8.9
				c5.1-1.9,6.5,4.1,10.4,4.8c0.1,7.8-1.7,15.8,3.6,22.8c1.4,1.8,1.4,5.1-1.1,5.4c-4.1,0.4-6.4,7-11.6,3.1c-2.6-1.9-5.4-3.5-8.2-5.3
				C494.9,858.8,494.7,857.4,494.6,856.1z"/>
			<path class="st0" d="M516.1,990.7c-3.1-5.1-10.8-5.4-12.4-12c16.3,7.9,31.8,17.2,47,26.9C537.6,1004,528.1,994.5,516.1,990.7z"/>
			<path class="st0" d="M606.4,1018.9c-9.7,7.9-19.4,9.5-29.2,0C586.9,1022.9,596.7,1021.6,606.4,1018.9z"/>
			<path class="st0" d="M494.8,972.1c-10.1-0.2-15.4-8.3-22.5-13.5C482.1,959.2,487.6,967,494.8,972.1z"/>
			<path class="st0" d="M650.9,996.5c-5,6.9-13.1,8.2-20.2,11.3C635.5,1000.5,642.6,997.4,650.9,996.5z"/>
			<path class="st0" d="M453.8,945.9c-1.2-1-2.4-2-3.7-3c0-1.5-0.1-3-0.1-4.5c3.3,2.7,8.1,3.9,9,9
				C457.3,947,455.6,946.4,453.8,945.9z"/>
			<path class="st0" d="M503.7,978.7c-2.8,0.8-5.1-0.5-7.5-1.6c-1.2-1.5-3-2.8-1.5-5.1C497.9,974,502.1,974.6,503.7,978.7z"/>
			<path class="st0" d="M568.5,1014.5c-4.4-0.1-8.5-0.7-11.3-4.6C561.8,1009.3,565.8,1010.3,568.5,1014.5z"/>
			<path class="st0" d="M577.4,1018.9c-3.6-0.3-7.3-0.5-9.1-4.6C572.1,1014.3,575.5,1015.1,577.4,1018.9z"/>
			<path class="st0" d="M470.3,956.4c-3.3,0.1-5.4-1.8-6.9-4.6C467.4,950.8,469.9,952,470.3,956.4z"/>
			<path class="st0" d="M630.9,1007.7c-2.3,3-5.7,3.8-9.1,4.6C623.6,1008.2,626.6,1006.6,630.9,1007.7z"/>
			<path class="st0" d="M613.1,1016.6c-1.7,2.4-4.5,1.9-6.9,2.3C607.8,1016.2,610.3,1016.1,613.1,1016.6z"/>
			<path class="st0" d="M622,1012.2c-1.7,2.4-4.2,2.7-6.9,2.3C616.7,1011.5,619.2,1011.6,622,1012.2z"/>
			<path class="st0" d="M450.2,938.6c-2.3,0.7-3.9,0.2-4.6-2.3C447.7,935.8,449.2,936.8,450.2,938.6z"/>
			<path class="st0" d="M557.3,1010c-1.9,0-3.7-0.4-4.6-2.3C554.8,1007.3,556.8,1007.1,557.3,1010z"/>
			<path class="st0" d="M552.8,1007.8c-1.3-0.3-2.4-0.7-2.4-2.4C551.8,1005.6,553.1,1006,552.8,1007.8z"/>
			<path class="st0" d="M615.3,1014.4c0.1,1.7-1,2.1-2.4,2.4C612.5,1014.8,613.9,1014.6,615.3,1014.4z"/>
			<path class="st0" d="M461.3,949.8c-0.8-0.8-1.6-1.6-2.4-2.4C460.8,947.2,461.9,947.6,461.3,949.8z"/>
			<path class="st0" d="M472.5,958.7c-0.8-0.8-1.6-1.6-2.3-2.4C472.2,955.8,472.9,956.8,472.5,958.7z"/>
			<path class="st0" d="M463.6,952c-0.8-0.8-1.6-1.6-2.4-2.4C463.3,949.2,464.3,949.8,463.6,952z"/>
			<path class="st0" d="M751,627c7.7,5.4,14.2,11.6,14,22c-9.5,3.2-2.3,7.1-0.4,10.8c0,0-0.1-0.1-0.1-0.1c0.2,1.8,0.6,3.5,2.4,4.5
				c0.1,0.7,0.2,1.4,0.4,2.1c-0.3,0.7-0.4,1.4-0.2,2.1c-0.8,0.7-1.5,1.4-2.3,2.2c-3.2,2.2-4,5.5-4.3,9.1c-3.1,3.2-6.1,2.4-9-0.2
				c-0.6-7.7-2.7-11.8-10.9-5.8c-3.5,2.5-7.7,4-11.6,5.9c0,0,0.1,0,0.1,0c-11.1,0.1-22.1,0.1-33.2,0.2c-2.5-7.2-7.9-11-14.8-13.7
				c-7.5-2.9-15.7-4.5-21.6-10.7c-1.9-2-3.6-6.6-7.8-2.2c-3.3,3.4-2.4,5.5,0.2,9.3c6.6,9.3,4.6,12.9-7.4,16.2
				c-2.9-3.9-8.7-5.7-8.6-11.8c3.6-6.4,9.9-12.7,0-18.9c1.8-2.5,5.6-1.2,6.5-4.5c-0.4-0.3-0.8-1-1.3-1.1c-8-1.1-14.4-5.6-20.6-10.3
				c-3.6-2.7-3.3-6.5-2.4-10.1c0.8-3.3,3.9-4.2,7-4.6c3.5-0.4,7-0.2,8,4c1.1,4.5,3.1,8.3,8.3,6.1c2.7-1.2,8.3,0.5,8-3.4
				c-0.4-4.7,0.8-10.5-4.3-14.3c-8.7-6.5-13.4-15.5-15.2-26.2c-0.7-3.9-1.6-7.4,1.8-10.2c4.1-3.3,8.8-1.7,12.7-0.2
				c4.3,1.6,3.4,5.8,2.6,9.6c-0.4,2.1-0.6,5.2,0.5,6.4c6,6.2,17.9,7.7,15.7,20.5c-0.1,0.6,5.2,4.7,8.5,1.1
				c7.5-8.3,10.2-2.6,12.6,4.2c-5.5,2.2-12.7,7.2-11.8,10.9c1.5,5.9,9.4,1.7,14.5,2.5c2.5,0.4,5.2-0.2,7.7,0c7.6,0.7,11.7-3,13-10.2
				c1.2-1.2,4.8-0.3,4-2.4c-0.6-1.6-3.6-0.7-5.1,1.1c-3.6,0.6-5.1,4.1-7.8,5.8c-4.2,2.7-9.7,2.8-13.8,0.7c-2.8-1.4,0.5-4.3,2-6.2
				c7.7-2.1,15.7-3.4,23.1-6.4c10.2-4.1,10.9-13.1,8.8-22.4c-0.5-2.1,0.4-5.4-2.8-6.6c-3.4-3.8-2.5-7.3,0.5-10.8
				c1.8-2.1,3.1-5,0-6.3c-2.8-1.2-4.9,1.6-5.7,4c-1.9,5.9-3.3,11.9,0.5,17.7c1.6,11.7-9.6,11.8-15.6,15.1
				c-6.4,3.4-11.6-2.1-12.1-9.2c-0.3-3.6-0.9-3.5-3.7-2.3c-5.6,2.4-10.5-2.5-16.1-1.8c-1.6,0.2-4-2.9-2.9-3.4
				c10.1-4.3,0.2-21,14.6-22.8c2.6-0.3,4.8-6-0.3-8.7c-2.7-1.4-4.9-3.2-2.7-5.8c2.7-3.2,5.9-0.6,7.4,1.6c6.2,9.5,15.4,8.7,24.7,7.7
				c0.8,0,1.6,0,2.3,0c2.4,0.2,4.9,0.4,6.9-1.3c3.2,0.7,6.3,1.5,9.5,2.1c3.4,0.6,7.1-5.5,4.7-6.1c-4.6-1.1-9.4-4.7-14.5-1.3
				c-3,0-6.1,0.7-8.9-0.1c-3.5-1-9.3,4.7-9.9-1.6c-0.3-3,4.2-8.8,9.5-9.1c8.8-0.5,17.6-0.3,26.3,0c4.9,0.2,5.4,4.1,5.5,8.1
				c0.1,3.7,0.9,6.4,5.1,8.4c8.7,4.1,11-0.7,13.1-7.4c0.9-2.8-0.6-9.5,5.1-6.3c2.2,1.2,8.1,5.9,5,11.2c-2,3.4-2,6.3-0.3,9.3
				c4.9,8.7,0.1,11.8-7.6,12.7c-4,0.4-9.1-1.2-5.7,5.9c0.2,0.4-0.3,1.8-0.8,1.9c-14.1,3.8-4.8,12-3,18.1c1.5,4.9,2.5,7.4-4.1,7.5
				c-3.5,0.1-5.3,3.6-7.1,6.4c-1.9,0.7-2.2,1.6-0.2,2.7c0.1,1.4,0.3,2.7,0.4,4.1c-10.5,1.6-20.4,4-20.6,17.6
				c-7.5,4.6-2.8,8.4,1.1,11.7c6.6,5.6,13.5,10.8,17.1,19.8c3.7-9.5,3.7-10.4-2.3-16.7c-4.1-4.3-8.5-8.2-9.3-14.5
				c-0.1-5.5,2.6-9.5,7.5-11.2C736.3,626.1,743.6,625.5,751,627z M662.1,639.5c6.4,4.4,12.7,2.3,21.3,0.1c-8.8-4.2-15,1.2-21.4,0
				c2.7-12.8,2.7-12.8-10.8-9.5c-4.6,1.1-9.2,2-15.8,3.5C645.5,637,653.7,638.8,662.1,639.5z M703.4,570.1c-0.9-3.3-1.9-6.2-5.9-4
				c-2.6,1.4-5.7,3.3-8.3,1.8c-5.6-3.3-11.7-5.2-15.2,0.8c-3.9,6.7,6.3,5.6,7.5,9.4c2.2,6.8,7.2,9.2,12.6,6.9
				C699.9,582.5,699.7,574.6,703.4,570.1z M753.1,649.1c-0.6-2.9-2.3-4.3-5-5.4c-3.3-1.4-6.9-3.2-7.8-7.3c-0.9-3.9-3.4-6.4-7.1-4.9
				c-3.9,1.6-4,5.1-3,9.4c1.5,6.6,7.3,9,11.2,13.3c1.8,2.1-0.6,8.5,5.2,6.1C751.2,658.5,751.4,653.1,753.1,649.1z M704.5,649.8
				c-0.9-3.4-2.9-6.9-6.2-7.1c-7.9-0.6-6.8,10.1-13.6,11.8c-1.5,0.4-3,3.3-1.1,5.6c0.2,0.3,0.5,0.7,0.8,0.8c6.7,2.1,10-5,15.7-5.7
				C703.3,654.8,704.5,652.8,704.5,649.8z M703.9,669.1c3.3-0.2,7.6,0.1,8.5-4.7c0.6-3.4-2.5-4.3-5-4.6c-3.7-0.4-6.7,0.9-7,5.2
				C700.2,667.1,699.9,669.7,703.9,669.1z"/>
			<path class="st0" d="M760.1,777.6c-11.6-4.1-10.4-15.2-13.2-24.2c0,0,0,0,0,0c2.5-4.9,7.4-9.5,2.5-15.6c-0.6-2.6,1.1-4.4,2.2-6.4
				c5.2,1.9,11,2.8,14.5,7.9c-7.9,4.2-3.3,9.9-1.7,15.1c1.4,4.7,6.2,8.8,2.1,14.2C764.5,771.6,762.3,774.6,760.1,777.6z"/>
			<path class="st0" d="M573.6,591.5c2.4-2.1,4.5-3.2,5.5-4.9c1.5-2.7,3-6.2,6.3-4.1c3.6,2.2,8.6,7.5,6.4,10.2
				c-5.4,6.6-1.2,11.5,1.4,15.8c4.6,7.3-0.1,11.7-3.7,16.2c-2.4,2.9-5.4,0.7-7.5-1.5c-4.2-4.4-9.8-7.7-4.1-15.7
				C581.5,602.3,586,594.3,573.6,591.5z"/>
			<path class="st0" d="M627.2,555.4c-9.8,4.3-2.5,10.3-1.2,15.4c1.2,4.8-2.3,6.5-4.6,9.2c-3.4,3.9-5.8,0.4-8.5-1.1
				c-3-1.8-7.9-2.6-5.8-7.7c3-7.4,2.4-15.6,6.1-22.8c1-1.9,0.5-4.4,3.5-4.6c3.1-0.2,5.6,1.2,5,4.3
				C620.9,552.8,627.4,551.3,627.2,555.4z"/>
			<path class="st0" d="M294.4,398.6c8.7,4.5,9.2,12,6.7,20.1c-1.1,3.7-3.4,7.1-5.1,10.6c-1.3-0.1-3.7,0.3-3.2-1.6
				C295.7,418.1,292.9,408.2,294.4,398.6z"/>
			<path class="st0" d="M209.7,329.9c2.2-2.2,4.4-4.4,6.6-6.7c3-1.5,4.6-5.2,8.4-5.1c-2.3,9.2-11.6,12.9-16.1,20.5
				c-0.6,1.1-1.5-1.5-1.5-2.8C208,333.8,208.9,331.8,209.7,329.9z"/>
			<path class="st0" d="M268.9,441.2c-10.7,3-21.2,3.8-30.4-4.3C248.5,439.2,258.4,442.1,268.9,441.2z"/>
			<path class="st0" d="M287.1,398.7c-2.2-0.1-4.5-0.1-6.7-0.2c3.1-3.4,6.6-2.1,10.1-0.7C289.3,398.1,288.2,398.4,287.1,398.7z"/>
			<path class="st0" d="M365.3,322.6c1.3-1,2.4-0.6,3.4,0.5c0.1,0.1-0.2,0.8-0.4,0.9C366.7,324.6,365.8,324.1,365.3,322.6
				L365.3,322.6z"/>
			<path class="st0" d="M224.6,318.2c0.6-1.5,1.3-1.8,2.2-0.3C226,318.1,225.3,318.1,224.6,318.2z"/>
			<path class="st0" d="M921,710.9c-0.2,0.3-0.3,0.6-0.5,0.8c-0.1,0.1-0.5,0-0.7-0.1C920.1,711.4,920.5,711.2,921,710.9
				C920.9,710.9,921,710.9,921,710.9z"/>
			<path class="st0" d="M235.9,637.1c-5.2-3.8-12-5.3-15.8-11c15.5,5,29.7,14.4,49.5,13.6C258.6,642.8,258.6,642.8,235.9,637.1z"/>
			<path class="st0" d="M220.3,626.2c-0.8-0.8-1.6-1.6-2.4-2.4C219.4,623.9,220.5,624.4,220.3,626.2z"/>
			<path class="st0" d="M979.4,608.3c1.2-1.1,2.4-2.3,3.6-3.4c0.9,3.2,4.2,6,1.8,9.7c-1.4,2.2-2.5,1.5-3.7-0.5
				c-1-1.6-2.4-0.4-3.6,0.2C978.1,612.3,978.7,610.3,979.4,608.3z"/>
			<path class="st0" d="M871.9,628.2c0.2-3.2-0.1-6.2-2.4-8.6l0.6-0.6c3.5,0.9,7.1,1.9,10.6,2.8C880,627.1,877.7,630,871.9,628.2z"
				/>
			<path class="st0" d="M934.4,623.9c-1.8,3.6-5.1,4.6-9.6,5.1c2.5-4.2,5.7-5.2,9.7-4.9C934.5,624,934.4,623.9,934.4,623.9z"/>
			<path class="st0" d="M572.7,395.7c7.7,5.4,5,13.3,4.9,20.6c-0.4,2.4-0.8,4.9-1.6,9.3c-3.8-6.5-2.8-13.5-10.2-15.8
				c-4.2-1.3-1.8-6.3,1.2-7.6C570.4,400.9,570.8,397.9,572.7,395.7z"/>
			<path class="st0" d="M580.2,446.3c-4.4-4.4-14.3-2.8-12.9-11.5c0.6-4,5.4-6.5,9.7-4.8C585.4,433.5,580.5,440.4,580.2,446.3z"/>
			<path class="st0" d="M331.8,446.7c-0.2,2.1,0.5,4.5-2.3,5.4C328.3,449.5,330.3,448.2,331.8,446.7z"/>
			<path class="st0" d="M990.1,572.5c2.4-0.4,3.7-2.1,4.9-4c15.5-1,22.3,2.9,23.3,14.4c-8-3.9-15-10.2-24.7-4.4
				C989.8,580.8,990.9,574.9,990.1,572.5z"/>
			<path class="st0" d="M869.5,619.6c-0.5-0.4-1-0.8-1.5-1.2c1.1-1.2,1.7-0.5,2.1,0.6C870.1,619,869.5,619.6,869.5,619.6z"/>
			<path class="st0" d="M280.5,398.4c-0.8,0.8-1.6,1.6-2.3,2.3C278.1,399.1,278.8,398.3,280.5,398.4z"/>
			<path class="st0" d="M551.7,1119.1c-11.6,2.6-12.3-9.1-18.5-14.8c-0.5,4.8-1,8.8-1.5,12.7c-8.3-1.1-16.7-1.8-24.9-3.6
				c-4.1-0.9,1.1-4-0.1-6.4c-1.3-2.8-1.8-5.6-5.7-5.6c-2.9,0-5.8,1.1-5.8,3.9c0.1,11.7-5.6,4.1-9.3,3c8-5.2,9.8-14.6,15-21.7
				c1.9-2.7,3.4-6.6,7.3-5.7c3.4,0.8,2.2,5.1,3,7.7c1.7,5.2,1.9,10.9,3.2,16.3c0.6,2.6-1.4,7.2,2.7,7.3c3.7,0.2,6.5-3.5,7.8-6.9
				c1-2.6,1-5.9,0.7-8.8c-1.1-9-1.4-14.8,11.5-10.8c11.3,3.4,12.1,2.8,8.5,14.9C543.6,1107.6,549.4,1113,551.7,1119.1z
				 M541.2,1092.5c-0.5-1.3-1.5-3.9-3.9-3.7c-3.8,0.3-3.6,4.1-4.1,6.7c-0.6,2.9,1.2,4.2,3.9,3.5
				C539.9,1098.4,541.5,1096.5,541.2,1092.5z"/>
			<path class="st0" d="M450,1099.3c-3-0.9-7.8,1.8-8.4-4.1c4.2-8.1,13.9-14,10.3-25.4c-0.1-0.3,1.5-1.8,2.1-1.7
				c3,0.4,6.2,1.2,7.2,4.3c1.2,3.8,1.7,7.9,2.3,12c0.6,3.8,0.9,7.7,6.5,5.9c-0.6,6-5.4,8.9-9.2,15c-3.2-8.5-4-15.2-4.8-23.2
				C451.5,1087.8,450.2,1093.3,450,1099.3L450,1099.3z"/>
			<path class="st0" d="M575.7,1100c2.8-5,2.6-12.3,10.1-14c0.3,0.7,0.5,1.4,0.8,2.1c0.5,1,1,1.9,1.4,2.9c3.1,9.5,6.2,19.1,9.3,28.6
				c-4.6-0.4-9.3,0.9-10.3-6.9c-0.9-6.5-5.9-6-15,1.7c0.3-2.2,0.5-4.2,0.8-6.2C573.8,1105.5,574.7,1102.7,575.7,1100z"/>
			<path class="st0" d="M483.8,1108.2c-2.1,2.2-4.1,0-6.1-0.3c-5-0.6-7-1.6-3.7-7.8c1.7-3.2,5.3-9.5,0.6-14.4
				c1.6-9.2,6.2-12.4,15.5-7.5c-6.9,4.5-6.5,11.5-6.8,18.2c-2.2,3.2-3.5,6.5,0.1,9.7C483.4,1106.9,483.6,1107.6,483.8,1108.2z"/>
			<path class="st0" d="M412.1,1069.3c-1.2-6,0.9-11.4,3.9-16.2c1.8-2.9,2.4,0.3,3.1,1.6C416.8,1059.5,414.4,1064.4,412.1,1069.3z"
				/>
			<path class="st0" d="M474.6,1085.8c0.1,3.2-1.3,4.8-4.5,4.6C470.3,1087.5,471,1085.2,474.6,1085.8z"/>
			<path class="st0" d="M653.1,1083.6c3.1-4.5,5.9-3.1,8.5,0.4c0,0,0.1,0,0.1,0c0.2,3.7,1.1,6.9,4.8,8.7c0,0,0,0,0,0
				c2.8,5.5,4.8,11.6,10.2,17.4c-5.2-0.2-10.9,7.3-12.3-4.1c-0.5-3.6-3.9-3.7-7.1-2.7c-2.9,0.9-4.8,2.3-3.8,5.5
				c3.3,11.3-2.9,5.7-7,4C652.1,1103.8,650.4,1093.2,653.1,1083.6z"/>
			<path class="st0" d="M635.3,1114.6c-5.4,5-11.7,1.5-17.6,2.2c-0.9-9.9,2-20.2-2.5-29.9c9.1-4,12.4-0.6,11.2,9.2
				c-0.4,3.6,0.4,7.4,0.1,11.1C625.9,1114.2,629.7,1115.4,635.3,1114.6z"/>
			<path class="st0" d="M709.4,1087.8c-1.3-21.1,7.4-29.1,26.2-24c2.3,2.9,4.7,5.8,7,8.7c-0.1,3.7-0.1,7.4-0.2,11.1c0,0,0,0,0,0
				c-1.2,0.3-2.1,0.8-1.7,2.3c-0.2,0.8-0.3,1.5-0.5,2.3c-4.2-0.1-4.4-3-4.4-6.1c0-3.3,0.2-6.8-3.4-8.7c-0.5-1-0.9-2-1.3-3
				c-0.7-0.6-1.4-1.2-2-1.8c-0.6-0.3-1.3-0.6-2-0.7c-0.8-0.5-1.6-1.1-2.4-1.6c-1.9-0.4-3.5,0.2-4.7,1.8c-7,3.6-4.9,8.9-2.6,14.2
				c0.1,0.6,0.3,1,0.7,1.4c0.6,1,1.2,2,1.7,3c0.9,1.3,1.7,2.5,2.6,3.8c0.2,1.2,0.7,2.1,2.1,1.8c1.5,0.3,3,0.5,4.5,0.8
				C719.8,1101.4,715.2,1092.1,709.4,1087.8z"/>
			<path class="st0" d="M782.5,1061.3c2.2,0.8,3,2.3,2.3,4.6C782.4,1065.2,782.2,1063.4,782.5,1061.3z"/>
			<path class="st0" d="M780.3,1056.8c1.9,1,2.3,2.7,2.3,4.6C780,1060.8,779.7,1059,780.3,1056.8z"/>
			<path class="st0" d="M784.7,1065.8c1.7-0.1,2.4,0.8,2.4,2.4C785.7,1068,784.9,1067.2,784.7,1065.8z"/>
			<path class="st0" d="M674,1092.5c0.1-4.7-2.7-10.2,3.8-13c4.9-3.8,10-6.7,16.7-6.9c5.4-0.2,7.9,2,9.1,6.7c-0.9,0.4-2.2,1.3-2.5,1
				c-5.6-4.8-11.4-5.6-16.4,0.2c-5,5.7-2.3,11.8,1,17.3c2.4,4,5.9,7.2,10.9,4.5c6.8-3.7,0.9-7.5-0.9-11.1c4.1-1.1,7.6-2.1,11.1-3.1
				c0.6,0.3,1.2,0.4,1.9,0.3c-0.3,0.7-0.9,1.3-0.9,2c-0.7,7.2,0.8,15-10.7,15.8C685.5,1107,677.8,1103.7,674,1092.5z"/>
			<path class="st0" d="M450.1,1099.2c0.3,0.3,0.7,0.6,1,0.9c-0.2,0-0.5,0.1-0.7-0.1C450.3,1099.9,450.2,1099.6,450.1,1099.2
				C450,1099.3,450.1,1099.2,450.1,1099.2z"/>
			<path class="st0" d="M800.4,949.8c0.3,0.1,0.6,0.1,0.8,0.2c-0.2-0.1-0.5-0.2-0.7-0.3C800.5,949.7,800.4,949.8,800.4,949.8z"/>
			<path class="st0" d="M802.8,1061.4c-3.8-0.8-5.5-3.6-6.8-6.8C800.8,1054.3,801.7,1057.9,802.8,1061.4z"/>
			<path class="st0" d="M796,1054.7c-2.6-1.6-4.2-3.8-4.6-6.8C796.1,1048.1,796.5,1051.1,796,1054.7z"/>
			<path class="st0" d="M791.6,1048c-2.4-1.8-3.4-4-2.3-6.9C792,1042.8,792.4,1045.2,791.6,1048z"/>
			<path class="st0" d="M409.9,1052.5c-1.1-2.9,0.1-5.1,2.3-6.9C411.3,1047.9,413.3,1051.1,409.9,1052.5z"/>
			<path class="st0" d="M365.2,1054.7c0.9-2.1,1.9-4.2,2.8-6.3c1.2,0.2,3.7-3.3,3.3,0.4C371,1051.1,370,1055.6,365.2,1054.7z"/>
			<path class="st0" d="M363,1059.2c0.2-1.8,0.3-3.7,2.3-4.6C366.2,1056.9,365,1058.3,363,1059.2z"/>
			<path class="st0" d="M698.9,699.5c-0.6-1.3-3.2-2.2-0.9-4.2c5.1,0.6,13.8-3.6,10,8.4c-0.8,2.7,1.5,7.6,3.9,9.9
				c7.7,7.4-1.2,10.1-3.4,14.7c-1.5,3-3.9,1.9-5.3,0.2c-3.5-4.5-10.3-7.4-6.3-15.8C698.7,709.1,705.6,704.8,698.9,699.5z"/>
		</g>
	</g>
</g>
</svg>
