<?xml version="1.0" encoding="utf-8"?>
<!-- Generator: Adobe Illustrator 22.0.1, SVG Export Plug-In . SVG Version: 6.00 Build 0)  -->
<svg version="1.1" id="Layer_5" xmlns="http://www.w3.org/2000/svg" xmlns:xlink="http://www.w3.org/1999/xlink" x="0px" y="0px"
	 viewBox="0 0 600 600" style="enable-background:new 0 0 600 600;" xml:space="preserve">
<style type="text/css">
	.st0{fill:#010101;}
	.st1{fill:#F26522;}
	.st2{fill:#E51B24;}
	.st3{fill:#F99F1C;}
</style>
<g id="XMLID_24_">
	<path id="XMLID_33_" class="st0" d="M137.9,498.6v-25.7c0-9.7-6.2-16.2-16.1-16.3c-5.2-0.1-10.6,1.5-14.4,7.3
		c-2.8-4.6-7.3-7.3-13.6-7.3c-4.4,0-8.7,1.3-12,6.1v-5.1h-8.9v41h9v-22.7c0-7.1,3.9-10.9,10-10.9c5.9,0,8.9,3.9,8.9,10.8v22.8h9
		v-22.7c0-7.1,4.1-10.9,10-10.9c6.1,0,9,3.9,9,10.8v22.8H137.9z M271.2,457.6h-14.6v-12.4h-9v12.4h-8.3v8.2h8.3v18.7
		c0,9.5,3.7,15.2,14.2,15.2c3.9,0,8.3-1.2,11.2-3.2l-2.6-7.6c-2.7,1.5-5.6,2.3-7.9,2.3c-4.5,0-5.9-2.7-5.9-6.9v-18.5h14.6V457.6z
		 M347.3,456.6c-5.2,0-8.5,2.4-10.8,6v-5h-8.8v41h8.9v-23c0-6.8,2.9-10.6,8.8-10.6c1.8,0,3.7,0.3,5.6,1l2.7-8.4
		C351.7,456.9,349.1,456.6,347.3,456.6 M232.3,460.8c-4.3-2.8-10.2-4.3-16.7-4.3c-10.4,0-17.1,5-17.1,13.1c0,6.7,5,10.8,14.1,12.1
		l4.2,0.6c4.9,0.7,7.2,2,7.2,4.3c0,3.2-3.3,5-9.3,5c-6.2,0-10.6-2-13.6-4.3l-4.2,6.9c4.9,3.6,11.1,5.3,17.8,5.3
		c11.8,0,18.7-5.6,18.7-13.4c0-7.2-5.4-11-14.3-12.3l-4.2-0.6c-3.9-0.5-6.9-1.3-6.9-4c0-3,2.9-4.8,7.8-4.8c5.2,0,10.3,2,12.8,3.5
		L232.3,460.8z M471.3,456.6c-5.1,0-8.5,2.4-10.8,6v-5h-8.8v41h8.9v-23c0-6.8,2.9-10.6,8.8-10.6c1.8,0,3.7,0.3,5.6,1l2.7-8.4
		C475.6,456.9,473.1,456.6,471.3,456.6 M356.3,478.1c0,12.4,8.7,21.5,21.9,21.5c6.2,0,10.3-1.4,14.8-4.9l-4.3-7.2
		c-3.3,2.4-6.9,3.7-10.7,3.7c-7.1-0.1-12.4-5.2-12.4-13.1c0-7.9,5.2-13,12.4-13.1c3.9,0,7.4,1.3,10.7,3.7l4.3-7.2
		c-4.5-3.5-8.6-4.9-14.8-4.9C365,456.6,356.3,465.6,356.3,478.1 M439.9,478.1v-20.5h-8.9v5c-2.8-3.7-7.1-6-12.9-6
		c-11.5,0-20.5,9-20.5,21.5c0,12.5,9,21.5,20.5,21.5c5.8,0,10.1-2.3,12.9-6v5h8.9V478.1z M406.7,478.1c0-7.2,4.7-13.1,12.4-13.1
		c7.4,0,12.3,5.7,12.3,13.1c0,7.5-5,13.1-12.3,13.1C411.4,491.2,406.7,485.3,406.7,478.1 M299,456.6c-12,0-20.4,8.8-20.4,21.5
		c0,13,8.8,21.5,21,21.5c6.2,0,11.8-1.5,16.8-5.8l-4.4-6.6c-3.4,2.7-7.8,4.3-11.9,4.3c-5.8,0-11-2.7-12.3-10h30.5
		c0.1-1.1,0.2-2.2,0.2-3.4C318.4,465.3,310.5,456.6,299,456.6 M298.8,464.5c5.8,0,9.4,3.6,10.4,10h-21.3
		C288.9,468.6,292.5,464.5,298.8,464.5 M522.7,478.1v-37h-8.9v21.5c-2.8-3.7-7.1-6-12.9-6c-11.5,0-20.5,9-20.5,21.5
		c0,12.5,9,21.5,20.5,21.5c5.8,0,10.1-2.3,12.9-6v5h8.9V478.1z M489.5,478.1c0-7.2,4.7-13.1,12.4-13.1c7.4,0,12.4,5.7,12.4,13.1
		c0,7.5-5,13.1-12.4,13.1C494.2,491.2,489.5,485.3,489.5,478.1 M188.2,478.1v-20.5h-8.9v5c-2.8-3.7-7.1-6-13-6
		c-11.5,0-20.5,9-20.5,21.5c0,12.5,9,21.5,20.5,21.5c5.8,0,10.1-2.3,13-6v5h8.9V478.1z M155,478.1c0-7.2,4.7-13.1,12.4-13.1
		c7.4,0,12.3,5.7,12.3,13.1c0,7.5-5,13.1-12.3,13.1C159.7,491.2,155,485.3,155,478.1 M537.5,492.6c0.6,0,1.1,0.1,1.6,0.3
		c0.5,0.2,0.9,0.5,1.3,0.9c0.4,0.4,0.7,0.8,0.9,1.3c0.2,0.5,0.3,1,0.3,1.6s-0.1,1.1-0.3,1.6c-0.2,0.5-0.5,0.9-0.9,1.3
		c-0.4,0.4-0.8,0.7-1.3,0.9c-0.5,0.2-1,0.3-1.6,0.3c-0.6,0-1.1-0.1-1.6-0.3c-0.5-0.2-0.9-0.5-1.3-0.9c-0.4-0.4-0.7-0.8-0.9-1.3
		c-0.2-0.5-0.3-1-0.3-1.6s0.1-1.1,0.3-1.6c0.2-0.5,0.5-0.9,0.9-1.3c0.4-0.4,0.8-0.7,1.3-0.9C536.4,492.7,536.9,492.6,537.5,492.6
		 M537.5,499.9c0.4,0,0.8-0.1,1.2-0.2c0.4-0.2,0.7-0.4,1-0.7c0.3-0.3,0.5-0.6,0.7-1c0.2-0.4,0.2-0.8,0.2-1.2c0-0.4-0.1-0.8-0.2-1.2
		c-0.2-0.4-0.4-0.7-0.7-1s-0.6-0.5-1-0.7c-0.4-0.2-0.8-0.2-1.2-0.2c-0.4,0-0.9,0.1-1.3,0.2c-0.4,0.2-0.7,0.4-1,0.7s-0.5,0.6-0.7,1
		c-0.2,0.4-0.2,0.8-0.2,1.2c0,0.4,0.1,0.8,0.2,1.2c0.2,0.4,0.4,0.7,0.7,1c0.3,0.3,0.6,0.5,1,0.7
		C536.7,499.8,537.1,499.9,537.5,499.9 M537.8,494.8c0.5,0,0.9,0.1,1.1,0.3c0.3,0.2,0.4,0.5,0.4,0.9c0,0.3-0.1,0.6-0.3,0.8
		c-0.2,0.2-0.5,0.3-0.9,0.4l1.2,1.4h-1l-1.1-1.4h-0.4v1.4H536v-3.8H537.8z M536.8,495.5v1h0.9c0.2,0,0.4,0,0.5-0.1
		c0.1-0.1,0.2-0.2,0.2-0.4c0-0.2-0.1-0.3-0.2-0.4c-0.1-0.1-0.3-0.1-0.5-0.1H536.8z"/>
	<rect id="XMLID_5_" x="229.3" y="145.1" class="st1" width="135.1" height="242.8"/>
	<path id="XMLID_4_" class="st2" d="M237.9,266.5c0-49.3,23.1-93.1,59-121.4c-26.3-20.7-59.4-33-95.4-33
		C116.1,112,47,181.2,47,266.5c0,85.3,69.1,154.4,154.4,154.4c36,0,69.2-12.3,95.4-33C260.9,359.6,237.9,315.8,237.9,266.5"/>
	<path id="XMLID_27_" class="st3" d="M546.7,266.5c0,85.3-69.1,154.4-154.4,154.4c-36,0-69.2-12.3-95.4-33
		c35.9-28.3,59-72.2,59-121.4s-23.1-93.1-59-121.4c26.3-20.7,59.4-33,95.4-33C477.6,112,546.7,181.2,546.7,266.5 M532,362.2v-5h2v-1
		h-5.1v1h2v5H532z M541.9,362.2v-6h-1.6l-1.8,4.1l-1.8-4.1h-1.6v6h1.1v-4.5l1.7,3.9h1.1l1.7-3.9v4.5H541.9z"/>
</g>
</svg>
