<?xml version="1.0" encoding="utf-8"?>
<!-- Generator: Adobe Illustrator 21.0.2, SVG Export Plug-In . SVG Version: 6.00 Build 0)  -->
<svg version="1.1" xmlns="http://www.w3.org/2000/svg" xmlns:xlink="http://www.w3.org/1999/xlink" x="0px" y="0px"
	 viewBox="0 0 1152 1152" style="enable-background:new 0 0 1152 1152;" xml:space="preserve">
<style type="text/css">
	.st0{display:none;}
	.st1{display:inline;fill:#05CC47;}
	.st2{display:inline;fill:#EEFFF3;}
	.st3{display:inline;fill:#B51919;}
	.st4{display:inline;}
	.st5{fill:#FDFDFD;}
	.st6{display:inline;fill:#FC9904;}
	.st7{display:inline;fill:#0075F4;}
	.st8{display:inline;fill:#C7EBEF;}
	.st9{display:inline;fill:#FF3F18;}
	.st10{fill:#FFFFFF;}
	.st11{fill:#231F20;}
	.st12{fill:#FFFFFF;stroke:#231F20;}
	.st13{fill:#231F20;stroke:#FFFFFF;}
	.st14{display:inline;fill:#FAAF3A;}
	.st15{display:inline;fill:#FFFFFF;}
	.st16{fill:#CC8C25;}
</style>
<g id="Layer_1" class="st0">
	<rect class="st1" width="1152" height="1152"/>
	<polygon id="color" class="st2" points="848.6,337 848.6,337 856.1,322.7 856.1,178 856.1,178 711.4,178 696.9,192.6 628.6,322.7 
		607.2,337.2 363.4,337.2 363.4,536 497.4,536 509.4,550.4 370.9,815 370.9,815 363.4,829.3 363.4,974 363.5,974 508.2,974 
		522.6,959.4 590.9,829.3 612.4,814.8 856.1,814.8 856.1,616 722.1,616 710.2,601.5 	"/>
</g>
<g id="Layer_2" class="st0">
	<path class="st3" d="M977,507.3c-8.5-30.2-21.3-57.8-42.7-84c7.2-101.4-8.5-141.2-24.2-187.2c-15.6-46-64.3-112.3-103.9-157.6
		c2.3,34.9,9.7,65,9.7,104.4s-21.6,118.9-46.2,163.6c-106.4-8.9-211.1,101.7-224.8,122c-17.7-17-143.3-103-245.5-71.9
		c-33.5-38.6-71.3-111.8-79.6-150.2c-8.3-38.4-7.4-69.5-12.5-104.1C178.2,195,144.6,270,139,318.3c-5.6,48.2-12.6,90.4,15.8,188
		c-15.4,30.1-22.1,59.8-24,91.1c0.3,240.3,368.6,361.2,478.6,476C692.8,938,1027.4,742.2,977,507.3z"/>
</g>
<g id="Layer_3" class="st0">
	<rect class="st4" width="1152" height="1152"/>
	<g class="st4">
		<path class="st5" d="M224.8,262c17.2-2.9,41.5-5.1,75.6-5.1c34.5,0,59.1,6.6,75.6,19.8c15.8,12.5,26.4,33,26.4,57.2
			s-8.1,44.8-22.7,58.7c-19.1,18-47.3,26.1-80.4,26.1c-7.3,0-13.9-0.4-19.1-1.1v88.4h-55.4V262z M280.2,374.3
			c4.8,1.1,10.6,1.5,18.7,1.5c29.7,0,48.1-15,48.1-40.4c0-22.7-15.8-36.3-43.7-36.3c-11.4,0-19.1,1.1-23.1,2.2V374.3z"/>
		<path class="st5" d="M604.5,414.3c0,65.7-46.6,95.8-94.7,95.8c-52.5,0-92.8-34.5-92.8-92.5s38.2-95,95.8-95
			C567.8,322.6,604.5,360.4,604.5,414.3z M474.6,416.2c0,30.8,12.8,53.9,36.7,53.9c21.6,0,35.6-21.6,35.6-53.9
			c0-26.8-10.3-53.9-35.6-53.9C484.5,362.2,474.6,389.7,474.6,416.2z"/>
		<path class="st5" d="M639,385.7c0-26.4-0.7-43.7-1.5-59.1h48.1l1.8,33h1.5c9.2-26.1,31.2-37.1,48.4-37.1c5.1,0,7.7,0,11.7,0.7
			v52.5c-4-0.7-8.8-1.5-15-1.5c-20.5,0-34.5,11-38.2,28.3c-0.7,3.7-1.1,8.1-1.1,12.5v91H639V385.7z"/>
		<path class="st5" d="M778.4,383.9c0-22.4-0.7-41.5-1.5-57.2h48.4l2.6,24.6h1.1c7.3-11.4,25.7-28.6,55.4-28.6
			c36.7,0,64.2,24.2,64.2,77.1v106.4h-55.8v-99.4c0-23.1-8.1-38.9-28.3-38.9c-15.4,0-24.6,10.6-28.3,20.9c-1.5,3.3-2.2,8.8-2.2,13.9
			v103.5h-55.8V383.9z"/>
	</g>
	<path class="st6" d="M940.4,916.8H230.8c-6.6,0-12-5.4-12-12V571.5c0-6.6,5.4-12,12-12h709.5c6.6,0,12,5.4,12,12v333.3
		C952.4,911.4,947,916.8,940.4,916.8z"/>
	<g class="st4">
		<path d="M286.1,609.7h56v102.8h0.7c5.9-7.7,13.3-13.6,22.1-18.4c8.1-4.4,18.8-7,29.1-7c35.8,0,63,24.7,63,78.9v105.4h-56v-99.1
			c0-23.6-8.1-39.8-29.1-39.8c-14.7,0-24,9.6-28,19.5c-1.5,3.7-1.8,8.5-1.8,12.5v106.9h-56V609.7z"/>
		<path d="M672,813.5c0,23.6,0.7,42.8,1.5,57.9h-48.7l-2.6-25.4h-1.1c-7,11.1-24,29.5-56.4,29.5c-36.5,0-63.4-22.9-63.4-78.5V691.2
			h56.4v96.9c0,26.2,8.5,42,28,42c15.5,0,24.3-10.7,28-19.5c1.5-3.3,1.8-7.7,1.8-12.2V691.2H672V813.5z"/>
		<path d="M715.5,871.4c0.7-11.8,1.5-33.5,1.5-53.8V609.7h56v102.8h0.7c10.7-15.5,29.5-25.4,54.5-25.4c43.1,0,74.8,35.8,74.5,91
			c0,64.9-41.3,97.3-82.6,97.3c-21,0-41.3-7.7-54.2-29.1h-0.7l-2.2,25.1H715.5z M773,794.8c0,3.7,0.4,7,1.1,10
			c3.7,15.1,16.6,26.5,32.8,26.5c24,0,38.7-18.4,38.7-50.9c0-28-12.5-50.1-38.7-50.1c-15.1,0-29.1,11.4-32.8,27.6
			c-0.7,3.3-1.1,6.6-1.1,10.3V794.8z"/>
	</g>
</g>
<g id="Layer_4" class="st0">
	<rect y="-5.9" class="st7" width="1157.9" height="1157.9"/>
	<path class="st8" d="M920.3,310.6H246.9c-45.9,0-83.3,37.4-83.3,83.3v383.3c0,45.9,37.4,83.3,83.3,83.3h673.3
		c45.9,0,83.3-37.4,83.3-83.3V393.9C1003.6,348,966.2,310.6,920.3,310.6z M948,393.9v383.3c0,4.4-1.2,8.4-3.1,12.1L748.7,592.9
		L948,393.6C948,393.7,948,393.8,948,393.9z M219.2,777.2V393.9c0-0.1,0.1-0.2,0.1-0.3l199.3,199.3L222.2,789.2
		C220.4,785.5,219.2,781.5,219.2,777.2z M592.2,670.9c-4.6,4.6-12.6,4.6-17.1,0L270.3,366.1h626.6L592.2,670.9z M457.8,632.2l78,78
		c12.8,12.8,29.8,19.8,47.8,19.8c18.1,0,35-7,47.8-19.8l78-78l172.7,172.8H285L457.8,632.2z"/>
</g>
<g id="Layer_5" class="st0">
	<rect x="-3" y="-6" class="st9" width="1164" height="1164"/>
	<g id="IconReddit" class="st4">
		<path class="st10" d="M892.6,537.6c0-43.3-35-78.3-78.3-78.3c-24.9,0-48.8,12.9-63.5,32.2c-43.3-26.7-97.6-43.3-158.4-45.1
			c1.8-29.5,10.1-80.1,39.6-96.7c18.4-11.1,45.1-6.4,79.2,12.9c3.7,39.6,36.8,70,77.4,70c43.3,0,78.3-35,78.3-78.3
			s-35-78.3-78.3-78.3c-35.9,0-66.3,24.9-75.5,58c-37.8-18.4-69.1-21.2-93.9-6.4c-43.3,24.9-50.7,91.2-52.5,118.8
			c-60.8,1.8-116,18.4-159.3,45.1c-14.7-20.3-37.8-32.2-63.5-32.2c-43.3,0-78.3,35-78.3,78.3c0,34.1,22.1,63.5,53.4,74.6
			c-0.9,5.5-0.9,11.1-0.9,17.5c0,101.3,117,183.3,261.5,183.3s260.6-82.9,260.6-184.2c0-5.5-0.9-12-0.9-17.5
			C870.5,601.1,892.6,571.7,892.6,537.6z M324.4,586.4c-20.3-7.4-34.1-26.7-34.1-48.8c0-28.5,23-52.5,52.5-52.5
			c16.6,0,32.2,8.3,41.4,21.2C355.7,528.4,334.5,556,324.4,586.4z M422,590.1c0-28.5,23-52.5,52.5-52.5c28.5,0,52.5,23,52.5,52.5
			c0,29.5-23,52.5-52.5,52.5S422,618.6,422,590.1z M678,715.3c-27.6,15.7-62.6,24.9-99.5,24.9c-35.9,0-71.8-9.2-99.5-24.9
			c-6.4-3.7-8.3-12-4.6-17.5c3.7-6.4,12-8.3,17.5-4.6c47.9,27.6,124.3,27.6,172.2,0c6.4-3.7,13.8-1.8,17.5,4.6
			C686.3,704.3,683.5,711.6,678,715.3z M683.5,641.7c-28.5,0-52.5-23-52.5-52.5s23-52.5,52.5-52.5c28.5,0,52.5,23,52.5,52.5
			S712.1,641.7,683.5,641.7z M832.7,586.4c-10.1-30.4-31.3-57.1-59.9-80.1c10.1-12.9,24.9-21.2,41.4-21.2c28.5,0,52.5,23,52.5,52.5
			C866.8,559.7,852.1,578.1,832.7,586.4z"/>
	</g>
</g>
<g id="Layer_6" class="st0">
	<g class="st4">
		<rect x="-5.6" y="-9.1" class="st11" width="1166.3" height="1166.3"/>
		<g>
			<circle class="st10" cx="577.6" cy="574" r="577.4"/>
			<g>
				<circle class="st11" cx="577.6" cy="574" r="547"/>
				<path class="st12" d="M1048.3,489.4H921.2c-31.3-127.4-131.6-227.7-259-259V103.3H492.9v127.1c-127.4,31.3-227.7,131.6-259,259
					H106.8v169.3h127.1c31.3,127.4,131.6,227.7,259,259v127.1h169.3V917.7c127.4-31.3,227.7-131.6,259-259h127.1V489.4z
					 M746.2,489.4h-84v-84C698.5,423.6,728,453.1,746.2,489.4z M492.9,405.4v84h-84C427.1,453.1,456.7,423.6,492.9,405.4z
					 M408.9,658.7h84v84C456.7,724.5,427.1,694.9,408.9,658.7z M662.2,742.7v-84h84C728,694.9,698.5,724.5,662.2,742.7z"/>
				<path class="st13" d="M1033.1,501.2H908.8C880.9,370.3,777.9,267.3,647,239.4V115.1H504.7v124.3
					C373.9,267.3,270.8,370.3,243,501.2H118.7v142.2H243c27.8,130.9,130.9,233.9,261.8,261.8v124.3H647V905.2
					c130.9-27.8,233.9-130.9,261.8-261.8h124.3V501.2z M766.3,501.2H647V381.9C702,402.5,745.7,446.2,766.3,501.2z M504.7,381.9
					v119.3H385.5C406,446.2,449.7,402.5,504.7,381.9z M385.5,643.5h119.3v119.3C449.7,742.2,406,698.5,385.5,643.5z M647,762.7
					V643.5h119.3C745.7,698.5,702,742.2,647,762.7z"/>
				<path class="st12" d="M1012.7,523.2H890.2C868.6,388.7,762.7,282.3,628.4,260V137.2H525.1v122.6
					c-135.1,21.7-241.8,128.4-263.5,263.5H140.7v103.3h121.2c22.3,134.3,128.7,240.2,263.2,261.8v120.9h103.3V888
					c133.8-22.2,239.3-127.8,261.5-261.5h122.9V523.2z M795.3,523.2H628.4V356.3C711,375.5,776.1,440.6,795.3,523.2z M525.1,356.7
					v166.5H359.8C378.9,441.1,443.2,376.4,525.1,356.7z M360.3,626.5h164.8v164.8C443.8,771.8,379.8,707.8,360.3,626.5z
					 M628.4,791.7V626.5h166.5C775.2,708.4,710.4,772.7,628.4,791.7z"/>
				<g>
					<g>
						<polygon class="st12" points="100.8,447.7 194.8,449.1 170.2,406.5 214.4,395.6 155.8,325.5 136.3,346.4 171,378.2 129,386.2 
							152.9,423.8 103.7,417.3 						"/>
						<polygon class="st12" points="165.2,300.1 231.7,357.3 250.5,334.1 225.9,313.9 244.7,288.6 269.3,311 289.6,288.6 223,232.9 
							204.2,255.3 226.7,274.1 209.3,298 184,277 						"/>
						<polygon class="st12" points="251.2,209 305.5,277.7 329.4,259.6 273.7,190.2 						"/>
						<polygon class="st12" points="291,177.2 302.6,196 325,182.3 358.3,240.1 384.3,224.9 351.1,167.8 374.9,154.1 362.6,135.3 
													"/>
						<polygon class="st12" points="385.8,127.3 414.7,211.2 468.2,193.8 459.5,172.1 434.2,180.1 429.9,169.2 451.6,162.7 
							443.6,142.5 423.4,149.7 418.3,135.3 442.9,127.3 434.2,107.8 						"/>
					</g>
					<g>
						<path class="st12" d="M779.9,125.8l-24.2-11.6l-36.9,79.2l25.7,13.4l9.4-20.6c0,0,36.5,11.6,53.5-11.2
							C829.3,145.6,779.9,125.8,779.9,125.8z M781.4,163.8c-5.1,8.3-19.9,5.8-19.9,5.8l11.9-26.8
							C781.4,145.4,786.4,155.5,781.4,163.8z"/>
						<path class="st12" d="M858,192.4l-41.9,57.1l-23.5-17.4l54.6-71.2c0,0,40.1,33.3,40.5,34.7c0.4,1.4,14,16.9,1.8,30.7
							c-10.9,12.3-25,7.2-25,7.2l4,38h-29.7l3.6-54.6l13.7-0.7c0,0,8.5-4.9,10.1-9.4C868.5,200.7,858,192.4,858,192.4z"/>
						<polygon class="st12" points="863.1,288.9 927.5,228.5 948.1,250.2 884.4,311.4 						"/>
						<path class="st12" d="M999.4,326.2c-11.6-23.5-27.5-47.7-27.5-47.7l-74.5,47.4c0,0,28.6,41.9,51.3,47.4
							c17.6,4.2,25.3,3.6,42.3-5.1C1008.1,359.4,999.4,326.2,999.4,326.2z M965.8,347.9c-14.1,7.6-33.3-10.8-33.3-10.8l37.2-23.5
							C978.8,328.7,979.9,340.3,965.8,347.9z"/>
						<polygon class="st12" points="1029.8,378.6 947,410.1 965.8,463.6 986,455.6 976.6,429.6 987.5,424.9 995.4,445.9 
							1015.3,438.3 1007.4,418 1019.7,413 1030.5,436.5 1051.8,428.9 						"/>
					</g>
					<g>
						<polygon class="st12" points="731.9,980.2 806.9,1036.8 812.2,987.9 854.3,1005.1 848.3,913.9 820.2,919.3 829.5,965.5 
							790.9,947.2 788,991.6 752.1,957.4 						"/>
						<polygon class="st12" points="844.1,898.5 901.3,964.8 924.4,945.6 865.7,878.7 						"/>
						<path class="st12" d="M917.8,823.7c-18.4,18.6-36.2,41.5-36.2,41.5l69.1,55c0,0,30.4-40.7,28.1-64c-1.8-18-4.8-25.1-18.6-38.3
							C946.4,804.6,917.8,823.7,917.8,823.7z M949.3,848.4c11.8,10.9,0.6,35,0.6,35l-34.4-27.6C926.9,842.3,937.5,837.6,949.3,848.4
							z"/>
						<polygon class="st12" points="938.2,786.1 1016.7,827.3 1044.3,777.8 1024.9,767.9 1011.6,792.1 1000.9,787.1 1011.4,767.3 
							992.5,757.4 982.6,776.8 970.7,770.9 981.1,747.2 961.3,736.3 						"/>
					</g>
					<g>
						<path class="st12" d="M447.5,978.3c-23.3-12-50.4-22.1-50.4-22.1l-31.8,82.3c0,0,47.9,16.8,69.4,7.7
							c16.6-7.1,22.5-12.1,31-29.2C474.2,1000,447.5,978.3,447.5,978.3z M433.3,1015.8c-6.8,14.5-33.2,11-33.2,11l16-41
							C432.4,992.6,440.1,1001.3,433.3,1015.8z"/>
						<path class="st12" d="M286,900.8l-46.2,53.8l-22.1-19.1l59.9-66.9c0,0,37.5,36.2,37.7,37.7c0.3,1.5,12.7,17.9-0.5,30.8
							c-11.7,11.4-25.4,5.3-25.4,5.3l1.1,38.2l-29.6-2.3l7.8-54.2l13.8,0.3c0,0,8.9-4.2,10.8-8.6C295.8,909.9,286,900.8,286,900.8z"
							/>
						<polygon class="st12" points="155.1,672.7 173.8,693.6 135,727.2 180.3,734 155.1,770.6 202.2,769.2 202.5,796.6 110.9,790.9 
							137.2,750.3 87.3,738.3 						"/>
						<g>
							<path class="st12" d="M173.9,813.3c11.7-8.8,23.5-12.3,35.4-10.5c11.9,1.8,22.6,8.6,32.2,20.5c9.8,12.2,14.2,24,13.1,35.4
								c-1.1,11.4-7.4,21.4-18.9,30.1c-8.4,6.3-16.4,10-24.1,11.1c-7.7,1.1-15.2,0.1-22.6-3.1c-7.4-3.2-14.3-8.9-20.9-17
								c-6.7-8.3-10.9-16.1-12.7-23.4c-1.8-7.3-1.3-14.8,1.6-22.3C159.9,826.4,165.5,819.5,173.9,813.3z M192,836
								c-7.2,5.4-11.3,10.7-12.2,15.8c-0.9,5.1,0.5,10.1,4.3,14.8c3.9,4.9,8.5,7.5,13.8,7.9c5.2,0.4,11.9-2.5,19.9-8.5
								c6.7-5,10.5-10.1,11.4-15.3c0.9-5.1-0.6-10.1-4.5-14.9c-3.7-4.6-8.2-7.1-13.6-7.5C205.6,828,199.3,830.5,192,836z"/>
						</g>
						<polygon class="st12" points="343.3,923.6 368.2,939.8 334.1,995.2 357.4,1008.7 345.4,1029.9 298.8,999.5 						"/>
					</g>
				</g>
			</g>
		</g>
	</g>
</g>
<g id="Layer_7" class="st0">
	<rect x="-11.9" y="-13.4" class="st14" width="1169.9" height="1181.9"/>
	<g class="st4">
		<path class="st10" d="M650.1,1268.3l-13.8-93.2h-5.2c-51.8,65.6-139.8,112.2-248.6,112.2c-169.2,0-264.1-122.6-264.1-250.3
			c0-212.4,188.2-319.4,498.9-317.7v-13.8c0-55.2-22.4-146.7-170.9-146.7c-82.9,0-169.2,25.9-226.2,62.2l-41.4-138.1
			c62.2-38,170.9-74.2,303.9-74.2c269.3,0,347,170.9,347,353.9v303.9c0,76,3.5,150.2,12.1,202H650.1z M622.5,857.4
			C472.3,853.9,329,886.7,329,1014.5c0,82.9,53.5,120.9,120.9,120.9c84.6,0,146.7-55.2,165.7-115.7c5.2-15.5,6.9-32.8,6.9-46.6
			V857.4z"/>
	</g>
	<polygon class="st15" points="716.9,-18.2 649.6,157.7 768.6,204.2 768.6,338.7 887.6,338.7 887.6,447.3 1260.1,514.6 
		1260.1,-142.4 	"/>
</g>
<g id="Layer_8">
	<rect x="-11.9" y="-19.4" class="st16" width="1180.4" height="1190.9"/>
	<path d="M671.7,581.8c0-52.8-42.8-95.7-95.7-95.7c-52.8,0-95.7,42.8-95.7,95.7c0,52.8,42.8,95.7,95.7,95.7l0,0
		C628.8,677.4,671.6,634.6,671.7,581.8z"/>
	<path d="M348.9,229.7v1.9c0,0,0,0,0-1.7l0,0V229.7z"/>
	<path d="M680.4,448.8L800,241.6c6.4-11.5,2.6-26-8.7-32.7c-133.2-76-296.7-76-429.9,0c-7.8,4.3-12.6,12.4-12.5,21.3
		c0.1,4.1,1.1,8.1,3.1,11.7l119.6,206.8c4.3,7.5,12.3,12,20.9,12c4.2,0,8.2-1.1,11.8-3.2c44.4-25.3,98.9-25.3,143.4,0
		c3.6,2.1,7.7,3.2,11.8,3.2C668.2,460.9,676.1,456.3,680.4,448.8z"/>
	<path d="M982.6,557.8H743.4c-13.2,0-23.9,10.7-23.9,23.9c0,0,0,0,0,0C719.3,633,692,680.3,647.6,706c-11.4,6.6-15.3,21.2-8.7,32.7
		l119.7,207.2c6.8,11.2,21.2,15.1,32.7,8.7c133-77.1,215-219.1,215.3-372.8C1006.6,568.6,995.8,557.8,982.6,557.8L982.6,557.8z"/>
	<path d="M360.1,954c3.8,2.5,8.2,3.8,12.7,3.8c8.6,0,16.6-4.5,21-11.9l119.3-207.1c6.6-11.4,2.7-26.1-8.7-32.7l1.5,0.8l-1.6-0.9
		c-44.3-25.7-71.7-73-71.8-124.2c0-13.2-10.7-23.9-23.9-23.9H169.4c-13.2,0-23.9,10.7-23.9,23.9C145.8,735.1,227.5,876.8,360.1,954z
		"/>
</g>
</svg>
