<?xml version="1.0" encoding="utf-8"?>
<!-- Generator: Adobe Illustrator 22.0.1, SVG Export Plug-In . SVG Version: 6.00 Build 0)  -->
<svg version="1.1" id="Layer_10" xmlns="http://www.w3.org/2000/svg" xmlns:xlink="http://www.w3.org/1999/xlink" x="0px" y="0px"
	 viewBox="0 0 1152 1152" style="enable-background:new 0 0 1152 1152;" xml:space="preserve">
<style type="text/css">
	.st0{fill:#CB1F27;}
</style>
<g>
	<path class="st0" d="M36.5,580c0,222.3,133.7,413.3,325,497.3c-1.5-37.9-0.3-83.4,9.5-124.7c10.4-44.1,69.9-295.9,69.9-295.9
		s-17.3-34.7-17.3-85.9c0-80.5,46.6-140.6,104.7-140.6c49.4,0,73.2,37.1,73.2,81.5c0,49.6-31.7,123.9-47.9,192.7
		C539.9,762.1,582.4,809,639.2,809c102.9,0,172.2-132.1,172.2-288.7c0-119-80.1-208.1-225.9-208.1c-164.7,0-267.3,122.8-267.3,260
		c0,47.3,13.9,80.7,35.8,106.5c10,11.9,11.4,16.6,7.8,30.3c-2.6,10-8.6,34-11.1,43.6c-3.6,13.8-14.8,18.7-27.2,13.6
		c-75.9-31-111.2-114-111.2-207.4c0-154.2,130.1-339.2,388-339.2c207.3,0,343.7,150,343.7,311c0,213-118.4,372.1-293,372.1
		c-58.6,0-113.8-31.7-132.6-67.7c0,0-31.5,125.1-38.2,149.3c-11.5,41.9-34,83.7-54.6,116.3c48.8,14.4,100.4,22.3,153.9,22.3
		c299.8,0,542.9-243.1,542.9-543c0-299.9-243.1-543-542.9-543C279.6,37,36.5,280.1,36.5,580z"/>
</g>
</svg>
