<?xml version="1.0" encoding="utf-8"?>
<!-- Generator: Adobe Illustrator 21.0.2, SVG Export Plug-In . SVG Version: 6.00 Build 0)  -->
<svg version="1.1" id="Layer_3" xmlns="http://www.w3.org/2000/svg" xmlns:xlink="http://www.w3.org/1999/xlink" x="0px" y="0px"
	 viewBox="0 0 1152 1152" style="enable-background:new 0 0 1152 1152;" xml:space="preserve">
<style type="text/css">
	.st0{fill:#FDFDFD;}
	.st1{fill:#FC9904;}
</style>
<rect width="1152" height="1152"/>
<g>
	<path class="st0" d="M224.8,262c17.2-2.9,41.5-5.1,75.6-5.1c34.5,0,59.1,6.6,75.6,19.8c15.8,12.5,26.4,33,26.4,57.2
		s-8.1,44.8-22.7,58.7c-19.1,18-47.3,26.1-80.4,26.1c-7.3,0-13.9-0.4-19.1-1.1v88.4h-55.4V262z M280.2,374.3
		c4.8,1.1,10.6,1.5,18.7,1.5c29.7,0,48.1-15,48.1-40.4c0-22.7-15.8-36.3-43.7-36.3c-11.4,0-19.1,1.1-23.1,2.2V374.3z"/>
	<path class="st0" d="M604.5,414.3c0,65.7-46.6,95.8-94.7,95.8c-52.5,0-92.8-34.5-92.8-92.5s38.2-95,95.8-95
		C567.8,322.6,604.5,360.4,604.5,414.3z M474.6,416.2c0,30.8,12.8,53.9,36.7,53.9c21.6,0,35.6-21.6,35.6-53.9
		c0-26.8-10.3-53.9-35.6-53.9C484.5,362.2,474.6,389.7,474.6,416.2z"/>
	<path class="st0" d="M639,385.7c0-26.4-0.7-43.7-1.5-59.1h48.1l1.8,33h1.5c9.2-26.1,31.2-37.1,48.4-37.1c5.1,0,7.7,0,11.7,0.7v52.5
		c-4-0.7-8.8-1.5-15-1.5c-20.5,0-34.5,11-38.2,28.3c-0.7,3.7-1.1,8.1-1.1,12.5v91H639V385.7z"/>
	<path class="st0" d="M778.4,383.9c0-22.4-0.7-41.5-1.5-57.2h48.4l2.6,24.6h1.1c7.3-11.4,25.7-28.6,55.4-28.6
		c36.7,0,64.2,24.2,64.2,77.1v106.4h-55.8v-99.4c0-23.1-8.1-38.9-28.3-38.9c-15.4,0-24.6,10.6-28.3,20.9c-1.5,3.3-2.2,8.8-2.2,13.9
		v103.5h-55.8V383.9z"/>
</g>
<path class="st1" d="M940.4,916.8H230.8c-6.6,0-12-5.4-12-12V571.5c0-6.6,5.4-12,12-12h709.5c6.6,0,12,5.4,12,12v333.3
	C952.4,911.4,947,916.8,940.4,916.8z"/>
<g>
	<path d="M286.1,609.7h56v102.8h0.7c5.9-7.7,13.3-13.6,22.1-18.4c8.1-4.4,18.8-7,29.1-7c35.8,0,63,24.7,63,78.9v105.4h-56v-99.1
		c0-23.6-8.1-39.8-29.1-39.8c-14.7,0-24,9.6-28,19.5c-1.5,3.7-1.8,8.5-1.8,12.5v106.9h-56V609.7z"/>
	<path d="M672,813.5c0,23.6,0.7,42.8,1.5,57.9h-48.7l-2.6-25.4h-1.1c-7,11.1-24,29.5-56.4,29.5c-36.5,0-63.4-22.9-63.4-78.5V691.2
		h56.4v96.9c0,26.2,8.5,42,28,42c15.5,0,24.3-10.7,28-19.5c1.5-3.3,1.8-7.7,1.8-12.2V691.2H672V813.5z"/>
	<path d="M715.5,871.4c0.7-11.8,1.5-33.5,1.5-53.8V609.7h56v102.8h0.7c10.7-15.5,29.5-25.4,54.5-25.4c43.1,0,74.8,35.8,74.5,91
		c0,64.9-41.3,97.3-82.6,97.3c-21,0-41.3-7.7-54.2-29.1h-0.7l-2.2,25.1H715.5z M773,794.8c0,3.7,0.4,7,1.1,10
		c3.7,15.1,16.6,26.5,32.8,26.5c24,0,38.7-18.4,38.7-50.9c0-28-12.5-50.1-38.7-50.1c-15.1,0-29.1,11.4-32.8,27.6
		c-0.7,3.3-1.1,6.6-1.1,10.3V794.8z"/>
</g>
</svg>
