<?xml version="1.0" encoding="utf-8"?>
<!-- Generator: Adobe Illustrator 21.1.0, SVG Export Plug-In . SVG Version: 6.00 Build 0)  -->
<svg version="1.1" id="Layer_21" xmlns="http://www.w3.org/2000/svg" xmlns:xlink="http://www.w3.org/1999/xlink" x="0px" y="0px"
	 viewBox="0 0 600 600" style="enable-background:new 0 0 600 600;" xml:space="preserve">
<style type="text/css">
	.st0{fill:#55BA60;}
</style>
<path class="st0" d="M305.1,26.2c44.7,0,81.1,5.1,109.1,15.4c28,10.3,50,23,65.9,38.2c15.9,15.2,26.9,31,32.8,47.4
	c5.9,16.5,8.9,30.9,8.9,43.2c0,22.1-4.4,41.9-13.1,59.4c-8.8,17.5-19.3,33.4-31.6,47.8c-12.3,14.4-25.2,27.9-38.6,40.5
	c-13.4,12.6-24.7,25.3-33.9,38.2c-5.7,7.7-10,13.4-13.1,17c-3.1,3.6-8,5.4-14.7,5.4h-165c-4.1,0-7.6-1.4-10.4-4.2
	c-2.8-2.8-4.2-6-4.2-9.6c0-2.6,0.3-4.6,0.8-6.2c5.7-18,15-34.6,28.1-49.7c13.1-15.2,26.5-29.2,40.1-42
	c13.6-12.8,25.6-24.7,35.9-35.5c10.3-10.8,15.4-20.8,15.4-30.1c0-7.7-2.4-13.7-7.3-18.1c-4.9-4.4-11.2-6.6-18.9-6.6
	c-13.9,0-23.5,2.4-28.9,7.3c-5.4,4.9-9.8,10.4-13.1,16.6c-3.3,6.2-6.8,11.7-10.4,16.6c-3.6,4.9-10.3,7.3-20,7.3H75.3
	c-6.2,0-10.9-2.4-14.3-7.3c-3.4-4.9-5-10.1-5-15.8v-0.8c0.5-19.5,5.8-39.6,15.8-60.2C81.8,119.8,97,101,117.3,84
	c20.3-17,46-30.8,77.1-41.6C225.5,31.6,262.4,26.2,305.1,26.2 M360.6,409.5c5.7,0,10.5,2.1,14.7,6.2c4.1,4.1,6.2,9,6.2,14.7V553
	c0,5.7-2.1,10.5-6.2,14.7c-4.1,4.1-9,6.2-14.7,6.2H219.5c-5.7,0-10.5-2.1-14.7-6.2c-4.1-4.1-6.2-9-6.2-14.7V430.3
	c0-5.7,2.1-10.5,6.2-14.7c4.1-4.1,9-6.2,14.7-6.2H360.6z"/>
</svg>
