<?xml version="1.0" encoding="utf-8"?>
<!-- Generator: Adobe Illustrator 21.0.2, SVG Export Plug-In . SVG Version: 6.00 Build 0)  -->
<svg version="1.1" id="Layer_5" xmlns="http://www.w3.org/2000/svg" xmlns:xlink="http://www.w3.org/1999/xlink" x="0px" y="0px"
	 viewBox="0 0 1152 1152" style="enable-background:new 0 0 1152 1152;" xml:space="preserve">
<style type="text/css">
	.st0{fill:#FF3F18;}
	.st1{fill:#FFFFFF;}
</style>
<rect x="-3" y="-6" class="st0" width="1164" height="1164"/>
<g id="IconReddit">
	<path class="st1" d="M892.6,537.6c0-43.3-35-78.3-78.3-78.3c-24.9,0-48.8,12.9-63.5,32.2c-43.3-26.7-97.6-43.3-158.4-45.1
		c1.8-29.5,10.1-80.1,39.6-96.7c18.4-11.1,45.1-6.4,79.2,12.9c3.7,39.6,36.8,70,77.4,70c43.3,0,78.3-35,78.3-78.3
		s-35-78.3-78.3-78.3c-35.9,0-66.3,24.9-75.5,58c-37.8-18.4-69.1-21.2-93.9-6.4c-43.3,24.9-50.7,91.2-52.5,118.8
		c-60.8,1.8-116,18.4-159.3,45.1c-14.7-20.3-37.8-32.2-63.5-32.2c-43.3,0-78.3,35-78.3,78.3c0,34.1,22.1,63.5,53.4,74.6
		c-0.9,5.5-0.9,11.1-0.9,17.5c0,101.3,117,183.3,261.5,183.3s260.6-82.9,260.6-184.2c0-5.5-0.9-12-0.9-17.5
		C870.5,601.1,892.6,571.7,892.6,537.6z M324.4,586.4c-20.3-7.4-34.1-26.7-34.1-48.8c0-28.5,23-52.5,52.5-52.5
		c16.6,0,32.2,8.3,41.4,21.2C355.7,528.4,334.5,556,324.4,586.4z M422,590.1c0-28.5,23-52.5,52.5-52.5c28.5,0,52.5,23,52.5,52.5
		c0,29.5-23,52.5-52.5,52.5S422,618.6,422,590.1z M678,715.3c-27.6,15.7-62.6,24.9-99.5,24.9c-35.9,0-71.8-9.2-99.5-24.9
		c-6.4-3.7-8.3-12-4.6-17.5c3.7-6.4,12-8.3,17.5-4.6c47.9,27.6,124.3,27.6,172.2,0c6.4-3.7,13.8-1.8,17.5,4.6
		C686.3,704.3,683.5,711.6,678,715.3z M683.5,641.7c-28.5,0-52.5-23-52.5-52.5s23-52.5,52.5-52.5c28.5,0,52.5,23,52.5,52.5
		S712.1,641.7,683.5,641.7z M832.7,586.4c-10.1-30.4-31.3-57.1-59.9-80.1c10.1-12.9,24.9-21.2,41.4-21.2c28.5,0,52.5,23,52.5,52.5
		C866.8,559.7,852.1,578.1,832.7,586.4z"/>
</g>
</svg>
