<?xml version="1.0" encoding="utf-8"?>
<!-- Generator: Adobe Illustrator 21.0.2, SVG Export Plug-In . SVG Version: 6.00 Build 0)  -->
<svg version="1.1" id="Layer_5" xmlns="http://www.w3.org/2000/svg" xmlns:xlink="http://www.w3.org/1999/xlink" x="0px" y="0px"
	 viewBox="0 0 1152 1152" style="enable-background:new 0 0 1152 1152;" xml:space="preserve">
<style type="text/css">
	.st0{fill:#FF3F18;}
</style>
<g id="IconReddit">
	<path class="st0" d="M1119,532.6c0-74.5-60.3-134.8-134.8-134.8c-42.8,0-84.1,22.2-109.4,55.5c-74.5-46-168.1-74.5-272.8-77.7
		c3.2-50.7,17.4-138,68.2-166.5c31.7-19,77.7-11.1,136.4,22.2c6.3,68.2,63.4,120.5,133.2,120.5c74.5,0,134.8-60.3,134.8-134.8
		S1014.3,82.2,939.8,82.2c-61.9,0-114.2,42.8-130,99.9c-65-31.7-118.9-36.5-161.8-11.1c-74.5,42.8-87.2,157-90.4,204.6
		c-104.7,3.2-199.8,31.7-274.4,77.7c-25.4-34.9-65-55.5-109.4-55.5C99.3,397.8,39,458.1,39,532.6c0,58.7,38.1,109.4,92,128.5
		c-1.6,9.5-1.6,19-1.6,30.1c0,174.4,201.4,315.6,450.4,315.6s448.8-142.7,448.8-317.2c0-9.5-1.6-20.6-1.6-30.1
		C1080.9,642,1119,591.3,1119,532.6z M140.5,616.7c-34.9-12.7-58.7-46-58.7-84.1c0-49.2,39.6-90.4,90.4-90.4
		c28.5,0,55.5,14.3,71.4,36.5C194.4,516.7,157.9,564.3,140.5,616.7z M308.6,623c0-49.2,39.6-90.4,90.4-90.4
		c49.2,0,90.4,39.6,90.4,90.4c0,50.7-39.6,90.4-90.4,90.4S308.6,672.2,308.6,623z M749.5,838.7c-47.6,27-107.8,42.8-171.3,42.8
		c-61.9,0-123.7-15.9-171.3-42.8c-11.1-6.3-14.3-20.6-7.9-30.1c6.3-11.1,20.6-14.3,30.1-7.9c82.5,47.6,214.1,47.6,296.6,0
		c11.1-6.3,23.8-3.2,30.1,7.9C763.8,819.7,759,832.3,749.5,838.7z M759,711.8c-49.2,0-90.4-39.6-90.4-90.4
		c0-50.7,39.6-90.4,90.4-90.4c49.2,0,90.4,39.6,90.4,90.4C849.4,672.2,808.2,711.8,759,711.8z M1015.9,616.7
		c-17.4-52.3-53.9-98.3-103.1-138c17.4-22.2,42.8-36.5,71.4-36.5c49.2,0,90.4,39.6,90.4,90.4
		C1074.6,570.7,1049.2,602.4,1015.9,616.7z"/>
</g>
</svg>
