<?xml version="1.0" encoding="utf-8"?>
<!-- Generator: Adobe Illustrator 21.0.2, SVG Export Plug-In . SVG Version: 6.00 Build 0)  -->
<svg version="1.1" id="Layer_10" xmlns="http://www.w3.org/2000/svg" xmlns:xlink="http://www.w3.org/1999/xlink" x="0px" y="0px"
	 viewBox="0 0 1152 1152" style="enable-background:new 0 0 1152 1152;" xml:space="preserve">
<style type="text/css">
	.st0{fill:#BF3026;}
	.st1{fill:#261506;}
</style>
<g>
	<g>
		<path class="st0" d="M729.6,369.2c0,50.9-19.8,91-59.5,120.2c-39.7,29.3-89.6,43.9-149.6,43.9c19.3,34.1,46,79.3,80.1,135.5
			c34.1,56.2,80.6,113.7,139.7,172.5c59,58.8,118.8,88.2,179.4,88.2c31,0,63.1-9.2,96.2-27.5c33.1-18.3,56.7-34.6,71-48.9
			c-22.9,33.6-50.9,59.9-84,79c-33.1,19.1-77.6,28.6-133.6,28.6c-69.2,0-131.2-21.8-185.9-65.3c-54.7-43.5-101-95.9-138.9-157.2
			c-37.9-61.3-76.2-133.4-114.9-216.4c67.2,0,117.9-8.1,152.3-24.4c34.3-16.3,51.5-50.4,51.5-102.3c0-57-16.2-98.1-48.5-123.3
			c-32.3-25.2-94.5-37.8-186.6-37.8v427.4c0,17.8,5.2,33.8,15.6,48.1c10.4,14.2,28.4,26.2,53.8,35.9H207.5
			c29.5-5.6,52.8-16.3,69.8-32.1c17-15.8,25.6-35.1,25.6-58V408.1c0-29.5,5.6-61.8,16.8-96.9c11.2-35.1,26-60.8,44.3-77.1
			c-110.4,0-184.3,13.2-221.7,39.7c-37.4,26.5-56.1,62.6-56.1,108.4c0,44.3,12.1,84,36.3,119.1c24.2,35.1,65.5,64.9,124,89.3
			c-63.6,0-112.6-17.4-146.9-52.2C65.2,503.6,48,460.3,48,408.5c0-65.5,25.7-114.8,77.1-147.8c51.4-33,138.9-49.5,262.6-49.5
			l10.7-12.2v12.2c122.2,0,207.9,11.2,257.3,33.6C704.9,267.2,729.6,308.7,729.6,369.2z"/>
	</g>
</g>
<g>
	<path class="st1" d="M979,877.3H824.4V426.5h101.7c27.9,0,52.5,1.5,73.7,4.5c21.3,3,39,8.7,53.1,17.1c14.2,8.4,24.9,19.8,32.2,34.1
		c7.3,14.4,10.9,33,10.9,55.7c0,11.6-0.3,21.7-1,30.3c-0.6,8.6-2.2,16.5-4.8,23.8c-2.6,7.3-6.3,14.5-11.2,21.6
		c-4.9,7.1-11.4,14.9-19.6,23.5c27.9,10.7,47.4,24.7,58.5,41.9c11.1,17.2,16.7,38.6,16.7,64.4c0,28.8-4.6,52-13.8,69.6
		c-9.2,17.6-21.3,31.1-36.1,40.6c-14.8,9.4-31.6,15.8-50.2,19C1016,875.7,997.4,877.3,979,877.3z M944,480.6h-57.7v133.3h75.7
		c10.3,0,19.7-0.8,28.2-2.3c8.6-1.5,16-4.6,22.4-9.4c6.4-4.7,11.4-11.9,15.1-21.4c3.6-9.5,5.5-22.4,5.5-38.8
		c0-14.2-2.5-25.5-7.4-33.7c-4.9-8.2-11.4-14.3-19.6-18.4c-8.1-4.1-17.5-6.7-28.2-7.8C967.3,481.1,955.9,480.6,944,480.6z
		 M981.2,669.3h-95v152.6h62.9c19.2,0,36.4-0.7,51.3-2.3c15-1.5,27.7-4.8,38.2-10c10.5-5.2,18.5-12.4,24.1-21.9
		c5.6-9.4,8.3-22.3,8.3-38.6c0-15-2.1-27.6-6.4-37.7c-4.3-10.1-10.3-18.2-18-24.5c-7.7-6.2-17.1-10.7-28.2-13.5
		C1007.3,670.7,994.9,669.3,981.2,669.3z"/>
</g>
</svg>
