<?xml version="1.0" encoding="utf-8"?>
<!-- Generator: Adobe Illustrator 21.0.2, SVG Export Plug-In . SVG Version: 6.00 Build 0)  -->
<svg version="1.1" id="Layer_19" xmlns="http://www.w3.org/2000/svg" xmlns:xlink="http://www.w3.org/1999/xlink" x="0px" y="0px"
	 viewBox="0 0 600 600" style="enable-background:new 0 0 600 600;" xml:space="preserve">
<style type="text/css">
	.st0{fill:#E8242E;}
	.st1{fill:#190B0D;}
</style>
<circle class="st0" cx="304.7" cy="306.1" r="265.8"/>
<g>
	<path class="st1" d="M91.4,208.6c0.1,0.6,0.2,1.1,0.2,1.7c0,0.6,0,1.1,0,1.7c0,2.8-0.5,5.5-1.5,7.9c-1,2.5-2.3,4.7-4.1,6.8
		c-1.7,2.1-3.8,3.9-6.2,5.6c-2.4,1.6-4.9,3-7.7,4.1c-2.7,1.1-5.6,2-8.6,2.6s-6,0.9-9.1,0.9c-2.1,0-4.2-0.1-6.3-0.3
		c-2.1-0.2-4.3-0.3-6.4-0.4c-2.1,0-4.3,0.1-6.4,0.4c-2.1,0.3-4.2,0.9-6.4,1.9c-1.2-4-2.4-7.5-3.7-10.7c-1.3-3.2-2.5-5.9-3.5-8.1
		c-1.3-2.6-2.5-4.9-3.8-6.9c3.9,1.8,7.7,3.3,11.4,4.3c3.7,1.1,7.2,1.9,10.5,2.5s6.2,0.9,8.8,1.1c2.6,0.2,4.8,0.3,6.4,0.3
		c1.6,0,3.2-0.1,4.9-0.2c1.7-0.2,3.3-0.4,5-0.8c-1.3-1.4-2.8-2.6-4.5-3.5c-1.7-0.9-3.5-1.7-5.5-2.4c-2-0.7-4-1.3-6.1-1.8
		c-2.1-0.5-4.2-1.1-6.3-1.7c-2.1-0.6-4.1-1.3-6-2.2c-1.9-0.8-3.7-1.9-5.3-3.1c-2-1.5-3.4-3.3-4.3-5.3c-0.9-2-1.5-4.1-1.7-6.4
		c-1.1,0.4-2.1,0.8-3,1.2c-0.9,0.4-1.6,0.7-2.2,1c-0.7,0.3-1.3,0.6-1.9,0.9c1.1-3,2.6-5.7,4.6-8s4.2-4.3,6.6-6
		c2.4-1.7,5.1-3.1,7.8-4.3c2.8-1.2,5.5-2.1,8.2-2.9c6.4-1.8,13.2-2.8,20.6-3c2.2,0,4.6-0.1,7.1-0.3c2.2-0.1,4.8-0.3,7.7-0.6
		c2.9-0.3,6.1-0.7,9.4-1.2c-0.9,1.2-1.6,2.6-2.1,4.1c-0.6,1.5-1,3-1.3,4.5c-0.3,1.5-0.5,3.1-0.6,4.5c-0.1,1.5-0.2,2.9-0.2,4.1
		c0,0.8,0,1.6,0.1,2.3c0,0.7,0.1,1.4,0.2,2c0.1,0.7,0.2,1.3,0.3,1.9c-5.7-2.3-11-3.9-16.1-4.9c-5.1-0.9-9.8-1.4-14.3-1.4
		c-1.3,0-2.6,0-3.9,0.1c-1.2,0.1-2.5,0.2-3.7,0.3c0.3,1.3,0.8,2.4,1.5,3.3c0.8,0.9,1.5,1.6,2.3,2.1c0.9,0.6,1.9,1.1,3,1.4
		c2.3,0.6,4.8,1.4,7.4,2.4c2.7,0.9,5.3,2.1,8,3.4c2.7,1.3,5.2,2.9,7.6,4.7c2.4,1.8,4.6,3.9,6.4,6.3c1.1-0.8,2.3-1.7,3.4-2.7
		C89.3,210.7,90.4,209.7,91.4,208.6z"/>
	<path class="st1" d="M126.8,237.5c-3-0.5-5.7-0.9-8.1-1.2s-4.7-0.4-6.9-0.4c-4.3,0-9.3,0.6-15.1,1.9c2.5-5.8,4.5-11.8,5.9-17.8
		c1.4-6.1,2.1-12.3,2.1-18.8c0-4-0.3-7.9-0.8-11.9c-0.5-4-1.4-8.1-2.5-12.2c2.1,0.6,4.3,1.1,6.3,1.6c2.1,0.5,4.2,0.9,6.2,1.2
		c2.1,0.3,4.2,0.6,6.3,0.8c2.1,0.2,4.4,0.3,6.6,0.3c0.3,8.5,0.5,17.1,0.6,25.6c2.5-0.3,5.1-0.5,7.5-0.8c2.5-0.3,4.9-0.6,7.4-0.9
		c0.4-5,1-10,1.8-15s1.9-10.1,3.4-15.3c1.9,0.8,3.7,1.4,5.5,1.9c1.7,0.5,3.4,0.9,5.2,1.3c1.7,0.3,3.4,0.6,5.2,0.7
		c1.7,0.2,3.6,0.2,5.5,0.2h3.5c-1.9,3.7-3.5,7.3-4.8,11c-1.3,3.7-2.2,7.5-2.7,11.4c1.5-0.3,3-0.7,4.5-1c1.5-0.3,3.1-0.7,4.6-1.1
		c-0.6,3.7-0.9,7.5-0.9,11.5c0,1.9,0.1,3.8,0.2,5.8c0.2,1.9,0.4,3.8,0.7,5.7c-1.6-0.1-3.2-0.1-4.6-0.2c-1.5-0.1-3-0.1-4.5-0.2
		c0.4,2.5,0.8,5,1.4,7.4c0.6,2.5,1.3,5,2.2,7.5c-0.9,0-1.7-0.1-2.4-0.1c-0.7,0-1.3,0-1.8-0.1c-0.5,0-1,0-1.4-0.1c-0.4,0-0.9,0-1.3,0
		c-2.9,0-5.8,0.3-8.8,0.8c-2.9,0.5-6.1,1.3-9.6,2.3c-0.4-3.5-0.7-6.9-0.9-10.4c-0.2-3.5-0.3-7.1-0.3-10.7c-2.5-0.6-5-1.2-7.3-1.9
		c-2.4-0.7-4.8-1.4-7.2-2.2c-0.1,3.9-0.1,7.8-0.2,11.8C127.1,229.7,127,233.6,126.8,237.5z"/>
	<path class="st1" d="M212.3,235.9c-3.5,0-6.6,0-9.3,0c-2.7,0-5.3,0.1-7.7,0.3c-2.4,0.2-4.6,0.4-6.7,0.7c-2.1,0.3-4.3,0.8-6.6,1.4
		c2.1-6.3,3.6-12.6,4.7-18.8c1.1-6.2,1.6-12.4,1.6-18.6c0-5.6-0.5-11.3-1.4-17c-2.1-0.3-4.1-0.6-6.2-0.8h-0.2l6-1.5l-1.1-5.1
		c2,0.6,3.9,1.1,5.8,1.6s3.9,0.9,5.8,1.3c5.6-1,11.3-1.8,17-2.4c5.7-0.6,11.5-0.8,17.4-0.8c2.6,0,5.2,0.1,7.8,0.2
		c2.6,0.1,5.4,0.3,8.4,0.5c-0.7,2.5-1.2,5-1.6,7.5c-0.4,2.5-0.6,5.1-0.6,7.7c0,0.8,0,1.7,0.1,2.8s0.2,2.2,0.3,3.4
		c-5.7-2.2-11.5-4.1-17.2-5.9c-5.7-1.7-11.6-3.2-17.5-4.5c-0.3,2.3-0.5,4.5-0.6,6.8c-0.2,2.2-0.3,4.5-0.4,6.8
		c2.8-0.5,5.8-0.9,8.7-1.2c3-0.3,6.1-0.4,9.3-0.5c-0.3,1.2-0.5,2.5-0.7,3.7c-0.2,1.2-0.3,2.5-0.3,3.8c0,1.9,0.3,4.1,0.9,6.6
		c-3-1.2-6-2.4-8.9-3.4c-2.9-1.1-5.9-2-8.9-2.8c0,2.7,0.1,5.5,0.2,8.5c0.1,2.9,0.3,5.9,0.6,8.8c5.7-0.8,11.5-1.8,17.3-3.1
		c5.8-1.3,11.7-2.9,17.7-4.8c-0.4,2.2-0.7,4.3-1,6.4c-0.2,2.1-0.4,4-0.4,5.9c0,3.6,0.4,7.2,1.2,10.9c-5.7-1.3-11.3-2.4-16.9-3.3
		s-11.2-1.6-16.9-2.2L212.3,235.9z"/>
	<path class="st1" d="M345.9,178.7c-1.3,2.6-2.3,5.1-3.2,7.5c-0.9,2.4-1.6,4.7-2.1,6.9c-0.5,2.2-0.9,4.3-1.1,6.4
		c-0.2,2-0.3,4-0.3,5.8c0,3.6,0.4,6.9,1.2,9.9c0.8,3,1.8,5.7,3,8.2c1.2,2.5,2.6,4.7,4.2,6.7c1.6,2,3.1,3.7,4.7,5.3
		c-1.3,0-2.6-0.1-3.7-0.2c-1.1-0.1-2.4-0.2-3.7-0.2c-1.4,0-2.8,0.1-4.2,0.3c-1.4,0.2-2.8,0.5-4.2,0.8c-1.4,0.4-2.9,0.8-4.4,1.3
		c-1.5,0.5-3.2,1.2-5,1.9c-1.5-4-2.8-8-3.7-12c-0.9-4-1.6-8-2-12c-1.7,3.3-3.1,6.8-4.2,10.4c-1.1,3.6-2,7.5-2.5,11.7
		c-0.4,0-1.2,0-2.5,0c-1.3,0-2.9,0.1-4.7,0.3c-1.9,0.2-3.9,0.4-6.1,0.8s-4.4,0.8-6.6,1.5c-0.5-4.5-1.3-8.7-2.4-12.7
		s-2.5-7.7-4.2-11.3c-0.4,3.9-1.1,7.7-2.1,11.6c-1,3.9-2.2,7.8-3.7,11.7c-6.9-2.9-13.8-4.3-20.7-4.3c-1,0-2.3,0.1-3.7,0.2
		c-1.4,0.1-2.9,0.2-4.3,0.3c5.3-5.1,9.3-10.7,12-17c2.7-6.3,4.1-13.3,4.1-21c0-0.9,0-1.8-0.1-2.8c-0.1-1-0.2-2-0.3-3.1
		c-2.5-2.4-5.2-4.7-8-7c-2.8-2.3-5.8-4.6-9-7c1.4,0.3,3.3,0.6,5.7,1.1c2.4,0.5,5.2,0.7,8.5,0.7c2.8,0,6-0.3,9.5-0.9
		c3.5-0.6,7.1-1.7,11-3.3c2.2,3,4.4,6.6,6.6,10.6c1.9,3.4,3.8,7.5,5.9,12.3c2.1,4.8,3.9,10.1,5.6,16.1l3.5-8.7
		c1.1-2.8,2.2-5.6,3.3-8.2c1.1-2.6,2-5.3,3-7.8c0.9-2.6,1.8-5.1,2.5-7.7c0.8-2.6,1.4-5.3,2-8.1c2.4,1.3,4.9,2.3,7.4,3
		c2.5,0.7,5,1.2,7.3,1.5c2.4,0.3,4.6,0.5,6.7,0.6C342.6,178.7,344.4,178.7,345.9,178.7z"/>
	<path class="st1" d="M434.2,217.1c-1.4,0.7-2.8,1.3-4.2,1.9c-1.4,0.6-2.8,1.2-4.2,1.8c3.1,5.6,6.5,10.8,10.2,15.7
		c-5.2,0-10.2,0.5-14.9,1.5c-4.7,1-9.5,2.6-14.4,4.8c0.4-0.9,0.6-1.8,0.7-2.7c0.1-0.9,0.1-1.9,0.1-2.8c0-1.6-0.2-3.4-0.5-5.3
		c-0.3-1.9-0.8-3.9-1.4-6.1c-1.4,0.2-2.8,0.3-4.2,0.4c-1.4,0.1-2.8,0.1-4.1,0.1c-2.4,0-4.7-0.1-7-0.4c-2.3-0.3-4.5-0.8-6.6-1.4
		c-0.6,2.5-1.1,5-1.6,7.6c-0.5,2.6-0.9,5.3-1.4,8c-1.7-0.9-3.6-1.7-5.6-2.4c-1.7-0.6-3.8-1.1-6.1-1.6c-2.3-0.5-4.7-0.8-7.3-0.8
		c-2.2,0-4.5,0.2-6.9,0.6s-5.1,1-8.1,1.8c2.3-2.2,4.4-4.5,6.4-6.9c2-2.3,3.8-4.6,5.5-6.7c1.7-2.2,3.1-4.2,4.4-6.1
		c1.3-1.9,2.4-3.5,3.2-5c-1-1.2-1.9-2.4-2.7-3.8c-0.8-1.3-1.6-2.8-2.3-4.3c1.3,0.7,2.7,1.3,4,1.8c1.3,0.6,2.6,1.1,3.9,1.5
		c1.5-2.7,3.2-5.4,4.9-8.2c1.7-2.7,3.5-5.4,5.5-8c-0.4-1-0.9-2.1-1.5-3.3c-0.6-1.2-1.3-2.5-2-3.8c-0.7-1.3-1.5-2.6-2.3-3.9
		c-0.8-1.3-1.6-2.5-2.4-3.6c3.2,0.9,6.4,1.6,9.7,2.1c3.2,0.5,6.5,0.8,9.7,1c1.8-1.5,3.8-2.9,5.8-4.1c2-1.3,4.1-2.4,6.3-3.3
		c-0.7,1.2-1.4,2.4-2.1,3.6c-0.7,1.2-1.3,2.5-2,3.8c1.7-0.2,3.4-0.4,5.1-0.6c1.7-0.2,3.5-0.5,5.3-0.9c1.2,4.5,2.6,8.9,4.1,13.2
		c1.5,4.3,3.1,8.5,4.8,12.7c1.5-0.8,2.9-1.7,4.4-2.6c1.5-0.9,2.9-1.9,4.3-2.9c1,3.5,2.2,6.8,3.4,9.7
		C431.4,212.2,432.8,214.8,434.2,217.1z M400.5,211.8c-1.2-2.6-2.5-5.3-3.8-7.9s-2.9-5.4-4.5-8.1c-2,5.3-3.8,10.9-5.4,16.9
		c0.6,0.1,1.2,0.1,1.8,0.1c0.6,0,1.2,0,1.8,0c1.7,0,3.4-0.1,5.1-0.2S398.8,212.2,400.5,211.8z"/>
	<path class="st1" d="M504.7,236.4c-5.5-0.7-10.8-1.2-15.9-1.6c-5.1-0.4-10.1-0.6-15.1-0.6c-5.8,0-11.6,0.2-17.4,0.7
		c-5.8,0.5-11.8,1.2-18.1,2.2c1.5-1,2.9-1.9,4.4-2.9c1.5-1,3-1.9,4.5-2.7c0.7-3.7,1.2-7.3,1.5-10.8c0.3-3.6,0.5-7.1,0.5-10.7
		c0-5.3-0.3-10.6-1-15.8c-0.7-5.2-1.6-10.4-2.8-15.6h4.8c3.7,0,7.4-0.2,11.1-0.6c3.7-0.4,7.7-1,11.9-1.9c0,7.7-0.4,15.3-1.3,22.8
		c-0.8,7.5-2.2,15.1-4.1,22.7c5.4-2,11-3.8,16.8-5.2c5.7-1.5,11.8-2.7,18.1-3.6c-0.2,1.3-0.3,2.7-0.4,4.1c-0.1,1.4-0.1,2.8-0.1,4.2
		c0,2.7,0.2,5.3,0.6,7.9C503.2,231.5,503.8,234,504.7,236.4z"/>
	<path class="st1" d="M538.3,235.9c-3.5,0-6.6,0-9.3,0c-2.7,0-5.3,0.1-7.7,0.3c-2.4,0.2-4.6,0.4-6.7,0.7c-2.1,0.3-4.3,0.8-6.6,1.4
		c2.1-6.3,3.6-12.6,4.7-18.8c1.1-6.2,1.6-12.4,1.6-18.6c0-5.6-0.5-11.3-1.4-17c-2.1-0.3-4.1-0.6-6.2-0.8h-0.2l6-1.5l-1.1-5.1
		c2,0.6,3.9,1.1,5.8,1.6s3.9,0.9,5.8,1.3c5.6-1,11.3-1.8,17-2.4c5.7-0.6,11.5-0.8,17.4-0.8c2.6,0,5.2,0.1,7.8,0.2
		c2.6,0.1,5.4,0.3,8.4,0.5c-0.7,2.5-1.2,5-1.6,7.5c-0.4,2.5-0.6,5.1-0.6,7.7c0,0.8,0,1.7,0.1,2.8c0,1.1,0.2,2.2,0.3,3.4
		c-5.7-2.2-11.5-4.1-17.2-5.9c-5.7-1.7-11.6-3.2-17.5-4.5c-0.3,2.3-0.5,4.5-0.6,6.8c-0.2,2.2-0.3,4.5-0.4,6.8
		c2.8-0.5,5.8-0.9,8.7-1.2c3-0.3,6.1-0.4,9.3-0.5c-0.3,1.2-0.5,2.5-0.7,3.7c-0.2,1.2-0.3,2.5-0.3,3.8c0,1.9,0.3,4.1,0.9,6.6
		c-3-1.2-6-2.4-8.9-3.4c-2.9-1.1-5.9-2-8.9-2.8c0,2.7,0.1,5.5,0.2,8.5c0.1,2.9,0.3,5.9,0.6,8.8c5.7-0.8,11.5-1.8,17.3-3.1
		c5.8-1.3,11.7-2.9,17.7-4.8c-0.4,2.2-0.7,4.3-1,6.4s-0.4,4-0.4,5.9c0,3.6,0.4,7.2,1.2,10.9c-5.7-1.3-11.3-2.4-16.9-3.3
		c-5.5-0.9-11.2-1.6-16.9-2.2L538.3,235.9z"/>
</g>
<g>
	<path class="st1" d="M104.8,321c-3.7,5.7-8.3,10.9-13.7,15.4c-5.4,4.6-11.6,8.5-18.7,11.8s-15.1,5.9-23.9,7.9
		c-8.9,2-18.6,3.3-29.4,4c0-3.1,0-6-0.1-8.7c0-2.7-0.3-5.4-0.7-8c-0.4-2.6-1-5.3-1.9-8c-0.9-2.7-2.1-5.5-3.7-8.5
		c6.9,2,13.4,3.5,19.5,4.5c6.1,0.9,12,1.4,17.7,1.4c2.6,0,5.1-0.1,7.7-0.3c2.6-0.2,5.1-0.4,7.7-0.7c-0.9-11.9-2.3-23.8-4.4-35.7
		c-2-11.9-4.7-23.4-8-34.5c7.1,2.5,13.9,4.5,20.5,6.1c6.6,1.6,12.9,2.4,19,2.4h5c-0.7,3.5-1.3,7.1-1.8,10.9c-0.5,3.8-1,7.6-1.4,11.5
		c-0.4,3.9-0.7,7.7-0.9,11.6c-0.2,3.8-0.3,7.5-0.3,11.1c0,1.7,0,3.4,0,5c0,1.7,0.1,3.3,0.3,5c1.8-0.6,3.6-1.2,5.5-2
		C101,322.5,102.9,321.7,104.8,321z"/>
	<path class="st1" d="M223.9,325.5c-2,1-4.1,1.9-6.1,2.8c-2,0.9-4,1.8-6.1,2.6c4.5,8.1,9.4,15.7,14.8,22.9c-7.5,0-14.7,0.7-21.6,2.2
		c-6.9,1.5-13.8,3.8-20.9,6.9c0.5-1.3,0.9-2.6,1-3.9c0.1-1.3,0.2-2.7,0.2-4.1c0-2.3-0.2-4.9-0.7-7.7c-0.4-2.8-1.1-5.7-2-8.8
		c-2,0.3-4.1,0.5-6.1,0.6c-2,0.1-4,0.2-6,0.2c-3.5,0-6.9-0.2-10.2-0.6c-3.3-0.4-6.5-1.1-9.6-2.1c-0.8,3.6-1.6,7.3-2.3,11.1
		c-0.7,3.8-1.4,7.7-2,11.6c-2.5-1.3-5.2-2.4-8.2-3.4c-2.5-0.8-5.5-1.6-8.8-2.3c-3.3-0.7-6.9-1.1-10.6-1.1c-3.2,0-6.5,0.3-10.1,0.8
		s-7.5,1.4-11.8,2.6c3.3-3.3,6.4-6.6,9.3-10c2.9-3.4,5.5-6.6,8-9.8s4.6-6.1,6.4-8.8c1.9-2.7,3.4-5.1,4.7-7.2
		c-1.4-1.7-2.7-3.5-3.9-5.5c-1.2-1.9-2.3-4-3.4-6.3c1.9,1,3.9,1.9,5.8,2.7c1.9,0.8,3.8,1.5,5.6,2.2c2.2-3.9,4.6-7.9,7.1-11.9
		c2.5-4,5.1-7.9,8-11.7c-0.6-1.4-1.3-3-2.2-4.8c-0.9-1.8-1.9-3.7-2.9-5.6c-1-1.9-2.2-3.8-3.3-5.7c-1.2-1.9-2.3-3.7-3.4-5.3
		c4.7,1.3,9.4,2.3,14.1,3c4.7,0.7,9.4,1.2,14.1,1.5c2.7-2.2,5.5-4.2,8.4-6s6-3.4,9.2-4.9c-1,1.7-2,3.5-3,5.3c-1,1.8-1.9,3.6-2.8,5.5
		c2.4-0.2,4.9-0.5,7.4-0.8c2.5-0.3,5.1-0.7,7.7-1.3c1.8,6.6,3.8,13,5.9,19.2c2.1,6.2,4.5,12.4,6.9,18.4c2.1-1.2,4.3-2.5,6.4-3.8
		c2.1-1.3,4.2-2.7,6.3-4.2c1.5,5.1,3.1,9.8,4.9,14.1C219.9,318.3,221.8,322.1,223.9,325.5z M175,317.7c-1.7-3.8-3.6-7.6-5.6-11.5
		c-2-3.9-4.2-7.8-6.5-11.7c-2.9,7.7-5.5,15.9-7.9,24.5c0.9,0.1,1.7,0.1,2.6,0.1c0.9,0,1.7,0,2.6,0c2.5,0,5-0.1,7.4-0.3
		C170,318.6,172.5,318.2,175,317.7z"/>
	<path class="st1" d="M346.1,281.9c-0.7,4.2-2,8.4-3.8,12.6c-1.8,4.2-4.1,8.1-6.8,11.9c-2.8,3.8-5.9,7.3-9.5,10.5
		c-3.6,3.3-7.5,6.1-11.8,8.5c-4.3,2.4-8.8,4.3-13.7,5.6c-4.8,1.4-9.9,2-15.1,2c-0.8,0-1.6,0-2.4,0s-1.6,0-2.4-0.1
		c0.1,7.5,0.4,15.1,0.9,22.6c-1.6-0.2-3.1-0.4-4.7-0.5c-1.6-0.1-3-0.1-4.5-0.1c-4.8,0-10.1,0.5-15.8,1.6c-5.7,1.1-11.9,2.7-18.5,4.9
		c2.5-6.7,4.6-13.4,6.4-20c1.8-6.6,3.2-13.3,4.2-20.1c-3.3-2.2-6.1-4.3-8.5-6.4c-2.4-2.1-4.1-3.8-5.4-5.3c2.4,0.7,4.9,1.3,7.4,1.9
		c2.6,0.6,5.1,1.1,7.7,1.5c0.6-5.5,0.9-11.2,0.9-16.9v-2.7c-2.6,0.8-5.2,1.7-7.8,2.7c-2.6,0.9-5.2,2-7.7,3c1.5-4.9,2.3-9.4,2.3-13.5
		c0-3.5-0.4-6.7-1.3-9.8c-0.9-3.1-2.1-6-3.8-8.7c10.5-1.5,19.7-2.4,27.8-3c8.1-0.5,15.2-0.8,21.6-0.8c2.9,0,6.3,0.1,10.1,0.2
		c3.8,0.1,7.7,0.4,11.7,0.9c4,0.5,8,1.2,11.9,2.1c4,0.9,7.6,2.2,10.9,3.8c3.3,1.6,6.1,3.6,8.5,6.1c2.4,2.4,4,5.4,4.8,8.8
		c1.1-0.5,2.2-1.1,3.3-1.6C343.9,283.2,345,282.6,346.1,281.9z M296.9,285.8c-2.6,0-5.2,0.1-7.8,0.3c-2.6,0.2-5.2,0.4-7.8,0.7
		c-0.1,4.7-0.3,9.4-0.4,14c-0.1,4.6-0.2,9.3-0.2,13.9c2.9-0.4,5.7-1.2,8.3-2.2c2.6-1,4.9-2.3,6.9-3.9c2-1.6,3.6-3.6,4.9-5.9
		c1.3-2.3,2.1-5,2.5-8.1c1.8-0.3,3.7-0.6,5.7-0.9c1.9-0.3,3.9-0.6,5.9-1c-0.1,0-0.1,0-0.1-0.1v-0.1h0.1c-1-1.1-2-2-3-2.9
		c-1-0.9-2.3-1.6-3.6-2.2c-1.4-0.6-2.9-1-4.7-1.3S299.4,285.8,296.9,285.8z"/>
	<path class="st1" d="M459.7,325.5c-2,1-4.1,1.9-6.1,2.8c-2,0.9-4,1.8-6.1,2.6c4.5,8.1,9.4,15.7,14.8,22.9c-7.5,0-14.7,0.7-21.6,2.2
		c-6.9,1.5-13.8,3.8-20.9,6.9c0.5-1.3,0.9-2.6,1-3.9c0.1-1.3,0.2-2.7,0.2-4.1c0-2.3-0.2-4.9-0.7-7.7c-0.4-2.8-1.1-5.7-2-8.8
		c-2,0.3-4.1,0.5-6.1,0.6c-2,0.1-4,0.2-6,0.2c-3.5,0-6.9-0.2-10.2-0.6c-3.3-0.4-6.5-1.1-9.6-2.1c-0.8,3.6-1.6,7.3-2.3,11.1
		c-0.7,3.8-1.4,7.7-2,11.6c-2.5-1.3-5.2-2.4-8.2-3.4c-2.5-0.8-5.5-1.6-8.8-2.3c-3.3-0.7-6.9-1.1-10.5-1.1c-3.2,0-6.5,0.3-10.1,0.8
		c-3.6,0.5-7.5,1.4-11.8,2.6c3.3-3.3,6.4-6.6,9.3-10c2.9-3.4,5.5-6.6,8-9.8s4.6-6.1,6.4-8.8c1.9-2.7,3.4-5.1,4.7-7.2
		c-1.4-1.7-2.7-3.5-3.9-5.5s-2.3-4-3.4-6.3c1.9,1,3.9,1.9,5.8,2.7c1.9,0.8,3.8,1.5,5.6,2.2c2.2-3.9,4.6-7.9,7.1-11.9
		c2.5-4,5.1-7.9,8-11.7c-0.6-1.4-1.3-3-2.2-4.8c-0.9-1.8-1.9-3.7-2.9-5.6c-1-1.9-2.2-3.8-3.3-5.7c-1.2-1.9-2.3-3.7-3.4-5.3
		c4.7,1.3,9.4,2.3,14.1,3c4.7,0.7,9.4,1.2,14.1,1.5c2.7-2.2,5.5-4.2,8.4-6c2.9-1.8,6-3.4,9.2-4.9c-1,1.7-2,3.5-3,5.3
		c-1,1.8-1.9,3.6-2.8,5.5c2.4-0.2,4.9-0.5,7.4-0.8c2.5-0.3,5.1-0.7,7.7-1.3c1.8,6.6,3.8,13,5.9,19.2c2.1,6.2,4.5,12.4,6.9,18.4
		c2.1-1.2,4.3-2.5,6.4-3.8c2.1-1.3,4.2-2.7,6.3-4.2c1.5,5.1,3.1,9.8,4.9,14.1C455.6,318.3,457.6,322.1,459.7,325.5z M410.7,317.7
		c-1.7-3.8-3.6-7.6-5.6-11.5c-2-3.9-4.2-7.8-6.5-11.7c-2.9,7.7-5.5,15.9-7.9,24.5c0.9,0.1,1.7,0.1,2.6,0.1s1.7,0,2.6,0
		c2.5,0,5-0.1,7.4-0.3C405.8,318.6,408.3,318.2,410.7,317.7z"/>
	<path class="st1" d="M588.9,272.5c-6,6.9-10.6,14.3-13.7,22.2c-3.1,8-4.7,16.6-4.7,25.8c0,4.9,0.4,9.8,1.2,14.7
		c0.8,5,2.1,10,3.9,15.1c-3.7,0.1-7.5,0.4-11.5,1c-3.4,0.5-7.2,1.3-11.3,2.4c-4.1,1-8.2,2.5-12.2,4.4c-3.1-8-6.8-15.6-11.3-22.9
		c-4.5-7.3-9.6-14.1-15.3-20.7c0.6,13.8-1.1,28-5,42.7c-8.9-2.8-17-4.2-24.4-4.2c-2.4,0-5,0.1-7.8,0.4c-2.8,0.3-5.8,0.7-9.1,1.2
		c6.1-6.9,10.7-14.3,13.9-22.3c3.2-8,4.8-16.7,4.8-26.2c0-3.1-0.2-6.2-0.6-9.5c-0.4-3.3-1-6.7-1.8-10.3c-3-2.3-6-4.5-9.1-6.6
		c-3-2.1-6.1-4.2-9.3-6.2c4.5,0.4,8.6,0.5,12.4,0.4c3.8-0.1,7.4-0.6,11-1.3c3.6-0.7,7.2-1.7,10.9-3c3.7-1.3,7.7-2.9,12.1-4.9
		l31,50.5c-0.3-2.3-0.5-4.7-0.6-7c-0.1-2.3-0.1-4.6-0.1-6.9c0-7.1,0.8-14.1,2.5-20.9c1.7-6.8,4.4-13.6,8.1-20.3
		c5.6,3.7,11.4,6.6,17.3,8.6C576,270.9,582.3,272.1,588.9,272.5z"/>
</g>
<g>
	<path class="st1" d="M38.4,437.8c-2.7-0.5-5.1-0.8-7.1-1c-2.1-0.2-4.1-0.3-6.1-0.3c-3.8,0-8.2,0.5-13.3,1.6
		c2.2-5.1,3.9-10.4,5.2-15.7c1.2-5.3,1.8-10.9,1.8-16.6c0-3.5-0.2-7-0.7-10.5c-0.5-3.5-1.2-7.1-2.2-10.8c1.9,0.5,3.8,1,5.6,1.4
		c1.8,0.4,3.7,0.8,5.5,1.1c1.8,0.3,3.7,0.5,5.6,0.7c1.9,0.2,3.8,0.3,5.9,0.3c0.3,7.5,0.4,15.1,0.5,22.6c2.2-0.2,4.5-0.5,6.6-0.7
		c2.2-0.3,4.4-0.5,6.5-0.8c0.3-4.4,0.8-8.8,1.6-13.3s1.7-8.9,3-13.5c1.7,0.7,3.3,1.2,4.8,1.7c1.5,0.5,3,0.8,4.5,1.1
		c1.5,0.3,3,0.5,4.6,0.6c1.5,0.1,3.2,0.2,4.9,0.2h3.1c-1.7,3.2-3.1,6.5-4.2,9.7c-1.1,3.3-1.9,6.6-2.4,10c1.3-0.3,2.7-0.6,4-0.9
		c1.3-0.3,2.7-0.6,4.1-0.9c-0.5,3.3-0.8,6.6-0.8,10.2c0,1.7,0.1,3.4,0.2,5.1s0.3,3.4,0.6,5c-1.4-0.1-2.8-0.1-4.1-0.2
		c-1.3,0-2.6-0.1-4-0.2c0.3,2.2,0.7,4.4,1.3,6.6c0.5,2.2,1.2,4.4,1.9,6.6c-0.8,0-1.5-0.1-2.1-0.1c-0.6,0-1.1,0-1.6,0
		c-0.5,0-0.9,0-1.3,0c-0.4,0-0.8,0-1.2,0c-2.6,0-5.2,0.2-7.7,0.7c-2.6,0.5-5.4,1.1-8.5,2c-0.3-3-0.6-6.1-0.8-9.2
		c-0.2-3.1-0.3-6.2-0.3-9.5c-2.2-0.5-4.4-1.1-6.5-1.7c-2.1-0.6-4.2-1.3-6.3-2c-0.1,3.5-0.1,6.9-0.2,10.4
		C38.6,430.8,38.5,434.3,38.4,437.8z"/>
	<path class="st1" d="M155.5,419.8c-1.2,0.6-2.5,1.2-3.7,1.7c-1.2,0.5-2.4,1.1-3.7,1.6c2.7,4.9,5.7,9.5,9,13.9
		c-4.6,0-9,0.5-13.1,1.4c-4.2,0.9-8.4,2.3-12.7,4.2c0.3-0.8,0.5-1.6,0.6-2.4c0.1-0.8,0.1-1.6,0.1-2.5c0-1.4-0.1-3-0.4-4.7
		s-0.7-3.5-1.2-5.3c-1.2,0.2-2.5,0.3-3.7,0.4c-1.2,0.1-2.5,0.1-3.6,0.1c-2.1,0-4.2-0.1-6.2-0.4c-2-0.3-4-0.7-5.8-1.3
		c-0.5,2.2-1,4.4-1.4,6.7c-0.4,2.3-0.8,4.6-1.2,7.1c-1.5-0.8-3.2-1.5-5-2.1c-1.5-0.5-3.3-1-5.3-1.4c-2-0.4-4.2-0.7-6.4-0.7
		c-1.9,0-4,0.2-6.1,0.5c-2.2,0.3-4.5,0.9-7.1,1.6c2-2,3.9-4,5.7-6.1c1.8-2.1,3.4-4,4.8-5.9c1.5-1.9,2.8-3.7,3.9-5.4
		c1.1-1.7,2.1-3.1,2.9-4.4c-0.9-1-1.6-2.1-2.4-3.3c-0.7-1.2-1.4-2.5-2.1-3.8c1.2,0.6,2.3,1.1,3.5,1.6c1.2,0.5,2.3,0.9,3.4,1.4
		c1.4-2.4,2.8-4.8,4.3-7.2c1.5-2.4,3.1-4.8,4.8-7.1c-0.4-0.9-0.8-1.8-1.4-2.9c-0.5-1.1-1.1-2.2-1.8-3.4c-0.6-1.2-1.3-2.3-2-3.5
		c-0.7-1.2-1.4-2.2-2.1-3.2c2.8,0.8,5.7,1.4,8.5,1.8c2.9,0.4,5.7,0.7,8.5,0.9c1.6-1.3,3.3-2.5,5.1-3.7c1.8-1.1,3.6-2.1,5.6-2.9
		c-0.6,1-1.2,2.1-1.8,3.2c-0.6,1.1-1.2,2.2-1.7,3.3c1.5-0.1,3-0.3,4.5-0.5s3.1-0.5,4.7-0.8c1.1,4,2.3,7.9,3.6,11.7
		c1.3,3.8,2.7,7.5,4.2,11.2c1.3-0.7,2.6-1.5,3.9-2.3s2.6-1.6,3.8-2.5c0.9,3.1,1.9,6,3,8.6C153.1,415.4,154.2,417.8,155.5,419.8z
		 M125.8,415.1c-1-2.3-2.2-4.6-3.4-7c-1.2-2.3-2.5-4.7-4-7.1c-1.7,4.7-3.3,9.6-4.8,14.9c0.5,0.1,1.1,0.1,1.6,0.1c0.5,0,1,0,1.6,0
		c1.5,0,3-0.1,4.5-0.2C122.8,415.6,124.3,415.4,125.8,415.1z"/>
	<path class="st1" d="M229.9,434.2c-4.3,0.3-8.5,1.1-12.6,2.2c-4.1,1.2-8.2,2.8-12.4,4.8c-0.7-6.4-2.2-12.2-4.7-17.6
		c-1.2,0.3-2.4,0.5-3.6,0.6c-1.2,0.1-2.5,0.2-3.8,0.2c-0.5,0-1,0-1.5,0s-1,0-1.5-0.1c0.1,4.6,0.3,9.1,0.5,13.7
		c-0.9-0.1-1.9-0.2-2.8-0.3c-0.9,0-1.8-0.1-2.7-0.1c-2.9,0-6.1,0.3-9.6,1s-7.2,1.7-11.3,3c1.5-4.1,2.8-8.1,3.9-12.1
		c1.1-4,1.9-8.1,2.5-12.2c-2-1.3-3.7-2.6-5.2-3.9s-2.5-2.3-3.3-3.2c1.4,0.4,2.9,0.8,4.5,1.2c1.6,0.4,3.1,0.7,4.7,0.9
		c0.4-3.4,0.5-6.8,0.5-10.2v-1.6c-1.6,0.5-3.2,1-4.7,1.6c-1.6,0.6-3.1,1.2-4.7,1.9c0.9-3,1.4-5.7,1.4-8.2c0-2.1-0.3-4.1-0.8-6
		c-0.5-1.9-1.3-3.6-2.3-5.3c6.4-0.9,12-1.5,16.9-1.8c4.9-0.3,9.3-0.5,13.1-0.5c1.8,0,3.8,0,6.1,0.1c2.3,0.1,4.7,0.3,7.1,0.6
		c2.4,0.3,4.8,0.7,7.2,1.3c2.4,0.6,4.6,1.3,6.6,2.3c2,1,3.7,2.2,5.2,3.7c1.4,1.5,2.4,3.3,2.9,5.3c0.7-0.3,1.3-0.6,2-1
		c0.6-0.3,1.3-0.7,2-1.1c-0.4,2.1-0.9,4.2-1.8,6.4c-0.8,2.1-1.9,4.2-3.1,6.1c-1.2,2-2.6,3.9-4.3,5.6s-3.4,3.4-5.3,4.9
		C219.6,423.2,224.5,429.1,229.9,434.2z M199.8,395.7c-1.2,0-2.6,0.1-4.2,0.2c-1.6,0.1-3.4,0.3-5.3,0.5c-0.1,2.8-0.2,5.7-0.2,8.5
		c-0.1,2.8-0.1,5.6-0.1,8.4c1.8-0.3,3.4-0.7,5-1.3c1.6-0.6,3-1.4,4.2-2.4c1.2-1,2.2-2.2,3-3.6c0.8-1.4,1.3-3.1,1.5-4.9
		c1.1-0.2,2.3-0.4,3.4-0.5c1.2-0.2,2.4-0.4,3.6-0.6c-0.1,0-0.1,0-0.1,0v0h0.1c-0.6-0.7-1.2-1.2-1.8-1.8c-0.6-0.5-1.4-1-2.2-1.3
		c-0.8-0.4-1.8-0.6-2.9-0.8C202.7,395.8,201.4,395.7,199.8,395.7z"/>
	<path class="st1" d="M300.5,407.2c0.1,0.5,0.1,1,0.1,1.5c0,0.5,0,1,0,1.5c0,2.6-0.5,5.2-1.4,7.6c-0.9,2.5-2.2,4.8-3.8,6.9
		c-1.6,2.2-3.6,4.1-5.8,5.9c-2.2,1.8-4.7,3.3-7.4,4.6c-2.7,1.3-5.5,2.3-8.5,3c-3,0.7-6.1,1.1-9.2,1.1c-2.3,0-4.6-0.2-7-0.7
		c-2.4-0.5-4.6-1.3-6.8-2.6c-2.3,0.3-4.7,0.7-7.3,1.4c-2.6,0.6-5.3,1.4-8.1,2.3c2.3-6.3,4.2-12.6,5.5-18.9
		c1.4-6.3,2.1-12.8,2.2-19.3c-1.9,0.9-3.8,1.9-5.7,3.2c0.1-1,0.3-1.9,0.4-2.7c0.1-0.8,0.1-1.4,0.1-1.9c0-5.9-1.7-11.1-5.2-15.4
		c1-0.3,2.2-0.6,3.5-0.8c1.3-0.2,2.8-0.5,4.3-0.7c1.5-0.2,3.1-0.4,4.7-0.5c1.6-0.1,3.2-0.3,4.7-0.4c1.5-0.1,2.9-0.2,4.3-0.2
		c1.3,0,2.5-0.1,3.4-0.1c5.9,0,11.3,0.6,16.2,1.9c4.9,1.3,9,3,12.5,5.2s6.1,4.8,8,7.7c1.9,2.9,2.8,6.1,2.8,9.4c0,0.4,0,0.7,0,1
		c0,0.3,0,0.7,0,1C298.2,407.9,299.4,407.6,300.5,407.2z M280.9,410.1c-0.7-2.2-1.8-4-3.2-5.4c-1.5-1.5-3.1-2.7-5-3.6
		c-1.8-0.9-3.7-1.6-5.7-2.1c-2-0.5-3.8-0.8-5.4-0.9c-0.2,5.7-0.3,11.5-0.3,17.2c0,2.5,0,5.1,0.1,7.6c0,2.6,0.1,5.1,0.2,7.7
		c2.3-0.7,4.5-1.7,6.5-2.9c2-1.2,3.7-2.7,5.1-4.4c1.4-1.7,2.4-3.7,3.1-5.9c0.7-2.2,0.9-4.6,0.5-7.3c0.6,0,1.2,0,1.9,0
		C279.4,410.2,280.1,410.1,280.9,410.1z"/>
	<path class="st1" d="M369.5,419c-0.3,2.4-1,4.6-2.1,6.5c-1.1,2-2.4,3.7-3.9,5.3c-1.6,1.6-3.3,2.9-5.2,4.1c-1.9,1.2-3.9,2.1-6,2.9
		c-2.1,0.8-4.1,1.3-6.2,1.7c-2.1,0.4-4.1,0.6-5.9,0.6c-4.8,0-9.2-0.6-13.2-1.8c-4-1.2-7.5-3.1-10.6-5.5c-3.1-2.5-5.6-5.5-7.6-9.2
		c-2-3.7-3.5-8-4.4-12.9c0.7,0.2,1.4,0.4,2,0.6s1.3,0.3,2,0.5c0.5-4.8,2-8.9,4.3-12.5c2.3-3.6,5.4-6.6,9.1-9s8-4.2,12.9-5.5
		c4.9-1.2,10.1-1.8,15.8-1.8c2.6,0,5.4,0.1,8.3,0.4c3,0.2,6.2,0.6,9.8,1.2c-0.7,2.1-1.3,4.3-1.6,6.4c-0.3,2.1-0.5,4.3-0.5,6.5
		c0,1.1,0.1,2.3,0.2,3.5c0.1,1.3,0.3,2.7,0.6,4.4c-1.9-1.3-3.7-2.3-5.4-3.2c-1.7-0.9-3.3-1.5-4.9-2s-3-0.9-4.4-1.1
		c-1.4-0.2-2.7-0.3-3.9-0.3c-2.3,0-4.6,0.3-7,0.9c-2.4,0.6-4.7,1.4-6.9,2.5c-2.2,1.1-4.1,2.5-5.9,4.1c-1.7,1.6-3,3.5-3.9,5.6
		c0.9-0.1,1.9-0.3,2.9-0.6s2-0.5,3-0.8c-0.1,0.7-0.2,1.3-0.3,1.8c0,0.6-0.1,1-0.1,1.5c0,2.2,0.4,4.2,1.2,5.9
		c0.8,1.7,1.9,3.2,3.3,4.4c1.4,1.2,3.1,2.1,5,2.7c1.9,0.6,4,0.9,6.2,0.9c1.3,0,2.7-0.1,4.4-0.3c1.7-0.2,3.5-0.6,5.4-1.2
		c2-0.6,4.1-1.5,6.3-2.6S367,420.8,369.5,419z"/>
	<path class="st1" d="M430.8,385c-1,0.8-2,1.7-2.9,2.6c-0.9,0.9-1.8,1.9-2.6,2.9c2.8,0.5,5.4,1.4,7.9,2.5c2.5,1.2,4.6,2.6,6.5,4.4
		c1.8,1.8,3.3,3.8,4.4,6.2c1.1,2.3,1.6,5,1.6,7.8c0,3.3-0.5,6.2-1.6,8.8c-1.1,2.6-2.6,5-4.5,7c-1.9,2.1-4.2,3.8-6.8,5.3
		c-2.6,1.5-5.4,2.7-8.5,3.7c-3,1-6.3,1.7-9.6,2.2c-3.4,0.5-6.8,0.7-10.2,0.7c-1.2,0-2.5,0-3.8-0.1c-1.3,0-2.6-0.1-3.8-0.2
		s-2.4-0.2-3.4-0.4c-1-0.2-1.9-0.4-2.6-0.6c0.8-0.7,1.6-1.4,2.4-2.1c0.8-0.7,1.4-1.4,2.1-2.1c-2.8-0.5-5.4-1.3-7.9-2.4
		c-2.5-1.1-4.6-2.4-6.5-4.1c-1.9-1.7-3.3-3.6-4.4-5.9c-1.1-2.3-1.6-4.9-1.6-7.8c0-3.4,0.6-6.5,1.9-9.3c1.3-2.8,3-5.2,5.2-7.4
		c2.2-2.2,4.8-4,7.7-5.5s6.1-2.8,9.5-3.8c3.4-1,6.9-1.7,10.6-2.2s7.3-0.7,11-0.7c1.5,0,3.1,0,4.6,0.1c1.6,0.1,3.2,0.2,5,0.3H430.8z
		 M426.4,408.4c0-2.5-0.5-4.6-1.6-6.2c-1.1-1.6-2.5-2.9-4.3-3.8c-0.3,0.8-0.6,1.6-0.9,2.4c-0.3,0.8-0.6,1.6-0.8,2.5
		c-2.1-0.6-3.8-1-5.2-1.2c-1.4-0.2-2.6-0.3-3.5-0.3c-1.9,0-3.7,0.3-5.6,0.9c-1.9,0.6-3.6,1.5-5.1,2.7c-1.5,1.2-2.7,2.6-3.7,4.3
		c-1,1.7-1.4,3.6-1.4,5.7c0,2,0.5,3.8,1.5,5.5s2.4,3.2,4,4.6c0.3-0.9,0.5-1.8,0.6-2.8c0.1-0.9,0.2-1.9,0.3-2.9
		c2.2,1,4.1,1.7,5.8,2.1c1.7,0.4,3.2,0.6,4.4,0.6c2,0,3.9-0.3,5.7-1c1.9-0.6,3.5-1.6,5-2.8c1.5-1.2,2.6-2.7,3.5-4.4
		C425.9,412.5,426.4,410.5,426.4,408.4z"/>
	<path class="st1" d="M519.9,434.2c-4.3,0.3-8.5,1.1-12.6,2.2c-4.1,1.2-8.2,2.8-12.4,4.8c-0.7-6.4-2.2-12.2-4.7-17.6
		c-1.2,0.3-2.4,0.5-3.6,0.6c-1.2,0.1-2.5,0.2-3.8,0.2c-0.5,0-1,0-1.5,0s-1,0-1.5-0.1c0.1,4.6,0.3,9.1,0.5,13.7
		c-0.9-0.1-1.9-0.2-2.8-0.3c-0.9,0-1.8-0.1-2.7-0.1c-2.9,0-6.1,0.3-9.6,1s-7.2,1.7-11.3,3c1.5-4.1,2.8-8.1,3.9-12.1
		c1.1-4,1.9-8.1,2.5-12.2c-2-1.3-3.7-2.6-5.2-3.9s-2.5-2.3-3.3-3.2c1.4,0.4,2.9,0.8,4.5,1.2c1.6,0.4,3.1,0.7,4.7,0.9
		c0.4-3.4,0.5-6.8,0.5-10.2v-1.6c-1.6,0.5-3.2,1-4.7,1.6s-3.1,1.2-4.7,1.9c0.9-3,1.4-5.7,1.4-8.2c0-2.1-0.3-4.1-0.8-6
		s-1.3-3.6-2.3-5.3c6.4-0.9,12-1.5,16.9-1.8c4.9-0.3,9.3-0.5,13.1-0.5c1.8,0,3.8,0,6.1,0.1c2.3,0.1,4.7,0.3,7.1,0.6
		c2.4,0.3,4.8,0.7,7.2,1.3c2.4,0.6,4.6,1.3,6.6,2.3s3.7,2.2,5.2,3.7c1.4,1.5,2.4,3.3,2.9,5.3c0.7-0.3,1.3-0.6,2-1s1.3-0.7,2-1.1
		c-0.4,2.1-0.9,4.2-1.8,6.4c-0.8,2.1-1.9,4.2-3.1,6.1s-2.6,3.9-4.3,5.6c-1.6,1.8-3.4,3.4-5.3,4.9
		C509.6,423.2,514.4,429.1,519.9,434.2z M489.8,395.7c-1.2,0-2.6,0.1-4.2,0.2c-1.6,0.1-3.4,0.3-5.3,0.5c-0.1,2.8-0.2,5.7-0.2,8.5
		c-0.1,2.8-0.1,5.6-0.1,8.4c1.8-0.3,3.4-0.7,5-1.3s3-1.4,4.2-2.4s2.2-2.2,3-3.6c0.8-1.4,1.3-3.1,1.5-4.9c1.1-0.2,2.3-0.4,3.4-0.5
		c1.2-0.2,2.4-0.4,3.6-0.6c-0.1,0-0.1,0-0.1,0v0h0.1c-0.6-0.7-1.2-1.2-1.8-1.8c-0.6-0.5-1.4-1-2.2-1.3c-0.8-0.4-1.8-0.6-2.9-0.8
		C492.6,395.8,491.3,395.7,489.8,395.7z"/>
	<path class="st1" d="M551.1,436.3c-3,0-5.8,0-8.2,0c-2.4,0-4.7,0.1-6.8,0.2s-4.1,0.3-5.9,0.6c-1.9,0.3-3.8,0.7-5.8,1.2
		c1.8-5.6,3.2-11.1,4.1-16.6c0.9-5.5,1.4-10.9,1.4-16.4c0-4.9-0.4-9.9-1.2-15c-1.8-0.3-3.7-0.5-5.5-0.7h-0.2l5.3-1.3l-0.9-4.5
		c1.7,0.5,3.5,1,5.1,1.4c1.7,0.4,3.4,0.8,5.1,1.1c5-0.9,10-1.6,15-2.1s10.1-0.7,15.3-0.7c2.3,0,4.6,0.1,6.8,0.2
		c2.3,0.1,4.8,0.3,7.4,0.4c-0.6,2.2-1.1,4.4-1.4,6.7s-0.5,4.5-0.5,6.8c0,0.7,0,1.5,0.1,2.5c0,0.9,0.1,1.9,0.3,3
		c-5.1-1.9-10.1-3.6-15.2-5.2c-5.1-1.5-10.2-2.8-15.4-4c-0.2,2-0.4,4-0.6,6c-0.1,2-0.2,4-0.3,6c2.5-0.5,5.1-0.8,7.7-1
		c2.6-0.2,5.3-0.4,8.2-0.4c-0.3,1.1-0.5,2.2-0.6,3.3c-0.2,1.1-0.2,2.2-0.2,3.4c0,1.7,0.3,3.7,0.8,5.8c-2.7-1.1-5.3-2.1-7.9-3
		c-2.6-0.9-5.2-1.8-7.9-2.5c0,2.4,0,4.9,0.1,7.5c0.1,2.6,0.3,5.2,0.5,7.8c5.1-0.7,10.1-1.6,15.3-2.7c5.1-1.1,10.3-2.5,15.6-4.2
		c-0.4,1.9-0.6,3.8-0.8,5.6c-0.2,1.8-0.3,3.6-0.3,5.2c0,3.1,0.4,6.3,1.1,9.6c-5-1.1-10-2.1-14.9-2.9c-4.9-0.8-9.8-1.4-14.9-2
		L551.1,436.3z"/>
</g>
</svg>
