<?xml version="1.0" encoding="utf-8"?>
<!-- Generator: Adobe Illustrator 22.0.1, SVG Export Plug-In . SVG Version: 6.00 Build 0)  -->
<svg version="1.1"
	 id="svg3774" xmlns:cc="http://creativecommons.org/ns#" xmlns:dc="http://purl.org/dc/elements/1.1/" xmlns:rdf="http://www.w3.org/1999/02/22-rdf-syntax-ns#" xmlns:svg="http://www.w3.org/2000/svg"
	 xmlns="http://www.w3.org/2000/svg" xmlns:xlink="http://www.w3.org/1999/xlink" x="0px" y="0px" viewBox="0 0 300 300"
	 style="enable-background:new 0 0 300 300;" xml:space="preserve">
<style type="text/css">
	.st0{fill:#FFFC00;}
	.st1{fill:#FFFFFF;}
	.st2{fill:#030303;}
</style>
<g id="layer1" transform="translate(-73.529107,-433.11881)">
	<g id="g3646" transform="matrix(4.370655,0,0,-4.370655,325.04631,434.11881)">
		<path id="path3648" class="st0" d="M0,0c6,0,10.9-4.9,10.9-10.9v-46.5c0-6-4.9-10.9-10.9-10.9h-46.5c-6,0-10.9,4.9-10.9,10.9v46.5
			c0,6,4.9,10.9,10.9,10.9H0z"/>
	</g>
	<g id="g3650" transform="matrix(4.370655,0,0,-4.370655,224.62439,685.45071)">
		<path id="path3652" class="st1" d="M0,0c-0.1,0-0.3,0-0.4,0c-0.1,0-0.2,0-0.2,0c-3,0-4.9,1.3-6.7,2.6c-1.3,0.9-2.5,1.7-3.9,2
			c-0.7,0.1-1.4,0.2-2,0.2c-1.2,0-2.1-0.2-2.8-0.3c-0.4-0.1-0.8-0.2-1.1-0.2c-0.3,0-0.6,0.1-0.7,0.5C-18,5.2-18,5.6-18.1,6
			c-0.2,1-0.4,1.6-0.8,1.6c-4.7,0.7-6,1.7-6.3,2.4c0,0.1-0.1,0.2-0.1,0.3c0,0.3,0.2,0.5,0.4,0.6c7.2,1.2,10.4,8.6,10.6,8.9
			c0,0,0,0,0,0c0.4,0.9,0.5,1.7,0.3,2.3c-0.5,1.2-2.1,1.7-3.2,2c-0.3,0.1-0.5,0.2-0.7,0.2c-2.1,0.8-2.3,1.7-2.2,2.1
			c0.1,0.8,1.1,1.3,2,1.3c0.2,0,0.4,0,0.6-0.1c1-0.4,1.8-0.7,2.6-0.7c1,0,1.5,0.4,1.5,0.5c0,0.5-0.1,1-0.1,1.5
			c-0.2,3.4-0.5,7.6,0.6,10.1c3.2,7.3,10.1,7.8,12.1,7.8c0.1,0,0.9,0,0.9,0h0.1c2,0,8.9-0.6,12.1-7.8c1.1-2.4,0.8-6.7,0.6-10.1
			l0-0.1c0-0.5-0.1-0.9-0.1-1.4c0.1-0.1,0.5-0.5,1.4-0.5h0c0.7,0,1.5,0.3,2.4,0.7c0.3,0.1,0.6,0.1,0.8,0.1c0.3,0,0.6-0.1,0.9-0.2
			l0,0c0.7-0.3,1.2-0.8,1.2-1.3c0-0.5-0.4-1.3-2.2-2c-0.2-0.1-0.4-0.2-0.7-0.2c-1.1-0.3-2.7-0.9-3.2-2c-0.3-0.6-0.2-1.4,0.3-2.3
			c0,0,0,0,0,0c0.1-0.3,3.4-7.7,10.6-8.9c0.3,0,0.5-0.3,0.4-0.6c0-0.1,0-0.2-0.1-0.3c-0.3-0.7-1.6-1.7-6.3-2.4
			c-0.4-0.1-0.5-0.6-0.8-1.6c-0.1-0.4-0.2-0.8-0.3-1.2c-0.1-0.3-0.3-0.5-0.7-0.5h-0.1c-0.2,0-0.6,0-1.1,0.1
			c-0.8,0.2-1.7,0.3-2.8,0.3c-0.7,0-1.3-0.1-2-0.2C9.2,4.4,8,3.5,6.7,2.6C4.9,1.3,3,0,0,0"/>
	</g>
	<g id="g3654" transform="matrix(4.370655,0,0,-4.370655,225.4015,482.85644)">
		<path id="path3656" class="st2" d="M0,0c1.9,0,8.5-0.5,11.7-7.5c1-2.3,0.8-6.5,0.6-9.8c0-0.5-0.1-1-0.1-1.5l0-0.2l0.1-0.2
			c0.1-0.1,0.6-0.6,1.8-0.7l0,0l0,0c0.8,0,1.7,0.3,2.6,0.7c0.1,0.1,0.3,0.1,0.5,0.1c0.2,0,0.5,0,0.7-0.1l0,0
			c0.5-0.2,0.9-0.5,0.9-0.8c0-0.2-0.1-0.8-1.9-1.5c-0.2-0.1-0.4-0.1-0.7-0.2c-1.2-0.4-2.9-0.9-3.5-2.3c-0.3-0.8-0.2-1.7,0.3-2.8
			c0.2-0.5,3.5-8,11-9.2c0,0,0-0.1,0-0.1c-0.1-0.3-0.9-1.3-5.9-2.1c-0.8-0.1-1-1-1.2-2c-0.1-0.4-0.2-0.7-0.3-1.1
			c0-0.1,0-0.1-0.2-0.1h-0.1c-0.2,0-0.6,0-0.9,0.1c-0.7,0.1-1.7,0.3-2.9,0.3c-0.7,0-1.4-0.1-2.1-0.2c-1.5-0.3-2.8-1.1-4.1-2.1
			c-1.8-1.3-3.6-2.5-6.4-2.5c-0.1,0-0.2,0-0.4,0l0,0l0,0c-0.1,0-0.1,0-0.2,0c-2.8,0-4.6,1.3-6.4,2.5c-1.3,0.9-2.6,1.8-4.1,2.1
			c-0.7,0.1-1.4,0.2-2.1,0.2c-1.2,0-2.2-0.2-2.9-0.3c-0.4-0.1-0.7-0.1-0.9-0.1c-0.2,0-0.2,0-0.2,0.1c-0.1,0.4-0.2,0.8-0.3,1.1
			c-0.2,1-0.4,1.9-1.2,2c-5,0.8-5.8,1.8-5.9,2.1c0,0,0,0.1,0,0.1c7.5,1.2,10.8,8.7,11,9.2c0.5,1,0.6,2,0.3,2.7
			c-0.6,1.4-2.3,1.9-3.5,2.3c-0.3,0.1-0.5,0.2-0.7,0.2c-1.5,0.6-2,1.2-1.9,1.6c0.1,0.4,0.8,0.8,1.4,0.8c0.1,0,0.3,0,0.4-0.1
			c1-0.5,2-0.7,2.8-0.7c1.3,0,1.9,0.6,1.9,0.7l0.1,0.2l0,0.2c0,0.5-0.1,1-0.1,1.5c-0.2,3.4-0.5,7.5,0.6,9.8C-9.5-0.5-3,0-1,0
			c0,0,0.9,0,0.9,0C-0.1,0,0,0,0,0 M0,1.1L0,1.1h-0.1c0,0-0.8,0-0.9,0c-2.1,0-9.2-0.6-12.6-8.1c-1.1-2.5-0.9-6.8-0.6-10.3
			c0-0.4,0.1-0.8,0.1-1.2c-0.2-0.1-0.5-0.2-1-0.2c-0.7,0-1.5,0.2-2.3,0.6c-0.2,0.1-0.5,0.2-0.8,0.2c-1,0-2.3-0.7-2.5-1.7
			c-0.1-0.7,0.2-1.8,2.6-2.7c0.2-0.1,0.5-0.2,0.7-0.3c1-0.3,2.5-0.8,2.9-1.7c0.2-0.5,0.1-1.1-0.2-1.9c0,0,0,0,0-0.1
			c-0.1-0.3-3.3-7.4-10.2-8.6c-0.5-0.1-0.9-0.6-0.9-1.1c0-0.2,0-0.3,0.1-0.5c0.5-1.2,2.7-2.1,6.7-2.7c0.1-0.2,0.3-0.8,0.4-1.2
			c0.1-0.4,0.2-0.8,0.3-1.2c0.1-0.4,0.4-0.9,1.2-0.9c0.3,0,0.7,0.1,1.2,0.2c0.7,0.1,1.6,0.3,2.7,0.3c0.6,0,1.3-0.1,1.9-0.2
			c1.3-0.2,2.4-1,3.7-1.9c1.8-1.3,3.9-2.7,7-2.7c0.1,0,0.2,0,0.3,0c0.1,0,0.2,0,0.4,0c3.1,0,5.2,1.5,7,2.7c1.3,0.9,2.4,1.7,3.7,1.9
			c0.7,0.1,1.3,0.2,1.9,0.2c1.1,0,1.9-0.1,2.7-0.3c0.5-0.1,0.9-0.1,1.2-0.1h0h0c0.6,0,1,0.3,1.2,0.9c0.1,0.4,0.2,0.8,0.3,1.2
			c0.1,0.4,0.2,1,0.4,1.2c4,0.6,6.2,1.5,6.7,2.7c0.1,0.2,0.1,0.3,0.1,0.5c0,0.5-0.4,1-0.9,1.1c-6.9,1.1-10.1,8.3-10.2,8.6
			c0,0,0,0,0,0.1c-0.4,0.8-0.5,1.4-0.2,1.9c0.4,0.9,1.9,1.4,2.9,1.7c0.3,0.1,0.5,0.2,0.7,0.3c1.7,0.7,2.6,1.5,2.6,2.5
			c0,0.8-0.6,1.4-1.6,1.8l0,0C18-18.1,17.6-18,17.2-18c-0.3,0-0.6,0-1-0.2c-0.8-0.4-1.6-0.6-2.2-0.6c-0.4,0-0.7,0.1-0.9,0.2
			c0,0.4,0,0.7,0.1,1.1l0,0.1c0.2,3.5,0.5,7.8-0.6,10.3C9.3,0.5,2.1,1.1,0,1.1"/>
	</g>
</g>
</svg>
