<?xml version="1.0" encoding="utf-8"?>
<!-- Generator: Adobe Illustrator 21.0.2, SVG Export Plug-In . SVG Version: 6.00 Build 0)  -->
<svg version="1.1" id="Layer_14" xmlns="http://www.w3.org/2000/svg" xmlns:xlink="http://www.w3.org/1999/xlink" x="0px" y="0px"
	 viewBox="0 0 1152 1152" style="enable-background:new 0 0 1152 1152;" xml:space="preserve">
<style type="text/css">
	.st0{fill:#429CD6;}
</style>
<g id="Layer_1_1_">
	<g>
		<g>
			<path class="st0" d="M1127,289c-39.4,17.3-81.7,29.2-126,34.6c45.4-27.2,80-70.1,96.5-121.2c-42.6,25.3-89.4,43.4-139.4,53.4
				c-40-42.6-97.1-69.2-160.1-69.2c-121.2,0-219.4,98.2-219.4,219.4c0,17.3,2,34.1,5.7,50c-182.2-9.1-344-96.5-452.1-229.3
				c-19,32.4-29.8,70.1-29.8,110.4c0,76.1,38.9,143.3,97.6,182.5c-36-1.1-69.8-11.1-99.3-27.5v2.8c0,106.1,75.8,195,176,215.1
				c-18.4,4.8-37.7,7.7-57.9,7.7c-14.2,0-27.8-1.4-41.4-4c27.8,87.1,109,150.7,204.9,152.4c-74.9,58.7-169.7,93.7-272.5,93.7
				c-17.6,0-35.2-1.1-52.2-3.1c97.1,62.4,212.3,98.8,336.3,98.8c403.6-0.6,624.1-334.6,624.1-624.7l-0.9-28.4
				C1060.3,371.6,1097.8,333,1127,289z"/>
		</g>
	</g>
</g>
</svg>
