<?xml version="1.0" encoding="utf-8"?>
<!-- Generator: Adobe Illustrator 22.0.1, SVG Export Plug-In . SVG Version: 6.00 Build 0)  -->
<svg version="1.1" id="Layer_11" xmlns="http://www.w3.org/2000/svg" xmlns:xlink="http://www.w3.org/1999/xlink" x="0px" y="0px"
	 viewBox="0 0 1152 1152" style="enable-background:new 0 0 1152 1152;" xml:space="preserve">
<g>
	<defs>
		<rect id="SVGID_1_" x="61.3" y="43.5" width="1046.1" height="1047.4"/>
	</defs>
	<clipPath id="SVGID_2_">
		<use xlink:href="#SVGID_1_"  style="overflow:visible;"/>
	</clipPath>
</g>
<path d="M583.9,58.1c-195,0-354.7,151.4-367.8,343.1h264.4v-69.1c0-4.8,3.9-8.7,8.7-8.7h189.5c4.8,0,8.7,3.9,8.7,8.7v189.5
	c0,4.8-3.9,8.7-8.7,8.7H489.1c-4.8,0-8.7-3.9-8.7-8.7v-69.1H216c13.2,191.7,172.8,343.1,367.8,343.1
	c203.7,0,368.7-165.1,368.7-368.8S787.5,58.1,583.9,58.1"/>
<path d="M324.5,913.1v91.1c0.1,15.1-3.4,26.1-10.7,32.9c-7.2,6.8-18.7,10.3-34.3,10.3c-15.6,0-27.1-3.4-34.3-10.3
	c-7.2-6.8-10.8-17.8-10.7-32.9v-94.9h-30.4c-2.7-0.1-4,1.2-4,3.9v92.6c0.3,25.1,7.7,42.9,22,53.4c14.3,10.5,33.4,15.5,57.3,15.2
	c23.9,0.3,43-4.7,57.4-15.2c14.4-10.5,21.8-28.3,22.1-53.4v-96.5h-30.4C325.8,909.1,324.5,910.4,324.5,913.1 M765.1,935.6
	c1.2,0,2.2-0.2,2.9-0.7c0.7-0.4,1.2-1.1,1.7-2l8.7-21.8c0.4-1.2,0-1.8-1.3-1.8H654.7c-5.6,0-9.6,0.9-12.1,2.7
	c-2.5,1.8-3.7,4.6-3.7,8.6v141.3c0,3.2,0.9,5.7,2.8,7.2c1.8,1.6,5,2.4,9.3,2.4h114.1c1.2,0,2.2-0.2,2.9-0.7c0.7-0.4,1.2-1.1,1.7-2
	l8.7-21.7c0.4-1.3,0-2-1.3-2H672.8v-28.7c-0.1-4.9,1.4-8.6,4.5-10.9c3.1-2.4,8.3-3.5,15.6-3.5h45.2c1.2,0,2.2-0.2,2.9-0.7
	c0.7-0.4,1.2-1.1,1.7-2l8.4-20.8c0.4-1.3,0-2-1.3-2h-77v-40.7H765.1z M549.7,985.9c6.6-3.5,11.4-8.3,14.4-14.5
	c3-6.2,4.5-13.2,4.5-21c-0.6-17.5-6.7-28.8-18.4-34.1c-11.7-5.3-25.4-7.6-41.1-7.1h-69.1c-5.7,0-9.8,0.9-12.3,2.7
	c-2.5,1.8-3.6,4.6-3.5,8.6v141.3c0,3.2,0.9,5.7,2.8,7.2c1.8,1.6,5,2.4,9.3,2.4h85c16.4,0.1,29.5-3.3,39.5-10.3
	c10-7,15.1-18.5,15.5-34.5c0-9.9-2.2-18.5-6.5-25.8C565.4,993.4,558.7,988.4,549.7,985.9 M457.6,934.9h53.9c8.7,0,14.8,1.7,18.1,5.1
	c3.3,3.4,4.9,8.7,4.8,15.7c0.1,7.1-1.5,12.3-4.8,15.8c-3.3,3.5-9.3,5.2-18.1,5.2h-53.9V934.9z M517.7,1045.7h-60.2v-30.1
	c-0.1-4.9,1.4-8.6,4.6-10.9c3.2-2.4,8.4-3.5,15.7-3.5h39.8c9.4,0,15.9,1.8,19.4,5.5c3.5,3.7,5.2,9.3,5,16.8c0.2,7.4-1.4,12.9-5,16.6
	C533.6,1043.8,527.1,1045.7,517.7,1045.7 M990.6,1068.5l-36.5-62.3c9.3-2.1,17-6.8,23.2-13.9c6.2-7.1,9.4-18.2,9.6-33.2
	c-0.2-19.3-6-32.5-17.3-39.7c-11.3-7.2-27.2-10.6-47.6-10.3h-69.4c-5.6,0-9.6,0.9-12.1,2.7c-2.5,1.8-3.7,4.6-3.7,8.6v147
	c0,2.6,1.3,3.9,4,3.9h29.6V1024c-0.1-4.9,1.4-8.6,4.6-10.9c3.2-2.4,8.4-3.5,15.7-3.5h30.1l32.8,59.2c0.4,0.9,1,1.6,1.7,2
	c0.7,0.4,1.6,0.7,2.9,0.7h30.9c1-0.1,1.6-0.5,1.8-1.1C991,1069.7,991,1069.1,990.6,1068.5 M927.1,984.3h-56.6v-49.1h56.6
	c10.3,0,17.2,2,20.8,6.1c3.5,4.1,5.2,10.2,5,18.4c0.2,8.3-1.4,14.5-5,18.5C944.3,982.3,937.4,984.3,927.1,984.3"/>
</svg>
