<?xml version="1.0" encoding="utf-8"?>
<!-- Generator: Adobe Illustrator 22.0.1, SVG Export Plug-In . SVG Version: 6.00 Build 0)  -->
<svg version="1.1" id="Layer_4" xmlns="http://www.w3.org/2000/svg" xmlns:xlink="http://www.w3.org/1999/xlink" x="0px" y="0px"
	 viewBox="0 0 600 600" style="enable-background:new 0 0 600 600;" xml:space="preserve">
<style type="text/css">
	.st0{fill:#0066B3;}
	.st1{fill:#FAA634;}
</style>
<g>
	<g>
		<polygon class="st0" points="263.4,395.7 220,395.7 247.1,228.8 290.6,228.8 		"/>
		<path class="st0" d="M183.4,228.8L142,343.6l-4.9-24.7l0,0l-14.6-75.1c0,0-1.8-15-20.6-15H33.3l-0.8,2.8c0,0,21,4.4,45.5,19.1
			l37.8,145H161l69.1-166.9H183.4z"/>
		<path class="st0" d="M525.3,395.7h39.9l-34.8-166.9h-34.9c-16.1,0-20.1,12.4-20.1,12.4l-64.8,154.5h45.3l9.1-24.8h55.3
			L525.3,395.7z M477.4,336.7l22.8-62.5l12.8,62.5H477.4z"/>
		<path class="st0" d="M414,268.9l6.2-35.9c0,0-19.1-7.3-39.1-7.3c-21.6,0-72.8,9.4-72.8,55.3c0,43.1,60.1,43.7,60.1,66.3
			c0,22.6-53.9,18.6-71.7,4.3l-6.5,37.5c0,0,19.4,9.4,49.1,9.4c29.7,0,74.4-15.4,74.4-57.2c0-43.4-60.7-47.4-60.7-66.3
			C353,256.3,395.4,258.7,414,268.9z"/>
	</g>
	<path class="st1" d="M137.1,318.9l-14.6-75.1c0,0-1.8-15-20.6-15H33.3l-0.8,2.8c0,0,32.9,6.8,64.5,32.4
		C127.2,288.4,137.1,318.9,137.1,318.9z"/>
</g>
</svg>
