<?xml version="1.0" encoding="utf-8"?>
<!-- Generator: Adobe Illustrator 22.0.1, SVG Export Plug-In . SVG Version: 6.00 Build 0)  -->
<svg version="1.1" id="Layer_8" xmlns="http://www.w3.org/2000/svg" xmlns:xlink="http://www.w3.org/1999/xlink" x="0px" y="0px"
	 viewBox="0 0 600 600" style="enable-background:new 0 0 600 600;" xml:space="preserve">
<style type="text/css">
	.st0{fill:#40AE49;}
	.st1{fill:#FFFFFF;}
</style>
<rect x="-10.4" y="-8.9" class="st0" width="631.5" height="645"/>
<path class="st1" d="M448.6,174.3c-67.6,0-122.4,54.8-122.4,122.4c0,37.4,16.8,70.9,43.3,93.4H233c26.5-22.5,43.3-56,43.3-93.4
	c0-67.6-54.8-122.4-122.4-122.4S31.4,229.2,31.4,296.8c0,67.6,54.8,122.4,122.4,122.4c2.8,0,5.7-0.1,8.5-0.3h276.1v-0.1
	c3.4,0.3,6.8,0.5,10.2,0.5c67.6,0,122.4-54.8,122.4-122.4C571.1,229.2,516.3,174.3,448.6,174.3z M60.1,296.8
	c0-51.7,42-93.7,93.7-93.7s93.7,42,93.7,93.7c0,49.2-38.1,89.6-86.3,93.4h-14.8v0C98.2,386.4,60.1,346,60.1,296.8z M448.6,390.5
	c-51.7,0-93.7-42-93.7-93.7c0-51.7,42-93.7,93.7-93.7s93.7,42,93.7,93.7C542.4,348.5,500.3,390.5,448.6,390.5z"/>
</svg>
