<?xml version="1.0" encoding="utf-8"?>
<!-- Generator: Adobe Illustrator 22.0.1, SVG Export Plug-In . SVG Version: 6.00 Build 0)  -->
<svg version="1.1" id="Layer_3" xmlns="http://www.w3.org/2000/svg" xmlns:xlink="http://www.w3.org/1999/xlink" x="0px" y="0px"
	 viewBox="0 0 300 300" style="enable-background:new 0 0 300 300;" xml:space="preserve">
<path d="M100.6,246.1h12.7l42.2-82l34.8,82h12.2L274.7,80c4-9.3,11.9-14.9,20.3-16.2v-9.9h-58.4v9.9c7.7,1.7,16,4.6,19.6,12.8
	l-53,122.3c-9.6-20.4-19.4-42.7-28.8-64.9c9.7-20.6,17.6-39.7,29.5-58.4c6.9-11,18.2-11.3,24-11.8v-9.8h-62.1v9.8
	c7.7,0,23.9,0.7,16.7,15.8l-18,37.8l-19.1-42.1c-3-6.6,2.8-10.9,12.2-11.4l-0.1-9.9H87.7v9.8c8.3,0.3,20.1,0.2,24.4,7.3
	c13.3,24.5,22.3,49.9,34.4,74.9l-31.5,58.8L62.2,83.2c-6-13.7,8.2-18.1,17.4-19.3l-0.1-10H5v9.8c10.3,3.4,23.5,18.7,27.3,26.4
	C60.1,148.3,74.1,187.3,100.6,246.1L100.6,246.1z"/>
</svg>
