<?xml version="1.0" encoding="utf-8"?>
<!-- Generator: Adobe Illustrator 21.0.2, SVG Export Plug-In . SVG Version: 6.00 Build 0)  -->
<svg version="1.1" id="Layer_6" xmlns="http://www.w3.org/2000/svg" xmlns:xlink="http://www.w3.org/1999/xlink" x="0px" y="0px"
	 viewBox="0 0 1152 1152" style="enable-background:new 0 0 1152 1152;" xml:space="preserve">
<style type="text/css">
	.st0{fill:#FFFFFF;}
	.st1{fill:#231F20;}
	.st2{fill:#FFFFFF;stroke:#231F20;}
	.st3{fill:#231F20;stroke:#FFFFFF;}
</style>
<g>
	<rect x="-5.6" y="-9.1" class="st0" width="1166.3" height="1166.3"/>
	<g>
		<circle class="st0" cx="577.6" cy="574" r="577.4"/>
		<g>
			<circle class="st1" cx="577.6" cy="574" r="547"/>
			<path class="st2" d="M1048.3,489.4H921.2c-31.3-127.4-131.6-227.7-259-259V103.3H492.9v127.1c-127.4,31.3-227.7,131.6-259,259
				H106.8v169.3h127.1c31.3,127.4,131.6,227.7,259,259v127.1h169.3V917.7c127.4-31.3,227.7-131.6,259-259h127.1V489.4z M746.2,489.4
				h-84v-84C698.5,423.6,728,453.1,746.2,489.4z M492.9,405.4v84h-84C427.1,453.1,456.7,423.6,492.9,405.4z M408.9,658.7h84v84
				C456.7,724.5,427.1,694.9,408.9,658.7z M662.2,742.7v-84h84C728,694.9,698.5,724.5,662.2,742.7z"/>
			<path class="st3" d="M1033.1,501.2H908.8C880.9,370.3,777.9,267.3,647,239.4V115.1H504.7v124.3
				C373.9,267.3,270.8,370.3,243,501.2H118.7v142.2H243c27.8,130.9,130.9,233.9,261.8,261.8v124.3H647V905.2
				c130.9-27.8,233.9-130.9,261.8-261.8h124.3V501.2z M766.3,501.2H647V381.9C702,402.5,745.7,446.2,766.3,501.2z M504.7,381.9
				v119.3H385.5C406,446.2,449.7,402.5,504.7,381.9z M385.5,643.5h119.3v119.3C449.7,742.2,406,698.5,385.5,643.5z M647,762.7V643.5
				h119.3C745.7,698.5,702,742.2,647,762.7z"/>
			<path class="st2" d="M1012.7,523.2H890.2C868.6,388.7,762.7,282.3,628.4,260V137.2H525.1v122.6
				c-135.1,21.7-241.8,128.4-263.5,263.5H140.7v103.3h121.2c22.3,134.3,128.7,240.2,263.2,261.8v120.9h103.3V888
				c133.8-22.2,239.3-127.8,261.5-261.5h122.9V523.2z M795.3,523.2H628.4V356.3C711,375.5,776.1,440.6,795.3,523.2z M525.1,356.7
				v166.5H359.8C378.9,441.1,443.2,376.4,525.1,356.7z M360.3,626.5h164.8v164.8C443.8,771.8,379.8,707.8,360.3,626.5z M628.4,791.7
				V626.5h166.5C775.2,708.4,710.4,772.7,628.4,791.7z"/>
			<g>
				<g>
					<polygon class="st2" points="100.8,447.7 194.8,449.1 170.2,406.5 214.4,395.6 155.8,325.5 136.3,346.4 171,378.2 129,386.2 
						152.9,423.8 103.7,417.3 					"/>
					<polygon class="st2" points="165.2,300.1 231.7,357.3 250.5,334.1 225.9,313.9 244.7,288.6 269.3,311 289.6,288.6 223,232.9 
						204.2,255.3 226.7,274.1 209.3,298 184,277 					"/>
					<polygon class="st2" points="251.2,209 305.5,277.7 329.4,259.6 273.7,190.2 					"/>
					<polygon class="st2" points="291,177.2 302.6,196 325,182.3 358.3,240.1 384.3,224.9 351.1,167.8 374.9,154.1 362.6,135.3 
											"/>
					<polygon class="st2" points="385.8,127.3 414.7,211.2 468.2,193.8 459.5,172.1 434.2,180.1 429.9,169.2 451.6,162.7 
						443.6,142.5 423.4,149.7 418.3,135.3 442.9,127.3 434.2,107.8 					"/>
				</g>
				<g>
					<path class="st2" d="M779.9,125.8l-24.2-11.6l-36.9,79.2l25.7,13.4l9.4-20.6c0,0,36.5,11.6,53.5-11.2
						C829.3,145.6,779.9,125.8,779.9,125.8z M781.4,163.8c-5.1,8.3-19.9,5.8-19.9,5.8l11.9-26.8
						C781.4,145.4,786.4,155.5,781.4,163.8z"/>
					<path class="st2" d="M858,192.4l-41.9,57.1l-23.5-17.4l54.6-71.2c0,0,40.1,33.3,40.5,34.7c0.4,1.4,14,16.9,1.8,30.7
						c-10.9,12.3-25,7.2-25,7.2l4,38h-29.7l3.6-54.6l13.7-0.7c0,0,8.5-4.9,10.1-9.4C868.5,200.7,858,192.4,858,192.4z"/>
					<polygon class="st2" points="863.1,288.9 927.5,228.5 948.1,250.2 884.4,311.4 					"/>
					<path class="st2" d="M999.4,326.2c-11.6-23.5-27.5-47.7-27.5-47.7l-74.5,47.4c0,0,28.6,41.9,51.3,47.4
						c17.6,4.2,25.3,3.6,42.3-5.1C1008.1,359.4,999.4,326.2,999.4,326.2z M965.8,347.9c-14.1,7.6-33.3-10.8-33.3-10.8l37.2-23.5
						C978.8,328.7,979.9,340.3,965.8,347.9z"/>
					<polygon class="st2" points="1029.8,378.6 947,410.1 965.8,463.6 986,455.6 976.6,429.6 987.5,424.9 995.4,445.9 1015.3,438.3 
						1007.4,418 1019.7,413 1030.5,436.5 1051.8,428.9 					"/>
				</g>
				<g>
					<polygon class="st2" points="731.9,980.2 806.9,1036.8 812.2,987.9 854.3,1005.1 848.3,913.9 820.2,919.3 829.5,965.5 
						790.9,947.2 788,991.6 752.1,957.4 					"/>
					<polygon class="st2" points="844.1,898.5 901.3,964.8 924.4,945.6 865.7,878.7 					"/>
					<path class="st2" d="M917.8,823.7c-18.4,18.6-36.2,41.5-36.2,41.5l69.1,55c0,0,30.4-40.7,28.1-64c-1.8-18-4.8-25.1-18.6-38.3
						C946.4,804.6,917.8,823.7,917.8,823.7z M949.3,848.4c11.8,10.9,0.6,35,0.6,35l-34.4-27.6C926.9,842.3,937.5,837.6,949.3,848.4z
						"/>
					<polygon class="st2" points="938.2,786.1 1016.7,827.3 1044.3,777.8 1024.9,767.9 1011.6,792.1 1000.9,787.1 1011.4,767.3 
						992.5,757.4 982.6,776.8 970.7,770.9 981.1,747.2 961.3,736.3 					"/>
				</g>
				<g>
					<path class="st2" d="M447.5,978.3c-23.3-12-50.4-22.1-50.4-22.1l-31.8,82.3c0,0,47.9,16.8,69.4,7.7c16.6-7.1,22.5-12.1,31-29.2
						C474.2,1000,447.5,978.3,447.5,978.3z M433.3,1015.8c-6.8,14.5-33.2,11-33.2,11l16-41C432.4,992.6,440.1,1001.3,433.3,1015.8z"
						/>
					<path class="st2" d="M286,900.8l-46.2,53.8l-22.1-19.1l59.9-66.9c0,0,37.5,36.2,37.7,37.7c0.3,1.5,12.7,17.9-0.5,30.8
						c-11.7,11.4-25.4,5.3-25.4,5.3l1.1,38.2l-29.6-2.3l7.8-54.2l13.8,0.3c0,0,8.9-4.2,10.8-8.6C295.8,909.9,286,900.8,286,900.8z"
						/>
					<polygon class="st2" points="155.1,672.7 173.8,693.6 135,727.2 180.3,734 155.1,770.6 202.2,769.2 202.5,796.6 110.9,790.9 
						137.2,750.3 87.3,738.3 					"/>
					<g>
						<path class="st2" d="M173.9,813.3c11.7-8.8,23.5-12.3,35.4-10.5c11.9,1.8,22.6,8.6,32.2,20.5c9.8,12.2,14.2,24,13.1,35.4
							c-1.1,11.4-7.4,21.4-18.9,30.1c-8.4,6.3-16.4,10-24.1,11.1c-7.7,1.1-15.2,0.1-22.6-3.1c-7.4-3.2-14.3-8.9-20.9-17
							c-6.7-8.3-10.9-16.1-12.7-23.4c-1.8-7.3-1.3-14.8,1.6-22.3C159.9,826.4,165.5,819.5,173.9,813.3z M192,836
							c-7.2,5.4-11.3,10.7-12.2,15.8c-0.9,5.1,0.5,10.1,4.3,14.8c3.9,4.9,8.5,7.5,13.8,7.9c5.2,0.4,11.9-2.5,19.9-8.5
							c6.7-5,10.5-10.1,11.4-15.3c0.9-5.1-0.6-10.1-4.5-14.9c-3.7-4.6-8.2-7.1-13.6-7.5C205.6,828,199.3,830.5,192,836z"/>
					</g>
					<polygon class="st2" points="343.3,923.6 368.2,939.8 334.1,995.2 357.4,1008.7 345.4,1029.9 298.8,999.5 					"/>
				</g>
			</g>
		</g>
	</g>
</g>
</svg>
