<?xml version="1.0" encoding="utf-8"?>
<!-- Generator: Adobe Illustrator 21.0.2, SVG Export Plug-In . SVG Version: 6.00 Build 0)  -->
<svg version="1.1" id="Layer_6" xmlns="http://www.w3.org/2000/svg" xmlns:xlink="http://www.w3.org/1999/xlink" x="0px" y="0px"
	 viewBox="0 0 1152 1152" style="enable-background:new 0 0 1152 1152;" xml:space="preserve">
<style type="text/css">
	.st0{fill:#FFFFFF;}
	.st1{fill:#231F20;}
	.st2{fill:#FFFFFF;stroke:#231F20;}
	.st3{fill:#231F20;stroke:#FFFFFF;}
</style>
<g>
	<g>
		<circle class="st0" cx="577.6" cy="574" r="553.4"/>
		<g>
			<circle class="st1" cx="577.6" cy="574" r="524.3"/>
			<path class="st2" d="M1028.8,492.9H907c-30-122.2-126.1-218.3-248.3-248.3V122.8H496.4v121.8c-122.2,30-218.3,126.1-248.3,248.3
				H126.3v162.3h121.8c30,122.2,126.1,218.3,248.3,248.3v121.8h162.3V903.5C780.9,873.5,877,777.3,907,655.2h121.8V492.9z
				 M739.2,492.9h-80.5v-80.5C693.4,429.8,721.8,458.1,739.2,492.9z M496.4,412.3v80.5h-80.5C433.3,458.1,461.7,429.8,496.4,412.3z
				 M415.9,655.2h80.5v80.5C461.7,718.2,433.3,689.9,415.9,655.2z M658.7,735.7v-80.5h80.5C721.8,689.9,693.4,718.2,658.7,735.7z"/>
			<path class="st3" d="M1014.2,504.2H895C868.4,378.8,769.6,280,644.1,253.3V134.1H507.8v119.2C382.3,280,283.5,378.8,256.8,504.2
				H137.7v136.3h119.2C283.5,766,382.3,864.8,507.8,891.5v119.2h136.3V891.5C769.6,864.8,868.4,766,895,640.6h119.2V504.2z
				 M758.4,504.2H644.1V389.9C696.8,409.6,738.7,451.5,758.4,504.2z M507.8,389.9v114.3H393.4C413.1,451.5,455,409.6,507.8,389.9z
				 M393.4,640.6h114.3v114.3C455,735.2,413.1,693.3,393.4,640.6z M644.1,754.9V640.6h114.3C738.7,693.3,696.8,735.2,644.1,754.9z"
				/>
			<path class="st2" d="M994.7,525.3H877.2c-20.7-129-122.2-230.9-251-252.3V155.2h-99v117.5c-129.5,20.8-231.8,123.1-252.6,252.6
				H158.8v99h116.2c21.4,128.8,123.3,230.3,252.3,251v115.9h99V875c128.2-21.3,229.4-122.5,250.7-250.7h117.8V525.3z M786.3,525.3
				h-160v-160C705.5,383.7,767.8,446.1,786.3,525.3z M527.2,365.7v159.6H368.9C387.1,446.6,448.8,384.6,527.2,365.7z M369.3,624.3
				h158v158C449.3,763.6,388,702.3,369.3,624.3z M626.2,782.7V624.3h159.6C767,702.8,704.9,764.4,626.2,782.7z"/>
			<g>
				<g>
					<polygon class="st2" points="120.6,452.9 210.7,454.3 187.1,413.4 229.4,403 173.3,335.8 154.5,355.9 187.8,386.4 147.6,394 
						170.5,430 123.3,423.8 					"/>
					<polygon class="st2" points="182.3,311.5 246,366.3 264.1,344.1 240.5,324.7 258.5,300.4 282.1,321.9 301.5,300.4 237.7,247 
						219.7,268.5 241.2,286.5 224.6,309.4 200.3,289.3 					"/>
					<polygon class="st2" points="264.8,224.1 316.8,290 339.6,272.7 286.3,206.1 					"/>
					<polygon class="st2" points="302.9,193.6 314,211.7 335.5,198.5 367.4,253.9 392.3,239.4 360.4,184.6 383.3,171.4 371.5,153.4 
											"/>
					<polygon class="st2" points="393.7,145.8 421.4,226.2 472.7,209.6 464.4,188.8 440.2,196.4 436,186 456.8,179.8 449.2,160.4 
						429.8,167.3 424.9,153.4 448.5,145.8 440.2,127.1 					"/>
				</g>
				<g>
					<path class="st2" d="M771.5,144.4l-23.2-11.1L713,209.2l24.6,12.8l9-19.8c0,0,35,11.1,51.3-10.7
						C818.9,163.3,771.5,144.4,771.5,144.4z M772.9,180.8c-4.9,8-19.1,5.5-19.1,5.5l11.4-25.7C772.9,163.1,777.8,172.8,772.9,180.8z
						"/>
					<path class="st2" d="M846.4,208.2L806.2,263l-22.5-16.6L836,178c0,0,38.5,31.9,38.8,33.3c0.3,1.4,13.4,16.2,1.7,29.5
						c-10.4,11.8-23.9,6.9-23.9,6.9l3.8,36.4H828l3.5-52.3l13.2-0.7c0,0,8.2-4.7,9.7-9C856.5,216.2,846.4,208.2,846.4,208.2z"/>
					<polygon class="st2" points="851.3,300.7 913,242.9 932.7,263.7 871.7,322.2 					"/>
					<path class="st2" d="M981.9,336.4c-11.1-22.5-26.3-45.8-26.3-45.8l-71.4,45.4c0,0,27.4,40.2,49.2,45.4
						c16.9,4,24.3,3.5,40.6-4.9C990.3,368.3,981.9,336.4,981.9,336.4z M949.7,357.2c-13.5,7.3-31.9-10.4-31.9-10.4l35.7-22.5
						C962.2,338.9,963.2,350,949.7,357.2z"/>
					<polygon class="st2" points="1011.1,386.7 931.7,416.9 949.7,468.2 969.1,460.5 960.1,435.6 970.5,431.1 978.1,451.2 
						997.2,443.9 989.6,424.5 1001.4,419.6 1011.8,442.2 1032.2,434.9 					"/>
				</g>
				<g>
					<polygon class="st2" points="725.5,963.4 797.4,1017.7 802.5,970.7 842.8,987.3 837.1,899.8 810.2,905 819,949.3 782.1,931.7 
						779.3,974.4 744.9,941.5 					"/>
					<polygon class="st2" points="833,885.1 887.9,948.6 910,930.2 853.7,866.1 					"/>
					<path class="st2" d="M903.7,813.3C886,831.2,869,853.2,869,853.2l66.2,52.7c0,0,29.1-39,26.9-61.3
						c-1.7-17.2-4.6-24.1-17.8-36.8C931.1,795.1,903.7,813.3,903.7,813.3z M933.9,837c11.3,10.4,0.6,33.5,0.6,33.5l-32.9-26.4
						C912.4,831.2,922.6,826.6,933.9,837z"/>
					<polygon class="st2" points="923.3,777.3 998.5,816.8 1025,769.3 1006.4,759.8 993.7,783.1 983.4,778.3 993.4,759.3 
						975.3,749.8 965.8,768.4 954.4,762.8 964.4,740 945.4,729.5 					"/>
				</g>
				<g>
					<path class="st2" d="M452.9,961.6c-22.3-11.6-48.4-21.2-48.4-21.2l-30.5,78.9c0,0,45.9,16.1,66.6,7.3c16-6.8,21.6-11.6,29.8-28
						C478.5,982.3,452.9,961.6,452.9,961.6z M439.3,997.5c-6.6,13.9-31.8,10.6-31.8,10.6l15.4-39.3
						C438.4,975.3,445.8,983.6,439.3,997.5z"/>
					<path class="st2" d="M298,887.3l-44.3,51.6l-21.2-18.3l57.4-64.1c0,0,35.9,34.7,36.2,36.1c0.2,1.4,12.1,17.2-0.5,29.5
						c-11.3,11-24.4,5.1-24.4,5.1l1,36.6l-28.3-2.2l7.4-51.9l13.2,0.3c0,0,8.5-4,10.4-8.3C307.5,896,298,887.3,298,887.3z"/>
					<polygon class="st2" points="172.6,668.6 190.5,688.6 153.3,720.9 196.7,727.4 172.6,762.5 217.8,761.2 218.1,787.4 130.2,782 
						155.4,743 107.6,731.5 					"/>
					<g>
						<path class="st2" d="M190.6,803.4c11.2-8.4,22.5-11.7,33.9-10c11.4,1.7,21.7,8.3,30.9,19.7c9.4,11.7,13.6,23,12.6,34
							c-1,10.9-7.1,20.5-18.1,28.8c-8,6-15.7,9.6-23.1,10.6c-7.4,1.1-14.6,0.1-21.7-3c-7.1-3.1-13.7-8.5-20-16.3
							c-6.4-7.9-10.4-15.4-12.2-22.5c-1.7-7-1.2-14.2,1.5-21.4C177.2,816,182.6,809.4,190.6,803.4z M207.9,825.1
							c-6.9,5.2-10.8,10.2-11.7,15.2c-0.9,4.9,0.5,9.6,4.2,14.2c3.8,4.7,8.2,7.2,13.2,7.5c5,0.3,11.4-2.4,19-8.1
							c6.5-4.8,10.1-9.7,10.9-14.6c0.8-4.9-0.6-9.7-4.3-14.2c-3.5-4.4-7.9-6.8-13.1-7.2C221,817.5,214.9,819.9,207.9,825.1z"/>
					</g>
					<polygon class="st2" points="353,909.1 376.9,924.7 344.1,977.7 366.5,990.7 355.1,1011 310.3,981.9 					"/>
				</g>
			</g>
		</g>
	</g>
</g>
</svg>
