<?xml version="1.0" encoding="utf-8"?>
<!-- Generator: Adobe Illustrator 22.0.1, SVG Export Plug-In . SVG Version: 6.00 Build 0)  -->
<svg version="1.1" id="Brazzers" xmlns="http://www.w3.org/2000/svg" xmlns:xlink="http://www.w3.org/1999/xlink" x="0px" y="0px"
	 viewBox="0 0 600 600" style="enable-background:new 0 0 600 600;" xml:space="preserve">
<style type="text/css">
	.st0{fill:url(#SVGID_1_);}
	.st1{fill:url(#SVGID_2_);}
	.st2{fill:url(#SVGID_3_);}
	.st3{fill:url(#SVGID_4_);}
	.st4{fill:url(#SVGID_5_);}
	.st5{fill:url(#SVGID_6_);}
	.st6{fill:url(#SVGID_7_);}
</style>
<linearGradient id="SVGID_1_" gradientUnits="userSpaceOnUse" x1="83.2842" y1="556.1021" x2="83.2842" y2="474.485" gradientTransform="matrix(3.6443 0 0 -3.6443 -2.6443 2191.2551)">
	<stop  offset="0" style="stop-color:#333333"/>
	<stop  offset="1" style="stop-color:#010101"/>
</linearGradient>
<path class="st0" d="M589.5,422.8c0,21.6-12.8,39.3-28.6,39.3H40.8c-15.8,0-28.6-17.4-28.6-39.3V204c0-21.6,12.8-39.3,28.6-39.3H561
	c15.8,0,28.6,17.4,28.6,39.3L589.5,422.8L589.5,422.8z"/>
<g>
	
		<linearGradient id="SVGID_2_" gradientUnits="userSpaceOnUse" x1="45.7354" y1="536.4738" x2="45.7354" y2="479.4644" gradientTransform="matrix(3.6443 0 0 -3.6443 -2.6443 2191.2551)">
		<stop  offset="0" style="stop-color:#F09421"/>
		<stop  offset="0.396" style="stop-color:#FDEB07"/>
		<stop  offset="1" style="stop-color:#F09421"/>
	</linearGradient>
	<path class="st1" d="M95.1,422.8H32.4L233,206.3h62.7L95.1,422.8z"/>
	
		<linearGradient id="SVGID_3_" gradientUnits="userSpaceOnUse" x1="44.7505" y1="535.55" x2="44.7505" y2="479.568" gradientTransform="matrix(3.6443 0 0 -3.6443 -2.6443 2191.2551)">
		<stop  offset="0" style="stop-color:#F09421"/>
		<stop  offset="0.396" style="stop-color:#FDEB07"/>
		<stop  offset="1" style="stop-color:#F09421"/>
	</linearGradient>
	<path class="st2" d="M64.1,206.3h192.7v41.2H64.1V206.3z"/>
	
		<linearGradient id="SVGID_4_" gradientUnits="userSpaceOnUse" x1="48.0161" y1="535.55" x2="48.0161" y2="479.568" gradientTransform="matrix(3.6443 0 0 -3.6443 -2.6443 2191.2551)">
		<stop  offset="0" style="stop-color:#F09421"/>
		<stop  offset="0.396" style="stop-color:#FDEB07"/>
		<stop  offset="1" style="stop-color:#F09421"/>
	</linearGradient>
	<path class="st3" d="M71.3,382h202.1v41.2H71.3V382z"/>
</g>
<g>
	
		<linearGradient id="SVGID_5_" gradientUnits="userSpaceOnUse" x1="120.7927" y1="536.5069" x2="120.7927" y2="479.4602" gradientTransform="matrix(3.6443 0 0 -3.6443 -2.6443 2191.2551)">
		<stop  offset="0" style="stop-color:#F09421"/>
		<stop  offset="0.396" style="stop-color:#FDEB07"/>
		<stop  offset="1" style="stop-color:#F09421"/>
	</linearGradient>
	<path class="st4" d="M369,422.8h-62.7l199.9-216.5h62.7L369,422.8z"/>
	
		<linearGradient id="SVGID_6_" gradientUnits="userSpaceOnUse" x1="119.9115" y1="535.55" x2="119.9115" y2="479.568" gradientTransform="matrix(3.6443 0 0 -3.6443 -2.6443 2191.2551)">
		<stop  offset="0" style="stop-color:#F09421"/>
		<stop  offset="0.396" style="stop-color:#FDEB07"/>
		<stop  offset="1" style="stop-color:#F09421"/>
	</linearGradient>
	<path class="st5" d="M338,206.3h192.7v41.2H338V206.3z"/>
	
		<linearGradient id="SVGID_7_" gradientUnits="userSpaceOnUse" x1="123.1772" y1="535.55" x2="123.1772" y2="479.568" gradientTransform="matrix(3.6443 0 0 -3.6443 -2.6443 2191.2551)">
		<stop  offset="0" style="stop-color:#F09421"/>
		<stop  offset="0.396" style="stop-color:#FDEB07"/>
		<stop  offset="1" style="stop-color:#F09421"/>
	</linearGradient>
	<path class="st6" d="M345.2,382h202.1v41.2H345.2V382z"/>
</g>
</svg>
